<svg id="Camada_1" data-name="Camada 1" xmlns="http://www.w3.org/2000/svg" viewBox="0 0 454.92 374.78"><defs><style>.cls-1{fill:#ececec;}.cls-2{fill:#e1e1e1;}.cls-3{fill:#f5f5f5;}.cls-4{fill:#fff;}.cls-5{fill:none;stroke:#fbfbfb;stroke-miterlimit:10;stroke-width:0.25px;}.cls-6{fill:#1a2e35;}.cls-7{fill:#ff4f5b;}.cls-8{fill:#ffbf9d;}.cls-9{fill:#ff9a6c;}.cls-10{opacity:0.3;}.cls-11{fill:#fafafa;}.cls-12{fill:#375a64;}.cls-13{fill:#c78976;}.cls-14{fill:#8a503f;}.cls-15{opacity:0.6;}</style></defs><path class="cls-1" d="M441,136c-10.17-20.77-26-39.47-47-49.2-36-16.72-80.64-3.25-109.8,23.72-15.48,14.33-27.95,32.31-46.08,43.11-30.7,18.3-70.51,12.09-103.32,26.27-29.7,12.83-50.83,42.43-55.73,74.41s5.67,65.49,26.14,90.53,50.21,41.8,81.76,48.92l37.44,1.09a253,253,0,0,0,105.24-19.16c32.9-13.79,62.62-34.39,85.2-61.91C455.07,264.89,468.87,192.87,441,136Z" transform="translate(-43.87 -23.86)"/><rect class="cls-2" x="288.96" y="79.1" width="50.15" height="72.69"/><rect class="cls-3" x="286.45" y="79.1" width="50.15" height="72.69"/><rect class="cls-4" x="292.68" y="86.97" width="37.69" height="56.95"/><path class="cls-2" d="M374.23,167.77v-.27c0-.19,0-.46,0-.81,0-.72,0-1.77,0-3.13,0-2.72,0-6.7,0-11.73,0-10,0-24.26-.06-41l.12.12-37.68,0h0l.13-.14c0,21.48,0,41.29,0,56.94l-.1-.1,27.43.05,7.58,0h2.67l-.66,0h-2l-7.55,0-27.5,0h-.11v-.11c0-15.65,0-35.46,0-56.94v-.14h37.95v.13c0,16.78-.05,31-.06,41.09,0,5,0,9,0,11.7,0,1.35,0,2.39,0,3.1v.79A2.39,2.39,0,0,1,374.23,167.77Z" transform="translate(-43.87 -23.86)"/><path class="cls-5" d="M372.49,111.21" transform="translate(-43.87 -23.86)"/><path class="cls-2" d="M380.61,103a9.16,9.16,0,0,1-.9,1.29c-.58.78-1.41,1.84-2.35,3s-1.83,2.16-2.48,2.88a10.1,10.1,0,0,1-1.1,1.13,8.8,8.8,0,0,1,1-1.25l2.42-2.93,2.41-2.93A8.43,8.43,0,0,1,380.61,103Z" transform="translate(-43.87 -23.86)"/><path class="cls-4" d="M374.43,167.59a46.49,46.49,0,0,0,6.57,8.22" transform="translate(-43.87 -23.86)"/><path class="cls-2" d="M381,175.81a7,7,0,0,1-1.15-1c-.67-.68-1.56-1.66-2.48-2.8s-1.66-2.23-2.18-3a7.61,7.61,0,0,1-.76-1.35,10.59,10.59,0,0,1,.92,1.24c.55.78,1.33,1.84,2.24,3s1.77,2.13,2.4,2.84A10,10,0,0,1,381,175.81Z" transform="translate(-43.87 -23.86)"/><path class="cls-4" d="M330.31,175.59l6.57-8.11" transform="translate(-43.87 -23.86)"/><path class="cls-2" d="M336.88,167.48a51.35,51.35,0,0,1-3.18,4.14,50.67,50.67,0,0,1-3.39,4,48,48,0,0,1,3.18-4.14A50.39,50.39,0,0,1,336.88,167.48Z" transform="translate(-43.87 -23.86)"/><path class="cls-2" d="M330.31,103a44.1,44.1,0,0,1,3.19,3.81,43.22,43.22,0,0,1,3,4,44.1,44.1,0,0,1-3.19-3.81C331.59,104.79,330.26,103,330.31,103Z" transform="translate(-43.87 -23.86)"/><rect class="cls-2" x="306.01" y="98.53" width="12.62" height="35.83"/><path class="cls-3" d="M283.22,306.36a17.86,17.86,0,0,0-10.5,9.23,31.64,31.64,0,0,0-3,13.92c-.12,9.27,3.9,19.15,8.56,27.16,8.54-5.74,11.8-17.22,13.09-23.15,2-9.38,0-27.55-8.14-27.16" transform="translate(-43.87 -23.86)"/><path class="cls-3" d="M267.41,370.61c1.89-5,.46-10.95-3.06-15a20.19,20.19,0,0,0-14.2-6.5c-2.47-.13-5.21.25-6.86,2.09a6.51,6.51,0,0,0-.94,6.53,13.26,13.26,0,0,0,4.24,5.39c6.13,5,13,8.77,20.82,7.47" transform="translate(-43.87 -23.86)"/><path class="cls-2" d="M273.82,392.89c.13,0,.1-2.34-.27-6.12a28.54,28.54,0,0,0-1.53-6.52,63.91,63.91,0,0,0-3.06-7.57,30.58,30.58,0,0,0-9.52-11.34,22.34,22.34,0,0,0-4-2.17,4.71,4.71,0,0,0-1.59-.46c-.07.17,2.15,1,5.12,3.22a32.67,32.67,0,0,1,9,11.22,73.64,73.64,0,0,1,3.09,7.42,31,31,0,0,1,1.7,6.3C273.38,390.58,273.66,392.91,273.82,392.89Z" transform="translate(-43.87 -23.86)"/><path class="cls-2" d="M283.53,320.34a18.38,18.38,0,0,0-.69,3c-.39,2-.9,4.8-1.5,8.31-1.2,7-2.76,16.74-4.21,27.52s-2.5,20.57-3.1,27.68c-.3,3.55-.51,6.42-.62,8.41a17.43,17.43,0,0,0-.06,3.1,18.31,18.31,0,0,0,.47-3.06c.24-2.17.56-5,.94-8.38.79-7.08,1.94-16.85,3.39-27.61S281,339,282.06,331.78c.48-3.38.87-6.2,1.17-8.35A17.92,17.92,0,0,0,283.53,320.34Z" transform="translate(-43.87 -23.86)"/><path class="cls-3" d="M278.57,375.59a35.62,35.62,0,0,1,25.59-20.1c2.82-.52,6.3-.42,7.85,2s.19,5.64-1.52,8a30.41,30.41,0,0,1-31.94,10.92" transform="translate(-43.87 -23.86)"/><path class="cls-2" d="M300.24,362.94a5,5,0,0,0-1.59.34c-1,.28-2.45.76-4.2,1.42a40.24,40.24,0,0,0-12.62,7.44,25.2,25.2,0,0,0-5,6.4,24.05,24.05,0,0,0-2.29,6.23,24.38,24.38,0,0,0-.56,4.42,5.19,5.19,0,0,0,.05,1.63c.21,0,.3-2.31,1.22-5.87a26.89,26.89,0,0,1,2.42-5.95,25.71,25.71,0,0,1,4.89-6.1,44.88,44.88,0,0,1,12.19-7.52C298.13,363.89,300.3,363.1,300.24,362.94Z" transform="translate(-43.87 -23.86)"/><path class="cls-3" d="M473.81,131.1s-10.48-3.09-14.72,21-4.58,37.36-4.58,37.36-1.47,5.23-5.35,3.29S438.7,184,434,187c-4.83,3.13-4.76,9.57-1.09,17.93s11,27,11.68,28.68.44,4.45-2.41,3.56-21-11.84-25.7-2.91,9.37,30.57,10.86,33,1.32,3.67.28,4.69-6.81-3.23-12.1-6.13-11.95-5.33-14.22.05,2,23.52,27.82,47.23l12.66,10.2,15.33-5.64c32.07-14.08,42-29.84,41.62-35.67s-7.48-5.68-13.43-4.65-12.78,3.19-13.43,1.88-.4-2.56,1.78-4.34,22.48-17.7,20.95-27.67-22.27-5.5-25.25-5.58-2.28-2.79-1.13-4.14,14.17-16.62,20.34-23.35,8.33-12.8,4.78-17.32-11.87,0-16.17.54-4-4.84-4-4.84,4-12.66,7.77-36.84-7.39-24.61-7.39-24.61" transform="translate(-43.87 -23.86)"/><path class="cls-2" d="M470,152.68s0,.18-.05.52l-.21,1.49c-.2,1.33-.48,3.26-.85,5.72-.74,5-1.88,12.16-3.31,21-2.85,17.75-7,42.23-11.69,69.26S445,302.2,442,319.93c-1.47,8.85-2.66,16-3.48,21l-1,5.71c-.12.63-.2,1.12-.26,1.48s-.11.5-.11.5,0-.17,0-.51l.21-1.49c.19-1.33.48-3.26.85-5.73.74-5,1.87-12.15,3.3-21,2.86-17.75,7-42.24,11.7-69.27s8.89-51.49,11.85-69.22c1.46-8.85,2.65-16,3.48-21l.95-5.71.26-1.48C469.93,152.85,470,152.68,470,152.68Z" transform="translate(-43.87 -23.86)"/><path class="cls-2" d="M442.88,197a4.73,4.73,0,0,1,.72.93c.44.61,1,1.53,1.78,2.66,1.47,2.27,3.42,5.45,5.5,9s3.87,6.68,5.29,9.12l1.62,2.76a5.27,5.27,0,0,1,.55,1,4.58,4.58,0,0,1-.73-.92c-.44-.62-1.05-1.53-1.77-2.67-1.45-2.29-3.35-5.5-5.44-9l-5.35-9.09L443.42,198A4.82,4.82,0,0,1,442.88,197Z" transform="translate(-43.87 -23.86)"/><path class="cls-2" d="M459.85,222.32c-.08-.13,6.31-4.43,14.27-9.62s14.48-9.28,14.57-9.16-6.31,4.44-14.27,9.62S459.93,222.45,459.85,222.32Z" transform="translate(-43.87 -23.86)"/><path class="cls-2" d="M450.79,263.5a4.82,4.82,0,0,1,1.13-.41l3.12-.95c2.64-.81,6.27-1.93,10.24-3.32s7.52-2.74,10.08-3.75l3-1.19a4.54,4.54,0,0,1,1.14-.38,5.19,5.19,0,0,1-1.06.57c-.69.34-1.71.81-3,1.36-2.53,1.1-6.07,2.53-10.05,3.91s-7.65,2.46-10.31,3.17c-1.34.35-2.42.62-3.17.79A5.14,5.14,0,0,1,450.79,263.5Z" transform="translate(-43.87 -23.86)"/><path class="cls-2" d="M430.39,243.94a4.23,4.23,0,0,1,.88.68c.55.46,1.32,1.14,2.27,2,1.89,1.71,4.48,4.09,7.32,6.74s5.39,5.08,7.22,6.86c.91.88,1.65,1.61,2.14,2.12a5.13,5.13,0,0,1,.74.83,3.92,3.92,0,0,1-.88-.67c-.55-.47-1.32-1.15-2.27-2-1.89-1.7-4.48-4.08-7.32-6.74s-5.39-5.08-7.22-6.85c-.91-.89-1.65-1.62-2.14-2.13S430.36,244,430.39,243.94Z" transform="translate(-43.87 -23.86)"/><path class="cls-2" d="M417.78,279.28a7.4,7.4,0,0,1,1.11.88l2.91,2.55c2.44,2.17,5.79,5.19,9.46,8.56s7,6.44,9.35,8.68l2.79,2.68a6.41,6.41,0,0,1,1,1,8.76,8.76,0,0,1-1.12-.88c-.76-.68-1.74-1.53-2.91-2.55-2.44-2.17-5.78-5.2-9.45-8.57s-7-6.43-9.35-8.68l-2.79-2.67A6.41,6.41,0,0,1,417.78,279.28Z" transform="translate(-43.87 -23.86)"/><path class="cls-2" d="M443.9,302.9a8.6,8.6,0,0,1,1.42-.55l3.91-1.35c3.31-1.14,7.87-2.73,12.85-4.62s9.46-3.71,12.69-5.05l3.82-1.59a8.66,8.66,0,0,1,1.43-.52,7.21,7.21,0,0,1-1.34.72c-.88.43-2.16,1-3.76,1.74-3.19,1.44-7.65,3.32-12.65,5.21s-9.58,3.43-12.92,4.48c-1.67.52-3,.92-4,1.18A7.63,7.63,0,0,1,443.9,302.9Z" transform="translate(-43.87 -23.86)"/><path class="cls-3" d="M122.06,344.68c23.09-13.17,30.59-40.85,32.05-66.22.24-4.24,1.11-8.65-.55-12.53s-6.13-6.85-10.07-5.42c-3.27,1.19-5,4.71-7,7.57a24.78,24.78,0,0,1-10.77,8.55c-2.82,1.14-6.22,1.69-8.74,0-3.46-2.35-3.43-7.42-3-11.61q1.14-11.74,2.29-23.47c.41-4.19.82-8.48-.12-12.59s-3.49-8.07-7.38-9.55-9,.36-10.26,4.4c-.51,1.67-.33,3.48-.6,5.21s-1.27,3.59-3,3.92-3.29-1-4.43-2.34c-4-4.64-6.39-10.37-8.64-16.06s-4.41-11.48-7.92-16.47-8.61-9.15-14.59-10-12.73,2.24-14.79,8,.84,12.1,4.16,17.24a94,94,0,0,0,17.81,20.39c1.23,1.06,2.58,2.21,2.94,3.81.65,2.88-2.25,5.42-5.1,6.08-3.23.76-6.59.12-9.9.21s-7,1.2-8.51,4.19c-2.12,4.13,1.06,9,4.32,12.23a80.42,80.42,0,0,0,22.51,15.89c3,1.41,6.14,2.7,8.44,5.1s3.45,6.31,1.67,9.13-5.73,3.42-8.91,2.52-5.91-2.92-8.89-4.36c-5.57-2.71-13.06-3-17.21,1.65-2.73,3.06-3.36,7.6-2.49,11.62s3.05,7.62,5.41,11c8.26,11.7,19.3,21.52,32.26,27.39s25.25,8.26,39,4.61" transform="translate(-43.87 -23.86)"/><path class="cls-2" d="M120.68,363.47A185.17,185.17,0,0,0,117,328.23a375.53,375.53,0,0,0-11.23-41.88l-3.5-10.82c-1.16-3.55-2.31-7.07-3.65-10.45a187.91,187.91,0,0,0-8.79-18.95c-3.09-5.89-6.23-11.37-9.21-16.47s-5.87-9.8-8.67-14A149.34,149.34,0,0,0,57.25,197c-1.89-2.06-3.42-3.61-4.47-4.65l-1.2-1.17a2.78,2.78,0,0,0-.43-.38,3.87,3.87,0,0,0,.37.43l1.15,1.23c1,1.07,2.5,2.65,4.36,4.74A158.53,158.53,0,0,1,71.49,216c2.76,4.18,5.61,8.89,8.57,14s6.07,10.6,9.13,16.48a190,190,0,0,1,8.72,18.9c1.32,3.35,2.46,6.85,3.62,10.41s2.32,7.16,3.5,10.82a389.79,389.79,0,0,1,11.26,41.77,188.35,188.35,0,0,1,3.84,35.1" transform="translate(-43.87 -23.86)"/><path class="cls-2" d="M98.4,265a8.47,8.47,0,0,0,.57-1.75c.33-1.14.75-2.81,1.23-4.87,1-4.13,2.13-9.87,3.38-16.21s2.48-12,3.52-16.15c.51-2.05.94-3.71,1.26-4.85a8.11,8.11,0,0,0,.4-1.8,8.55,8.55,0,0,0-.69,1.71c-.4,1.12-.92,2.75-1.5,4.79-1.17,4.08-2.5,9.8-3.75,16.15s-2.31,11.92-3.15,16.24c-.39,1.95-.73,3.6-1,4.92A7.81,7.81,0,0,0,98.4,265Z" transform="translate(-43.87 -23.86)"/><path class="cls-2" d="M45.34,250a12,12,0,0,0,2.13.45c1.37.25,3.36.6,5.8,1.12,4.9,1,11.61,2.58,18.94,4.67s13.89,4.29,18.58,6c2.35.84,4.24,1.57,5.55,2.07a10.62,10.62,0,0,0,2.06.71,12,12,0,0,0-2-1c-1.27-.59-3.13-1.4-5.47-2.31-4.65-1.86-11.2-4.13-18.55-6.24A191,191,0,0,0,53.38,251c-2.47-.44-4.48-.71-5.87-.87A10.67,10.67,0,0,0,45.34,250Z" transform="translate(-43.87 -23.86)"/><path class="cls-2" d="M116.42,327.18a3,3,0,0,0,.43-.63l1.1-1.87c1-1.62,2.26-4,3.84-7,3.18-5.94,7.3-14.29,11.72-23.57S142,276.46,145,270.46l3.62-7.1c.39-.78.72-1.41,1-1.94a2.73,2.73,0,0,0,.29-.7,3,3,0,0,0-.43.62l-1.1,1.87c-.95,1.63-2.26,4-3.85,7-3.17,5.95-7.29,14.3-11.71,23.58s-8.47,17.65-11.51,23.66c-1.49,2.91-2.71,5.31-3.62,7.1-.4.77-.72,1.41-1,1.94S116.39,327.16,116.42,327.18Z" transform="translate(-43.87 -23.86)"/><path class="cls-2" d="M46.8,297.48a2.49,2.49,0,0,0,.68.36l2,.89L57,301.92c6.3,2.7,15,6.53,24.5,10.77s18.25,8,24.6,10.56c3.17,1.28,5.75,2.3,7.55,3l2.07.76a3.34,3.34,0,0,0,.75.21,3,3,0,0,0-.69-.36l-2-.89-7.45-3.19c-6.3-2.7-15-6.53-24.5-10.77s-18.24-8-24.59-10.56c-3.18-1.28-5.76-2.3-7.56-3l-2.07-.75A3.15,3.15,0,0,0,46.8,297.48Z" transform="translate(-43.87 -23.86)"/><polygon class="cls-2" points="149.19 19.18 149.19 101.72 30.65 101.72 26.38 19.76 149.19 19.18"/><rect class="cls-4" x="88.63" y="25.24" width="81.78" height="118.54" transform="translate(1.14 190.17) rotate(-90)"/><path class="cls-2" d="M189.35,126H69.68V43.06H189.35ZM70.81,124.84H188.23V44.18H70.81Z" transform="translate(-43.87 -23.86)"/><rect class="cls-4" x="39.22" y="29.92" width="92.86" height="61.46"/><path class="cls-2" d="M176,53.78l-.46,0h-1.32l-5.1,0-19.13.07-66.85.13.26-.27c0,18.78,0,39.59,0,61.46h0l-.29-.29L176,115l-.23.23c.05-18.7.09-34,.12-44.72,0-5.33,0-9.5.06-12.36,0-1.41,0-2.5,0-3.25s0-1.13,0-1.13,0,.36,0,1.08,0,1.81,0,3.21c0,2.84,0,7,.06,12.31,0,10.71.07,26.1.12,44.86v.24H176l-92.86.06h-.3v-.3h0c0-21.87,0-42.68,0-61.46v-.27h.27l67,.14,19.08.07,5,0,1.29,0Z" transform="translate(-43.87 -23.86)"/><path class="cls-2" d="M70.25,43.39a10.74,10.74,0,0,1,2,1.32c1.21.88,2.86,2.12,4.64,3.55S80.28,51,81.39,52a10.3,10.3,0,0,1,1.7,1.74c-.11.13-3-2.22-6.52-5.07S70.14,43.52,70.25,43.39Z" transform="translate(-43.87 -23.86)"/><path class="cls-2" d="M188.79,43.62a56,56,0,0,1-6.24,5.31,55.92,55.92,0,0,1-6.6,4.85,58.61,58.61,0,0,1,6.24-5.31A57.34,57.34,0,0,1,188.79,43.62Z" transform="translate(-43.87 -23.86)"/><path class="cls-4" d="M188.7,125.42,175.48,114.7" transform="translate(-43.87 -23.86)"/><path class="cls-2" d="M175.48,114.7a63.14,63.14,0,0,1,6.79,5.13,61.94,61.94,0,0,1,6.43,5.59,61.52,61.52,0,0,1-6.8-5.13A61.14,61.14,0,0,1,175.48,114.7Z" transform="translate(-43.87 -23.86)"/><path class="cls-2" d="M70.25,125.4a56.55,56.55,0,0,1,6.17-5.25,57.36,57.36,0,0,1,6.53-4.8c.11.13-2.66,2.48-6.17,5.26A56.47,56.47,0,0,1,70.25,125.4Z" transform="translate(-43.87 -23.86)"/><rect class="cls-2" x="120.87" y="54" width="20.58" height="58.43" transform="translate(4.07 190.52) rotate(-90)"/><rect class="cls-2" x="359.54" width="63.38" height="91.87"/><rect class="cls-3" x="356.37" width="63.38" height="91.87"/><rect class="cls-4" x="364.24" y="9.95" width="47.63" height="71.97"/><path class="cls-2" d="M455.74,105.78s0-.12,0-.35v-1c0-.91,0-2.23,0-4,0-3.45,0-8.48,0-14.82,0-12.7-.05-30.67-.08-51.83l.16.16H408.11l.17-.17c0,27.15,0,52.18,0,72l-.13-.14,34.67.08,9.58,0,2.51,0h.87l-.84,0h-2.49l-9.55,0-34.75.07H408v-.14c0-19.79,0-44.82,0-72v-.17h48v.16c0,21.21-.06,39.21-.08,51.93,0,6.33,0,11.35,0,14.79,0,1.7,0,3,0,3.91v1C455.75,105.67,455.74,105.78,455.74,105.78Z" transform="translate(-43.87 -23.86)"/><path class="cls-5" d="M453.53,34.29" transform="translate(-43.87 -23.86)"/><path class="cls-2" d="M463.79,23.86a10.11,10.11,0,0,1-1.13,1.64c-.73,1-1.78,2.33-3,3.77s-2.31,2.74-3.13,3.65a10.75,10.75,0,0,1-1.4,1.42,11.34,11.34,0,0,1,1.21-1.58l3.05-3.7,3.05-3.71A12.73,12.73,0,0,1,463.79,23.86Z" transform="translate(-43.87 -23.86)"/><path class="cls-4" d="M456,105.55a59.4,59.4,0,0,0,8.31,10.39" transform="translate(-43.87 -23.86)"/><path class="cls-2" d="M464.29,115.94a9.54,9.54,0,0,1-1.45-1.32,45.84,45.84,0,0,1-3.13-3.53,45.24,45.24,0,0,1-2.76-3.84,9.69,9.69,0,0,1-1-1.7,12.79,12.79,0,0,1,1.17,1.56c.7,1,1.68,2.33,2.83,3.76s2.24,2.69,3,3.58A12.4,12.4,0,0,1,464.29,115.94Z" transform="translate(-43.87 -23.86)"/><path class="cls-4" d="M400.22,115.66q4.15-5.13,8.3-10.25" transform="translate(-43.87 -23.86)"/><path class="cls-2" d="M408.52,105.41a59.65,59.65,0,0,1-4,5.23,61.13,61.13,0,0,1-4.29,5,65.76,65.76,0,0,1,4-5.23A64.8,64.8,0,0,1,408.52,105.41Z" transform="translate(-43.87 -23.86)"/><path class="cls-2" d="M400.23,23.86a56,56,0,0,1,4,4.82,56.35,56.35,0,0,1,3.76,5,58.22,58.22,0,0,1-4-4.82A58.82,58.82,0,0,1,400.23,23.86Z" transform="translate(-43.87 -23.86)"/><rect class="cls-2" x="381.08" y="24.56" width="15.95" height="45.28"/><path class="cls-6" d="M480.15,398.38c0,.15-97.41.26-217.55.26S45,398.53,45,398.38s97.39-.26,217.57-.26S480.15,398.24,480.15,398.38Z" transform="translate(-43.87 -23.86)"/><path class="cls-6" d="M357.92,225.34a17.27,17.27,0,0,1-5.15,16.9c-3,2.7-7,4.26-9.8,7.23a15.18,15.18,0,0,0-3,14.68,19.36,19.36,0,0,0,10.22,11.34,22.71,22.71,0,0,0,20.6-.7c7.73-4.37,12.23-13.14,13.37-22s-.65-17.73-3-26.3" transform="translate(-43.87 -23.86)"/><path class="cls-6" d="M455.41,380.69c8-1.31,15.51,1.13,23.43,2.88a14,14,0,0,0,6.48.35c3.43-.88,5.87-4.22,6.4-7.72a12.59,12.59,0,0,0-2-8.76,8.41,8.41,0,0,0-2.74-2.73,9.71,9.71,0,0,0-3.83-1,27.41,27.41,0,0,0-14.1,2.66,41.81,41.81,0,0,0-11.7,8.49c-1.68,1.68-1.17,3.61-1.92,5.87" transform="translate(-43.87 -23.86)"/><path class="cls-6" d="M293.18,251.57a61.78,61.78,0,0,1,.47-23,30.38,30.38,0,0,1,4-10.45,6.75,6.75,0,0,1,2.93-2.75,5.12,5.12,0,0,1,5.22,1.23,8.78,8.78,0,0,1,2.47,6.71,21.86,21.86,0,0,1-1.78,7.12c-3.1,7.9-8,14.46-13.26,21.1" transform="translate(-43.87 -23.86)"/><path class="cls-7" d="M448.21,280.48c1.82,1.29,42.05,87.88,42.05,87.88h0a17.07,17.07,0,0,0-10.25-1l-2.18.58a36.34,36.34,0,0,0-10.95,5l-11.47,7.76h0a3.28,3.28,0,0,1-1.63-2.53l0-.33-31.17-53.5Z" transform="translate(-43.87 -23.86)"/><path class="cls-8" d="M297.31,142.66,308,203.59c3.45,8.2,43.69,57.88,43.69,57.88l-13.31,42.74L285.57,232a27.66,27.66,0,0,1-7.44-19.38l2.07-65.1Z" transform="translate(-43.87 -23.86)"/><path class="cls-7" d="M354.36,251.92,382,254,406,257.74s42.2,11.09,42.2,15.71c0,1.54-11.53,38.23-17.95,60.21a151.62,151.62,0,0,0-3.89,16.24l21.84,48.48H344.39V353.92s-7-58.32-5.77-66.29S354.36,251.92,354.36,251.92Z" transform="translate(-43.87 -23.86)"/><path class="cls-9" d="M284.26,118a122.12,122.12,0,0,1,1.89-18.5c.16-.87.51-1.92,1.38-2,1.08-.14,1.63,1.25,1.77,2.33a65.38,65.38,0,0,1-.9,22.1" transform="translate(-43.87 -23.86)"/><path class="cls-7" d="M296.53,247.06c11.83-10.58,12.24-28.91,11.22-43.5a4.83,4.83,0,0,1,.47-3.13c1.12-1.61,3.87-1,5,.62s1,3.75.93,5.71c.61-1.66,3.21-1.65,4.43-.37s1.43,3.21,1.57,5c.13,1.62.26,3.25.4,4.88l34.58,33s.95-3,3.49-1.27,4.18,5.38,4.18,5.38l-24.37,53.19-45.23-55A18.24,18.24,0,0,1,296.53,247.06Z" transform="translate(-43.87 -23.86)"/><path class="cls-7" d="M343.46,283.87a46.23,46.23,0,0,0-7.94,15.49,28.17,28.17,0,0,0,.52,17.21,23.85,23.85,0,0,0,18.32,14.8" transform="translate(-43.87 -23.86)"/><path class="cls-8" d="M455.41,380.69l-1.31,17.69h25.63l6-31.25h0a32.31,32.31,0,0,0-21.68,6.79Z" transform="translate(-43.87 -23.86)"/><path class="cls-6" d="M308.57,243.14a9.21,9.21,0,0,1,.56-1.4c.4-.88.94-2.18,1.55-3.8s1.26-3.58,1.87-5.78a69.64,69.64,0,0,0,1.51-7.29,67.79,67.79,0,0,0,.63-7.41,60.53,60.53,0,0,0-.14-6.08c-.12-1.72-.26-3.12-.4-4.08a7.63,7.63,0,0,1-.13-1.51,9.46,9.46,0,0,1,.33,1.48,40.33,40.33,0,0,1,.57,4.08,55.83,55.83,0,0,1,.25,6.12A56.73,56.73,0,0,1,313,232.28a57.46,57.46,0,0,1-2,5.79c-.66,1.62-1.25,2.9-1.71,3.76A8,8,0,0,1,308.57,243.14Z" transform="translate(-43.87 -23.86)"/><path class="cls-6" d="M316.11,233.86a23,23,0,0,1,1.06-2.53,37.63,37.63,0,0,0,2.05-6.28,38.62,38.62,0,0,0,.91-6.53,20.54,20.54,0,0,1,.16-2.75,10.67,10.67,0,0,1,.21,2.76,30.07,30.07,0,0,1-3,12.95A10.41,10.41,0,0,1,316.11,233.86Z" transform="translate(-43.87 -23.86)"/><path class="cls-6" d="M356.73,261.51c-.08,0,.33-.69.58-1.87a10.05,10.05,0,0,0-.26-4.63,36.12,36.12,0,0,0-1.74-4.42,6.79,6.79,0,0,1-.69-1.88,8.5,8.5,0,0,1,1,1.72,22.91,22.91,0,0,1,1.91,4.44,9.07,9.07,0,0,1,.11,4.86A3.57,3.57,0,0,1,356.73,261.51Z" transform="translate(-43.87 -23.86)"/><path class="cls-6" d="M350.71,332a1.89,1.89,0,0,1-.43-.25l-1.19-.78c-1-.69-2.49-1.71-4.23-3.07a36.26,36.26,0,0,1-5.61-5.37,21.52,21.52,0,0,1-4.34-8.45,26.56,26.56,0,0,1-.57-9.5,36.2,36.2,0,0,1,1.71-7.57c.7-2.1,1.4-3.75,1.9-4.87.26-.56.46-1,.61-1.29a1.92,1.92,0,0,1,.25-.43,14.57,14.57,0,0,1-.67,1.8c-.45,1.14-1.09,2.8-1.74,4.9a38.89,38.89,0,0,0-1.59,7.51,27,27,0,0,0,.6,9.32,21.62,21.62,0,0,0,4.21,8.28,38.06,38.06,0,0,0,5.48,5.38c1.69,1.4,3.13,2.45,4.11,3.2l1.13.86C350.59,331.83,350.72,331.94,350.71,332Z" transform="translate(-43.87 -23.86)"/><path class="cls-6" d="M407.36,341.85s-.15.07-.44.16-.73.23-1.3.34a25.6,25.6,0,0,1-4.9.58,27.5,27.5,0,0,1-26.07-16.48,25.69,25.69,0,0,1-1.57-4.69c-.14-.56-.19-1-.25-1.31a1.29,1.29,0,0,1,0-.47s.18.62.49,1.73a29.85,29.85,0,0,0,1.71,4.58,27.9,27.9,0,0,0,25.72,16.28,30.17,30.17,0,0,0,4.87-.42A17.13,17.13,0,0,1,407.36,341.85Z" transform="translate(-43.87 -23.86)"/><path class="cls-6" d="M423.27,361.28c-.14,0,1.19-5.56,3-12.34s3.32-12.25,3.46-12.21-1.19,5.56-3,12.34S423.41,361.32,423.27,361.28Z" transform="translate(-43.87 -23.86)"/><path class="cls-6" d="M437.27,349.55c-.13.07-4.15-6.5-9-14.68s-8.65-14.87-8.53-14.94,4.14,6.49,9,14.67S437.39,349.47,437.27,349.55Z" transform="translate(-43.87 -23.86)"/><path class="cls-6" d="M475.61,365.74c0,.1-1.45.22-3.74.8a29.5,29.5,0,0,0-3.91,1.29,32.57,32.57,0,0,0-4.48,2.32,31.63,31.63,0,0,0-4,3.05,29.37,29.37,0,0,0-2.85,3c-1.5,1.81-2.24,3.08-2.32,3a3.8,3.8,0,0,1,.46-.92,19.75,19.75,0,0,1,1.57-2.34,26.06,26.06,0,0,1,2.82-3.1,26.95,26.95,0,0,1,8.63-5.46,25.75,25.75,0,0,1,4-1.21,18.2,18.2,0,0,1,2.79-.42A3.54,3.54,0,0,1,475.61,365.74Z" transform="translate(-43.87 -23.86)"/><path class="cls-6" d="M480.51,359.72c0,.1-1.61-.09-4.18.13a26.61,26.61,0,0,0-4.43.78,29,29,0,0,0-5.16,1.95,29.59,29.59,0,0,0-4.64,3,26.33,26.33,0,0,0-3.28,3.09c-1.71,1.92-2.52,3.32-2.61,3.26a5.18,5.18,0,0,1,.53-1,11.77,11.77,0,0,1,.72-1.11,17.25,17.25,0,0,1,1.08-1.39,23.72,23.72,0,0,1,3.26-3.22,25.19,25.19,0,0,1,10-5,24.05,24.05,0,0,1,4.53-.69c.65-.06,1.24,0,1.76,0a11.67,11.67,0,0,1,1.32.08A4.34,4.34,0,0,1,480.51,359.72Z" transform="translate(-43.87 -23.86)"/><g class="cls-10"><path d="M373.86,322.11c-2.36,4.46-.39,9.9,1.76,14.47,1.67,3.54,3.52,7.13,6.56,9.6a14,14,0,0,0,20.35-2.87,31.59,31.59,0,0,1-29.16-20.63" transform="translate(-43.87 -23.86)"/></g><g class="cls-10"><path d="M419.76,319.93c-1.79,4.29-.44,10.16,1.44,14.41s3.88,9,2.37,13.41a5.78,5.78,0,0,0-.59,2.52c.11.86,1,1.68,1.81,1.29a2,2,0,0,0,.81-1.24q2.13-6.42,4.27-12.83" transform="translate(-43.87 -23.86)"/></g><path class="cls-11" d="M325.17,263.44a59.18,59.18,0,0,1,1-8,61.06,61.06,0,0,1,1.54-7.88,62.38,62.38,0,0,1-1,8A62.17,62.17,0,0,1,325.17,263.44Z" transform="translate(-43.87 -23.86)"/><path class="cls-11" d="M314.63,261.23c-.13.08-1.85-2.32-4.23-5.08s-4.48-4.83-4.37-4.94a35.26,35.26,0,0,1,8.6,10Z" transform="translate(-43.87 -23.86)"/><path class="cls-11" d="M323.67,235.47a8.62,8.62,0,0,1-1.13,1.8c-.76,1.06-1.86,2.5-3.16,4s-2.53,2.84-3.46,3.77a7.77,7.77,0,0,1-1.59,1.4c-.1-.1,2.09-2.47,4.66-5.51S323.55,235.38,323.67,235.47Z" transform="translate(-43.87 -23.86)"/><path class="cls-11" d="M320.14,222.88c-.15.06-.71-1.21-1.82-2.48s-2.27-2-2.2-2.16a6.54,6.54,0,0,1,4,4.64Z" transform="translate(-43.87 -23.86)"/><path class="cls-11" d="M311,230.64a7.18,7.18,0,0,1-2.6.67,6.9,6.9,0,0,1-2.68.16,14,14,0,0,1,5.28-.83Z" transform="translate(-43.87 -23.86)"/><path class="cls-11" d="M334,241.75a27.31,27.31,0,0,0-.33-4.65,26.27,26.27,0,0,0-1.63-4.38,9.6,9.6,0,0,1,2,9Z" transform="translate(-43.87 -23.86)"/><path class="cls-11" d="M346.32,255a41.8,41.8,0,0,0-3.21-4.06,41.94,41.94,0,0,0-4-3.25,12.64,12.64,0,0,1,7.25,7.31Z" transform="translate(-43.87 -23.86)"/><path class="cls-11" d="M326.59,277.91a9.36,9.36,0,0,1-4.61.76,9.59,9.59,0,0,1-4.56-1.07c.05-.15,2,.48,4.57.55S326.56,277.76,326.59,277.91Z" transform="translate(-43.87 -23.86)"/><path class="cls-11" d="M335.85,282.66c-.14-.06.64-2.36,1.29-5.28s.94-5.34,1.1-5.32a17.42,17.42,0,0,1-.59,5.43A17.06,17.06,0,0,1,335.85,282.66Z" transform="translate(-43.87 -23.86)"/><path class="cls-11" d="M356.08,283.43a36.44,36.44,0,0,1-4.37-4.4,38.42,38.42,0,0,1-4-4.76,36.44,36.44,0,0,1,4.37,4.4A39.54,39.54,0,0,1,356.08,283.43Z" transform="translate(-43.87 -23.86)"/><path class="cls-11" d="M365.51,306.8a18.3,18.3,0,0,1-3.26-3,19.35,19.35,0,0,1-2.89-3.36,38,38,0,0,1,6.15,6.36Z" transform="translate(-43.87 -23.86)"/><path class="cls-11" d="M348,309a20.09,20.09,0,0,1-8.62,5c-.05-.14,2-1,4.37-2.41S347.9,308.91,348,309Z" transform="translate(-43.87 -23.86)"/><path class="cls-11" d="M356.05,331.26c-.15,0,.45-2.66.75-5.95s.21-6,.36-6a18.52,18.52,0,0,1,.16,6A18.93,18.93,0,0,1,356.05,331.26Z" transform="translate(-43.87 -23.86)"/><path class="cls-11" d="M386.36,313.18a21.9,21.9,0,0,1-7.52-8.6c.13-.08,1.51,2.09,3.59,4.46S386.46,313.06,386.36,313.18Z" transform="translate(-43.87 -23.86)"/><path class="cls-11" d="M397.43,322.62c-.11-.09,1.4-2.17,3.1-4.84s3-4.91,3.08-4.85a31.26,31.26,0,0,1-6.18,9.69Z" transform="translate(-43.87 -23.86)"/><path class="cls-11" d="M395.81,299.54a52.34,52.34,0,0,1-10-2.7,27.52,27.52,0,0,1,5.08,1.1A25.61,25.61,0,0,1,395.81,299.54Z" transform="translate(-43.87 -23.86)"/><path class="cls-11" d="M387.74,340.16a21.6,21.6,0,0,1,0-4.74,20.93,20.93,0,0,1,.54-4.71,43.14,43.14,0,0,1-.56,9.45Z" transform="translate(-43.87 -23.86)"/><path class="cls-11" d="M394.72,354.07a40.18,40.18,0,0,0,1.26-4.93,39.84,39.84,0,0,0,.09-5.09,10,10,0,0,1,.43,5.16A9.86,9.86,0,0,1,394.72,354.07Z" transform="translate(-43.87 -23.86)"/><path class="cls-11" d="M376.63,351a15.43,15.43,0,0,1,1.92-10c.15.06-.78,2.17-1.3,4.94S376.79,351,376.63,351Z" transform="translate(-43.87 -23.86)"/><path class="cls-11" d="M360.13,358.05a56.94,56.94,0,0,1-4.69-3.65,54,54,0,0,1-4.63-3.73,37.81,37.81,0,0,1,9.32,7.38Z" transform="translate(-43.87 -23.86)"/><path class="cls-11" d="M371.31,338.43a45.07,45.07,0,0,1-5.87,3.41,43.41,43.41,0,0,1-6.11,2.94,45.75,45.75,0,0,1,5.87-3.4A42.87,42.87,0,0,1,371.31,338.43Z" transform="translate(-43.87 -23.86)"/><path class="cls-6" d="M406,382.46a4.08,4.08,0,0,1-.65.16c-.42.08-1.05.24-1.88.35a40.12,40.12,0,0,1-7,.45A43.51,43.51,0,0,1,386.11,382a42.39,42.39,0,0,1-21.46-13.4,43.58,43.58,0,0,1-5.85-8.66,40.48,40.48,0,0,1-2.68-6.51c-.27-.79-.4-1.42-.52-1.84a3.16,3.16,0,0,1-.13-.66,3.11,3.11,0,0,1,.24.63c.15.41.31,1,.6,1.81a46.09,46.09,0,0,0,2.81,6.4,44.54,44.54,0,0,0,15.51,16.72,44.6,44.6,0,0,0,21.83,6.6,45.43,45.43,0,0,0,7-.28c.83-.08,1.46-.21,1.9-.25A2.73,2.73,0,0,1,406,382.46Z" transform="translate(-43.87 -23.86)"/><path class="cls-11" d="M376.14,377.28a9.26,9.26,0,0,1,3.22-8.6,24.61,24.61,0,0,0-2.27,4.06A23.82,23.82,0,0,0,376.14,377.28Z" transform="translate(-43.87 -23.86)"/><path class="cls-11" d="M367.9,373.84a18.28,18.28,0,0,0-2.6,2.47,19,19,0,0,0-1.64,3.2,6.13,6.13,0,0,1,4.24-5.67Z" transform="translate(-43.87 -23.86)"/><path class="cls-11" d="M399.55,392.68a8.4,8.4,0,0,1-4.61-1.52,8.56,8.56,0,0,1-3.39-3.47,31.29,31.29,0,0,0,3.67,3A31.88,31.88,0,0,0,399.55,392.68Z" transform="translate(-43.87 -23.86)"/><path class="cls-11" d="M404.47,365a6.42,6.42,0,0,1-1.79,4,6.55,6.55,0,0,1-3.64,2.42,21.14,21.14,0,0,0,3.25-2.75A20.23,20.23,0,0,0,404.47,365Z" transform="translate(-43.87 -23.86)"/><path class="cls-11" d="M418.46,385.63c-.12-.1,1.2-1.77,2.42-4.07s1.87-4.33,2-4.28a15.38,15.38,0,0,1-4.44,8.35Z" transform="translate(-43.87 -23.86)"/><path class="cls-11" d="M437,388.36c.06.15-1.76.87-3.59,2.38s-2.92,3.12-3.06,3a8.21,8.21,0,0,1,2.73-3.45A8,8,0,0,1,437,388.36Z" transform="translate(-43.87 -23.86)"/><path class="cls-11" d="M422.85,364.67c-.15.05-1-2.87-2.87-6.11s-3.86-5.52-3.74-5.62a6,6,0,0,1,1.43,1.4,25.08,25.08,0,0,1,4.73,8.38A6.31,6.31,0,0,1,422.85,364.67Z" transform="translate(-43.87 -23.86)"/><path class="cls-11" d="M425.62,334.89a23.86,23.86,0,0,1-4.75,1.37,23.48,23.48,0,0,1-4.85.85,23.25,23.25,0,0,1,4.74-1.36A23.87,23.87,0,0,1,425.62,334.89Z" transform="translate(-43.87 -23.86)"/><path class="cls-11" d="M417.11,326a20.9,20.9,0,0,1-3.06-3.52,21.47,21.47,0,0,1-2.66-3.83,20.37,20.37,0,0,1,3.07,3.51A21.57,21.57,0,0,1,417.11,326Z" transform="translate(-43.87 -23.86)"/><path class="cls-11" d="M438.18,320.65a15.21,15.21,0,0,1-4.79-.61,15.52,15.52,0,0,1-4.56-1.6,40.89,40.89,0,0,1,4.68,1.09A43.53,43.53,0,0,1,438.18,320.65Z" transform="translate(-43.87 -23.86)"/><path class="cls-11" d="M453.17,320.39a40.54,40.54,0,0,1,1.53-4.16,37.66,37.66,0,0,1,1.53-4.17,19.18,19.18,0,0,1-3.06,8.33Z" transform="translate(-43.87 -23.86)"/><path class="cls-11" d="M449.8,340.71a15,15,0,0,1-8-4.74c.11-.12,1.68,1.25,3.88,2.55S449.85,340.56,449.8,340.71Z" transform="translate(-43.87 -23.86)"/><path class="cls-11" d="M459.55,340.09a70.92,70.92,0,0,1,2.7-11.76,70.92,70.92,0,0,1-2.7,11.76Z" transform="translate(-43.87 -23.86)"/><path class="cls-11" d="M451.41,362.81a31.24,31.24,0,0,1-3.54-4.4,30.3,30.3,0,0,1-3.11-4.71,62,62,0,0,1,6.65,9.11Z" transform="translate(-43.87 -23.86)"/><path class="cls-11" d="M465.3,354.12c-.14.07-1.06-1.74-2.5-3.76s-2.82-3.49-2.72-3.6a11.47,11.47,0,0,1,3.15,3.3A11.62,11.62,0,0,1,465.3,354.12Z" transform="translate(-43.87 -23.86)"/><path class="cls-11" d="M478.31,352.17c-.12.08-1.43-1.89-3.2-4.19a52.09,52.09,0,0,1-3.2-4.18,17.74,17.74,0,0,1,3.62,3.87A18.14,18.14,0,0,1,478.31,352.17Z" transform="translate(-43.87 -23.86)"/><path class="cls-11" d="M475.25,360.8a9.72,9.72,0,0,0-1.19-3.42A10,10,0,0,0,471.4,355c0-.06.45,0,1.08.31a5.4,5.4,0,0,1,2,1.84,5.52,5.52,0,0,1,.9,2.58C475.44,360.38,475.32,360.8,475.25,360.8Z" transform="translate(-43.87 -23.86)"/><path class="cls-11" d="M465.1,372.63c-.07,0-.05-.27-.13-.63a2,2,0,0,0-.69-1.14,2,2,0,0,0-1.27-.39c-.37,0-.6.09-.64,0s.15-.27.58-.39a1.9,1.9,0,0,1,1.65.34,2,2,0,0,1,.74,1.52C465.33,372.42,465.16,372.65,465.1,372.63Z" transform="translate(-43.87 -23.86)"/><path class="cls-11" d="M361.06,391.54a14.41,14.41,0,0,1-8.24-8.24,24.36,24.36,0,0,0,8.24,8.24Z" transform="translate(-43.87 -23.86)"/><path class="cls-8" d="M297.41,143.34c-1.6-15.21-4.51-29.52-5.3-44.43a2.74,2.74,0,0,0-.71-2.06,1.86,1.86,0,0,0-2.59.75,5.68,5.68,0,0,0-.51,3,69.06,69.06,0,0,1-4,23.27c-1.72,4.84-4,9.5-5.29,14.47s1.13,6.66,3.37,11.29" transform="translate(-43.87 -23.86)"/><path class="cls-6" d="M246.35,83.1c-.1.11-5.72-4.46-12.57-10.22s-12.31-10.5-12.22-10.61,5.71,4.46,12.56,10.22S246.44,83,246.35,83.1Z" transform="translate(-43.87 -23.86)"/><path class="cls-6" d="M274.86,76.25c-.14,0-.71-8.88-1.26-19.85s-.89-19.87-.74-19.88.71,8.88,1.26,19.86S275,76.25,274.86,76.25Z" transform="translate(-43.87 -23.86)"/><path class="cls-6" d="M256.7,69.9c-.14,0-1.89-5-3.92-11.33s-3.55-11.44-3.42-11.48,1.89,5,3.92,11.32S256.84,69.86,256.7,69.9Z" transform="translate(-43.87 -23.86)"/><path class="cls-6" d="M240.51,92.48a69,69,0,0,1-7.71-3.25,68,68,0,0,1-7.5-3.73A69,69,0,0,1,233,88.75,67,67,0,0,1,240.51,92.48Z" transform="translate(-43.87 -23.86)"/><path class="cls-6" d="M214.2,81c0,.14-.85.16-1.86,0s-1.81-.34-1.79-.49.85-.15,1.86,0S214.22,80.85,214.2,81Z" transform="translate(-43.87 -23.86)"/><path class="cls-6" d="M250,40.63c-.14,0-.26-.81-.26-1.82S249.87,37,250,37s.26.82.26,1.83S250.15,40.63,250,40.63Z" transform="translate(-43.87 -23.86)"/><path class="cls-6" d="M310.23,54.75c.11.1-4.5,5.39-10.3,11.82S289.35,78.14,289.24,78s4.51-5.38,10.3-11.82S310.13,54.66,310.23,54.75Z" transform="translate(-43.87 -23.86)"/><path class="cls-6" d="M317.57,47.48c.1.1-.43.8-1.18,1.55s-1.46,1.29-1.56,1.19.43-.8,1.19-1.55S317.47,47.38,317.57,47.48Z" transform="translate(-43.87 -23.86)"/><path class="cls-6" d="M335.39,73.08a8.6,8.6,0,0,1-1.35.81c-.89.49-2.2,1.18-3.82,2-3.25,1.64-7.79,3.78-12.92,5.91s-9.85,3.83-13.3,5c-1.73.57-3.13,1-4.11,1.29a7.76,7.76,0,0,1-1.53.39,9.46,9.46,0,0,1,1.47-.58l4.05-1.45c3.41-1.23,8.11-3,13.22-5.1s9.68-4.21,13-5.76l3.88-1.84A10.8,10.8,0,0,1,335.39,73.08Z" transform="translate(-43.87 -23.86)"/><path class="cls-6" d="M320.77,97.7a13.33,13.33,0,0,1-2.65.87c-1.67.46-4,1-6.59,1.45s-5,.7-6.69.82a12.88,12.88,0,0,1-2.79,0,18.82,18.82,0,0,1,2.76-.42c1.7-.21,4.05-.53,6.64-1s4.9-.92,6.58-1.28A15.43,15.43,0,0,1,320.77,97.7Z" transform="translate(-43.87 -23.86)"/><path class="cls-6" d="M334.06,95.24a16.08,16.08,0,0,1-5.76,0,16.08,16.08,0,0,1,5.76,0Z" transform="translate(-43.87 -23.86)"/><path class="cls-8" d="M282.42,149.61a13.9,13.9,0,0,1-5.28-13.17c.5-3,2-5.72,3.17-8.52s2.1-5.91,1.37-8.86a14.9,14.9,0,0,1-.79-3.39,2.38,2.38,0,0,1,1.9-2.52,2.85,2.85,0,0,1,2.17,1.32c2,2.41,3.52,9.45,2.53,14.7" transform="translate(-43.87 -23.86)"/><path class="cls-9" d="M287.49,129.17c-.05,0,.11-.8.16-2.26a27.24,27.24,0,0,0-.51-6.14A21.94,21.94,0,0,0,286,116.7a9,9,0,0,0-1.12-2A2.84,2.84,0,0,0,283,113.4a1.79,1.79,0,0,0-1.67,1.39,4.2,4.2,0,0,0,.17,2.58,14,14,0,0,1,.69,2.83,11.33,11.33,0,0,1-.11,3c-.69,4.06-2.86,7.34-3.95,10.59a14.12,14.12,0,0,0-.9,4.74,13.92,13.92,0,0,0,.62,4.16,14.26,14.26,0,0,0,3,5.3c1,1.08,1.65,1.55,1.62,1.6a2.83,2.83,0,0,1-.49-.33,9.64,9.64,0,0,1-1.27-1.13,13.56,13.56,0,0,1-3.21-5.33,14.14,14.14,0,0,1-.7-4.27,14.66,14.66,0,0,1,.87-4.9c1.1-3.32,3.24-6.6,3.9-10.51a11.18,11.18,0,0,0,.11-2.88,14,14,0,0,0-.67-2.75,4.61,4.61,0,0,1-.15-2.87,2.78,2.78,0,0,1,.79-1.23,1.84,1.84,0,0,1,1.38-.49,3.3,3.3,0,0,1,2.21,1.46,9,9,0,0,1,1.15,2.16,21,21,0,0,1,1.16,4.16,25.28,25.28,0,0,1,.36,6.22,16.89,16.89,0,0,1-.22,1.68A2.12,2.12,0,0,1,287.49,129.17Z" transform="translate(-43.87 -23.86)"/><path class="cls-6" d="M418.23,210.39a6.91,6.91,0,0,0,6.18,5.34,8.68,8.68,0,0,0,7.53-3.7,11.76,11.76,0,0,0,1.87-8.36c-.58-4.21-3.38-8.26-7.44-9.51s-9.11,1-10.23,5.07l-4.68,6.54Z" transform="translate(-43.87 -23.86)"/><path class="cls-8" d="M412.7,197.56a27.24,27.24,0,0,0-24.48-30.5c-14.51-1.38-27.41,9.43-29.59,23.85-1.91,12.64-3.55,25.4-3.49,30,.18,14,8.36,19.42,11.67,21.05a18.34,18.34,0,0,0,3.68.91h0a.1.1,0,0,1,.08.11l-3.11,16c-1.4,10.51,4.46,19.89,15,21.42s18.75-6.54,20.36-17.06Z" transform="translate(-43.87 -23.86)"/><path class="cls-6" d="M361,199.08c.23.33,2.08-.66,4.44-.31s3.93,1.79,4.22,1.53-.05-.66-.73-1.33a6.11,6.11,0,0,0-3.33-1.58,5.87,5.87,0,0,0-3.59.61C361.25,198.45,360.92,198.93,361,199.08Z" transform="translate(-43.87 -23.86)"/><path class="cls-6" d="M382.08,203.64c.24.33,2.08-.66,4.45-.31s3.92,1.78,4.22,1.53c.14-.11-.05-.66-.73-1.33a6.19,6.19,0,0,0-3.33-1.58,5.84,5.84,0,0,0-3.59.61C382.29,203,382,203.49,382.08,203.64Z" transform="translate(-43.87 -23.86)"/><path class="cls-6" d="M373.9,214.82a15.93,15.93,0,0,0-3.74-1.25c-.6-.15-1.15-.36-1.19-.78a3.11,3.11,0,0,1,.66-1.73l2.46-4.34c3.43-6.19,6-11.31,5.76-11.45s-3.23,4.77-6.67,11c-.83,1.52-1.63,3-2.38,4.37a3.53,3.53,0,0,0-.66,2.33,1.55,1.55,0,0,0,.86,1,4.26,4.26,0,0,0,1,.29A15.52,15.52,0,0,0,373.9,214.82Z" transform="translate(-43.87 -23.86)"/><path class="cls-9" d="M370.58,242.92s9,2.08,21.45-3.12c0,0-5.36,11.54-22.28,7.44Z" transform="translate(-43.87 -23.86)"/><path class="cls-9" d="M374.07,220.67a4.31,4.31,0,0,1,4.05-1,4,4,0,0,1,2.48,1.83,2.49,2.49,0,0,1-.23,2.85,2.86,2.86,0,0,1-3.21.33,9,9,0,0,1-2.76-2.24,2.45,2.45,0,0,1-.57-.8.8.8,0,0,1,.13-.88" transform="translate(-43.87 -23.86)"/><path class="cls-6" d="M380.62,217.47c-.38-.08-.76,2.49-3.22,4s-5.16.82-5.23,1.18c-.06.16.54.59,1.69.79a6.47,6.47,0,0,0,4.34-.84,5.6,5.6,0,0,0,2.54-3.37C381,218.16,380.8,217.48,380.62,217.47Z" transform="translate(-43.87 -23.86)"/><path class="cls-6" d="M383.71,195.94c.14.68,2.55.72,5.28,1.46s4.86,1.82,5.31,1.3c.2-.25-.1-.92-.91-1.67a9.52,9.52,0,0,0-8.07-2.1C384.25,195.19,383.66,195.62,383.71,195.94Z" transform="translate(-43.87 -23.86)"/><path class="cls-6" d="M363.43,191.79c.34.6,2.05.28,4,.54s3.57.88,4,.38c.21-.25,0-.83-.63-1.44a5.83,5.83,0,0,0-6.48-.74C363.59,191,363.28,191.5,363.43,191.79Z" transform="translate(-43.87 -23.86)"/><path class="cls-6" d="M355.89,187.78c2.89,4.41,12.07,1.68,17.61-1.35a13.19,13.19,0,0,0,18-3.72c3.17,4,9.61,2.7,12-1.85s1-10.82-2.2-14.8-7.95-6-12.61-6.85c-11-2-23.08,2.24-29.69,12.23-3,4.61-4.88,10.82-3.07,16.34" transform="translate(-43.87 -23.86)"/><path class="cls-12" d="M386.43,160.78c0,.2-2.61-.3-6.7.38a24.4,24.4,0,0,0-13.89,7.47,30.24,30.24,0,0,0-6.67,14.46,38,38,0,0,0-.34,6.7,5.64,5.64,0,0,1-.38-1.8,21.29,21.29,0,0,1,.08-5,29.14,29.14,0,0,1,6.63-15,23.91,23.91,0,0,1,14.47-7.5,21.29,21.29,0,0,1,5-.08A5.77,5.77,0,0,1,386.43,160.78Z" transform="translate(-43.87 -23.86)"/><path class="cls-12" d="M371.49,181.32a4.54,4.54,0,0,1-.22-1.57,15.51,15.51,0,0,1,.45-4.31A17.75,17.75,0,0,1,394,162.31a16.23,16.23,0,0,1,4,1.7,4.34,4.34,0,0,1,1.27,1,32.68,32.68,0,0,0-5.42-2,17.71,17.71,0,0,0-21.5,12.66C371.37,179,371.68,181.32,371.49,181.32Z" transform="translate(-43.87 -23.86)"/><path class="cls-6" d="M398,176.54a52.27,52.27,0,0,0-1.86,12,17.72,17.72,0,0,0,3.59,11.34c3.86,4.65,10.3,6.07,16.24,7.2a46.88,46.88,0,0,0,2.77-25c-.67-4.09-2-8.26-4.88-11.24a13.57,13.57,0,0,0-16.49-2" transform="translate(-43.87 -23.86)"/><path class="cls-6" d="M401.31,195.9c-1.57,3.38-1.45,7.29-.91,11s1.47,7.34,1.44,11.06-1.22,7.67-4.14,10a17.68,17.68,0,0,0-2.49,2,2.58,2.58,0,0,0-.51,2.92c.55.91,2.24.89,2.48-.14l-.15.26a1.65,1.65,0,0,0,1.41,2.49,7.47,7.47,0,0,0,5.33-2.62c1.91-2.21,2.67-5.18,3.17-8.05,1.54-8.84,1.24-18,3.68-26.61" transform="translate(-43.87 -23.86)"/><path class="cls-7" d="M367.4,253.89a21.5,21.5,0,0,0,28.73,15.26c5.17-2,9.35-5.9,13.39-9.71a31.38,31.38,0,0,1-29.08,36.46c-6.63.4-13.75-1.62-17.92-6.79a20.43,20.43,0,0,1-4-13,47.36,47.36,0,0,1,2.62-13.6c1.19-3.78,3-8,6.88-9" transform="translate(-43.87 -23.86)"/><path class="cls-6" d="M414.84,207.36c4,2.15,6.13,6.65,6.9,11.09s.38,9,.57,13.49,1.05,9.21,3.9,12.7c3,3.72,7.75,5.48,12,7.75,9.33,5,17,13.53,19.8,23.75s.26,22-7.39,29.35c-7,6.66-17.1,9-26.73,9-6.88,0-14.43-1.48-18.72-6.85s-4-12.9-2.49-19.52,4.24-13.05,4.35-19.84A35.35,35.35,0,0,1,401.71,280c-.7,1-1.91,2.1-3,1.52s-.75-2.45-.19-3.7c8.29-18.43,5.4-55.58,10.31-75.93" transform="translate(-43.87 -23.86)"/><path class="cls-8" d="M408,205.25c.25-.08,9.92-1.91,8.68,7.65s-10.59,6.34-10.57,6.07S408,205.25,408,205.25Z" transform="translate(-43.87 -23.86)"/><path class="cls-9" d="M409.51,215.72c.05,0,.16.14.42.31a1.69,1.69,0,0,0,1.24.19c1.06-.24,2.12-1.74,2.39-3.45a5.52,5.52,0,0,0-.16-2.45,1.93,1.93,0,0,0-1.09-1.44.86.86,0,0,0-1,.33c-.16.25-.12.45-.18.46s-.18-.19,0-.57a1,1,0,0,1,.45-.55,1.26,1.26,0,0,1,.95-.13,2.37,2.37,0,0,1,1.55,1.71,5.66,5.66,0,0,1,.23,2.74c-.31,1.92-1.53,3.59-3,3.81a1.76,1.76,0,0,1-1.49-.45C409.5,216,409.48,215.74,409.51,215.72Z" transform="translate(-43.87 -23.86)"/><path class="cls-6" d="M357.51,274.49a23.62,23.62,0,0,1,1.62-2.95,39.81,39.81,0,0,0,3.45-7.29,18,18,0,0,0,.87-7.92,29.17,29.17,0,0,0-.77-3.25,2.7,2.7,0,0,1,.43.81,10.62,10.62,0,0,1,.7,2.39,16.83,16.83,0,0,1-.73,8.13,33.58,33.58,0,0,1-3.63,7.32c-.56.88-1,1.58-1.37,2S357.54,274.51,357.51,274.49Z" transform="translate(-43.87 -23.86)"/><path class="cls-11" d="M362.39,263.46c-.15,0-.42-.82-1.28-1.39s-1.72-.57-1.74-.72.21-.17.6-.18a2.49,2.49,0,0,1,1.44.47,2.56,2.56,0,0,1,.94,1.19C362.48,263.2,362.45,263.44,362.39,263.46Z" transform="translate(-43.87 -23.86)"/><path class="cls-11" d="M368.56,263.44a18.83,18.83,0,0,0-2.46-2.31,17.53,17.53,0,0,0-3.1-1.35,4.57,4.57,0,0,1,3.38.92A4.64,4.64,0,0,1,368.56,263.44Z" transform="translate(-43.87 -23.86)"/><path class="cls-11" d="M372.45,283.73a15.7,15.7,0,0,1,.57-4.08,16.43,16.43,0,0,1,1.09-4,33.33,33.33,0,0,1-1.66,8.06Z" transform="translate(-43.87 -23.86)"/><path class="cls-11" d="M388.05,286.79a17.76,17.76,0,0,1-.13-4.31,18.13,18.13,0,0,1,.39-4.3,17.71,17.71,0,0,1,.13,4.31A18.13,18.13,0,0,1,388.05,286.79Z" transform="translate(-43.87 -23.86)"/><polygon class="cls-13" points="25.66 307.37 10.24 374.52 42.85 374.62 57.92 315.57 25.66 307.37"/><path class="cls-6" d="M229.68,248.73c-3.1-4.15-6.66-8.14-8.3-13.06-.79-2.38-1.1-4.9-1.94-7.26s-2.37-4.66-4.71-5.55-4.11,0-5.64,1.68L197.9,257.27l6.45,25.14c6.44-1.45,14.51-3.17,20.52-5.88s10-7,10.42-13.64C235.58,257.72,232.78,252.89,229.68,248.73Z" transform="translate(-43.87 -23.86)"/><path class="cls-7" d="M127.84,243s-38.9,16.93-43.76,24.57-20.84,62.11-20.84,62.11l41,12.05-.68,56.7H204l-.83-100-12.61-55.26s-22.19-1.43-24.25-2.44S127.84,243,127.84,243Z" transform="translate(-43.87 -23.86)"/><path class="cls-13" d="M266.08,104.33c.32-2.29-1.28-4.81-.13-6.82a5.68,5.68,0,0,1,3.11-2.11,5,5,0,0,1,1.92-.46,1.71,1.71,0,0,1,1.57,1,2.14,2.14,0,0,1-.76,2.07,5.8,5.8,0,0,0-1.51,1.74c-.4,1,0,4,.36,4.92a84.73,84.73,0,0,1,3.31,10.7" transform="translate(-43.87 -23.86)"/><path class="cls-13" d="M257.87,105.12c.14-3.47,3-17.14,3.1-20.61,2.35.72,3.71,3.22,4.15,5.64s.22,4.91.63,7.33c.56,3.25,2.25,6.18,4,9s3.47,5.69,4.24,8.89,3.67,11.52,1.41,13.92" transform="translate(-43.87 -23.86)"/><path class="cls-13" d="M257.22,128.52,243.31,194.6c-.49,3-52.72,48.55-52.72,48.55l10.31,41.21L269,217.83a27.68,27.68,0,0,0,7.44-19.39l-1.15-62Z" transform="translate(-43.87 -23.86)"/><path class="cls-13" d="M254.84,105.54l2.38,23,18,7.92s.22-1.63,1-9.6c.86-8.78-8.59-12.55-12.8-19-1.8-2.77-1.32-7.87-2.72-14.19-.16-.73-1.16-5.15-1.7-7.52a5.3,5.3,0,0,0-2.16-3.25c-.81-.54-1.74-.82-2.41,0S254.84,105.54,254.84,105.54Z" transform="translate(-43.87 -23.86)"/><path class="cls-13" d="M266.08,132.38c2.05-1.73,2.49-4.83,1.73-7.4a18.78,18.78,0,0,0-4.25-6.76,26.82,26.82,0,0,1-4.69-6.5c-.76-1.72-1.12-3.62-1.95-5.31s-2.37-3.24-4.26-3.31c1.51,9.5,1.47,15,4.56,25.42" transform="translate(-43.87 -23.86)"/><path class="cls-14" d="M254.5,113.92a6.1,6.1,0,0,1-.19-.76c-.13-.61-.29-1.33-.48-2.18-.42-2-1-4.56-1.59-7.48l-.06-.28.29,0a4.71,4.71,0,0,1,3.37,1.25,10.22,10.22,0,0,1,2.81,4.82,24.94,24.94,0,0,0,1.58,4.17,12.8,12.8,0,0,0,1.76,2.43,3.31,3.31,0,0,1,.6.95,6.87,6.87,0,0,1-.75-.82,11,11,0,0,1-1.93-2.38,22.7,22.7,0,0,1-1.71-4.2,10.08,10.08,0,0,0-2.7-4.57,4.26,4.26,0,0,0-3-1.15l.23-.3C253.93,109.42,254.71,113.93,254.5,113.92Z" transform="translate(-43.87 -23.86)"/><path class="cls-14" d="M262.58,108.07a86.18,86.18,0,0,1-1.66-9.38,85.52,85.52,0,0,1-1.14-9.46,89.8,89.8,0,0,1,1.66,9.38A88.82,88.82,0,0,1,262.58,108.07Z" transform="translate(-43.87 -23.86)"/><path class="cls-14" d="M268.31,108.85s.07.1.14.35l-.16,0a52.55,52.55,0,0,1-1.81-6.54c-.43-1.93-.75-3.69-.94-5a8.29,8.29,0,0,1-.18-2.09c.15,0,.76,3.11,1.62,7,.69,3.11,1.33,5.73,1.46,6.61l-.15,0C268.28,109,268.29,108.85,268.31,108.85Z" transform="translate(-43.87 -23.86)"/><path class="cls-14" d="M271.86,121.52a13.77,13.77,0,0,1-1.16-1.29,11.25,11.25,0,0,0-7.25-3.5,12.14,12.14,0,0,1-1.73-.11,4.05,4.05,0,0,1,1.75-.26A9.88,9.88,0,0,1,271,120,3.8,3.8,0,0,1,271.86,121.52Z" transform="translate(-43.87 -23.86)"/><path class="cls-14" d="M258.85,130.34a14,14,0,0,1-1.18-2.72,58.11,58.11,0,0,1-2.07-6.86,61.52,61.52,0,0,1-1.26-7,13.18,13.18,0,0,1-.17-3,22.1,22.1,0,0,1,.54,2.91c.29,1.79.75,4.27,1.39,7s1.37,5.12,1.91,6.86A21.08,21.08,0,0,1,258.85,130.34Z" transform="translate(-43.87 -23.86)"/><path class="cls-7" d="M178.39,244.32a6.33,6.33,0,0,1,8.51-2c7.34-6,14.85-11.82,22.19-17.79-2.39,12-4,28.73,1.37,39.7,0,0,6.77,12.59,17.55,10.66l-9.61,9.46-15.2,14.05" transform="translate(-43.87 -23.86)"/><path class="cls-6" d="M176,249.94a9.84,9.84,0,0,1,4.77-7.85,31,31,0,0,0-2.91,3.61A31,31,0,0,0,176,249.94Z" transform="translate(-43.87 -23.86)"/><path class="cls-6" d="M183.93,257.29a6.17,6.17,0,0,1-.84-2.19,14,14,0,0,1-.15-5.65A13.77,13.77,0,0,1,185,244.2a6.16,6.16,0,0,1,1.53-1.77c.07.06-.51.74-1.22,2a15.9,15.9,0,0,0-1.89,5.15,16.16,16.16,0,0,0,0,5.49C183.7,256.42,184,257.26,183.93,257.29Z" transform="translate(-43.87 -23.86)"/><path class="cls-11" d="M220.68,283a8.29,8.29,0,0,1-2.4,1,13.17,13.17,0,0,1-7-.22,16.8,16.8,0,0,1-8.43-6,28.34,28.34,0,0,1-5-11.71,88.35,88.35,0,0,1-1.2-23.12c.23-3,.57-5.34.84-7,.13-.82.25-1.45.34-1.88a3.29,3.29,0,0,1,.16-.65,2.8,2.8,0,0,1-.06.67l-.24,1.89c-.21,1.64-.49,4-.67,7a93.18,93.18,0,0,0,1.34,23,28.24,28.24,0,0,0,4.89,11.52,16.58,16.58,0,0,0,8.15,6,13.46,13.46,0,0,0,6.85.37A23.27,23.27,0,0,0,220.68,283Z" transform="translate(-43.87 -23.86)"/><path class="cls-6" d="M104.41,358.51c-.14,0-.26-14.22-.26-31.75s.12-31.75.26-31.75.27,14.21.27,31.75S104.56,358.51,104.41,358.51Z" transform="translate(-43.87 -23.86)"/><path class="cls-6" d="M103.61,284c-.11,0-.08-1.42-.57-3.63a20.12,20.12,0,0,0-1.25-3.76A20.89,20.89,0,0,0,96,269a20.73,20.73,0,0,0-3.3-2.2c-2-1.05-3.39-1.4-3.36-1.5a3.5,3.5,0,0,1,1,.2,8,8,0,0,1,1.12.37,13.93,13.93,0,0,1,1.43.6,19.29,19.29,0,0,1,3.43,2.15,22.5,22.5,0,0,1,3.48,3.54,21.39,21.39,0,0,1,2.49,4.29,18.5,18.5,0,0,1,1.17,3.88,12.22,12.22,0,0,1,.21,1.54,7.19,7.19,0,0,1,.06,1.17A4.31,4.31,0,0,1,103.61,284Z" transform="translate(-43.87 -23.86)"/><path class="cls-6" d="M172.11,242.51a7.6,7.6,0,0,1,.16.85,18.9,18.9,0,0,1,.26,2.45,25.5,25.5,0,0,1-1.25,8.95A26.23,26.23,0,0,1,164,266a25.83,25.83,0,0,1-30.81,2.31,26.24,26.24,0,0,1-8.84-10,25.31,25.31,0,0,1-2.56-8.66,18.43,18.43,0,0,1-.11-2.46,6.24,6.24,0,0,1,0-.86,5.12,5.12,0,0,1,.07.85c0,.56.08,1.39.21,2.44a26.19,26.19,0,0,0,11.47,18.31,25.51,25.51,0,0,0,30.22-2.27,26.26,26.26,0,0,0,8.61-19.81c0-1.06-.08-1.88-.16-2.44A4.59,4.59,0,0,1,172.11,242.51Z" transform="translate(-43.87 -23.86)"/><path class="cls-11" d="M103.55,329.27c0,.14-8.3-2.47-18.44-5.82s-18.33-6.18-18.29-6.32,8.3,2.47,18.45,5.82S103.6,329.13,103.55,329.27Z" transform="translate(-43.87 -23.86)"/><path class="cls-11" d="M202.22,315.39c0,.15-22.05.36-49.25.47s-49.26.09-49.26-.05,22.05-.36,49.26-.47S202.22,315.25,202.22,315.39Z" transform="translate(-43.87 -23.86)"/><path class="cls-11" d="M202.72,324.1c0,.14-22.16.26-49.5.26s-49.51-.12-49.51-.26,22.16-.26,49.51-.26S202.72,324,202.72,324.1Z" transform="translate(-43.87 -23.86)"/><path class="cls-6" d="M189.14,334.68a4.92,4.92,0,0,1-.27.81q-.35.84-.9,2.28l-.66,1.64c-.26.6-.57,1.23-.89,1.92-.66,1.36-1.34,2.94-2.29,4.6-.46.83-.94,1.71-1.43,2.62s-1.11,1.81-1.69,2.77c-1.13,1.93-2.54,3.87-4,5.94a98.56,98.56,0,0,1-23.31,22.86c-2.1,1.4-4.06,2.77-6,3.87-1,.56-1.88,1.14-2.8,1.63L142.25,387c-1.68.91-3.27,1.56-4.65,2.2-.69.3-1.33.6-1.93.85l-1.65.62-2.3.86a4.77,4.77,0,0,1-.81.26,4.7,4.7,0,0,1,.77-.36l2.26-.94,1.64-.67c.59-.26,1.22-.57,1.9-.89,1.36-.65,2.94-1.33,4.6-2.26l2.62-1.41c.91-.49,1.82-1.08,2.78-1.64,1.94-1.11,3.89-2.49,6-3.89A110.63,110.63,0,0,0,166,369.29,110.66,110.66,0,0,0,176.64,357c1.45-2.05,2.86-4,4-5.89.58-.95,1.19-1.84,1.7-2.74l1.46-2.6c1-1.64,1.67-3.2,2.35-4.55.33-.68.65-1.3.92-1.89s.49-1.13.7-1.62c.41-.94.74-1.69,1-2.24A6.83,6.83,0,0,1,189.14,334.68Z" transform="translate(-43.87 -23.86)"/><g class="cls-10"><path d="M185.08,343.38c-6.72,8.18-13.76,14.11-23.63,17.93-4.73,1.82-9.68,3.07-14.26,5.24s-8.89,5.44-10.95,10.07c-1.59,3.58-.82,9,3,9.78a8.24,8.24,0,0,0,4.35-.67c19.54-7.09,32.39-25,41.47-42.35" transform="translate(-43.87 -23.86)"/></g><path class="cls-6" d="M115.16,165.42c-4.22,3.31-4.51,9.5-4.3,14.86s.27,11.46-3.61,15.16c-3.2,3.05-8.8,4.18-9.72,8.51a5,5,0,0,0,8.08,5c-1.35,3.39-.74,7.73,2.15,10s7.94,1.19,9-2.29a4.43,4.43,0,1,0,8.61,2" transform="translate(-43.87 -23.86)"/><path class="cls-6" d="M176.4,204.23a5.33,5.33,0,1,0,10-3.62c-.84-2.08-3-3.65-3.06-5.88-.13-2.7,2.71-4.49,5.2-5.54s5.41-2.45,5.81-5.12-1.85-4.72-3.71-6.55-3.65-4.61-2.34-6.87c.67-1.15,2-1.77,2.86-2.78,1.94-2.24,1.16-6-1.08-7.91s-5.45-2.35-8.38-2-5.73,1.45-8.6,2.16a35.39,35.39,0,0,1-28-5" transform="translate(-43.87 -23.86)"/><path class="cls-13" d="M118,186l10.29,59.64a19.2,19.2,0,0,0,22.29,15.63h0a19.2,19.2,0,0,0,15.74-20.6c-.47-5.29-.87-9.67-.87-9.67s14.94-3.84,13.65-19c-.63-7.34-3.14-22.35-5.58-35.91a28.39,28.39,0,0,0-30.7-23.22l-1.46.15A28.19,28.19,0,0,0,118,186Z" transform="translate(-43.87 -23.86)"/><path class="cls-6" d="M170.36,186a2.18,2.18,0,0,1-1.88,2.39,2.08,2.08,0,0,1-2.42-1.73,2.18,2.18,0,0,1,1.87-2.39A2.09,2.09,0,0,1,170.36,186Z" transform="translate(-43.87 -23.86)"/><path class="cls-6" d="M171,183.88c-.24.3-2-.75-4.33-.52s-3.92,1.57-4.2,1.31.08-.65.78-1.27a5.94,5.94,0,0,1,3.33-1.39,5.76,5.76,0,0,1,3.48.76C170.84,183.25,171.13,183.74,171,183.88Z" transform="translate(-43.87 -23.86)"/><path class="cls-6" d="M147.55,188.61a2.18,2.18,0,0,1-1.87,2.39,2.09,2.09,0,0,1-2.43-1.73,2.18,2.18,0,0,1,1.88-2.39A2.08,2.08,0,0,1,147.55,188.61Z" transform="translate(-43.87 -23.86)"/><path class="cls-6" d="M148.14,186.54c-.24.31-2-.74-4.33-.51s-3.92,1.57-4.2,1.31.08-.65.78-1.27a5.94,5.94,0,0,1,3.33-1.39,5.67,5.67,0,0,1,3.48.76C148,185.92,148.26,186.4,148.14,186.54Z" transform="translate(-43.87 -23.86)"/><path class="cls-6" d="M158.29,203A15.57,15.57,0,0,1,162,202c.59-.12,1.14-.29,1.2-.71a3,3,0,0,0-.57-1.72l-2.2-4.36c-3.08-6.22-5.36-11.35-5.11-11.47s2.95,4.82,6,11l2.13,4.4a3.49,3.49,0,0,1,.54,2.3,1.53,1.53,0,0,1-.9,1,4.35,4.35,0,0,1-1,.24C159.77,203,158.31,203.14,158.29,203Z" transform="translate(-43.87 -23.86)"/><path class="cls-6" d="M147.86,177.35c-.17.66-2.53.58-5.23,1.18s-4.84,1.56-5.26,1c-.19-.25.14-.89,1-1.59a9.09,9.09,0,0,1,3.8-1.76,8.88,8.88,0,0,1,4.19.09C147.37,176.59,147.92,177,147.86,177.35Z" transform="translate(-43.87 -23.86)"/><path class="cls-6" d="M169.5,177.21c-.36.57-2,.18-3.95.34s-3.53.71-4,.19c-.2-.25,0-.81.68-1.38a5.73,5.73,0,0,1,6.37-.42C169.38,176.41,169.65,176.94,169.5,177.21Z" transform="translate(-43.87 -23.86)"/><path class="cls-6" d="M132.86,167.8l-.07.08A12,12,0,0,0,129.1,176a3,3,0,0,1,0,.31c-.17,4.39.37,8.78.15,13.16s-1.28,8.92-4.18,12.21c-1.2,1.35-3.44,2.42-4.66,1.09a3.7,3.7,0,0,1-.73-1.93c-1.83-10.36-5.59-19.35-6.63-30.28a9.24,9.24,0,0,1,3.09-7.87c2.13-1.86,4.75-3.83,7.41-2.87s6.42,5.39,8.58,7.21" transform="translate(-43.87 -23.86)"/><path class="cls-13" d="M123.8,192.4c-.27-.08-10.72-2.06-9.38,8.27s11.44,6.86,11.42,6.56S123.8,192.4,123.8,192.4Z" transform="translate(-43.87 -23.86)"/><path class="cls-14" d="M122.18,203.73c-.05,0-.17.14-.45.32a1.81,1.81,0,0,1-1.35.21c-1.14-.26-2.28-1.88-2.58-3.73a6.27,6.27,0,0,1,.17-2.65,2.1,2.1,0,0,1,1.18-1.56.93.93,0,0,1,1.12.36c.18.27.14.49.2.5s.2-.21.06-.62a1.17,1.17,0,0,0-.49-.6,1.38,1.38,0,0,0-1-.13,2.54,2.54,0,0,0-1.67,1.85,6,6,0,0,0-.25,3c.33,2.07,1.65,3.88,3.2,4.12a1.91,1.91,0,0,0,1.61-.49C122.19,204,122.22,203.74,122.18,203.73Z" transform="translate(-43.87 -23.86)"/><path class="cls-6" d="M123.35,161.48c-3-3.9,3.45-10.54,8.41-12.66s12-.27,17.21.92c3.31.76,6.66,1.93,10,1.46a23,23,0,0,0,6.41-2.31,16.88,16.88,0,0,1,6.51-2,6.26,6.26,0,0,1,5.79,2.93c1.07,2,.12,5-2.1,5.55a5.11,5.11,0,1,1,2.27,9.3c1.37-1.26,3.81.37,3.81,2.22s-1.54,3.37-3.16,4.27c-4.14,2.32-9.24,2.21-13.87,1.14s-9-3-13.59-4.2-12.31-3.36-16.61-1.36c-3.17,1.48-5.07,5.65-7,5a6.37,6.37,0,0,1-3.73-4.34,18.36,18.36,0,0,1-.37-5.92" transform="translate(-43.87 -23.86)"/><path class="cls-6" d="M123.93,194.17a91.1,91.1,0,0,0,1.88,16.33c1.28,5.34,3.6,10.55,7.44,14.46,5.05,5.13,11.57,10,18.66,11.21,7.75,1.27,17.23-.34,23.54-5,3-2.22,5.17-7,4.24-10.62a7.91,7.91,0,0,0,4.51-6.6c.15-2.8-1.55-6.3-3.77-6.67,1.67-.28,2.14-2.92,1.51-4.41s-2.82-1.94-4.48-1.62a11.45,11.45,0,0,0-4.46,2.3,16,16,0,0,1-4.34,2.58c-5.36,1.74-10.79-3-16.42-2.77-5.09.2-9.62,4.43-14.67,3.72a10.17,10.17,0,0,1-6.8-4.74c-1.55-2.38-.88-11.21-1.49-14" transform="translate(-43.87 -23.86)"/><g class="cls-15"><path class="cls-12" d="M164.78,218a7.18,7.18,0,0,1-1.24-.37,6.64,6.64,0,0,0-5.78,1.05c-.63.46-1,.83-1,.78s.2-.49.82-1.05a5.89,5.89,0,0,1,2.89-1.41,6,6,0,0,1,3.21.31C164.42,217.58,164.81,217.93,164.78,218Z" transform="translate(-43.87 -23.86)"/></g><path class="cls-4" d="M153.83,206.49c.38-.06.63,2.47,3,4s5,1,5.06,1.4c0,.15-.55.55-1.68.69a6.33,6.33,0,0,1-4.22-1,5.57,5.57,0,0,1-2.32-3.42C153.44,207.14,153.66,206.49,153.83,206.49Z" transform="translate(-43.87 -23.86)"/><path class="cls-12" d="M146.31,234.48a2.64,2.64,0,0,1,.66.24c.42.15,1.05.38,1.88.61a34.36,34.36,0,0,0,7.2,1.13,31.86,31.86,0,0,0,5-.1,27.27,27.27,0,0,0,5.64-1.11,22.63,22.63,0,0,0,5.76-2.62,17.48,17.48,0,0,0,5-4.54,10.34,10.34,0,0,0,2-7.5l0-.21.19-.08a8,8,0,0,0,3.12-2.58,8.74,8.74,0,0,0,1-1.67,6.41,6.41,0,0,0,.45-1.81,7.17,7.17,0,0,0-2.41-6.05l-.14-.12.11-.15a4.2,4.2,0,0,0,.62-4.11,4,4,0,0,0-2.3-2.26,4.4,4.4,0,0,0-2.09-.29c-.48.06-.73.15-.74.12a2.7,2.7,0,0,1,.73-.23,4.28,4.28,0,0,1,2.17.21,4.15,4.15,0,0,1,2.51,2.33,4.54,4.54,0,0,1-.6,4.47l0-.27a7.52,7.52,0,0,1,2.62,6.39,6.3,6.3,0,0,1-.47,2,9.24,9.24,0,0,1-1,1.78,8.48,8.48,0,0,1-3.32,2.75l.15-.3a10.76,10.76,0,0,1-2,7.92,17.91,17.91,0,0,1-5.14,4.67,22.72,22.72,0,0,1-5.9,2.65,27.58,27.58,0,0,1-5.75,1.08,32.11,32.11,0,0,1-5.08,0,31.31,31.31,0,0,1-7.23-1.31,16.58,16.58,0,0,1-1.88-.71A3.7,3.7,0,0,1,146.31,234.48Z" transform="translate(-43.87 -23.86)"/><path class="cls-12" d="M101,208.09a1.58,1.58,0,0,1-.53-.26,3,3,0,0,1-1-1.32,4.44,4.44,0,0,1-.2-2.67,5.36,5.36,0,0,1,2-2.92,13.36,13.36,0,0,1,3.8-2,24.63,24.63,0,0,0,4.42-1.88,8.64,8.64,0,0,0,3.33-3.92,14.15,14.15,0,0,0,1.18-5.5c.08-3.91-.82-7.62-.92-11.07s.5-6.67,2.07-8.83a8.31,8.31,0,0,1,5-3.43,5.65,5.65,0,0,1,1.68-.08,2.61,2.61,0,0,1,.57.11,8.94,8.94,0,0,0-2.21.17,8.26,8.26,0,0,0-4.78,3.44c-1.47,2.1-2.08,5.22-1.9,8.6s1,7.09,1,11.1a14.67,14.67,0,0,1-1.23,5.7,9.09,9.09,0,0,1-3.55,4.12,24.5,24.5,0,0,1-4.52,1.87,13.08,13.08,0,0,0-3.72,1.86,5.12,5.12,0,0,0-1.93,2.7,4.27,4.27,0,0,0,.11,2.52A3.45,3.45,0,0,0,101,208.09Z" transform="translate(-43.87 -23.86)"/><path class="cls-12" d="M176,155.2a2.76,2.76,0,0,1,.45-.21,3.66,3.66,0,0,1,.59-.2,5,5,0,0,1,.83-.17,6.19,6.19,0,0,1,5.1,1.83h0a8.29,8.29,0,0,1,1.55,6.2,10.17,10.17,0,0,1-4.1,6.77,15.7,15.7,0,0,1-8.69,3,35,35,0,0,1-10.1-1.11,45.71,45.71,0,0,1-14.65-6.49,46.82,46.82,0,0,0-6-3.49,16.4,16.4,0,0,0-5.8-1.48,17.32,17.32,0,0,0-8.51,1.58c-1.87.88-2.76,1.64-2.8,1.58a12.23,12.23,0,0,1,2.72-1.77,17.18,17.18,0,0,1,8.61-1.76,16.75,16.75,0,0,1,6,1.45,47.19,47.19,0,0,1,6.09,3.49,45.93,45.93,0,0,0,14.51,6.38,34.78,34.78,0,0,0,9.94,1.12,15.4,15.4,0,0,0,8.45-2.88,9.78,9.78,0,0,0,4-6.46,8,8,0,0,0-1.39-6h0a6.11,6.11,0,0,0-4.86-1.87A13.42,13.42,0,0,0,176,155.2Z" transform="translate(-43.87 -23.86)"/><path class="cls-12" d="M170.65,146.39a5.85,5.85,0,0,1-.47,2.29,9.7,9.7,0,0,1-4.28,4.67,12.26,12.26,0,0,1-4.17,1.5,17.6,17.6,0,0,1-5.08,0c-3.57-.45-7.26-1.85-11.14-3.06s-7.79-1.93-11.22-1.19a14.8,14.8,0,0,0-7.89,4.6,15.3,15.3,0,0,0-3.2,5.36c-.46,1.42-.55,2.25-.61,2.24a2.26,2.26,0,0,1,.06-.6,11.16,11.16,0,0,1,.36-1.7,15.3,15.3,0,0,1,11.18-10.37c3.56-.79,7.58-.06,11.47,1.16s7.56,2.62,11.06,3.08a17.13,17.13,0,0,0,4.95,0,12,12,0,0,0,4.05-1.39A9.7,9.7,0,0,0,170,148.6,14.25,14.25,0,0,0,170.65,146.39Z" transform="translate(-43.87 -23.86)"/><path class="cls-7" d="M258.91,343.37a10.63,10.63,0,0,1,7,4.48,18.74,18.74,0,0,1,3,7.92c.91,5.45-.56,11.63-2.58,16.77-5.55-2.61-8.51-9.07-9.8-12.45-2-5.33-2.5-16.22,2.34-16.72" transform="translate(-43.87 -23.86)"/><path class="cls-7" d="M274.55,380.2a9.05,9.05,0,0,1-.21-9.1,12,12,0,0,1,7.39-5.66,5.06,5.06,0,0,1,4.26.3,3.87,3.87,0,0,1,1.41,3.67,7.94,7.94,0,0,1-1.75,3.69c-2.89,3.73-6.38,6.82-11.1,7.1" transform="translate(-43.87 -23.86)"/><path class="cls-6" d="M273.15,397.44a4,4,0,0,1-.18-1.14c-.08-.74-.17-1.82-.25-3.15a38.93,38.93,0,0,1,.64-10.4,19.57,19.57,0,0,1,4.72-9.27,12.76,12.76,0,0,1,2.46-2,3.81,3.81,0,0,1,1-.53,27,27,0,0,0-3.17,2.84,20.38,20.38,0,0,0-4.45,9.1,45.14,45.14,0,0,0-.8,10.26A35.64,35.64,0,0,1,273.15,397.44Z" transform="translate(-43.87 -23.86)"/><path class="cls-6" d="M260.2,351.63a10.7,10.7,0,0,1,.7,1.78c.41,1.15,1,2.84,1.66,4.93,1.37,4.18,3.16,10,5,16.45s3.32,12.35,4.34,16.63c.51,2.14.9,3.87,1.16,5.08a11.72,11.72,0,0,1,.33,1.88,11.78,11.78,0,0,1-.57-1.83c-.34-1.29-.8-3-1.34-5-1.13-4.25-2.7-10.12-4.51-16.57s-3.54-12.28-4.8-16.49l-1.48-5A11.64,11.64,0,0,1,260.2,351.63Z" transform="translate(-43.87 -23.86)"/><path class="cls-7" d="M267.16,385.37A21.2,21.2,0,0,0,252,373.3c-1.68-.32-3.75-.28-4.69,1.16s-.13,3.35.88,4.74a18.11,18.11,0,0,0,19,6.64" transform="translate(-43.87 -23.86)"/><path class="cls-6" d="M253.85,378.13a3.79,3.79,0,0,1,1.1.12,9.26,9.26,0,0,1,1.28.27,14.62,14.62,0,0,1,1.65.49,22.08,22.08,0,0,1,4.08,1.91,25.47,25.47,0,0,1,4.39,3.35,26.08,26.08,0,0,1,3.49,4.27,23.44,23.44,0,0,1,2,4,16.62,16.62,0,0,1,.55,1.64,8.54,8.54,0,0,1,.31,1.27,4.24,4.24,0,0,1,.15,1.1c-.12,0-.42-1.53-1.42-3.84a24.84,24.84,0,0,0-2.1-3.87,25.37,25.37,0,0,0-7.7-7.46,25,25,0,0,0-3.94-2C255.39,378.51,253.82,378.25,253.85,378.13Z" transform="translate(-43.87 -23.86)"/></svg>