<?xml version="1.0" encoding="utf-8"?>
<!-- Generator: Adobe Illustrator 24.1.2, SVG Export Plug-In . SVG Version: 6.00 Build 0)  -->
<svg version="1.1" xmlns="http://www.w3.org/2000/svg" xmlns:xlink="http://www.w3.org/1999/xlink" x="0px" y="0px"
	 viewBox="0 0 500 500" style="enable-background:new 0 0 500 500;" xml:space="preserve">
<style type="text/css">
	.st0{fill:#EBEBEB;}
	.st1{fill:#FFFFFF;}
	.st2{fill:#F5F5F5;}
	.st3{fill:#E0E0E0;}
	.st4{display:none;}
	.st5{display:inline;fill:#F5F5F5;}
	.st6{fill:#263238;}
	.st7{fill:#E8505B;}
	.st8{fill-rule:evenodd;clip-rule:evenodd;fill:#FFFFFF;}
	.st9{fill:#455A64;}
	.st10{fill:#FFBE9D;}
	.st11{opacity:0.4;}
	.st12{opacity:0.5;}
	.st13{opacity:0.6;}
	.st14{fill:#EB996E;}
</style>
<g id="Background_Complete">
	<g id="XMLID_68_">
		<path id="XMLID_74_" class="st0" d="M136.3,126.4L136.3,126.4c-18.9,0-34.3-15.3-34.3-34.3l0,0c0-18.9,15.3-34.3,34.3-34.3l0,0
			c18.9,0,34.3,15.3,34.3,34.3l0,0C170.6,111,155.2,126.4,136.3,126.4z"/>
		<g id="XMLID_69_">
			<g id="XMLID_71_">
				<rect id="XMLID_73_" x="120.8" y="84.5" class="st1" width="7.1" height="22.9"/>
				<path id="XMLID_72_" class="st1" d="M124.3,81.5c2.3,0,4.2-1.9,4.2-4.2c0-2.3-1.9-4.2-4.2-4.2c-2.3,0-4.2,1.9-4.2,4.2
					C120.1,79.6,122,81.5,124.3,81.5z"/>
			</g>
			<path id="XMLID_70_" class="st1" d="M139.2,95.4c0-3.2,1.5-5.1,4.3-5.1c2.6,0,3.9,1.8,3.9,5.1c0,3.3,0,12,0,12h7.1
				c0,0,0-8.4,0-14.5c0-6.1-3.5-9.1-8.3-9.1c-4.9,0-6.9,3.8-6.9,3.8v-3.1h-6.8v22.9h6.8C139.2,107.4,139.2,98.9,139.2,95.4z"/>
		</g>
	</g>
	<polygon class="st2" points="182.2,23.9 186.9,32.5 195.5,37.2 186.9,41.8 182.2,50.4 177.5,41.8 169,37.2 177.5,32.5 	"/>
	<polygon class="st0" points="377.9,256.3 381.4,262.7 387.8,266.2 381.4,269.7 377.9,276.2 374.4,269.7 367.9,266.2 374.4,262.7 	
		"/>
	<polygon class="st3" points="387.8,224.5 389.4,227.4 392.3,229 389.4,230.6 387.8,233.5 386.2,230.6 383.3,229 386.2,227.4 	"/>
	<polygon class="st3" points="148.7,27.1 150.3,30 153.2,31.6 150.3,33.2 148.7,36.1 147.1,33.2 144.2,31.6 147.1,30 	"/>
	<g>
		<g>
			<path class="st3" d="M69.1,296.8c3.6-1.6,6.1-5.3,6.1-9.7c-0.1-5.7-4.4-10.3-9.8-10.3c-5.4,0-9.7,4.7-9.6,10.5
				c0,4.4,2.7,8.1,6.3,9.6c-14.9,2.4-14,18.7-14,18.7l35.4-0.3C83.4,315.3,84,298.8,69.1,296.8z"/>
		</g>
	</g>
	<g>
		<path class="st0" d="M408.6,403.9c-0.5-2.5-3-4.5-5.6-4.4c-2.6,0.1-4.9,2.2-5.3,4.8c-0.4-2.5-2.7-4.7-5.3-4.7
			c-2.6-0.1-5.1,1.9-5.6,4.5c-0.3,1.9,0.3,3.8,1.3,5.4c1,1.6,2.5,2.8,3.9,4.1c2,1.8,3.8,3.4,5.8,5.2c2-1.8,3.6-3.4,5.6-5.2
			c1.4-1.3,2.8-2.6,3.8-4.1C408.4,407.7,409,405.8,408.6,403.9z"/>
	</g>
	<g>
		<g>
			<path class="st3" d="M431.7,193.2l3.8-0.8l6-13.2l-1.5-7.6c0,0,5.8-1.5,7.1,8.5c1.3,10.1,1.5,7.4,1.5,7.4s12.5-2.4,13.7-1.5
				c0.9,0.6,3.7,12.9,5.2,19.6c0.7,3.4-0.7,6.9-3.7,8.3c-0.4,0.2-0.9,0.4-1.3,0.4c-3.1,0.6-19.5,1.2-19.5,1.2l-6.6,1.3L431.7,193.2z
				"/>
		</g>
		<g>
			<polygon class="st3" points="420.4,193.2 427.9,218.7 434.4,217.4 429.3,192 			"/>
		</g>
	</g>
</g>
<g id="Background_Simple" class="st4">
	<path class="st5" d="M469.9,186.2c-2.6-27.5-9-52.6-22.5-73.5c-13.5-20.8-39.6-31.8-63.7-37.9c-24.1-6.1-44.2-0.3-61.7,17.3
		c-18.3,18.5-23.9,46.9-29,72.4c-5.1,25.5-15,58.6-35.8,74.3c-23.6,17.9-60.7,8.2-90,3.8c-29.3-4.5-61.8-8.8-86.5,7.6
		c-20.3,13.4-30.5,39-29.3,63.3c1.2,24.3,8.7,46.7,20.9,67.8c16.8,29,66.5,64.2,99.9,53.5l144.1-8.1c27.2-12.5,21,6.8,65.3-19
		c25.8-15,65.7-69.5,77.4-106.9C469.5,267.8,473.1,220.4,469.9,186.2z"/>
	<path class="st5" d="M182.9,34.8l-9.2-3.8c-36.1-12.2-79.9,8.5-93.4,44.2c-13.4,35.6,5.9,80.2,41,94.8
		c35.2,14.6,80.3-3.2,96.1-37.8C233.2,97.5,217,51.7,182.9,34.8z"/>
</g>
<g id="Floor">
	<g>
		<path class="st6" d="M470.5,469.3c0,0.1-99.2,0.3-221.5,0.3c-122.3,0-221.5-0.1-221.5-0.3c0-0.1,99.1-0.3,221.5-0.3
			C371.3,469.1,470.5,469.2,470.5,469.3z"/>
	</g>
</g>
<g id="Icons">
	<g id="XMLID_45_">
		<path id="XMLID_47_" class="st7" d="M393.4,183.1L393.4,183.1c-20.2,9.8-44.5,1.4-54.3-18.8l0,0c-9.8-20.2-1.4-44.5,18.8-54.3l0,0
			c20.2-9.8,44.5-1.4,54.3,18.8l0,0C422,149,413.6,173.3,393.4,183.1z"/>
		<path id="XMLID_46_" class="st1" d="M365.6,155.7c0.7,0,1.1-0.5,0.9-1.2c-0.1-0.5-0.4-1.7-0.5-2.2c-0.1-0.7-0.3-0.9-1-1.2
			c-1.6-0.7-3-1.9-4-4.1c-3.1-6.3-1.1-14.2,6.5-17.9c6.7-3.3,12.4-1,15,4.5c3.5,7.2,3.3,14.8-1.5,17.1c-2.6,1.3-5.6,0.1-6.3-2.9
			c-0.8-3.5-1-7.6-2.1-9.9c-1-2-2.9-3.2-5.2-2.1c-2.7,1.3-3.5,5.1-1.7,8.8c1.1,2.4,2.7,3.6,2.7,3.6s2.9,12.9,3.4,15.1
			c1,4.5,4.2,9,4.5,9.5c0.2,0.3,0.6,0.2,0.7-0.1c0.1-0.4,1.4-5.9,0.5-10.3c-0.2-1.3-1.6-7.7-1.6-7.7c1.7,1.2,4.9,1.5,7.6,0.1
			c8-3.9,9.9-13.8,5.1-23.6c-3.6-7.4-13.2-11.2-22.7-6.6c-11.8,5.8-13.7,17.2-10.2,24.2C358,152.9,361.4,156,365.6,155.7z"/>
	</g>
	<g id="XMLID_38_">
		<path id="XMLID_44_" class="st7" d="M434,297.8L434,297.8c-14.5-5.5-21.7-21.7-16.2-36.2l0,0c5.5-14.5,21.7-21.7,36.2-16.2l0,0
			c14.5,5.5,21.7,21.7,16.2,36.2l0,0C464.7,296,448.5,303.3,434,297.8z"/>
		<g id="XMLID_39_">
			<path id="XMLID_41_" class="st8" d="M458.6,276.3c2.7-7.6-1.2-16.1-8.9-19c-7.6-2.9-16,0.7-19.2,8c-0.1,0.2-0.2,0.4-0.2,0.6
				c-1,2.6-1.2,5.4-0.7,8l-5.4,6.5l8.8,0.5c1.6,1.9,3.7,3.4,6.1,4.3c7.8,3,16.5-0.9,19.4-8.6C458.6,276.6,458.6,276.5,458.6,276.3z
				 M439.9,283.1c-2.4-0.9-4.4-2.5-5.8-4.4l-5.1-0.3l3.1-3.8c-0.7-2.5-0.6-5.2,0.4-7.8c0.1-0.4,0.3-0.8,0.5-1.1
				c2.9-5.7,9.7-8.5,15.9-6.1c6.2,2.4,9.5,9.1,7.7,15.4c-0.1,0.3-0.2,0.6-0.3,0.9C453.8,282.3,446.5,285.6,439.9,283.1z"/>
			<path id="XMLID_40_" class="st8" d="M449.8,276.6c-0.3-0.3-1.7-1.8-1.9-2c-0.3-0.2-0.5-0.4-0.8-0.1c-0.4,0.3-1.3,0.8-1.6,0.9
				c-0.3,0.2-0.5,0.1-0.8-0.2c-0.3-0.3-1.3-1.1-2.1-2.8c-0.7-1.3-0.9-2.7-1-3.1c-0.1-0.4,0.2-0.5,0.4-0.6c0.2-0.1,0.5-0.3,0.8-0.4
				c0.1,0,0.1-0.1,0.2-0.1c0.1-0.1,0.2-0.2,0.4-0.3c0.2-0.2,0.2-0.4,0.2-0.6c0-0.2-0.1-2.2-0.1-3c0-0.8-0.4-0.8-0.6-0.9
				c-0.2-0.1-0.4-0.2-0.6-0.3c-0.2-0.1-0.6-0.1-1.1,0.1c-0.4,0.2-1.7,0.7-2.3,2.4c-0.2,0.4-0.2,0.8-0.3,1.2
				c-0.1,1.3,0.3,2.6,0.3,2.8c0.1,0.3,0.9,4.7,3.9,7.4c3,2.7,3.2,2.3,3.8,2.4c0.7,0.2,2.4,0,3-0.7c0.6-0.7,0.9-1.4,0.8-1.6
				C450.3,277.1,450.1,276.9,449.8,276.6z"/>
		</g>
	</g>
	<g id="XMLID_24_">
		<path id="XMLID_26_" class="st7" d="M69.6,168.2L69.6,168.2c-11.8,0-21.4-9.6-21.4-21.4l0,0c0-11.8,9.6-21.4,21.4-21.4l0,0
			c11.8,0,21.4,9.6,21.4,21.4l0,0C91,158.7,81.4,168.2,69.6,168.2z"/>
		<path id="XMLID_25_" class="st1" d="M58.2,154c2.1,1.3,4.5,2.1,7.2,2.1c8.7,0,13.6-7.3,13.3-13.9c0.9-0.7,1.7-1.5,2.3-2.4
			c-0.8,0.4-1.7,0.6-2.7,0.7c1-0.6,1.7-1.5,2.1-2.6c-0.9,0.5-1.9,0.9-3,1.1c-0.9-0.9-2.1-1.5-3.4-1.5c-3,0-5.2,2.8-4.6,5.7
			c-3.9-0.2-7.3-2.1-9.6-4.9c-1.2,2.1-0.6,4.8,1.4,6.2c-0.8,0-1.5-0.2-2.1-0.6c-0.1,2.2,1.5,4.2,3.7,4.6c-0.7,0.2-1.4,0.2-2.1,0.1
			c0.6,1.9,2.3,3.2,4.4,3.2C63.2,153.6,60.7,154.3,58.2,154z"/>
	</g>
	<g id="XMLID_4_">
		<path id="XMLID_21_" class="st9" d="M108,407.6L108,407.6c-19.8,4.7-39.6-7.5-44.3-27.3l0,0C59,360.6,71.2,340.7,91,336h0
			c19.8-4.7,39.6,7.5,44.3,27.3l0,0C140,383.1,127.8,402.9,108,407.6z"/>
		<g id="XMLID_5_">
			<path id="XMLID_14_" class="st1" d="M95.7,355.7c5.2-1.2,5.9-1.4,8-1.8c1.9-0.4,3.1-0.3,3.8-0.2c1,0.1,1.8,0.4,2.6,0.9
				c0.9,0.5,1.4,1.1,2,1.9c0.4,0.6,1,1.6,1.5,3.5c0.6,2,0.8,2.7,2,7.9c1.2,5.2,1.4,5.9,1.8,8c0.4,1.9,0.3,3.1,0.2,3.8
				c-0.1,1-0.4,1.8-0.9,2.6c-0.5,0.9-1.1,1.4-1.9,2c-0.6,0.4-1.6,1-3.5,1.5c-2,0.6-2.7,0.8-7.9,2c-5.2,1.2-5.9,1.4-8,1.8
				c-1.9,0.4-3.1,0.3-3.8,0.2c-1-0.1-1.8-0.4-2.6-0.9c-0.9-0.5-1.4-1.1-2-1.9c-0.4-0.6-1-1.6-1.5-3.5c-0.6-2-0.8-2.7-2-7.9
				c-1.2-5.2-1.4-5.9-1.8-8c-0.4-1.9-0.3-3.1-0.2-3.8c0.1-1,0.4-1.8,0.9-2.6c0.5-0.9,1.1-1.4,1.9-2c0.6-0.4,1.6-1,3.5-1.5
				C89.8,357.1,90.4,357,95.7,355.7 M94.8,352.2c-5.3,1.3-6,1.5-8.1,2c-2.1,0.6-3.4,1.3-4.5,2c-1.2,0.8-2.1,1.7-2.9,3.1
				c-0.8,1.4-1.2,2.6-1.4,4c-0.2,1.4-0.2,2.9,0.2,5c0.4,2.1,0.5,2.8,1.8,8.1c1.3,5.3,1.5,6,2,8.1c0.6,2.1,1.3,3.4,2,4.5
				c0.8,1.2,1.7,2.1,3.1,2.9c1.4,0.8,2.6,1.2,4,1.4c1.4,0.2,2.9,0.2,5-0.2c2.1-0.4,2.8-0.5,8.1-1.8c5.3-1.3,6-1.5,8.1-2
				c2.1-0.6,3.4-1.3,4.5-2c1.2-0.8,2.1-1.7,2.9-3.1c0.8-1.4,1.2-2.6,1.4-4c0.2-1.4,0.2-2.9-0.2-5c-0.4-2.1-0.5-2.8-1.8-8.1
				c-1.3-5.3-1.5-6-2-8.1c-0.6-2.1-1.3-3.4-2-4.5c-0.8-1.2-1.7-2.1-3.1-2.9c-1.4-0.8-2.6-1.2-4-1.4c-1.4-0.2-2.9-0.2-5,0.2
				C100.8,350.8,100.2,350.9,94.8,352.2"/>
			<path id="XMLID_8_" class="st1" d="M97.1,361.7c-5.6,1.3-9,6.9-7.7,12.5c1.3,5.6,6.9,9,12.5,7.7c5.6-1.3,9-6.9,7.7-12.5
				C108.3,363.8,102.7,360.4,97.1,361.7 M101.1,378.4c-3.6,0.9-7.2-1.4-8.1-5c-0.9-3.6,1.4-7.2,5-8.1c3.6-0.9,7.2,1.4,8.1,5
				C106.9,373.9,104.7,377.5,101.1,378.4"/>
			<path id="XMLID_7_" class="st1" d="M109.8,358.3c0.3,1.3-0.5,2.6-1.8,2.9c-1.3,0.3-2.6-0.5-2.9-1.8c-0.3-1.3,0.5-2.6,1.8-2.9
				C108.2,356.2,109.5,357,109.8,358.3"/>
		</g>
	</g>
	<g id="XMLID_1_">
		<path id="XMLID_3_" class="st9" d="M386.8,375.2L386.8,375.2c-9.5,0-17.2-7.7-17.2-17.2l0,0c0-9.5,7.7-17.2,17.2-17.2l0,0
			c9.5,0,17.2,7.7,17.2,17.2l0,0C404,367.5,396.3,375.2,386.8,375.2z"/>
		<path id="XMLID_2_" class="st1" d="M384.2,368.4h4.2V358h2.9l0.3-3.5h-3.2c0,0,0-1.3,0-2c0-0.8,0.2-1.2,1-1.2c0.6,0,2.3,0,2.3,0
			v-3.6c0,0-2.4,0-2.9,0c-3.1,0-4.5,1.4-4.5,4c0,2.3,0,2.8,0,2.8H382v3.5h2.2V368.4z"/>
	</g>
</g>
<g id="Device">
	<g>
		<g>
			<g>
				<g>
					<g>
						<g>
							<g>
								<g>
									<path class="st6" d="M328.3,470L190.4,470c-16.6,0-30-13.5-30-30l0.1-345.7c0-16.6,13.5-30,30.1-30l137.9,0.1
										c16.6,0,30,13.5,30,30L358.3,440C358.3,456.6,344.9,470.1,328.3,470z"/>
								</g>
							</g>
						</g>
						<g>
							<g>
								<g>
									<path class="st1" d="M328.2,76.5l-26.7,0c-3.6,0-6.5,3-6.5,6.8l0,4.8c0,3.7-2.9,6.8-6.5,6.8l-52.1,0c-3.6,0-6.5-3-6.5-6.8
										l0-4.8c0-3.7-2.9-6.8-6.5-6.8l-9.4,0l-23.4,0c-11.6,0-21,9.4-21,21l-0.1,337.4c0,11.6,9.4,21,21,21l137.6,0.1
										c11.6,0,21-9.4,21-21l0.1-337.4C349.3,85.9,339.8,76.5,328.2,76.5z"/>
								</g>
							</g>
						</g>
					</g>
				</g>
				<g>
					<g>
						<g>
							<g>
								<path class="st6" d="M330.2,103.9c0,0.1-3.5,0.2-7.8,0.2c-4.3,0-7.8,0-7.8-0.1c0-0.1,3.5-0.2,7.8-0.2
									C326.8,103.8,330.2,103.8,330.2,103.9z"/>
							</g>
						</g>
					</g>
					<g>
						<g>
							<g>
								<path class="st6" d="M330.3,107.9c0,0.1-3.5,0.2-7.8,0.2c-4.3,0-7.8,0-7.8-0.1c0-0.1,3.5-0.2,7.8-0.2
									C326.8,107.8,330.3,107.8,330.3,107.9z"/>
							</g>
						</g>
					</g>
					<g>
						<g>
							<g>
								<path class="st6" d="M330.3,111.9c0,0.1-3.5,0.2-7.8,0.2c-4.3,0-7.8,0-7.8-0.1c0-0.1,3.5-0.2,7.8-0.2
									C326.8,111.7,330.3,111.8,330.3,111.9z"/>
							</g>
						</g>
					</g>
				</g>
				<g>
					<g>
						<g>
							<path class="st6" d="M184,115.8c0,0,0.1,0,0.4,0c0.3,0,0.7,0,1.1,0c1.1,0,2.5-0.1,4.2-0.1l-0.1,0.1c0-0.9,0-1.9,0-3
								c0-0.6,0-1.1,0-1.7c0.1-0.6,0.7-1.2,1.4-1.3c0.7,0,1.3,0,2,0c0.8,0.1,1.4,0.8,1.4,1.6c0,1.4,0,2.9,0.1,4.4l-0.2-0.2
								c1.7,0,3.5,0,5.3-0.1l-0.2,0.2c0-2.1,0-4.3-0.1-6.6c0-0.6,0-1.1,0-1.7c0-0.5-0.3-0.9-0.7-1.2c-0.8-0.8-1.5-1.5-2.3-2.3
								c-0.8-0.7-1.5-1.5-2.2-2.2c-0.4-0.4-0.7-0.7-1.1-1.1c-0.4-0.4-0.7-0.7-1.1-0.8c-0.4-0.1-0.9,0-1.2,0.2c-0.3,0.3-0.7,0.7-1,1
								c-0.6,0.7-1.3,1.3-1.9,1.9c-1.2,1.2-2.4,2.4-3.3,3.4c-0.4,0.6-0.2,1.3-0.3,2c0,0.7,0,1.3,0,1.9c0,1.1,0,2.1,0,3
								c0,0.8,0,1.4,0,1.9C184,115.5,184,115.7,184,115.8c0,0,0-0.2,0-0.6c0-0.5,0-1.1-0.1-1.9c0-0.9,0-1.9-0.1-3c0-0.6,0-1.2,0-1.9
								c0-0.3,0-0.7,0-1c0-0.4,0.1-0.8,0.3-1.1c1-1.2,2.1-2.3,3.3-3.5c0.6-0.6,1.2-1.3,1.9-1.9c0.3-0.3,0.6-0.7,1-1
								c0.4-0.3,1-0.4,1.5-0.3c0.6,0.1,0.9,0.6,1.3,0.9c0.4,0.3,0.7,0.7,1.1,1.1c0.7,0.7,1.5,1.4,2.2,2.2c0.8,0.7,1.5,1.5,2.3,2.3
								c0.2,0.2,0.4,0.4,0.6,0.6c0.2,0.3,0.3,0.6,0.3,0.9c0,0.6,0,1.1,0,1.7c0,2.2,0,4.4,0.1,6.6l0,0.2l-0.2,0c-1.8,0-3.6,0-5.3,0
								l-0.2,0l0-0.2c0-1.5,0-3,0-4.4c0-0.6-0.5-1.2-1.1-1.3c-0.6,0-1.3,0-1.9,0c-0.6,0-1,0.5-1.1,1c-0.1,0.5,0,1.1,0,1.7
								c0,1.1,0,2.1,0,3l0,0.1l-0.1,0c-1.7,0-3.2,0-4.2,0c-0.4,0-0.8,0-1.1,0C184.1,115.8,184,115.8,184,115.8z"/>
						</g>
					</g>
				</g>
				<g>
					<g>
						<g>
							<g>
								<path class="st9" d="M275,379.4c0,0-0.5,0.1-1.4,0.1c-1,0-2.4,0-3.9,0.1c-3.3,0-7.9,0.1-13,0.1c-5.1,0-9.7,0-13-0.1
									c-1.6,0-2.9-0.1-3.9-0.1c-0.9,0-1.4-0.1-1.4-0.1c0,0,0.5-0.1,1.4-0.1c1,0,2.4,0,3.9-0.1c3.3,0,7.9-0.1,13-0.1
									c5.1,0,9.7,0,13,0.1c1.6,0,2.9,0.1,3.9,0.1C274.5,379.3,275,379.4,275,379.4z"/>
							</g>
							<g>
								<path class="st9" d="M332.8,388.5c0,0.1-21.2,0.3-47.3,0.3c-26.1,0-47.3-0.1-47.3-0.3c0-0.1,21.2-0.3,47.3-0.3
									C311.6,388.2,332.8,388.3,332.8,388.5z"/>
							</g>
							<g>
								<path class="st9" d="M303.2,397c0,0.1-14.6,0.3-32.5,0.3c-18,0-32.5-0.1-32.5-0.3s14.6-0.3,32.5-0.3
									C288.7,396.7,303.2,396.8,303.2,397z"/>
							</g>
						</g>
					</g>
					<g>
						<path class="st6" d="M334.6,413.5l-2.9-2.9l-2.8,2.8l0-8.4l5.7,0L334.6,413.5z M331.7,410.2L331.7,410.2l2.7,2.7l0-7.7l-5.2,0
							l0,7.5L331.7,410.2z"/>
					</g>
					<g>
						<path class="st6" d="M256.4,412.4l-1-0.5c-0.5,0.3-0.9,0.4-1.3,0.4c-1.6,0-2.9-1.3-2.9-2.9c0-1.6,1.3-2.9,2.9-2.9
							c1.6,0,2.9,1.3,2.9,2.9c0,0.7-0.2,1.4-0.7,1.9L256.4,412.4z M254,406.8c-1.5,0-2.7,1.2-2.7,2.7c0,1.5,1.2,2.7,2.7,2.7
							c0.4,0,0.8-0.1,1.3-0.4l0,0l0.8,0.3l-0.2-0.8l0,0c0.5-0.5,0.7-1.2,0.7-1.8C256.7,408,255.5,406.8,254,406.8z"/>
					</g>
					<g>
						<path class="st6" d="M263.1,412l-1.2-2.9l-2.2-2l5.4,0L263.1,412z M260.2,407.2l1.9,1.7l1,2.5l1.7-4.2L260.2,407.2z"/>
					</g>
					<g>
						
							<rect x="261.8" y="408" transform="matrix(0.8382 -0.5454 0.5454 0.8382 -179.9127 209.7816)" class="st6" width="3.5" height="0.2"/>
					</g>
					<g>
						<path class="st7" d="M247.9,407.7c-0.2-0.8-0.9-1.4-1.7-1.3c-0.8,0-1.5,0.7-1.6,1.5c-0.1-0.8-0.8-1.4-1.6-1.4
							c-0.8,0-1.5,0.6-1.7,1.4c-0.1,0.6,0.1,1.2,0.4,1.6c0.3,0.5,0.8,0.9,1.2,1.2c0.6,0.5,1.2,1,1.8,1.6c0.6-0.5,1.1-1.1,1.7-1.6
							c0.4-0.4,0.9-0.8,1.2-1.3C247.8,408.8,248,408.2,247.9,407.7z"/>
					</g>
					<g>
						<path class="st6" d="M340.7,421c0,0,0-0.3,0-0.9c0-0.6,0-1.5,0-2.7c0-2.4,0-6,0-10.6c0-9.2-0.1-22.6-0.1-39.3l0.2,0.2
							c-38.5,0-95.9,0.1-159.9,0.1h0l0.3-0.3c0,18.6,0,36.7,0,53.6l-0.3-0.3c46,0,86,0.1,114.4,0.1c14.2,0,25.6,0.1,33.4,0.1
							c3.9,0,6.9,0,9,0c1,0,1.8,0,2.3,0C340.4,421,340.7,421,340.7,421s-0.3,0-0.8,0c-0.5,0-1.3,0-2.3,0c-2,0-5,0-8.9,0
							c-7.8,0-19.1,0-33.3,0.1c-28.5,0-68.5,0.1-114.6,0.1l-0.3,0V421c0-16.9,0-35,0-53.6v-0.3h0.3h0c64,0,121.4,0.1,159.9,0.1h0.2
							l0,0.2c0,16.8-0.1,30.2-0.1,39.4c0,4.6,0,8.1,0,10.5c0,1.2,0,2.1,0,2.7C340.7,420.7,340.7,421,340.7,421z"/>
					</g>
					<g>
						<g>
							<g>
								<g>
									
										<rect x="191.7" y="372.1" transform="matrix(5.681172e-03 -1 1 5.681172e-03 -185.9514 601.3948)" class="st0" width="35.4" height="44.3"/>
									<g>
										<path class="st6" d="M231.7,376.6c0,0-0.1,0-0.2,0c-0.2,0-0.4,0-0.6,0c-0.6,0-1.4,0-2.4,0c-2.1,0-5.2,0-9.1,0
											c-7.8,0-18.8,0-31.9-0.1l0.2-0.2c-0.1,10.5-0.1,22.6-0.2,35.4c0.1,0.1-0.5-0.5-0.3-0.3l0,0l0,0l0,0l0.1,0l0.2,0l0.4,0
											l0.8,0l1.5,0c1,0,2,0,3,0c2,0,4,0,6,0c3.9,0,7.8,0,11.5,0.1c7.4,0.1,14.4,0.1,20.7,0.2l-0.2,0.2
											c0.1-10.6,0.2-19.5,0.3-25.7c0-3.1,0.1-5.5,0.1-7.2c0-0.8,0-1.4,0-1.9C231.7,376.9,231.7,376.6,231.7,376.6s0,0.2,0,0.6
											c0,0.4,0,1.1,0,1.9c0,1.7,0,4.1,0,7.1c0,6.2,0,15.1,0,25.8l0,0.2l-0.2,0c-6.3,0-13.3-0.1-20.7-0.1c-3.7,0-7.6,0-11.5-0.1
											c-2,0-4,0-6,0c-1,0-2,0-3,0l-1.5,0l-0.8,0l-0.4,0l-0.2,0l-0.1,0l0,0l0,0l0,0c0.2,0.2-0.3-0.3-0.3-0.3
											c0.1-12.8,0.2-24.9,0.2-35.4l0-0.2l0.2,0c13.2,0.1,24.3,0.2,32.1,0.3c3.9,0,6.9,0.1,9,0.1c1,0,1.8,0,2.4,0
											c0.2,0,0.4,0,0.6,0C231.6,376.6,231.7,376.6,231.7,376.6z"/>
									</g>
								</g>
							</g>
						</g>
						
							<rect x="193.9" y="373.6" transform="matrix(5.683768e-03 -1 1 5.683768e-03 -185.9805 601.3647)" class="st3" width="31" height="41.2"/>
						<polygon class="st2" points="188.7,409.6 203.2,390.4 212.1,402.5 218.1,396.1 229.9,409.8 						"/>
						<g>
							<g>
								<path class="st2" d="M215.9,388.1c0,1.8-1.5,3.2-3.3,3.2c-1.8,0-3.2-1.5-3.2-3.3c0-1.8,1.5-3.2,3.3-3.2
									C214.5,384.9,215.9,386.3,215.9,388.1z"/>
							</g>
						</g>
					</g>
				</g>
				<g>
					<g>
						<g>
							<g>
								<g>
									<path class="st6" d="M262.1,146.9c0,0-0.2,0-0.5,0.1c-0.4,0-0.8,0-1.4,0c-1.3,0-2.9,0-5,0.1c-4.2,0-10,0.1-16.5,0.1
										c-6.4,0-12.3,0-16.5-0.1c-2,0-3.7-0.1-5-0.1c-0.5,0-1,0-1.4,0c-0.3,0-0.5,0-0.5-0.1c0,0,0.2,0,0.5-0.1c0.4,0,0.8,0,1.4,0
										c1.3,0,2.9,0,5-0.1c4.2,0,10-0.1,16.5-0.1c6.4,0,12.2,0,16.5,0.1c2,0,3.7,0.1,5,0.1c0.5,0,1,0,1.4,0
										C261.9,146.8,262.1,146.9,262.1,146.9z"/>
								</g>
							</g>
						</g>
						<g>
							<g>
								<path class="st6" d="M327.5,342.7l-4.4-4.4l-4.2,4.1l0-12.5l8.5,0L327.5,342.7z M323.2,337.7l0.1,0.1l3.8,3.9l0-11.4l-7.8,0
									l0,11.2L323.2,337.7z"/>
							</g>
							<g>
								<path class="st6" d="M216.7,341.3l-2-0.9c-1,0.5-1.9,0.8-2.6,0.8c-3.1,0-5.7-2.5-5.7-5.6c0-3.1,2.5-5.7,5.6-5.7
									c3.1,0,5.7,2.5,5.7,5.6c0,1.4-0.5,2.7-1.4,3.8L216.7,341.3z M211.9,330.3c-2.9,0-5.3,2.4-5.2,5.3c0,2.9,2.4,5.3,5.3,5.2
									c0.7,0,1.6-0.3,2.5-0.8l0.1,0l1.5,0.7l-0.3-1.5l0.1-0.1c0.9-1,1.4-2.3,1.4-3.6C217.2,332.6,214.8,330.3,211.9,330.3z"/>
							</g>
							<g>
								<path class="st6" d="M229.8,340.5l-2.3-5.7l-4.4-4l10.6-0.1L229.8,340.5z M224.1,331.1l3.7,3.4l2,4.9l3.3-8.4L224.1,331.1z"
									/>
							</g>
							<g>
								
									<rect x="227.2" y="332.5" transform="matrix(0.8382 -0.5453 0.5453 0.8382 -144.1201 179.6392)" class="st6" width="6.9" height="0.4"/>
							</g>
							<g>
								<path class="st7" d="M199.9,331.9c-0.3-1.5-1.8-2.7-3.4-2.6c-1.5,0.1-2.9,1.3-3.1,2.9c-0.2-1.5-1.6-2.8-3.2-2.8
									c-1.5,0-3,1.2-3.3,2.7c-0.2,1.1,0.2,2.3,0.8,3.2c0.6,0.9,1.5,1.7,2.3,2.4c1.2,1,2.3,2,3.5,3.1c1.2-1.1,2.2-2.1,3.3-3.1
									c0.8-0.8,1.7-1.5,2.3-2.5C199.8,334.2,200.2,333.1,199.9,331.9z"/>
							</g>
						</g>
						<circle class="st0" cx="199" cy="146.9" r="7.2"/>
					</g>
					<g>
						<g>
							<path class="st9" d="M324.8,301.3c0,0.1-30.3,0.3-67.6,0.3c-37.3,0-67.6-0.1-67.6-0.3s30.3-0.3,67.6-0.3
								C294.5,301,324.8,301.1,324.8,301.3z"/>
						</g>
						<g>
							<path class="st9" d="M324.8,290c0,0.1-30.3,0.3-67.6,0.3c-37.3,0-67.6-0.1-67.6-0.3s30.3-0.3,67.6-0.3
								C294.5,289.7,324.8,289.9,324.8,290z"/>
						</g>
						<g>
							<path class="st9" d="M263.2,312.7c0,0.1-16.5,0.3-36.8,0.3c-20.3,0-36.8-0.1-36.8-0.3s16.5-0.3,36.8-0.3
								C246.7,312.4,263.2,312.5,263.2,312.7z"/>
						</g>
					</g>
				</g>
				<g>
					<g>
						<path class="st6" d="M254.1,435.3c0,1.6-1.3,2.9-2.9,2.9c-1.6,0-2.9-1.3-2.9-2.9c0-1.6,1.3-2.9,2.9-2.9
							C252.9,432.4,254.1,433.7,254.1,435.3z"/>
					</g>
					<g>
						<path class="st6" d="M263,435.3c0,1.6-1.3,2.9-2.9,2.9c-1.6,0-2.9-1.3-2.9-2.9c0-1.6,1.3-2.9,2.9-2.9
							C261.8,432.4,263,433.7,263,435.3z"/>
					</g>
					<g>
						<path class="st6" d="M271.9,435.4c0,1.6-1.3,2.9-2.9,2.9c-1.6,0-2.9-1.3-2.9-2.9c0-1.6,1.3-2.9,2.9-2.9
							C270.7,432.5,271.9,433.8,271.9,435.4z"/>
					</g>
				</g>
			</g>
			<g>
				<rect x="181.7" y="161.2" class="st3" width="159.9" height="97.8"/>
				<polygon class="st2" points="196.5,259 242.3,197.6 270.7,236 290,215.5 327.7,258.9 				"/>
				<g>
					<g>
						<path class="st2" d="M282.7,190.1c0,5.7-4.6,10.3-10.3,10.3c-5.7,0-10.3-4.6-10.3-10.3c0-5.7,4.6-10.3,10.3-10.3
							C278.1,179.8,282.7,184.4,282.7,190.1z"/>
					</g>
				</g>
			</g>
			<g>
				<path class="st6" d="M341.2,349.9c0-2.1-0.1-90.4-0.2-221.2l0.2,0.2c-48.2,0-102.6,0-159.9,0h0l0.3-0.3c0,82.7,0,159.3,0,221.2
					l-0.2-0.2C278.2,349.8,339.4,349.9,341.2,349.9c-1.7,0-62.9,0.1-159.9,0.2l-0.2,0l0-0.2c0-61.9,0-138.5,0-221.2l0-0.3h0.3h0
					c57.3,0,111.7,0,159.9,0l0.2,0l0,0.2c0,65.5-0.1,120.8-0.1,159.8c0,19.5,0,34.8-0.1,45.4c0,5.2,0,9.3,0,12c0,1.4,0,2.4,0,3.1
					C341.2,349.5,341.2,349.9,341.2,349.9z"/>
			</g>
		</g>
	</g>
</g>
<g id="Megaphone">
	<g>
		<g>
			<g>
				<g>
					<path class="st10" d="M266,377.3l3.5-11.9c0.6-2.6,1.4-5.6,2.5-9.1c1-3.1,3.5-6.4,5.9-8.8c3.6-3.7,5.3-3.7,7.8-5.6
						c0.2-0.1,0.5-0.3,0.7-0.5c0.5-0.3,0.9-0.6,1.2-1c2.1-2.3,0.1-5.8-4.2-5.4c-3.2,0.3-8.4,1.2-16.9,9.9c-0.1,0.1-0.2,0.2-0.3,0.4
						c-4.5,5.8-8.6-10.7-9.4-16.9c-0.5-4-4.8-6.4-8.7-5l-20.7,9.7c-1.7-0.6-3.7-0.5-6,0.2c-3,1.1-4.7,4.3-3.9,7.3l8.4,33.5
						l-24.6,81.9h53L266,377.3z"/>
				</g>
				<g>
					<g>
						<g>
							<g>
								<path class="st7" d="M306.8,302.1l-16.4,32.1l-8.2-2.3L241,365.5c-3.5,2.9-8.6,2.4-11.6-1l-15.7-18.2
									c0,0,31.6-13.6,37.5-24.9c5.9-11.3-0.9-13.8-0.9-13.8l14.9-16.9L306.8,302.1z"/>
							</g>
						</g>
						<g>
							<path class="st7" d="M285.5,236.4c0,0-24-5.3-57.8-37.8C194,166.2,178.1,123,174,123.2c-4.1,0.2-22.2-8.2-56.5,66.5
								c-34.3,74.7-20.8,92-14,91.9c6.8-0.1,53.2-13.1,82.2-9.8c29,3.3,66.2,18.4,66.2,18.4L285.5,236.4z"/>
						</g>
						<g>
							<path class="st7" d="M336.5,277.2l-8.2,15.6l-3.7,7c-5,9.6-16.7,13.5-26.5,9l-51.4-17.9l30-68.4l51.4,27.4
								C338,255,341.7,267.3,336.5,277.2z"/>
						</g>
						<g class="st11">
							<path d="M336.5,277.2l-8.2,15.6l-3.7,7c-5,9.6-16.7,13.5-26.5,9l-51.4-17.9l30-68.4l51.4,27.4
								C338,255,341.7,267.3,336.5,277.2z"/>
						</g>
						<g>
							<path class="st7" d="M120.2,191.1c-18.3,40.5-25.9,76.5-17,80.5c8.9,4,30.9-25.5,49.2-66c18.3-40.5,25.9-76.5,17-80.5
								C160.5,121.1,138.5,150.7,120.2,191.1z"/>
						</g>
						<g class="st12">
							<path d="M120.2,191.1c-18.3,40.5-25.9,76.5-17,80.5c8.9,4,30.9-25.5,49.2-66c18.3-40.5,25.9-76.5,17-80.5
								C160.5,121.1,138.5,150.7,120.2,191.1z"/>
						</g>
					</g>
					<g>
						<polygon class="st7" points="340.9,299.7 327,295.3 335.6,278.9 346.1,285.4 						"/>
					</g>
					<g class="st13">
						<polygon points="335.6,278.9 327,295.3 329.9,296.2 336.9,279.6 						"/>
					</g>
					<g>
						<path class="st7" d="M326,282.6c-0.2,0.5-7.2-2.3-15.5-6c-8.4-3.8-15-7.2-14.8-7.7c0.2-0.5,7.2,2.3,15.5,6
							C319.6,278.8,326.2,282.2,326,282.6z"/>
					</g>
					<g>
						<path class="st7" d="M330.3,272.9c-0.2,0.4-6.5-2.2-14.1-5.9c-7.6-3.7-13.5-7.1-13.3-7.5c0.2-0.4,6.5,2.2,14.1,5.9
							C324.6,269.1,330.5,272.4,330.3,272.9z"/>
					</g>
					<g>
						<path class="st7" d="M320.6,292.9c-0.1,0.2-1.7-0.1-4.4-1c-1.3-0.4-2.9-0.9-4.6-1.5c-1.7-0.6-3.5-1.5-5.4-2.4
							c-7.6-3.5-13.5-7-13.3-7.4c0.2-0.5,6.5,2.3,14,5.8c1.9,0.9,3.7,1.8,5.3,2.5c1.7,0.7,3.2,1.3,4.4,1.9
							C319.2,291.9,320.7,292.7,320.6,292.9z"/>
					</g>
					<g>
						<path class="st7" d="M157.5,182.1c0,0-20.9-12.9-32.3,15.3c-11.4,28.2,10.5,32.8,10.5,32.8C144.7,216.3,152,200.3,157.5,182.1
							z"/>
					</g>
					<g class="st12">
						<path d="M179.7,148.5c0.1,0-0.2,1.9-0.8,5.4c-0.7,3.4-1.6,8.4-2.9,14.6c-0.9,3-1.8,6.3-2.9,9.9c-0.5,1.8-1.1,3.6-1.6,5.5
							c-0.3,0.9-0.6,1.9-0.9,2.9c-0.3,1-0.7,1.9-1.1,2.9c-1.5,3.9-3.1,7.9-4.7,12.2c-0.4,1.1-0.8,2.1-1.2,3.2
							c-0.4,1.1-1,2.1-1.5,3.2c-1,2.1-2.1,4.2-3.1,6.4c-1.1,2.2-2.1,4.3-3.1,6.4c-0.5,1-1,2.1-1.6,3.1c-0.6,1-1.2,2-1.7,2.9
							c-2.3,3.9-4.5,7.6-6.6,11.2c-0.5,0.9-1,1.8-1.6,2.6c-0.6,0.8-1.2,1.6-1.7,2.4c-1.1,1.6-2.2,3.2-3.3,4.7c-2.1,3-4.1,5.8-6,8.4
							c-4,4.8-7.3,8.6-9.6,11.3c-2.3,2.6-3.6,4.1-3.7,4c-0.1-0.1,1-1.6,3.2-4.4c2.2-2.8,5.4-6.8,9.2-11.7c1.8-2.6,3.7-5.4,5.8-8.4
							c1-1.5,2.1-3.1,3.2-4.7c0.6-0.8,1.1-1.6,1.7-2.4c0.5-0.8,1-1.7,1.6-2.6c2.1-3.6,4.3-7.3,6.5-11.2c0.6-1,1.1-1.9,1.7-2.9
							c0.6-1,1-2.1,1.5-3.1c1-2.1,2-4.2,3.1-6.4c1-2.1,2.1-4.3,3.1-6.3c0.5-1.1,1.1-2.1,1.5-3.1c0.4-1.1,0.8-2.1,1.2-3.2
							c1.7-4.2,3.3-8.2,4.8-12c0.4-1,0.8-1.9,1.1-2.8c0.3-1,0.6-1.9,0.9-2.8c0.6-1.9,1.1-3.7,1.7-5.4c1.1-3.5,2.1-6.8,3.1-9.7
							c1.4-6,2.6-10.9,3.5-14.4C179,150.4,179.5,148.5,179.7,148.5z"/>
					</g>
				</g>
				<g class="st11">
					<path d="M218.7,344c1.9,3.5,3.8,7,6.7,9.7c2.8,2.8,6.7,4.7,10.6,4.3c3.9-0.4,7.6-3.7,7.7-7.6c1.9,1.4,4.8,0.6,6.3-1.1
						c1.6-1.8,2.1-4.2,2.3-6.6c2.6,1.5,6.1,0.3,7.8-2.1c1.7-2.4,1.8-5.7,1-8.6c-0.8-2.9-2.5-5.4-4.1-7.9c2,0.2,4.1,0.3,5.8-0.6
						c1.8-0.9,3-3.2,1.9-4.9c-0.6-1-1.8-1.5-2.9-1.8c-3.1-1-5.3-1.7-8.5-1.4c-0.7,0,1.3,8.5-18.9,20.1
						C222.6,342.4,218.7,344,218.7,344z"/>
				</g>
			</g>
			<g>
				<path class="st14" d="M264.1,356.2c0,0.1-1.4-0.2-3.5-0.1c-2.2,0-5.2,0.5-8.2,2c-3,1.4-5.3,3.5-6.6,5.2c-1.4,1.7-2,2.9-2.1,2.8
					c0,0,0.1-0.3,0.4-0.9c0.3-0.5,0.8-1.3,1.4-2.2c1.3-1.7,3.6-3.9,6.7-5.4c3.1-1.5,6.2-1.9,8.4-1.9c1.1,0,2,0.1,2.6,0.2
					C263.8,356.1,264.1,356.2,264.1,356.2z"/>
			</g>
			<path class="st10" d="M220,338.6c3.2,3.1,5.5,6.6,8.9,9.7c1.5,1.4,4,4.1,6,4.5c2.1,0.4,3.4,0.1,4.2-1.9c0.7-1.6-0.5-3.7-1.4-5
				c-2.2-3.4-4.2-6.1-5.9-8.7c-0.8-1.2,0.2-1.5,0.6-0.9c1.6,1.6,3.9,3,5.3,4.8c1.9,2.4,2.3,5.6,7.3,4.6c0.7-0.1,1.3-0.4,1.9-0.8
				c1.9-1.4,2-4,1.2-6c-0.6-1.6-1.7-2.9-2.8-4.2c2.1,2.4,4.5,5,7.9,5.2c2,0.2,4-0.8,4.8-2.6c1-2.3-0.4-4.5-1.9-6.3
				c-2.6-3.2-5.4-6.1-8.5-8.7c-1.2-1-2.6-1.5-4.1-1.5c-1.8,0-4,0.3-5,1.8c-2,2.8-1.4,5.2-1.4,5.2s-4.4-2.2-7.9,0.1
				c-3.5,2.3-4.4,6.4-4.4,6.4L220,338.6z"/>
			<path class="st10" d="M243.5,319.9c-1.4-1.4-1.7-3.9-0.6-6c0.7-1.5,1.7-2.9,2.7-3.2c4.2-1.4,22.5,1.8,22.3,5.8
				c-0.2,4.2-1.5,6-11.4,4.6c-1.7-0.3-4.5-0.6-4.5-0.6l-2.4,3.6L243.5,319.9z"/>
		</g>
		<g>
			<path class="st14" d="M246.7,336.9c-0.1,0.1-1.5-2.8-4.4-5.3c-2.8-2.6-5.8-3.7-5.7-3.8c0-0.1,0.8,0.1,1.9,0.7
				c1.2,0.5,2.7,1.5,4.1,2.8c1.4,1.3,2.5,2.7,3.2,3.8C246.5,336.1,246.8,336.9,246.7,336.9z"/>
		</g>
		<g>
			<path class="st14" d="M249.8,324.4c-0.1,0.1-1.3-0.9-2.9-1.9c-0.8-0.5-1.6-0.9-2.1-1.2c-0.6-0.3-0.9-0.3-0.9-0.4
				c0-0.1,0.4-0.1,1.1,0.1c0.6,0.2,1.5,0.6,2.3,1.1C248.8,323.1,249.9,324.3,249.8,324.4z"/>
		</g>
		<g>
			<path class="st14" d="M252.9,320.6c0,0.1-1.6,0.2-3.5-0.4c-1-0.3-1.8-0.8-2.3-1.2c-0.5-0.4-0.7-0.8-0.7-0.8
				c0.1-0.1,1.2,1,3.1,1.5C251.3,320.3,252.9,320.4,252.9,320.6z"/>
		</g>
		<g>
			<path class="st14" d="M235.1,341.9c-0.1,0-0.7-0.8-1.7-2.2c-1-1.4-2.2-3.4-4.3-4.9c-2-1.5-4.4-1.8-6.1-1.6
				c-1.6,0.2-2.5,0.9-2.6,0.8c0,0,0.2-0.2,0.6-0.5c0.4-0.3,1.1-0.5,1.9-0.7c1.7-0.3,4.3,0,6.4,1.5c2.2,1.6,3.4,3.7,4.3,5.1
				C234.6,341,235.1,341.9,235.1,341.9z"/>
		</g>
		<g>
			<path class="st14" d="M249.1,382.4c0,0.1-3.3,0.6-7.5,1.1c-4.1,0.5-7.5,0.7-7.5,0.6c0-0.1,3.3-0.6,7.5-1.1
				C245.7,382.5,249.1,382.3,249.1,382.4z"/>
		</g>
	</g>
</g>
<g id="Stars">
	<g>
		<polygon class="st7" points="406.6,49.8 407.8,51.9 409.8,53 407.8,54.2 406.6,56.2 405.5,54.2 403.4,53 405.5,51.9 		"/>
		<polygon class="st7" points="430.2,101 431.4,103.1 433.4,104.2 431.4,105.3 430.2,107.4 429.1,105.3 427,104.2 429.1,103.1 		"/>
		<polygon class="st7" points="51.9,237.5 53,239.6 55.1,240.7 53,241.9 51.9,243.9 50.8,241.9 48.7,240.7 50.8,239.6 		"/>
		<polygon class="st7" points="375.7,62.6 378.3,67.3 383,69.9 378.3,72.5 375.7,77.3 373.1,72.5 368.3,69.9 373.1,67.3 		"/>
		<polygon class="st7" points="73.1,205.1 75.7,209.9 80.4,212.5 75.7,215.1 73.1,219.8 70.5,215.1 65.7,212.5 70.5,209.9 		"/>
		<polygon class="st7" points="436.7,318.6 439.3,323.3 444,325.9 439.3,328.5 436.7,333.3 434.1,328.5 429.3,325.9 434.1,323.3 		
			"/>
	</g>
</g>
</svg>
