<svg xmlns="http://www.w3.org/2000/svg" viewBox="0 0 515.57 387.08"><defs><style>.cls-1{fill:#fafafa;}.cls-2{fill:#e0e0e0;}.cls-3{fill:#e8505b;}.cls-4{opacity:0.3;}.cls-5{fill:#f5f5f5;}.cls-6{fill:#ebebeb;}.cls-7{fill:#fff;}.cls-8{fill:#263238;}.cls-9{fill:#455a64;}.cls-10{fill:#ffbe9d;}.cls-11{fill:#eb996e;}.cls-12{fill:#b78876;}.cls-13{fill:#aa6550;}</style></defs><title>banner-projetos1</title><g id="Background_Complete" data-name="Background Complete"><path class="cls-1" d="M401.83,431.32V450h2.93v2h-2.93v12.52H347V453.19h4.06V450.7H347V447h-1.8v-1.69h2.14v-14Z" transform="translate(-124.15 -81.01)"/><polygon class="cls-2" points="237.41 350.36 237.41 383.36 222.85 383.36 222.85 371.97 226.91 371.97 226.91 369.69 222.85 369.77 222.85 366.05 221.01 366.05 221.05 364.13 223.19 364.07 223.19 350.31 237.41 350.36"/><path class="cls-2" d="M360.52,451.79c0,.11,9.92.21,22.16.21s22.16-.1,22.16-.21-9.92-.21-22.16-.21S360.52,451.67,360.52,451.79Z" transform="translate(-124.15 -81.01)"/><path class="cls-2" d="M360.52,449.89c0,.11,9.92.21,22.16.21s22.16-.1,22.16-.21-9.92-.21-22.16-.21S360.52,449.77,360.52,449.89Z" transform="translate(-124.15 -81.01)"/><path class="cls-2" d="M357.68,444.77c0,.12,9.92.21,22.15.21s22.16-.09,22.16-.21-9.92-.2-22.16-.2S357.68,444.66,357.68,444.77Z" transform="translate(-124.15 -81.01)"/><path class="cls-2" d="M357.4,458.71c0,.12,9.93.21,22.16.21s22.16-.09,22.16-.21-9.92-.21-22.16-.21S357.4,458.6,357.4,458.71Z" transform="translate(-124.15 -81.01)"/><path class="cls-3" d="M384.54,419.16l-1.21,22.17a1.5,1.5,0,0,1-1.48,1.42L342,443a1.5,1.5,0,0,1-1.51-1.49l-.12-17.26a1.48,1.48,0,0,1,1.49-1.5l24.54,0a1.49,1.49,0,0,0,1.06-.43l4.23-4.24a1.53,1.53,0,0,1,1.05-.43l10.34-.08A1.49,1.49,0,0,1,384.54,419.16Z" transform="translate(-124.15 -81.01)"/><g class="cls-4"><path d="M384.54,419.16l-1.21,22.17a1.5,1.5,0,0,1-1.48,1.42L342,443a1.5,1.5,0,0,1-1.51-1.49l-.12-17.26a1.48,1.48,0,0,1,1.49-1.5l24.54,0a1.49,1.49,0,0,0,1.06-.43l4.23-4.24a1.53,1.53,0,0,1,1.05-.43l10.34-.08A1.49,1.49,0,0,1,384.54,419.16Z" transform="translate(-124.15 -81.01)"/></g><rect class="cls-5" x="340.38" y="420.02" width="43.6" height="26.05" transform="translate(603.37 782.41) rotate(179.58)"/><path class="cls-6" d="M387.37,422.17l-3.13,27.19a1,1,0,0,1-.95.85l-42.49.31a1,1,0,0,1-1-.88l-2.34-27.15a1,1,0,0,1,.95-1l47.95-.35A1,1,0,0,1,387.37,422.17Z" transform="translate(-124.15 -81.01)"/><path class="cls-2" d="M396.28,415l-1.21,22.17a1.48,1.48,0,0,1-1.48,1.41l-39.9.3a1.5,1.5,0,0,1-1.51-1.49l-.13-17.26a1.51,1.51,0,0,1,1.5-1.51l24.54,0a1.5,1.5,0,0,0,1.06-.44l4.23-4.23a1.52,1.52,0,0,1,1.05-.44l10.34-.07A1.5,1.5,0,0,1,396.28,415Z" transform="translate(-124.15 -81.01)"/><rect class="cls-5" x="352.12" y="415.83" width="43.6" height="26.05" transform="translate(626.82 773.96) rotate(179.58)"/><path class="cls-2" d="M399.1,418,396,445.18a1,1,0,0,1-1,.85l-42.48.31a1,1,0,0,1-1-.88l-2.33-27.15a1,1,0,0,1,.95-1l47.95-.36A1,1,0,0,1,399.1,418Z" transform="translate(-124.15 -81.01)"/><path class="cls-6" d="M409.51,420.17l-1.21,22.17a1.5,1.5,0,0,1-1.48,1.42l-39.9.29a1.5,1.5,0,0,1-1.51-1.49l-.13-17.26a1.5,1.5,0,0,1,1.5-1.5l24.54,0a1.48,1.48,0,0,0,1.05-.43l4.24-4.24a1.51,1.51,0,0,1,1.05-.43l10.34-.08A1.51,1.51,0,0,1,409.51,420.17Z" transform="translate(-124.15 -81.01)"/><rect class="cls-1" x="365.35" y="421.03" width="43.6" height="26.05" transform="translate(653.31 784.25) rotate(179.58)"/><path class="cls-6" d="M412.33,423.18l-3.13,27.19a1,1,0,0,1-.95.85l-42.48.31a1,1,0,0,1-1-.88l-2.34-27.15a1,1,0,0,1,1-1l47.95-.35A1,1,0,0,1,412.33,423.18Z" transform="translate(-124.15 -81.01)"/><path class="cls-5" d="M362.46,426.88v37.71h54.41V426.88Zm17.76,6.78a2.78,2.78,0,0,1,2.79-2.78h13.32a2.79,2.79,0,0,1,0,5.57H383A2.79,2.79,0,0,1,380.22,433.66Z" transform="translate(-124.15 -81.01)"/><path class="cls-2" d="M333.13,426.88v37.71h29.33V426.88Z" transform="translate(-124.15 -81.01)"/><rect class="cls-2" x="215.97" y="121.94" width="74.85" height="78.03"/><rect class="cls-1" x="210.9" y="121.94" width="74.85" height="78.03"/><path class="cls-2" d="M409.93,281H335V202.93h74.9Zm-74.86,0h74.81V203H335.07Z" transform="translate(-124.15 -81.01)"/><rect class="cls-1" x="220.96" y="132.43" width="54.73" height="57.05"/><path class="cls-2" d="M345.11,270.87a8.22,8.22,0,0,1-1.35,1.57c-.87.92-2.1,2.17-3.48,3.53s-2.64,2.56-3.57,3.42a9.32,9.32,0,0,1-1.58,1.32,8.75,8.75,0,0,1,1.34-1.57c.87-.92,2.11-2.17,3.49-3.53s2.65-2.57,3.58-3.43A8.54,8.54,0,0,1,345.11,270.87Z" transform="translate(-124.15 -81.01)"/><path class="cls-2" d="M399.84,270.73a9.28,9.28,0,0,1,1.57,1.35c.92.88,2.17,2.1,3.53,3.48s2.56,2.64,3.42,3.58a8.36,8.36,0,0,1,1.32,1.58,9.15,9.15,0,0,1-1.57-1.35c-.92-.87-2.17-2.1-3.53-3.48s-2.57-2.65-3.43-3.58A8.76,8.76,0,0,1,399.84,270.73Z" transform="translate(-124.15 -81.01)"/><path class="cls-2" d="M399.69,213.59A9.76,9.76,0,0,1,401,212c.88-.92,2.1-2.17,3.48-3.52s2.64-2.57,3.58-3.42a8.36,8.36,0,0,1,1.58-1.32,8.91,8.91,0,0,1-1.35,1.56c-.87.92-2.1,2.18-3.48,3.54s-2.65,2.57-3.58,3.42A8.24,8.24,0,0,1,399.69,213.59Z" transform="translate(-124.15 -81.01)"/><path class="cls-2" d="M345,213.73a8.6,8.6,0,0,1-1.57-1.35c-.92-.87-2.17-2.1-3.52-3.47s-2.57-2.65-3.43-3.58a8.5,8.5,0,0,1-1.31-1.58,8.94,8.94,0,0,1,1.56,1.34c.92.88,2.17,2.11,3.53,3.49s2.58,2.65,3.43,3.58A8.54,8.54,0,0,1,345,213.73Z" transform="translate(-124.15 -81.01)"/><path class="cls-2" d="M399.69,270.49s0-.1,0-.28,0-.45,0-.79c0-.72,0-1.75,0-3.08,0-2.7,0-6.64-.05-11.63,0-10-.07-24.22-.11-41.27l.21.21-54.57,0h0l.25-.24c0,20.94,0,40.53,0,57.05l-.21-.21,39.52.11,11.1.05,2.94,0h1a.82.82,0,0,1-.24,0h-.74l-2.89,0-11.06,0-39.65.11h-.2v-.21c0-16.52,0-36.11,0-57.05v-.24h.25l54.57,0h.21v.21c0,17.1-.08,31.38-.1,41.41,0,5-.05,8.88-.06,11.58,0,1.31,0,2.33,0,3,0,.33,0,.59,0,.78A.87.87,0,0,1,399.69,270.49Z" transform="translate(-124.15 -81.01)"/><rect class="cls-6" x="239.2" y="151.83" width="18.26" height="18.26"/><rect class="cls-2" x="522.46" y="96.94" width="8.57" height="42.66" transform="translate(-124.78 -78.19) rotate(-0.31)"/><rect class="cls-6" x="448.14" y="97.09" width="22.2" height="23.55" transform="translate(-124.73 -78.55) rotate(-0.31)"/><rect class="cls-5" x="470.23" y="96.97" width="22.2" height="23.55" transform="translate(-124.73 -78.43) rotate(-0.31)"/><path class="cls-2" d="M448.11,103.65c14.75.12,29.54,0,44.29-.2a.24.24,0,0,0,0-.48c-14.75-.08-29.54,0-44.29.27a.21.21,0,0,0,0,.41Z" transform="translate(-124.15 -81.01)"/><rect class="cls-6" x="434.29" y="120.29" width="40.33" height="19.19" transform="translate(-124.84 -78.57) rotate(-0.31)"/><rect class="cls-5" x="474.43" y="120.08" width="40.33" height="19.19" transform="translate(-124.84 -78.36) rotate(-0.31)"/><path class="cls-2" d="M434.26,125.74c26.8.3,53.69,0,80.48-.4a.24.24,0,0,0,0-.47c-26.8-.14-53.69-.13-80.48.46a.21.21,0,0,0,0,.41Z" transform="translate(-124.15 -81.01)"/><rect class="cls-2" x="295.03" y="58.58" width="156.26" height="6.88"/><rect class="cls-2" x="320.61" y="61.89" width="6.34" height="23.46"/><rect class="cls-2" x="415.31" y="61.89" width="6.34" height="23.46"/><rect class="cls-6" x="530.86" y="81.03" width="8.57" height="58.67" transform="translate(-124.73 -78.14) rotate(-0.31)"/><rect class="cls-5" x="539.48" y="91.97" width="13.32" height="47.54" transform="matrix(1, -0.01, 0.01, 1, -124.76, -78.08)"/><path class="cls-2" d="M552.58,101.09a96.54,96.54,0,0,1-13.32,0,96.54,96.54,0,0,1,13.32,0Z" transform="translate(-124.15 -81.01)"/><path class="cls-2" d="M552.58,99.09a96.54,96.54,0,0,1-13.32,0,96.54,96.54,0,0,1,13.32,0Z" transform="translate(-124.15 -81.01)"/><path class="cls-2" d="M552.58,132.32a96.54,96.54,0,0,1-13.32,0,96.54,96.54,0,0,1,13.32,0Z" transform="translate(-124.15 -81.01)"/><path class="cls-2" d="M552.58,130.32a96.54,96.54,0,0,1-13.32,0,96.54,96.54,0,0,1,13.32,0Z" transform="translate(-124.15 -81.01)"/><path class="cls-2" d="M546.14,126c-.13,0-.23-4.79-.23-10.71s.1-10.71.23-10.71.23,4.79.23,10.71S546.27,126,546.14,126Z" transform="translate(-124.15 -81.01)"/><rect class="cls-6" x="428.58" y="22.6" width="14.5" height="35.88"/><path class="cls-1" d="M560.39,130.18a3.1,3.1,0,0,1-3.24-3.22,2.82,2.82,0,0,1,1.17-2.43l.33.46a2.31,2.31,0,0,0-.95,2,2.69,2.69,0,0,0,5.38,0,2.32,2.32,0,0,0-1-2l.33-.46a2.85,2.85,0,0,1,1.18,2.43A3.11,3.11,0,0,1,560.39,130.18Z" transform="translate(-124.15 -81.01)"/><path class="cls-1" d="M562.81,123.64l-.49-.28a3.74,3.74,0,0,0,.77-2.3c0-1.34-.48-1.88-1.2-1.88-1.86,0-.49,4.23-3,4.23-1,0-1.75-.8-1.75-2.42a3.91,3.91,0,0,1,.62-2.19l.49.28a3.32,3.32,0,0,0-.58,1.92c0,1.25.52,1.8,1.2,1.8,1.92,0,.57-4.23,3-4.23,1,0,1.75.89,1.75,2.52A4,4,0,0,1,562.81,123.64Z" transform="translate(-124.15 -81.01)"/><path class="cls-1" d="M562.81,117.8l-.49-.28a3.76,3.76,0,0,0,.77-2.3c0-1.34-.48-1.88-1.2-1.88-1.86,0-.49,4.23-3,4.23-1,0-1.75-.81-1.75-2.42a3.91,3.91,0,0,1,.62-2.19l.49.28a3.32,3.32,0,0,0-.58,1.92c0,1.25.52,1.8,1.2,1.8,1.92,0,.57-4.23,3-4.23,1,0,1.75.89,1.75,2.52A4,4,0,0,1,562.81,117.8Z" transform="translate(-124.15 -81.01)"/><path class="cls-2" d="M537.33,91a2.47,2.47,0,1,1-2.46-2.47A2.46,2.46,0,0,1,537.33,91Z" transform="translate(-124.15 -81.01)"/><rect class="cls-2" x="409.96" y="16.79" width="1.52" height="34.9"/><rect class="cls-6" x="424.8" y="285.92" width="72.57" height="5.63"/><rect class="cls-2" x="477.44" y="285.92" width="19.93" height="5.63"/><path class="cls-5" d="M539.74,372.56v25.36h-4v2.75h4v17H614V402.2h-5.5v-3.37H614v-5h2.45V391.5h-2.91V372.56Z" transform="translate(-124.15 -81.01)"/><polygon class="cls-2" points="470.16 291.63 470.16 336.35 489.89 336.35 489.89 320.9 484.39 320.9 484.39 317.82 489.89 317.82 489.89 312.78 492.34 312.78 492.34 310.2 489.43 310.2 489.43 291.55 470.16 291.63"/><path class="cls-2" d="M595.71,400.3c0,.16-13.44.29-30,.29s-30-.13-30-.29,13.44-.28,30-.28S595.71,400.15,595.71,400.3Z" transform="translate(-124.15 -81.01)"/><path class="cls-2" d="M595.71,397.73c0,.15-13.44.28-30,.28s-30-.13-30-.28,13.44-.28,30-.28S595.71,397.57,595.71,397.73Z" transform="translate(-124.15 -81.01)"/><path class="cls-2" d="M599.57,390.8c0,.15-13.44.28-30,.28s-30-.13-30-.28,13.45-.28,30-.28S599.57,390.64,599.57,390.8Z" transform="translate(-124.15 -81.01)"/><path class="cls-2" d="M599.94,409.69c0,.15-13.44.28-30,.28s-30-.13-30-.28,13.45-.28,30-.28S599.94,409.53,599.94,409.69Z" transform="translate(-124.15 -81.01)"/><path class="cls-5" d="M548.17,423v25.36h-4v2.75h4v17h74.3V452.65H617v-3.37h5.5v-5h2.45V442H622V423Z" transform="translate(-124.15 -81.01)"/><polygon class="cls-2" points="478.59 342.08 478.59 386.8 498.32 386.8 498.32 371.36 492.82 371.36 492.82 368.27 498.32 368.38 498.32 363.33 500.81 363.34 500.77 360.73 497.86 360.65 497.86 342 478.59 342.08"/><path class="cls-2" d="M604.14,450.76c0,.15-13.44.28-30,.28s-30-.13-30-.28,13.44-.29,30-.29S604.14,450.6,604.14,450.76Z" transform="translate(-124.15 -81.01)"/><path class="cls-2" d="M604.14,448.18c0,.15-13.44.28-30,.28s-30-.13-30-.28,13.44-.28,30-.28S604.14,448,604.14,448.18Z" transform="translate(-124.15 -81.01)"/><path class="cls-2" d="M608,441.25c0,.15-13.44.28-30,.28s-30-.13-30-.28,13.45-.28,30-.28S608,441.09,608,441.25Z" transform="translate(-124.15 -81.01)"/><path class="cls-2" d="M608.37,460.14c0,.15-13.44.28-30,.28s-30-.13-30-.28,13.45-.28,30-.28S608.37,460,608.37,460.14Z" transform="translate(-124.15 -81.01)"/><path class="cls-5" d="M547.09,321.85v25.36h-4V350h4v17h74.3V351.49h-5.5v-3.36h5.5v-5.05h2.45v-2.29h-2.91V321.85Z" transform="translate(-124.15 -81.01)"/><polygon class="cls-2" points="477.51 240.92 477.51 285.64 497.24 285.64 497.24 270.2 491.74 270.2 491.74 267.12 497.24 267.22 497.24 262.18 499.74 262.18 499.69 259.57 496.78 259.5 496.78 240.84 477.51 240.92"/><path class="cls-2" d="M603.06,349.6c0,.15-13.44.28-30,.28s-30-.13-30-.28,13.44-.28,30-.28S603.06,349.44,603.06,349.6Z" transform="translate(-124.15 -81.01)"/><path class="cls-2" d="M603.06,347c0,.16-13.44.28-30,.28s-30-.12-30-.28,13.44-.28,30-.28S603.06,346.87,603.06,347Z" transform="translate(-124.15 -81.01)"/><path class="cls-2" d="M606.92,340.09c0,.15-13.44.28-30,.28s-30-.13-30-.28,13.45-.28,30-.28S606.92,339.93,606.92,340.09Z" transform="translate(-124.15 -81.01)"/><path class="cls-2" d="M607.29,359c0,.15-13.44.28-30,.28s-30-.13-30-.28,13.44-.28,30-.28S607.29,358.82,607.29,359Z" transform="translate(-124.15 -81.01)"/><rect class="cls-6" x="419.94" y="336.37" width="72.57" height="5.63"/><rect class="cls-2" x="472.58" y="336.37" width="19.93" height="5.63"/></g><g id="Board"><rect class="cls-7" x="70.76" y="80.56" width="360.23" height="217.28"/><path class="cls-8" d="M555.13,378.85c0-1.21,0-84.15-.15-217.28l.15.15-360.19,0h0l.19-.19c0,77,0,150.44,0,217.28l-.18-.18,360.22.18L194.91,379h-.18v-.18c0-66.84,0-140.3,0-217.28v-.19h.22l360.19,0h.15v.15C555.19,294.7,555.14,377.64,555.13,378.85Z" transform="translate(-124.15 -81.01)"/><path class="cls-2" d="M242,198.43s-1.94,17.72.55,27.42l23.68-1s-5.07-17.48-2-25.22Z" transform="translate(-124.15 -81.01)"/><path class="cls-3" d="M241.86,198.44s.16,19.13,1.13,25l24-1.13s-2.11-18.81-1.3-23.84Z" transform="translate(-124.15 -81.01)"/><path class="cls-7" d="M262.08,206.48c0,.1-3.6.41-8,.67s-8.06.4-8.07.3,3.6-.41,8-.68S262.07,206.37,262.08,206.48Z" transform="translate(-124.15 -81.01)"/><path class="cls-7" d="M262.08,210.53c0,.11-3.59.41-8,.68s-8,.39-8.06.29,3.59-.41,8-.68S262.08,210.42,262.08,210.53Z" transform="translate(-124.15 -81.01)"/><path class="cls-7" d="M258,214.51a29.19,29.19,0,0,1-4.57.47,27.15,27.15,0,0,1-4.6.08,27.86,27.86,0,0,1,4.58-.47A27,27,0,0,1,258,214.51Z" transform="translate(-124.15 -81.01)"/><path class="cls-3" d="M241.45,227.05s.16,19.13,1.13,25l24-1.14s-2.11-18.8-1.3-23.83Z" transform="translate(-124.15 -81.01)"/><path class="cls-7" d="M261.66,235.09c0,.1-3.59.4-8,.67s-8.05.4-8.06.29,3.59-.4,8-.67S261.66,235,261.66,235.09Z" transform="translate(-124.15 -81.01)"/><path class="cls-7" d="M261.67,239.14c0,.1-3.59.41-8,.67s-8.06.4-8.06.3,3.59-.41,8-.68S261.66,239,261.67,239.14Z" transform="translate(-124.15 -81.01)"/><path class="cls-7" d="M257.59,243.12a28.54,28.54,0,0,1-4.57.46,27.84,27.84,0,0,1-4.6.09,26.57,26.57,0,0,1,4.57-.47A27.15,27.15,0,0,1,257.59,243.12Z" transform="translate(-124.15 -81.01)"/><path class="cls-8" d="M241.45,259.45s.16,19.13,1.13,25l24-1.13s-2.11-18.81-1.3-23.84Z" transform="translate(-124.15 -81.01)"/><path class="cls-7" d="M261.66,267.49c0,.1-3.59.41-8,.67s-8.05.4-8.06.3,3.59-.41,8-.68S261.66,267.38,261.66,267.49Z" transform="translate(-124.15 -81.01)"/><path class="cls-7" d="M261.67,271.54c0,.11-3.59.41-8,.68s-8.06.4-8.06.29,3.59-.41,8-.68S261.66,271.44,261.67,271.54Z" transform="translate(-124.15 -81.01)"/><path class="cls-7" d="M257.59,275.52A26.57,26.57,0,0,1,253,276a27.13,27.13,0,0,1-4.6.08,29.19,29.19,0,0,1,4.57-.47A27.15,27.15,0,0,1,257.59,275.52Z" transform="translate(-124.15 -81.01)"/><path class="cls-9" d="M238.65,297.35s.16,19.13,1.13,25l24-1.14s-2.11-18.8-1.3-23.83Z" transform="translate(-124.15 -81.01)"/><path class="cls-7" d="M258.86,305.39c0,.1-3.59.41-8,.67s-8.06.4-8.07.3,3.59-.41,8-.68S258.86,305.28,258.86,305.39Z" transform="translate(-124.15 -81.01)"/><path class="cls-7" d="M258.87,309.44c0,.11-3.59.41-8,.68s-8.05.39-8.06.29,3.59-.41,8-.68S258.86,309.33,258.87,309.44Z" transform="translate(-124.15 -81.01)"/><path class="cls-7" d="M254.79,313.42a29.19,29.19,0,0,1-4.57.47,27.13,27.13,0,0,1-4.6.08,26.57,26.57,0,0,1,4.57-.47A27.13,27.13,0,0,1,254.79,313.42Z" transform="translate(-124.15 -81.01)"/><path class="cls-8" d="M270.45,297.52s.17,19.13,1.14,25l24-1.14s-2.11-18.81-1.3-23.83Z" transform="translate(-124.15 -81.01)"/><path class="cls-7" d="M290.67,305.55c0,.11-3.59.41-8,.68s-8.05.4-8.06.29,3.59-.41,8-.67S290.67,305.45,290.67,305.55Z" transform="translate(-124.15 -81.01)"/><path class="cls-7" d="M290.68,309.61c0,.1-3.59.4-8,.67s-8.06.4-8.06.29,3.59-.4,8-.67S290.67,309.5,290.68,309.61Z" transform="translate(-124.15 -81.01)"/><path class="cls-7" d="M286.6,313.58a26.61,26.61,0,0,1-4.58.47,29.11,29.11,0,0,1-4.59.09,26.57,26.57,0,0,1,4.57-.47A29.26,29.26,0,0,1,286.6,313.58Z" transform="translate(-124.15 -81.01)"/><path class="cls-3" d="M297.06,298.89s.16,19.13,1.14,25l24-1.14s-2.11-18.8-1.3-23.83Z" transform="translate(-124.15 -81.01)"/><path class="cls-7" d="M317.28,306.92c0,.11-3.6.41-8,.68s-8.06.4-8.06.29,3.59-.41,8-.67S317.27,306.82,317.28,306.92Z" transform="translate(-124.15 -81.01)"/><path class="cls-7" d="M317.28,311c0,.1-3.59.41-8,.67s-8.06.4-8.07.3,3.6-.41,8-.68S317.28,310.87,317.28,311Z" transform="translate(-124.15 -81.01)"/><path class="cls-7" d="M313.21,315a29,29,0,0,1-4.58.46,27.88,27.88,0,0,1-4.6.09,26.78,26.78,0,0,1,4.58-.47A27.17,27.17,0,0,1,313.21,315Z" transform="translate(-124.15 -81.01)"/><path class="cls-9" d="M266,331.6s.16,19.13,1.14,25l24-1.14s-2.1-18.8-1.29-23.83Z" transform="translate(-124.15 -81.01)"/><path class="cls-7" d="M286.19,339.64c0,.1-3.59.41-8,.67s-8.06.4-8.06.3,3.59-.41,8-.68S286.18,339.53,286.19,339.64Z" transform="translate(-124.15 -81.01)"/><path class="cls-7" d="M286.2,343.69c0,.1-3.6.41-8,.68s-8.06.39-8.07.29,3.6-.41,8-.68S286.19,343.58,286.2,343.69Z" transform="translate(-124.15 -81.01)"/><path class="cls-7" d="M282.12,347.67a29.62,29.62,0,0,1-4.58.47,27.17,27.17,0,0,1-4.6.08,54.24,54.24,0,0,1,9.18-.55Z" transform="translate(-124.15 -81.01)"/><path class="cls-8" d="M343,287.66s.16,19.13,1.13,25l24-1.13s-2.11-18.81-1.3-23.84Z" transform="translate(-124.15 -81.01)"/><path class="cls-7" d="M363.2,295.7c0,.1-3.59.41-8,.67s-8.05.4-8.06.3,3.59-.41,8-.68S363.2,295.59,363.2,295.7Z" transform="translate(-124.15 -81.01)"/><path class="cls-7" d="M363.21,299.75c0,.11-3.59.41-8,.68s-8.06.39-8.06.29,3.59-.41,8-.68S363.2,299.64,363.21,299.75Z" transform="translate(-124.15 -81.01)"/><path class="cls-7" d="M359.13,303.73a29.19,29.19,0,0,1-4.57.47,27.13,27.13,0,0,1-4.6.08,27.82,27.82,0,0,1,4.57-.47A27.15,27.15,0,0,1,359.13,303.73Z" transform="translate(-124.15 -81.01)"/><path class="cls-9" d="M395.08,332.57s.16,19.13,1.13,25l24-1.14s-2.11-18.8-1.3-23.83Z" transform="translate(-124.15 -81.01)"/><path class="cls-7" d="M415.3,340.61c0,.1-3.6.41-8,.67s-8.06.4-8.07.3,3.6-.41,8-.68S415.29,340.5,415.3,340.61Z" transform="translate(-124.15 -81.01)"/><path class="cls-7" d="M415.3,344.66c0,.11-3.59.41-8,.68s-8.05.39-8.06.29,3.59-.41,8-.68S415.3,344.55,415.3,344.66Z" transform="translate(-124.15 -81.01)"/><path class="cls-7" d="M411.22,348.64a29.19,29.19,0,0,1-4.57.47,27.17,27.17,0,0,1-4.6.08,26.61,26.61,0,0,1,4.58-.47A27,27,0,0,1,411.22,348.64Z" transform="translate(-124.15 -81.01)"/><path class="cls-9" d="M424.69,333s.17,19.13,1.14,25l24-1.14S447.72,338,448.53,333Z" transform="translate(-124.15 -81.01)"/><path class="cls-7" d="M444.91,341c0,.11-3.59.41-8,.68s-8.05.4-8.06.29,3.59-.41,8-.67S444.9,340.91,444.91,341Z" transform="translate(-124.15 -81.01)"/><path class="cls-7" d="M444.92,345.07c0,.1-3.6.41-8,.67s-8.06.4-8.06.3,3.59-.41,8-.68S444.91,345,444.92,345.07Z" transform="translate(-124.15 -81.01)"/><path class="cls-7" d="M440.84,349.05a28.58,28.58,0,0,1-4.58.46,27.88,27.88,0,0,1-4.6.09,54.24,54.24,0,0,1,9.18-.55Z" transform="translate(-124.15 -81.01)"/><path class="cls-8" d="M454.31,333.39s.16,19.13,1.13,25l24-1.13s-2.11-18.81-1.3-23.83Z" transform="translate(-124.15 -81.01)"/><path class="cls-7" d="M474.53,341.42c0,.11-3.6.41-8,.68s-8.06.4-8.07.29,3.6-.41,8-.68S474.52,341.32,474.53,341.42Z" transform="translate(-124.15 -81.01)"/><path class="cls-7" d="M474.53,345.47c0,.11-3.59.41-8,.68s-8.05.4-8.06.29,3.59-.41,8-.67S474.53,345.37,474.53,345.47Z" transform="translate(-124.15 -81.01)"/><path class="cls-7" d="M470.45,349.45a26.57,26.57,0,0,1-4.57.47,29.24,29.24,0,0,1-4.6.09,26.61,26.61,0,0,1,4.58-.47A29.11,29.11,0,0,1,470.45,349.45Z" transform="translate(-124.15 -81.01)"/><path class="cls-9" d="M489.91,332.27s.17,19.13,1.14,25l24-1.14s-2.1-18.8-1.29-23.83Z" transform="translate(-124.15 -81.01)"/><path class="cls-7" d="M510.13,340.31c0,.1-3.59.4-8,.67s-8.06.4-8.06.29,3.59-.4,8-.67S510.12,340.2,510.13,340.31Z" transform="translate(-124.15 -81.01)"/><path class="cls-7" d="M510.14,344.36c0,.1-3.6.41-8,.67s-8.06.4-8.07.3,3.6-.41,8-.68S510.13,344.25,510.14,344.36Z" transform="translate(-124.15 -81.01)"/><path class="cls-7" d="M506.06,348.34a28.77,28.77,0,0,1-4.58.46,27.88,27.88,0,0,1-4.6.09,54.24,54.24,0,0,1,9.18-.55Z" transform="translate(-124.15 -81.01)"/><path class="cls-9" d="M515.72,335s.17,19.13,1.14,25l24-1.14s-2.1-18.8-1.29-23.83Z" transform="translate(-124.15 -81.01)"/><path class="cls-7" d="M535.94,343.07c0,.1-3.59.4-8,.67s-8.06.4-8.06.29,3.59-.4,8-.67S535.93,343,535.94,343.07Z" transform="translate(-124.15 -81.01)"/><path class="cls-7" d="M536,347.12c0,.1-3.6.41-8,.67s-8.06.4-8.07.3,3.6-.41,8-.68S535.94,347,536,347.12Z" transform="translate(-124.15 -81.01)"/><path class="cls-7" d="M531.87,351.1a28.77,28.77,0,0,1-4.58.46,27.88,27.88,0,0,1-4.6.09,54.24,54.24,0,0,1,9.18-.55Z" transform="translate(-124.15 -81.01)"/><path class="cls-9" d="M395,297.8s.16,19.13,1.14,25l24-1.13s-2.11-18.81-1.29-23.84Z" transform="translate(-124.15 -81.01)"/><path class="cls-7" d="M415.19,305.84c0,.1-3.59.41-8,.67s-8.06.4-8.06.3,3.59-.41,8-.68S415.18,305.73,415.19,305.84Z" transform="translate(-124.15 -81.01)"/><path class="cls-7" d="M415.2,309.89c0,.11-3.6.41-8,.68s-8.06.39-8.07.29,3.6-.41,8-.68S415.19,309.78,415.2,309.89Z" transform="translate(-124.15 -81.01)"/><path class="cls-7" d="M411.12,313.87a29.62,29.62,0,0,1-4.58.47,27.17,27.17,0,0,1-4.6.08,28,28,0,0,1,4.58-.47A27.17,27.17,0,0,1,411.12,313.87Z" transform="translate(-124.15 -81.01)"/><path class="cls-3" d="M426.3,297.89s.16,19.14,1.13,25l24-1.13s-2.11-18.81-1.3-23.84Z" transform="translate(-124.15 -81.01)"/><path class="cls-7" d="M446.52,305.93c0,.11-3.6.41-8,.68s-8.06.39-8.07.29,3.6-.41,8-.68S446.51,305.82,446.52,305.93Z" transform="translate(-124.15 -81.01)"/><path class="cls-7" d="M446.52,310c0,.11-3.59.41-8,.68s-8.05.4-8.06.29,3.59-.41,8-.67S446.52,309.88,446.52,310Z" transform="translate(-124.15 -81.01)"/><path class="cls-7" d="M442.44,314a26.57,26.57,0,0,1-4.57.47,27.15,27.15,0,0,1-4.6.08,28.54,28.54,0,0,1,4.57-.46A27.84,27.84,0,0,1,442.44,314Z" transform="translate(-124.15 -81.01)"/><path class="cls-9" d="M488,297.91s.16,19.13,1.13,25l24-1.14s-2.11-18.81-1.3-23.83Z" transform="translate(-124.15 -81.01)"/><path class="cls-7" d="M508.25,305.94c0,.11-3.59.41-8,.68s-8,.4-8.06.29,3.59-.41,8-.67S508.25,305.84,508.25,305.94Z" transform="translate(-124.15 -81.01)"/><path class="cls-7" d="M508.26,310c0,.1-3.59.4-8,.67s-8.06.4-8.06.29,3.59-.4,8-.67S508.25,309.89,508.26,310Z" transform="translate(-124.15 -81.01)"/><path class="cls-7" d="M504.18,314a26.57,26.57,0,0,1-4.57.47,29.23,29.23,0,0,1-4.6.09,26.57,26.57,0,0,1,4.57-.47A29.24,29.24,0,0,1,504.18,314Z" transform="translate(-124.15 -81.01)"/><path class="cls-8" d="M278.7,259.45s.16,19.13,1.13,25l24-1.13s-2.11-18.81-1.3-23.84Z" transform="translate(-124.15 -81.01)"/><path class="cls-7" d="M298.91,267.49c0,.1-3.59.41-8,.67s-8.06.4-8.07.3,3.59-.41,8-.68S298.91,267.38,298.91,267.49Z" transform="translate(-124.15 -81.01)"/><path class="cls-7" d="M298.92,271.54c0,.11-3.59.41-8,.68s-8.05.4-8.06.29,3.59-.41,8-.68S298.91,271.44,298.92,271.54Z" transform="translate(-124.15 -81.01)"/><path class="cls-7" d="M294.84,275.52a26.57,26.57,0,0,1-4.57.47,27.13,27.13,0,0,1-4.6.08,29.19,29.19,0,0,1,4.57-.47A27.13,27.13,0,0,1,294.84,275.52Z" transform="translate(-124.15 -81.01)"/><path class="cls-3" d="M269.16,198.44s.17,19.13,1.14,25l24-1.13s-2.1-18.81-1.29-23.84Z" transform="translate(-124.15 -81.01)"/><path class="cls-7" d="M289.38,206.48c0,.1-3.59.41-8,.67s-8,.4-8.06.3,3.59-.41,8-.68S289.37,206.37,289.38,206.48Z" transform="translate(-124.15 -81.01)"/><path class="cls-7" d="M289.39,210.53c0,.11-3.6.41-8,.68s-8.06.39-8.06.29,3.59-.41,8-.68S289.38,210.42,289.39,210.53Z" transform="translate(-124.15 -81.01)"/><path class="cls-7" d="M285.31,214.51a29.23,29.23,0,0,1-4.58.47,27.17,27.17,0,0,1-4.6.08,28.22,28.22,0,0,1,4.58-.47A27.17,27.17,0,0,1,285.31,214.51Z" transform="translate(-124.15 -81.01)"/><path class="cls-3" d="M269.69,227.16s.16,19.13,1.13,25l24-1.13s-2.11-18.81-1.3-23.83Z" transform="translate(-124.15 -81.01)"/><path class="cls-7" d="M289.91,235.19c0,.11-3.6.41-8,.68s-8.06.4-8.07.29,3.6-.41,8-.68S289.9,235.09,289.91,235.19Z" transform="translate(-124.15 -81.01)"/><path class="cls-7" d="M289.91,239.24c0,.11-3.59.41-8,.68s-8.05.4-8.06.29,3.59-.41,8-.67S289.91,239.14,289.91,239.24Z" transform="translate(-124.15 -81.01)"/><path class="cls-7" d="M285.83,243.22a26.57,26.57,0,0,1-4.57.47,29.24,29.24,0,0,1-4.6.09,26.61,26.61,0,0,1,4.58-.47A29.11,29.11,0,0,1,285.83,243.22Z" transform="translate(-124.15 -81.01)"/><path class="cls-3" d="M299.07,198.44s.16,19.13,1.13,25l24-1.13s-2.11-18.81-1.3-23.84Z" transform="translate(-124.15 -81.01)"/><path class="cls-7" d="M319.29,206.48c0,.1-3.6.41-8,.67s-8.06.4-8.07.3,3.6-.41,8-.68S319.28,206.37,319.29,206.48Z" transform="translate(-124.15 -81.01)"/><path class="cls-7" d="M319.29,210.53c0,.11-3.59.41-8,.68s-8.05.39-8.06.29,3.59-.41,8-.68S319.29,210.42,319.29,210.53Z" transform="translate(-124.15 -81.01)"/><path class="cls-7" d="M315.21,214.51a29.19,29.19,0,0,1-4.57.47,27.15,27.15,0,0,1-4.6.08,27.82,27.82,0,0,1,4.57-.47A27.13,27.13,0,0,1,315.21,214.51Z" transform="translate(-124.15 -81.01)"/><path class="cls-3" d="M329,198.44s.16,19.13,1.14,25l24-1.13s-2.1-18.81-1.29-23.84Z" transform="translate(-124.15 -81.01)"/><path class="cls-7" d="M349.19,206.48c0,.1-3.59.41-8,.67s-8.06.4-8.06.3,3.59-.41,8-.68S349.18,206.37,349.19,206.48Z" transform="translate(-124.15 -81.01)"/><path class="cls-7" d="M349.2,210.53c0,.11-3.6.41-8,.68s-8.06.39-8.07.29,3.6-.41,8-.68S349.19,210.42,349.2,210.53Z" transform="translate(-124.15 -81.01)"/><path class="cls-7" d="M345.12,214.51a29.62,29.62,0,0,1-4.58.47,27.17,27.17,0,0,1-4.6.08,28,28,0,0,1,4.58-.47A27.17,27.17,0,0,1,345.12,214.51Z" transform="translate(-124.15 -81.01)"/><path class="cls-3" d="M358.88,198.44s.16,19.13,1.13,25l24-1.13s-2.11-18.81-1.3-23.84Z" transform="translate(-124.15 -81.01)"/><path class="cls-7" d="M379.09,206.48c0,.1-3.59.41-8,.67s-8.05.4-8.06.3,3.59-.41,8-.68S379.09,206.37,379.09,206.48Z" transform="translate(-124.15 -81.01)"/><path class="cls-7" d="M379.1,210.53c0,.11-3.59.41-8,.68s-8.06.39-8.06.29,3.59-.41,8-.68S379.09,210.42,379.1,210.53Z" transform="translate(-124.15 -81.01)"/><path class="cls-7" d="M375,214.51a29.19,29.19,0,0,1-4.57.47,27.13,27.13,0,0,1-4.6.08,27.82,27.82,0,0,1,4.57-.47A27.15,27.15,0,0,1,375,214.51Z" transform="translate(-124.15 -81.01)"/><path class="cls-3" d="M398.85,202.68s.16,19.13,1.13,25l24-1.14s-2.11-18.81-1.3-23.83Z" transform="translate(-124.15 -81.01)"/><path class="cls-7" d="M419.06,210.71c0,.11-3.59.41-8,.68s-8.06.4-8.07.29,3.6-.41,8-.67S419.06,210.61,419.06,210.71Z" transform="translate(-124.15 -81.01)"/><path class="cls-7" d="M419.07,214.77c0,.1-3.59.41-8,.67s-8,.4-8.06.3,3.59-.41,8-.68S419.06,214.66,419.07,214.77Z" transform="translate(-124.15 -81.01)"/><path class="cls-7" d="M415,218.75a28.54,28.54,0,0,1-4.57.46,27.84,27.84,0,0,1-4.6.09,26.57,26.57,0,0,1,4.57-.47A27.13,27.13,0,0,1,415,218.75Z" transform="translate(-124.15 -81.01)"/><path class="cls-3" d="M425.62,203.09s.16,19.13,1.14,25l24-1.14s-2.11-18.81-1.3-23.83Z" transform="translate(-124.15 -81.01)"/><path class="cls-7" d="M445.84,211.12c0,.11-3.59.41-8,.68s-8.06.4-8.06.29,3.59-.41,8-.67S445.83,211,445.84,211.12Z" transform="translate(-124.15 -81.01)"/><path class="cls-7" d="M445.84,215.18c0,.1-3.59.41-8,.67s-8.06.4-8.07.3,3.6-.41,8-.68S445.84,215.07,445.84,215.18Z" transform="translate(-124.15 -81.01)"/><path class="cls-7" d="M441.77,219.16a29,29,0,0,1-4.58.46,27.88,27.88,0,0,1-4.6.09,26.78,26.78,0,0,1,4.58-.47A27.17,27.17,0,0,1,441.77,219.16Z" transform="translate(-124.15 -81.01)"/><path class="cls-3" d="M455.19,204s.17,19.13,1.14,25l24-1.13S478.22,209,479,204Z" transform="translate(-124.15 -81.01)"/><path class="cls-7" d="M475.41,212c0,.11-3.59.41-8,.68s-8.06.4-8.06.29,3.59-.41,8-.68S475.4,211.88,475.41,212Z" transform="translate(-124.15 -81.01)"/><path class="cls-7" d="M475.42,216c0,.11-3.6.41-8,.68s-8.06.4-8.07.29,3.6-.41,8-.67S475.41,215.93,475.42,216Z" transform="translate(-124.15 -81.01)"/><path class="cls-7" d="M471.34,220a26.78,26.78,0,0,1-4.58.47,27.17,27.17,0,0,1-4.6.08,29,29,0,0,1,4.58-.46A27.88,27.88,0,0,1,471.34,220Z" transform="translate(-124.15 -81.01)"/><path class="cls-3" d="M490.34,203s.16,19.14,1.14,25l24-1.13S513.36,208,514.17,203Z" transform="translate(-124.15 -81.01)"/><path class="cls-7" d="M510.56,211c0,.11-3.6.41-8,.68s-8.06.4-8.06.29,3.59-.41,8-.68S510.55,210.88,510.56,211Z" transform="translate(-124.15 -81.01)"/><path class="cls-7" d="M510.56,215c0,.11-3.59.41-8,.68s-8,.4-8.06.29,3.59-.41,8-.67S510.56,214.94,510.56,215Z" transform="translate(-124.15 -81.01)"/><path class="cls-7" d="M506.49,219a54.24,54.24,0,0,1-9.18.55,28.58,28.58,0,0,1,4.58-.46A27.88,27.88,0,0,1,506.49,219Z" transform="translate(-124.15 -81.01)"/><path class="cls-3" d="M493.26,234.14s.17,19.13,1.14,25l24-1.13s-2.1-18.81-1.29-23.84Z" transform="translate(-124.15 -81.01)"/><path class="cls-7" d="M513.48,242.18c0,.1-3.59.41-8,.67s-8.05.4-8.06.3,3.59-.41,8-.68S513.47,242.07,513.48,242.18Z" transform="translate(-124.15 -81.01)"/><path class="cls-7" d="M513.49,246.23c0,.11-3.6.41-8,.68s-8.06.4-8.06.29,3.59-.41,8-.68S513.48,246.13,513.49,246.23Z" transform="translate(-124.15 -81.01)"/><path class="cls-7" d="M509.41,250.21a26.61,26.61,0,0,1-4.58.47,27.17,27.17,0,0,1-4.6.08,29.62,29.62,0,0,1,4.58-.47A27.17,27.17,0,0,1,509.41,250.21Z" transform="translate(-124.15 -81.01)"/><path class="cls-9" d="M511.42,205.63s.17,19.13,1.14,25l24-1.14s-2.1-18.81-1.29-23.83Z" transform="translate(-124.15 -81.01)"/><path class="cls-7" d="M531.64,213.66c0,.11-3.59.41-8,.68s-8.05.4-8.06.29,3.59-.41,8-.67S531.63,213.56,531.64,213.66Z" transform="translate(-124.15 -81.01)"/><path class="cls-7" d="M531.65,217.72c0,.1-3.6.41-8,.67s-8.06.4-8.06.3,3.59-.41,8-.68S531.64,217.61,531.65,217.72Z" transform="translate(-124.15 -81.01)"/><path class="cls-7" d="M527.57,221.7a28.58,28.58,0,0,1-4.58.46,27.88,27.88,0,0,1-4.6.09,54.24,54.24,0,0,1,9.18-.55Z" transform="translate(-124.15 -81.01)"/><path class="cls-9" d="M405.33,218.3s.16,19.13,1.14,25l24-1.14s-2.11-18.8-1.3-23.83Z" transform="translate(-124.15 -81.01)"/><path class="cls-7" d="M425.55,226.34c0,.1-3.6.4-8,.67s-8.06.4-8.06.29,3.59-.4,8-.67S425.54,226.23,425.55,226.34Z" transform="translate(-124.15 -81.01)"/><path class="cls-7" d="M425.55,230.39c0,.1-3.59.41-8,.67s-8.05.4-8.06.3,3.59-.41,8-.68S425.55,230.28,425.55,230.39Z" transform="translate(-124.15 -81.01)"/><path class="cls-7" d="M421.48,234.37a29,29,0,0,1-4.58.46,27.88,27.88,0,0,1-4.6.09,26.61,26.61,0,0,1,4.58-.47A27.17,27.17,0,0,1,421.48,234.37Z" transform="translate(-124.15 -81.01)"/><path class="cls-3" d="M402.31,260.76s.16,19.13,1.14,25l24-1.14s-2.11-18.8-1.29-23.83Z" transform="translate(-124.15 -81.01)"/><path class="cls-7" d="M422.53,268.8c0,.1-3.59.4-8,.67s-8.06.4-8.06.29,3.59-.4,8-.67S422.52,268.69,422.53,268.8Z" transform="translate(-124.15 -81.01)"/><path class="cls-7" d="M422.54,272.85c0,.1-3.6.41-8,.67s-8.06.4-8.07.3,3.6-.41,8-.68S422.53,272.74,422.54,272.85Z" transform="translate(-124.15 -81.01)"/><path class="cls-7" d="M418.46,276.83a29,29,0,0,1-4.58.46,27.88,27.88,0,0,1-4.6.09,26.78,26.78,0,0,1,4.58-.47A27.17,27.17,0,0,1,418.46,276.83Z" transform="translate(-124.15 -81.01)"/><path class="cls-6" d="M327.11,219.2s1.94,17.72-.55,27.43l-23.68-1s5.07-17.48,2-25.22Z" transform="translate(-124.15 -81.01)"/><path class="cls-9" d="M302.75,216.2s-1.49,20.09-2.79,24.15l21.57,2.27,3.24-3.08s2.3-17.73,2-22.76Z" transform="translate(-124.15 -81.01)"/><polygon class="cls-8" points="197.87 158.36 197.38 161.61 200.62 158.53 197.87 158.36"/><path class="cls-7" d="M322.26,226.35a17,17,0,0,1-2.42-.29l-5.8-.82-5.82-.72a15.43,15.43,0,0,1-2.41-.36,15,15,0,0,1,2.44.09c1.5.11,3.56.31,5.84.61s4.32.65,5.8.93A14.62,14.62,0,0,1,322.26,226.35Z" transform="translate(-124.15 -81.01)"/><path class="cls-7" d="M321.32,230.78a14.18,14.18,0,0,1-2.33-.08c-1.44-.11-3.42-.3-5.6-.58s-4.15-.58-5.56-.83a14.12,14.12,0,0,1-2.28-.5,13.13,13.13,0,0,1,2.32.23l5.57.72,5.57.69A13.65,13.65,0,0,1,321.32,230.78Z" transform="translate(-124.15 -81.01)"/><path class="cls-7" d="M320,234.86c0,.1-3.26-.25-7.25-.78a72.88,72.88,0,0,1-7.2-1.16,66.39,66.39,0,0,1,7.25.78A65.88,65.88,0,0,1,320,234.86Z" transform="translate(-124.15 -81.01)"/><path class="cls-9" d="M251.47,240.42s-1.49,20.09-2.79,24.14l21.56,2.27,3.24-3.08s2.3-17.72,2-22.75Z" transform="translate(-124.15 -81.01)"/><polygon class="cls-8" points="146.58 182.58 146.09 185.82 149.34 182.74 146.58 182.58"/><path class="cls-7" d="M271,250.57a17,17,0,0,1-2.42-.29l-5.8-.82-5.82-.72a14.87,14.87,0,0,1-2.4-.36,14.85,14.85,0,0,1,2.43.09c1.5.11,3.57.31,5.84.61s4.32.65,5.8.93A14.26,14.26,0,0,1,271,250.57Z" transform="translate(-124.15 -81.01)"/><path class="cls-7" d="M270,255a13.65,13.65,0,0,1-2.33-.09c-1.44-.1-3.42-.29-5.6-.57s-4.14-.58-5.56-.84a11.87,11.87,0,0,1-2.28-.5,15.31,15.31,0,0,1,2.32.24l5.57.72,5.58.68A13.64,13.64,0,0,1,270,255Z" transform="translate(-124.15 -81.01)"/><path class="cls-7" d="M268.69,259.07a66.39,66.39,0,0,1-7.25-.78,65.88,65.88,0,0,1-7.2-1.16c0-.1,3.26.25,7.25.78A72.88,72.88,0,0,1,268.69,259.07Z" transform="translate(-124.15 -81.01)"/><rect class="cls-3" x="86.62" y="121.35" width="18.02" height="4.12"/><rect class="cls-8" x="86.62" y="219.71" width="18.02" height="4.12"/><rect class="cls-8" x="86.62" y="252.99" width="18.02" height="4.12"/><rect class="cls-2" x="155.38" y="97.03" width="62.2" height="4.12"/><rect class="cls-2" x="279.27" y="97.03" width="62.2" height="4.12"/><rect class="cls-2" x="371.63" y="97.03" width="29.7" height="4.12"/><path class="cls-8" d="M533.42,195.7c0,.1-72.92.19-162.86.19s-162.87-.09-162.87-.19,72.9-.2,162.87-.2S533.42,195.59,533.42,195.7Z" transform="translate(-124.15 -81.01)"/><path class="cls-8" d="M533.42,293.61c0,.1-72.92.19-162.86.19s-162.87-.09-162.87-.19,72.9-.2,162.87-.2S533.42,293.5,533.42,293.61Z" transform="translate(-124.15 -81.01)"/><path class="cls-8" d="M533.42,360.81c0,.1-72.92.19-162.86.19s-162.87-.09-162.87-.19,72.9-.19,162.87-.19S533.42,360.7,533.42,360.81Z" transform="translate(-124.15 -81.01)"/><path class="cls-8" d="M533.42,328c0,.11-72.92.2-162.86.2s-162.87-.09-162.87-.2,72.9-.19,162.87-.19S533.42,327.94,533.42,328Z" transform="translate(-124.15 -81.01)"/><path class="cls-8" d="M235.29,361.69c-.11,0-.19-41.61-.19-92.93s.08-92.94.19-92.94.19,41.61.19,92.94S235.4,361.69,235.29,361.69Z" transform="translate(-124.15 -81.01)"/><path class="cls-8" d="M385.79,362.66c-.11,0-.19-41.55-.19-92.78s.08-92.79.19-92.79.19,41.53.19,92.79S385.89,362.66,385.79,362.66Z" transform="translate(-124.15 -81.01)"/><path class="cls-8" d="M483.25,363.63c-.1,0-.19-41.55-.19-92.79s.09-92.8.19-92.8.19,41.54.19,92.8S483.36,363.63,483.25,363.63Z" transform="translate(-124.15 -81.01)"/><path class="cls-8" d="M423.39,256.67l.29.1.85.35a17.15,17.15,0,0,1,3,1.85,17.91,17.91,0,0,1,3.81,4.08,20.22,20.22,0,0,1,1.68,3.07,19.19,19.19,0,0,1,1.12,3.76,17.39,17.39,0,0,1-.78,8.9,19.32,19.32,0,0,1-5.86,8.4,18.71,18.71,0,0,1-10.47,4.2,20.49,20.49,0,0,1-11.85-2.53,20.16,20.16,0,0,1-8.2-8.93,17.52,17.52,0,0,1-1.33-11.19,17.75,17.75,0,0,1,4.94-9,15.34,15.34,0,0,1,3.83-2.7,16.43,16.43,0,0,1,4.07-1.45,25.86,25.86,0,0,1,7.38-.46,47.12,47.12,0,0,1,5.53.75c1.51.29,2.67.55,3.45.74l.89.22.3.08a1.88,1.88,0,0,1-.31,0l-.9-.19c-.79-.16-1.95-.4-3.45-.66a49,49,0,0,0-5.53-.68,25.43,25.43,0,0,0-7.3.51,16.18,16.18,0,0,0-4,1.44,15,15,0,0,0-3.73,2.67,17.39,17.39,0,0,0-4.82,8.8,17.14,17.14,0,0,0,1.33,10.95,19.71,19.71,0,0,0,8,8.75A20.15,20.15,0,0,0,417,291a18.41,18.41,0,0,0,10.28-4.11,19,19,0,0,0,5.78-8.23,17.13,17.13,0,0,0,.81-8.74,18.67,18.67,0,0,0-1.08-3.71,19.88,19.88,0,0,0-1.63-3.05,18,18,0,0,0-3.73-4.08,17.64,17.64,0,0,0-2.94-1.9l-.84-.38Z" transform="translate(-124.15 -81.01)"/><path class="cls-8" d="M431.14,259c-.07-.09,2.89-2.55,6.59-5.5s6.77-5.27,6.84-5.19-2.89,2.55-6.6,5.5S431.21,259.05,431.14,259Z" transform="translate(-124.15 -81.01)"/><path class="cls-8" d="M442.8,259.42a5.51,5.51,0,0,1-.95.13l-2.6.23c-2.2.17-5.24.39-8.62.6l-.28,0,.09-.27.1-.32a33.53,33.53,0,0,1,3.71-8.07c.61-1,1.15-1.7,1.54-2.2a5.41,5.41,0,0,1,.65-.75,5.46,5.46,0,0,1-.52.84c-.36.52-.86,1.29-1.44,2.26a36.94,36.94,0,0,0-3.58,8l-.1.31-.19-.24c3.38-.22,6.42-.39,8.62-.49l2.61-.11A4.59,4.59,0,0,1,442.8,259.42Z" transform="translate(-124.15 -81.01)"/><path class="cls-8" d="M525.8,305.47s.23-.56.64-1.57a27.62,27.62,0,0,0,1.38-4.37,27.51,27.51,0,0,0-8.9-27.35,30,30,0,0,0-3.69-2.72c-.93-.57-1.46-.86-1.44-.89a2.29,2.29,0,0,1,.4.18c.25.13.64.3,1.11.58a25,25,0,0,1,3.79,2.65,27.09,27.09,0,0,1,4.68,5,27.3,27.3,0,0,1,4.32,22.59,25.15,25.15,0,0,1-1.51,4.37c-.21.51-.43.87-.55,1.13S525.82,305.48,525.8,305.47Z" transform="translate(-124.15 -81.01)"/><path class="cls-8" d="M532.64,301.29a18.19,18.19,0,0,1-1.95,1.7l-2.18,1.76-1.3,1a2.76,2.76,0,0,1-1.67.84,1.09,1.09,0,0,1-.86-.59,3.75,3.75,0,0,1-.3-.87c-.14-.56-.28-1.09-.41-1.61-.25-1-.47-1.91-.67-2.72a16.68,16.68,0,0,1-.53-2.53,17.65,17.65,0,0,1,.79,2.46c.22.81.48,1.71.75,2.7l.43,1.6c.13.54.32,1.15.83,1.18a2.6,2.6,0,0,0,1.41-.76l1.31-1,2.23-1.7A18.25,18.25,0,0,1,532.64,301.29Z" transform="translate(-124.15 -81.01)"/><path class="cls-8" d="M344.58,256.46c0,.1-7.33,2.06-16.43,4.37s-16.49,4.11-16.52,4,7.33-2.06,16.43-4.38S344.56,256.35,344.58,256.46Z" transform="translate(-124.15 -81.01)"/><path class="cls-8" d="M349.34,260.36c0,.11-8.06,2.45-18.06,5.24s-18.13,5-18.16,4.86,8.06-2.45,18.06-5.23S349.31,260.26,349.34,260.36Z" transform="translate(-124.15 -81.01)"/><path class="cls-8" d="M352.25,266.83c0,.1-7.71,2-17.27,4.33s-17.34,4.07-17.37,4,7.71-2,17.28-4.33S352.22,266.73,352.25,266.83Z" transform="translate(-124.15 -81.01)"/><polygon class="cls-6" points="187.21 253.38 193.08 284.38 251.68 273.29 241.5 243.11 187.21 253.38"/><rect class="cls-7" x="312.25" y="329.13" width="56.49" height="27.95" transform="matrix(0.98, -0.19, 0.19, 0.98, -182.03, -11.69)"/><path class="cls-8" d="M370.85,351.58s-.05-.17-.11-.5-.17-.81-.29-1.43c-.25-1.27-.61-3.11-1.07-5.48-.92-4.75-2.24-11.59-3.87-20l.16.12-55.49,10.55h0l.15-.22c1.83,9.68,3.58,19,5.19,27.46l-.21-.14,39.85-7.46,11.52-2.13,3.08-.56.81-.14.28,0-.26.06-.78.16-3,.59-11.46,2.22-39.95,7.65-.17,0,0-.18c-1.61-8.49-3.37-17.78-5.21-27.46l0-.19.19,0h0L365.62,324l.14,0,0,.14c1.57,8.48,2.85,15.37,3.73,20.14.43,2.36.77,4.2,1,5.46.11.61.19,1.08.25,1.41S370.85,351.58,370.85,351.58Z" transform="translate(-124.15 -81.01)"/><rect class="cls-7" x="318.13" y="338.05" width="15.62" height="15.62" transform="translate(-182.79 -14.35) rotate(-10.72)"/><path class="cls-8" d="M335.06,352.08s0-.11-.07-.3-.11-.49-.18-.83c-.15-.76-.37-1.81-.63-3.13-.54-2.71-1.29-6.51-2.18-11.06l.19.13-15.34,2.93.15-.22h0v0l0,.07,0,.13.05.26.1.53.2,1c.13.69.26,1.37.38,2.05.26,1.35.51,2.68.75,4,.48,2.58.93,5,1.35,7.24l-.19-.13,11.09-2,3.14-.55.84-.14.3,0-.26.07-.8.17-3.09.63-11.16,2.2-.16,0,0-.17c-.42-2.23-.89-4.66-1.39-7.23-.24-1.29-.49-2.61-.75-4l-.39-2.05c-.07-.35-.13-.69-.2-1l-.1-.52-.05-.27,0-.13v-.1h0c-.13.2.19-.27.16-.22l15.35-2.88.16,0,0,.16c.84,4.61,1.54,8.45,2,11.19.23,1.31.42,2.36.55,3.11.05.33.1.6.13.81A.93.93,0,0,1,335.06,352.08Z" transform="translate(-124.15 -81.01)"/><path class="cls-8" d="M335.06,352.08s-.08-.4-.3-1.1a5.39,5.39,0,0,0-1.62-2.58h0a5.82,5.82,0,0,0-1.9-1.16,6,6,0,0,0-2.58-.29l-.34,0,.18-.29a3.88,3.88,0,0,0,.14-3.68,3.44,3.44,0,0,0-1.36-1.52,3.61,3.61,0,0,0-2.08-.49,4,4,0,0,0-2.25.84,3.35,3.35,0,0,0-1.19,1.94A4,4,0,0,0,323,347.6l.18.15-.2.12a6.74,6.74,0,0,0-2.31,2.36,7.1,7.1,0,0,0-.89,2.41,9.57,9.57,0,0,0,0,2.26,1.84,1.84,0,0,1-.14-.58,6.46,6.46,0,0,1,0-1.71,7.05,7.05,0,0,1,.84-2.51,6.73,6.73,0,0,1,2.38-2.51l0,.26a4.24,4.24,0,0,1-1.42-4.16,3.73,3.73,0,0,1,1.31-2.16,4.28,4.28,0,0,1,2.47-.92,3.94,3.94,0,0,1,2.29.54,3.84,3.84,0,0,1,1.51,1.69,4.22,4.22,0,0,1-.19,4l-.16-.26a6.31,6.31,0,0,1,2.71.35,5.86,5.86,0,0,1,2,1.26h0a5.28,5.28,0,0,1,1.61,2.74,6.44,6.44,0,0,1,.16.84C335.07,352,335.08,352.08,335.06,352.08Z" transform="translate(-124.15 -81.01)"/><path class="cls-7" d="M338,336.19l13.31-2.52" transform="translate(-124.15 -81.01)"/><path class="cls-8" d="M351.32,333.67a59,59,0,0,1-6.62,1.45,56.86,56.86,0,0,1-6.69,1.07,118.83,118.83,0,0,1,13.31-2.52Z" transform="translate(-124.15 -81.01)"/><path class="cls-7" d="M338.6,339.28l2.69-.51" transform="translate(-124.15 -81.01)"/><path class="cls-8" d="M341.29,338.77c0,.11-.57.31-1.31.45s-1.36.17-1.38.06.57-.3,1.31-.44S341.27,338.67,341.29,338.77Z" transform="translate(-124.15 -81.01)"/><path class="cls-8" d="M363.41,340.16c0,.1-5.29,1.19-11.86,2.44s-11.91,2.16-11.93,2.06,5.29-1.2,11.86-2.44S363.39,340.05,363.41,340.16Z" transform="translate(-124.15 -81.01)"/><path class="cls-8" d="M364.05,342.82c0,.1-5.32,1.2-11.92,2.45s-12,2.18-12,2.08,5.32-1.2,11.92-2.46S364,342.71,364.05,342.82Z" transform="translate(-124.15 -81.01)"/><path class="cls-8" d="M364.23,346a4.56,4.56,0,0,1-.91.24l-2.5.54c-2.13.44-5.06,1-8.31,1.63s-6.19,1.15-8.33,1.52l-2.53.42a4.07,4.07,0,0,1-.94.1,4.59,4.59,0,0,1,.91-.25l2.51-.54c2.12-.43,5.06-1,8.31-1.63s6.19-1.15,8.32-1.52l2.54-.41A4,4,0,0,1,364.23,346Z" transform="translate(-124.15 -81.01)"/><path class="cls-3" d="M340,333.18s0,0,.15-.09l.44-.23a14.65,14.65,0,0,1,1.8-.72,16.39,16.39,0,0,1,7-.66,15.12,15.12,0,0,1,4.73,1.36,6.49,6.49,0,0,1,2.18,1.72,3.3,3.3,0,0,1,.66,2.86,4.86,4.86,0,0,1-1.82,2.51,14.83,14.83,0,0,1-2.75,1.62,25.3,25.3,0,0,1-6.33,2.17,15.23,15.23,0,0,1-6.69-.09,9.85,9.85,0,0,1-3-1.22,5,5,0,0,1-2-2.35,3.46,3.46,0,0,1,.33-2.92,7.08,7.08,0,0,1,1.89-2,18.27,18.27,0,0,1,4.32-2.35,19,19,0,0,1,7-1.24,17.72,17.72,0,0,1,1.93.14l.49.08.17,0h-.17l-.5,0c-.44,0-1.09-.08-1.92-.08a19.56,19.56,0,0,0-6.87,1.35,18.11,18.11,0,0,0-4.23,2.35,6.92,6.92,0,0,0-1.79,1.94,3.1,3.1,0,0,0-.28,2.64,4.55,4.55,0,0,0,1.88,2.16,9.58,9.58,0,0,0,2.87,1.17,15.07,15.07,0,0,0,6.52.08,26,26,0,0,0,6.24-2.13,15.09,15.09,0,0,0,2.69-1.58,4.44,4.44,0,0,0,1.71-2.31,3,3,0,0,0-.59-2.57,6.23,6.23,0,0,0-2.06-1.63,14.91,14.91,0,0,0-4.61-1.38,16.8,16.8,0,0,0-7,.53c-.79.24-1.4.48-1.81.65l-.46.19Z" transform="translate(-124.15 -81.01)"/><path class="cls-3" d="M356,332.77a37,37,0,0,1,3.94-3.45,36.5,36.5,0,0,1,4.18-3.15,35.79,35.79,0,0,1-3.94,3.45A34.58,34.58,0,0,1,356,332.77Z" transform="translate(-124.15 -81.01)"/><path class="cls-3" d="M360.94,332.1a27.94,27.94,0,0,1-4.61,1.14l-.55.12-.3.06.07-.29a10,10,0,0,1,1.67-3.85c.1.05-.77,1.66-1.3,3.93l-.22-.23.56-.11A29.61,29.61,0,0,1,360.94,332.1Z" transform="translate(-124.15 -81.01)"/><path class="cls-3" d="M352.66,335.46a74.1,74.1,0,0,1-7.3,1.31c-4.06.62-7.35,1-7.37.94a69.56,69.56,0,0,1,7.31-1.32A69.49,69.49,0,0,1,352.66,335.46Z" transform="translate(-124.15 -81.01)"/><path class="cls-3" d="M336,329.56a3.4,3.4,0,1,1-4-2.71A3.4,3.4,0,0,1,336,329.56Z" transform="translate(-124.15 -81.01)"/><path class="cls-8" d="M332.67,333.62a3.43,3.43,0,0,1-3.36-2.79,3.41,3.41,0,0,1,2.73-4,3.36,3.36,0,0,1,.63-.06,3.42,3.42,0,0,1,3.37,2.79h0a3.43,3.43,0,0,1-2.73,4A3.47,3.47,0,0,1,332.67,333.62Zm0-6.82a3.44,3.44,0,0,0-.63.06,3.39,3.39,0,0,0-1.28,6.13,3.39,3.39,0,0,0,5.24-3.43h0A3.39,3.39,0,0,0,332.67,326.8Z" transform="translate(-124.15 -81.01)"/></g><g id="Plants"><path class="cls-3" d="M382.56,383c-5.66-8.66-5.44-21.31,1.32-29.14,2.1-2.44,5-4.55,8.23-4.27s5.92,3.09,6.91,6.22.65,6.53.07,9.76c-.82,4.53-2.19,9.17-5.34,12.53s-7.15,7.11-11.19,4.9" transform="translate(-124.15 -81.01)"/><path class="cls-3" d="M385.08,424.35a13,13,0,0,1,3.61-14.7,5.45,5.45,0,0,1,4.63-1.45,4.5,4.5,0,0,1,3,3.83,10.73,10.73,0,0,1-.85,5,12.74,12.74,0,0,1-3.89,6c-1.92,1.45-4.61,2.81-6.5,1.31" transform="translate(-124.15 -81.01)"/><path class="cls-3" d="M371.43,421.38A18.74,18.74,0,0,0,362,401.61c-2.15-1.12-4.81-1.78-7-.69s-3.3,3.83-3.12,6.31a15.39,15.39,0,0,0,2.69,6.89c1.84,2.95,4.11,5.83,7.26,7.31s7.37,2.63,9.59-.05" transform="translate(-124.15 -81.01)"/><path class="cls-3" d="M372.41,400.62c2.71-8.75-1.88-19.36-9.54-24.38-2.38-1.55-5.39-2.64-8.05-1.63s-4.28,4.07-4.36,7a17.94,17.94,0,0,0,2.32,8.33c1.8,3.65,4.09,7.26,7.59,9.36s9.14,4.2,12,1.34" transform="translate(-124.15 -81.01)"/><path class="cls-8" d="M377.86,443.37a1.21,1.21,0,0,1-.09-.42c0-.32-.11-.73-.18-1.22,0-.27-.08-.57-.13-.88s-.13-.67-.2-1.05c-.14-.74-.29-1.59-.53-2.52l-.35-1.46-.46-1.56c-.29-1.08-.72-2.21-1.13-3.4A58.91,58.91,0,0,0,367,416.42c-.77-1-1.47-2-2.21-2.83l-1.05-1.24-1-1.1c-.64-.72-1.27-1.31-1.81-1.84l-.76-.74-.66-.59-.92-.83c-.21-.19-.31-.3-.3-.31a2,2,0,0,1,.35.25l1,.78.69.57.78.72c.56.52,1.21,1.1,1.86,1.81l1,1.09,1.07,1.24c.76.84,1.47,1.81,2.26,2.81a64.22,64.22,0,0,1,4.42,7,62.09,62.09,0,0,1,3.37,7.55c.4,1.21.82,2.34,1.1,3.44.16.54.3,1.06.44,1.57l.34,1.47c.22.94.35,1.8.48,2.55.06.37.12.72.17,1.05s.06.62.09.89c0,.5.08.91.11,1.23A2.77,2.77,0,0,1,377.86,443.37Z" transform="translate(-124.15 -81.01)"/><path class="cls-8" d="M377.66,444.94s0-.06,0-.17,0-.3,0-.51c.05-.47.11-1.12.18-1.94.05-.43.09-.9.14-1.41s.05-1.07.09-1.67c0-1.2.16-2.57.11-4.08,0-.76,0-1.55,0-2.38s-.08-1.68-.13-2.57c-.06-1.78-.3-3.67-.51-5.65a86.92,86.92,0,0,0-2.69-12.72,88.49,88.49,0,0,0-4.68-12.13c-.91-1.79-1.73-3.5-2.65-5-.45-.76-.85-1.52-1.3-2.22s-.87-1.36-1.28-2c-.79-1.29-1.63-2.37-2.32-3.36-.36-.48-.68-1-1-1.36l-.88-1.1-1.21-1.53-.31-.4c-.06-.09-.1-.14-.09-.15l.12.12.34.38,1.26,1.49.91,1.09c.32.4.65.86,1,1.34.71,1,1.57,2,2.38,3.34l1.31,2c.45.69.86,1.45,1.32,2.22.93,1.52,1.77,3.24,2.69,5a79.35,79.35,0,0,1,7.4,24.95c.2,2,.43,3.9.48,5.68,0,.9.11,1.76.11,2.59s0,1.62,0,2.38c0,1.52-.11,2.89-.18,4.09,0,.6-.06,1.17-.11,1.68s-.12,1-.17,1.4c-.11.82-.19,1.47-.25,1.94,0,.2-.06.37-.08.5A.66.66,0,0,1,377.66,444.94Z" transform="translate(-124.15 -81.01)"/><path class="cls-8" d="M392.4,360a.79.79,0,0,1-.08.17l-.24.45-1,1.73c-.21.37-.46.78-.7,1.25l-.75,1.52-.88,1.75c-.29.62-.57,1.3-.88,2s-.65,1.43-1,2.21l-.94,2.44-.5,1.29-.45,1.34c-.31.91-.62,1.85-.95,2.81-1.2,3.89-2.34,8.21-3.3,12.8s-1.58,9-2.06,13.05-.72,7.69-.8,10.76c-.08,1.54-.09,2.93-.1,4.15s0,2.27,0,3.13,0,1.5,0,2v.52a1.15,1.15,0,0,1,0,.17s0-.06,0-.17,0-.31,0-.51c0-.49-.06-1.15-.1-2s-.07-1.92-.07-3.14,0-2.62.05-4.16c.05-3.08.33-6.74.72-10.79s1.11-8.48,2-13.09,2.11-8.93,3.34-12.82l1-2.81c.16-.46.31-.91.47-1.35l.5-1.29c.33-.84.66-1.65,1-2.44s.67-1.5,1-2.21.61-1.37.91-2l.9-1.74c.28-.54.55-1,.79-1.51s.51-.86.73-1.23c.43-.72.77-1.29,1-1.7l.27-.44A1,1,0,0,1,392.4,360Z" transform="translate(-124.15 -81.01)"/><path class="cls-8" d="M390.47,413.13a7.73,7.73,0,0,1-.6,1.06c-.41.66-1,1.64-1.65,2.86s-1.4,2.71-2.14,4.4a57.43,57.43,0,0,0-2.08,5.62,58.09,58.09,0,0,0-1.46,5.81c-.33,1.81-.57,3.46-.71,4.85s-.22,2.51-.25,3.29a7,7,0,0,1-.1,1.21,7.21,7.21,0,0,1-.05-1.21c0-.79,0-1.92.14-3.32s.32-3.05.64-4.88a55.73,55.73,0,0,1,1.43-5.86,56.94,56.94,0,0,1,2.12-5.65c.77-1.69,1.53-3.18,2.23-4.39s1.31-2.17,1.76-2.81A6.48,6.48,0,0,1,390.47,413.13Z" transform="translate(-124.15 -81.01)"/><polygon class="cls-9" points="242.59 358.46 267.46 358.46 264.45 383.86 245.69 383.86 242.59 358.46"/><polygon class="cls-8" points="243.5 381.12 245.61 383.86 264.45 383.86 266.62 381.21 243.5 381.12"/><path class="cls-1" d="M390.64,446.94c0,.11-5.16.19-11.53.19s-11.52-.08-11.52-.19,5.16-.18,11.52-.18S390.64,446.84,390.64,446.94Z" transform="translate(-124.15 -81.01)"/><path class="cls-1" d="M390.64,448.63c0,.11-5.16.19-11.53.19s-11.52-.08-11.52-.19,5.16-.18,11.52-.18S390.64,448.53,390.64,448.63Z" transform="translate(-124.15 -81.01)"/><path class="cls-1" d="M390.33,450.27c0,.1-5,.19-11.12.19s-11.13-.09-11.13-.19,5-.18,11.13-.18S390.33,450.17,390.33,450.27Z" transform="translate(-124.15 -81.01)"/><path class="cls-8" d="M370.54,384.73a1.08,1.08,0,0,1,0,.24c0,.19,0,.42,0,.69-.07.64-.15,1.49-.26,2.53-.23,2.14-.56,5.09-.94,8.34,0,.13,0,.25,0,.36V397h-.11c-3.2,0-6.07.08-8.15.09h-2.46l-.66,0a.64.64,0,0,1-.24,0l.24,0,.66,0,2.46-.08,8.14-.17-.12.12c0-.12,0-.24,0-.37.38-3.25.74-6.2,1-8.33.14-1,.26-1.89.34-2.52,0-.27.08-.5.1-.68A.81.81,0,0,1,370.54,384.73Z" transform="translate(-124.15 -81.01)"/><path class="cls-8" d="M364.88,377.13a.72.72,0,0,1,0,.25c0,.19,0,.43,0,.72,0,.65,0,1.54,0,2.62,0,2.21-.09,5.27-.17,8.64,0,.14,0,.27,0,.4v.13h-.14a81.25,81.25,0,0,0-8.36-.19l-2.52.11-.68,0h-.24l.23,0,.68-.08c.6-.06,1.46-.13,2.53-.19a67.23,67.23,0,0,1,8.38.11l-.13.12v-.39c.08-3.38.17-6.44.25-8.65,0-1.07.07-2,.1-2.62,0-.28,0-.52,0-.71A.87.87,0,0,1,364.88,377.13Z" transform="translate(-124.15 -81.01)"/><path class="cls-8" d="M358.26,374.55a3.86,3.86,0,0,1,.16.73c.09.51.22,1.18.37,2,.32,1.69.82,4,1.53,6.57l.08.26-.25-.12-.3-.14a21.42,21.42,0,0,0-6.63-1.94c-.88-.11-1.6-.15-2.1-.17a4.23,4.23,0,0,1-.77,0s.06,0,.2,0l.57,0a20.07,20.07,0,0,1,2.12.09,20.44,20.44,0,0,1,6.72,1.89l.3.15-.18.14a61.2,61.2,0,0,1-1.46-6.59c-.14-.85-.24-1.54-.3-2A6.67,6.67,0,0,1,358.26,374.55Z" transform="translate(-124.15 -81.01)"/><path class="cls-8" d="M393.38,420.85s-.72,0-1.88-.08a32.18,32.18,0,0,0-4.52.15l-1,.13h-.12l0-.11c-.27-1.51-.5-2.83-.65-3.78a10.1,10.1,0,0,1-.19-1.54,11.47,11.47,0,0,1,.36,1.51c.19.94.45,2.26.72,3.76l-.14-.1,1.05-.13a25.55,25.55,0,0,1,4.56-.08c.58.05,1.05.11,1.38.16A2.35,2.35,0,0,1,393.38,420.85Z" transform="translate(-124.15 -81.01)"/><path class="cls-8" d="M395.73,416.19s-.69-.13-1.82-.27a20.4,20.4,0,0,0-4.41,0l-.78.1-.13,0v-.13c-.16-1.55-.29-2.92-.37-3.9a11,11,0,0,1-.08-1.59,12,12,0,0,1,.25,1.57c.12,1,.28,2.35.44,3.89l-.14-.11.79-.1a17.16,17.16,0,0,1,4.47.12,11.49,11.49,0,0,1,1.32.28A1.37,1.37,0,0,1,395.73,416.19Z" transform="translate(-124.15 -81.01)"/><path class="cls-8" d="M397.42,372l-.25.13-.73.32-2.69,1.15-8.9,3.69-.49.19-.11.05-.05-.11-3.76-8.5-1.11-2.57-.29-.71a.86.86,0,0,1-.08-.25l.13.23.33.69,1.18,2.54c1,2.18,2.33,5.16,3.83,8.46l-.16-.06.48-.2,8.94-3.62,2.72-1.07.74-.28A1,1,0,0,1,397.42,372Z" transform="translate(-124.15 -81.01)"/><path class="cls-8" d="M399.6,361.23l-.22.16-.66.42-2.42,1.51-8.1,4.94-.13.08-.06-.14-.14-.39c-1.32-3.57-2.52-6.79-3.4-9.16-.41-1.16-.75-2.1-1-2.79-.11-.31-.19-.56-.26-.76a.85.85,0,0,1-.07-.27,1.27,1.27,0,0,1,.12.25l.3.75,1.08,2.76c.9,2.36,2.12,5.58,3.46,9.13l.15.39-.18-.06,8.14-4.88,2.46-1.44.68-.39C399.51,361.26,399.59,361.22,399.6,361.23Z" transform="translate(-124.15 -81.01)"/><path class="cls-8" d="M398.88,355.49a2.44,2.44,0,0,1-.53.32c-.35.19-.86.48-1.47.86a26,26,0,0,0-4.51,3.52l-.31.31.1-.43c.11-.44.21-.91.29-1.39a16.18,16.18,0,0,0-.35-6.63,18.75,18.75,0,0,0-.64-1.93,3.82,3.82,0,0,1-.26-.7,5.82,5.82,0,0,1,.35.66,13.84,13.84,0,0,1,.72,1.92,15.61,15.61,0,0,1,.43,6.72c-.08.49-.18,1-.29,1.42l-.21-.12a23.56,23.56,0,0,1,4.59-3.49c.63-.37,1.15-.63,1.52-.8A3.72,3.72,0,0,1,398.88,355.49Z" transform="translate(-124.15 -81.01)"/><path class="cls-8" d="M370.5,411.26a2.76,2.76,0,0,1-.11.64c-.09.41-.21,1-.35,1.75a43.58,43.58,0,0,0-.67,5.89v.11h-.11l-.56,0c-2.47.15-4.7.27-6.32.34l-1.91.08a3.53,3.53,0,0,1-.71,0,4.64,4.64,0,0,1,.7-.09l1.91-.15c1.62-.12,3.85-.27,6.31-.42l.56,0-.12.12a37,37,0,0,1,.75-5.92c.16-.74.31-1.33.43-1.73A3.17,3.17,0,0,1,370.5,411.26Z" transform="translate(-124.15 -81.01)"/><path class="cls-8" d="M365.62,404.25a4.48,4.48,0,0,1,0,.65c-.06.46-.12,1.05-.21,1.76-.18,1.5-.44,3.58-.76,5.91v.1h-.1l-.8.05c-2.53.17-4.81.43-6.46.65l-1.95.26a3.75,3.75,0,0,1-.71.07,3.07,3.07,0,0,1,.7-.17c.45-.09,1.12-.21,1.94-.34,1.64-.26,3.92-.55,6.46-.72l.8-.05-.12.1c.32-2.32.62-4.4.85-5.89l.27-1.75A2.7,2.7,0,0,1,365.62,404.25Z" transform="translate(-124.15 -81.01)"/><path class="cls-8" d="M359.86,401.23s-.11.69-.29,1.8a32.63,32.63,0,0,0-.4,4.4v.14l-.14,0-.42-.05a37.84,37.84,0,0,0-4.69-.28h-1.43a2,2,0,0,1-.53,0,1.88,1.88,0,0,1,.52-.09c.34,0,.83-.07,1.43-.09a29.42,29.42,0,0,1,4.73.21l.42.05-.14.12a26.33,26.33,0,0,1,.48-4.43c.11-.55.22-1,.31-1.3A2.29,2.29,0,0,1,359.86,401.23Z" transform="translate(-124.15 -81.01)"/><path class="cls-8" d="M392.63,408.24a24.06,24.06,0,0,1-1.11,2.52,20.79,20.79,0,0,1-1.2,2.48,11.93,11.93,0,0,1,1-2.58A11.77,11.77,0,0,1,392.63,408.24Z" transform="translate(-124.15 -81.01)"/><path class="cls-8" d="M395.75,411.55a25.79,25.79,0,0,0-2.82.57,28.43,28.43,0,0,0-2.66,1.13,7.84,7.84,0,0,1,5.48-1.7Z" transform="translate(-124.15 -81.01)"/><path class="cls-3" d="M617.84,426.82c4.17-2.15,9.08-2.43,13.71-1.66,2.48.41,5.07,1.15,6.76,3s2,5.15.07,6.76a6.46,6.46,0,0,1-4.26,1.08c-3.63,0-7.64-.68-10.54,1.5-1.65,1.24-2.75,3.31-4.72,3.92a4.68,4.68,0,0,1-5.14-2.28,8,8,0,0,1-.58-5.89A9,9,0,0,1,617.84,426.82Z" transform="translate(-124.15 -81.01)"/><path class="cls-3" d="M608.3,408.39c2.54,3.64,7.5,2.43,9.79.21s3.27-5.44,4.15-8.51c2-7,4.06-14.37,2.56-21.52a12,12,0,0,0-2.75-5.85,6.25,6.25,0,0,0-5.92-2c-2.5.66-4,3.11-5.17,5.43a51.36,51.36,0,0,0-5.07,22c0,3.54.41,7.26,2.41,10.19" transform="translate(-124.15 -81.01)"/><path class="cls-3" d="M601.3,413.61c2.77-3.28,3.29-8.07,2.06-12.18A23.46,23.46,0,0,0,596.14,391a38.87,38.87,0,0,0-12.93-7.62,13.68,13.68,0,0,0-5.81-1,6.12,6.12,0,0,0-4.88,3c-1.36,2.6,0,5.74,1.36,8.31a97.62,97.62,0,0,0,8.49,12.93c2.54,3.28,5.46,6.52,9.34,8s7.9,1.31,10-1.38" transform="translate(-124.15 -81.01)"/><path class="cls-8" d="M608.12,463.29a7.14,7.14,0,0,0,.23-1.65c.12-1.2.27-2.71.44-4.51a64.49,64.49,0,0,1,1-6.62,50.14,50.14,0,0,1,2.41-7.82,28.71,28.71,0,0,1,4-7.07,14.84,14.84,0,0,1,5-4.19,14.18,14.18,0,0,1,4.25-1.32,8.59,8.59,0,0,0,1.64-.24,7.14,7.14,0,0,0-1.67,0A13,13,0,0,0,621,431a15,15,0,0,0-5.32,4.23,28.48,28.48,0,0,0-4.14,7.22,48.8,48.8,0,0,0-2.39,7.94,56.11,56.11,0,0,0-.88,6.7c-.14,1.92-.19,3.47-.22,4.54A9,9,0,0,0,608.12,463.29Z" transform="translate(-124.15 -81.01)"/><path class="cls-8" d="M608.43,459.82a2.85,2.85,0,0,0,.05-.77c0-.57,0-1.3,0-2.19,0-1.91,0-4.66.1-8.06.17-6.81.76-14.14,1.89-24.46,1.07-9.72,2.51-21,4-28.36.32-1.68.65-3.18,1-4.5s.54-2.45.79-3.38.38-1.57.51-2.13a2.68,2.68,0,0,0,.13-.76,4.05,4.05,0,0,0-.26.72L616,388c-.28.91-.57,2-.9,3.35s-.71,2.82-1.07,4.48a249.36,249.36,0,0,0-4.23,26.32c-1.14,10.35-1.65,19.77-1.69,26.6,0,3.41,0,6.17.12,8.08,0,.89.1,1.61.13,2.19A3.83,3.83,0,0,0,608.43,459.82Z" transform="translate(-124.15 -81.01)"/><path class="cls-8" d="M608.48,441.65a14,14,0,0,0,0-2.3,60.76,60.76,0,0,0-.7-6.21,81.17,81.17,0,0,0-2-9.05,74.44,74.44,0,0,0-3.78-10.7,57,57,0,0,0-11.11-17.31,28.05,28.05,0,0,0-2.62-2.43c-.4-.34-.75-.67-1.12-.94l-1-.7a13.88,13.88,0,0,0-1.93-1.24,69.09,69.09,0,0,1,6.33,5.65,60.18,60.18,0,0,1,10.83,17.24,83.65,83.65,0,0,1,3.81,10.61c1,3.32,1.65,6.38,2.15,9s.74,4.69.91,6.15A15.06,15.06,0,0,0,608.48,441.65Z" transform="translate(-124.15 -81.01)"/></g><g id="Character_2" data-name="Character 2"><path class="cls-8" d="M417.69,250.44c0,4.39,5.77,7.23,5.56,11.61-.09,1.88-1.31,3.53-1.6,5.39-.39,2.5.93,4.91,1.37,7.4.91,5.13-2.23,10.42-6.72,13.07s-10,3-15.16,2.13" transform="translate(-124.15 -81.01)"/><path class="cls-8" d="M382.47,248.23c.1,2.36-1.52,4.41-3.14,6.12s-3.42,3.5-3.84,5.82c-.73,4.12,3.2,8.09,2.23,12.15-.52,2.18-2.37,3.89-2.76,6.09s.7,4.27,2.07,5.95,3,1.49,4.23,3.29a17.73,17.73,0,0,0,5.31,5c4.46,2.63,10-.79,12.23-1.37" transform="translate(-124.15 -81.01)"/><path class="cls-8" d="M418.49,253c.13-2.13-1.79-3.84-3.75-4.69s-4.15-1.21-5.89-2.45c-1.53-1.11-2.53-2.79-3.81-4.17A13.14,13.14,0,0,0,382.76,247c-.86,3-.45,6.62,1.88,8.71,2.7,2.43,6.83,2.05,10.42,1.43s7.63-1.2,10.54,1c1.75,1.31,2.71,3.4,3.74,5.33s2.35,3.92,4.4,4.7,4.9-.37,5.05-2.55" transform="translate(-124.15 -81.01)"/><path class="cls-10" d="M410.39,252.2l-18.77-5.43c-6-.85-10.33,6.48-10.92,12.55-.66,6.74-1.2,15-.57,20.08,1.26,10.2,9,11.76,9,11.76s-.09,3-.19,6.58A10.89,10.89,0,0,0,399.29,309h0a10.9,10.9,0,0,0,11.39-10.18l2.77-42.84A3.58,3.58,0,0,0,410.39,252.2Z" transform="translate(-124.15 -81.01)"/><path class="cls-8" d="M382,266.72a1.3,1.3,0,0,0,1.21,1.36,1.25,1.25,0,0,0,1.38-1.13,1.31,1.31,0,0,0-1.21-1.35A1.23,1.23,0,0,0,382,266.72Z" transform="translate(-124.15 -81.01)"/><path class="cls-8" d="M382,264.64c.16.17,1.17-.52,2.57-.47s2.4.78,2.56.62-.08-.39-.51-.73a3.6,3.6,0,0,0-2.05-.71,3.52,3.52,0,0,0-2,.59C382.1,264.26,382,264.56,382,264.64Z" transform="translate(-124.15 -81.01)"/><path class="cls-8" d="M395.65,267.09a1.3,1.3,0,0,0,1.21,1.36,1.25,1.25,0,0,0,1.38-1.13A1.3,1.3,0,0,0,397,266,1.25,1.25,0,0,0,395.65,267.09Z" transform="translate(-124.15 -81.01)"/><path class="cls-8" d="M395.77,265.37c.16.18,1.17-.52,2.57-.47s2.4.79,2.56.62-.08-.38-.51-.72a3.6,3.6,0,0,0-2-.71,3.4,3.4,0,0,0-2.05.58C395.86,265,395.7,265.29,395.77,265.37Z" transform="translate(-124.15 -81.01)"/><path class="cls-8" d="M390.34,275.58a9.31,9.31,0,0,0-2.26-.49c-.36,0-.69-.13-.75-.38a1.85,1.85,0,0,1,.28-1l1.15-2.69a47.7,47.7,0,0,0,2.62-7c-.16-.07-1.58,3-3.18,6.81l-1.11,2.7a2,2,0,0,0-.23,1.4.9.9,0,0,0,.57.54,2.08,2.08,0,0,0,.6.1A9.11,9.11,0,0,0,390.34,275.58Z" transform="translate(-124.15 -81.01)"/><path class="cls-11" d="M389.12,291.16a24.56,24.56,0,0,0,13.57-3c-.11,0-4,6.93-13.65,5.56Z" transform="translate(-124.15 -81.01)"/><path class="cls-3" d="M390.81,279a2.54,2.54,0,0,1,2.3-.86,2.32,2.32,0,0,1,1.56.91,1.46,1.46,0,0,1,.05,1.67,1.68,1.68,0,0,1-1.85.4,5.21,5.21,0,0,1-1.75-1.13,1.42,1.42,0,0,1-.39-.42.48.48,0,0,1,0-.53" transform="translate(-124.15 -81.01)"/><path class="cls-8" d="M394.42,276.69c-.22,0-.28,1.5-1.62,2.53s-2.95.81-3,1,.36.31,1,.35a3.71,3.71,0,0,0,2.47-.77,3.25,3.25,0,0,0,1.26-2.12C394.68,277.06,394.53,276.68,394.42,276.69Z" transform="translate(-124.15 -81.01)"/><path class="cls-8" d="M395.23,262.9c.12.38,1.53.25,3.16.5s2.95.75,3.18.42c.1-.16-.11-.53-.64-.91a5.23,5.23,0,0,0-2.33-.91,5.42,5.42,0,0,0-2.5.2C395.49,262.43,395.18,262.71,395.23,262.9Z" transform="translate(-124.15 -81.01)"/><path class="cls-8" d="M382.68,260.6c.23.33,1.21,0,2.37.06s2.13.28,2.37,0c.1-.16,0-.48-.46-.8a3.41,3.41,0,0,0-3.82,0C382.72,260.12,382.57,260.44,382.68,260.6Z" transform="translate(-124.15 -81.01)"/><path class="cls-8" d="M413.27,287.23c-2.81.48-3-1-5-3a9.16,9.16,0,0,1-2.56-7.82c.4-2.48,1.82-5,1-7.35-1.05-3.16-5.39-4.26-6.45-7.41-.61-1.83.06-3.92-.65-5.72s-2.38-2.7-4.07-3.38a17.36,17.36,0,0,1-4.9-2.31c-1.4-1.16-2.22-3.29-1.25-4.83a96.59,96.59,0,0,1,22,6.1c1.63.68,3.35,1.47,4.28,3s.87,3.6.72,5.46q-1.08,13.65-2.15,27.29" transform="translate(-124.15 -81.01)"/><path class="cls-8" d="M420.32,266.74a7.79,7.79,0,0,1,14.82-2.22c1.32,2.91.72,6.38-.69,9.25-1.68,3.41-5,6.46-8.77,6.17-3.56-.28-6.33-3.5-7.25-6.95s-.39-7.11.15-10.64" transform="translate(-124.15 -81.01)"/><path class="cls-9" d="M421.86,280.7a1.81,1.81,0,0,0,.55-.57,5,5,0,0,0,.82-2,9.48,9.48,0,0,0,0-3.2c-.17-1.2-.53-2.47-.78-3.81a9.43,9.43,0,0,1-.1-3.76c.24-1.12.81-2.06,1.07-3a3.84,3.84,0,0,0,.13-2.16,1.43,1.43,0,0,0-.37-.71s.12.26.2.74a3.94,3.94,0,0,1-.26,2,26.5,26.5,0,0,0-1.17,3,9.38,9.38,0,0,0,.06,3.94c.26,1.36.63,2.62.81,3.78a9.92,9.92,0,0,1,.09,3.09A6.49,6.49,0,0,1,421.86,280.7Z" transform="translate(-124.15 -81.01)"/><path class="cls-9" d="M422.4,268.52a4.82,4.82,0,0,0,1.5,1.58,8.91,8.91,0,0,0,10,.49,5,5,0,0,0,1.66-1.41c-.05-.06-.65.52-1.81,1.14a9.69,9.69,0,0,1-4.91,1.13,9.52,9.52,0,0,1-4.77-1.61C423,269.11,422.45,268.47,422.4,268.52Z" transform="translate(-124.15 -81.01)"/><path class="cls-9" d="M422.85,270.13a4.4,4.4,0,0,0,.81,1.62,10.86,10.86,0,0,0,3.13,3.05,11.11,11.11,0,0,0,4.07,1.61,4.64,4.64,0,0,0,1.81.07,13.49,13.49,0,0,0-1.74-.38,12.9,12.9,0,0,1-3.9-1.67,13.23,13.23,0,0,1-3.12-2.86C423.24,270.7,422.91,270.1,422.85,270.13Z" transform="translate(-124.15 -81.01)"/><path class="cls-9" d="M419.84,284s.05,0,.12-.13a3.92,3.92,0,0,0,.29-.39,5.44,5.44,0,0,0,.73-1.76,6.27,6.27,0,0,0-.07-3,5.75,5.75,0,0,0-2.26-3.25c-1.17-.88-2.72-1.53-3.67-2.91a3,3,0,0,1-.48-2.4,14.07,14.07,0,0,1,1-2.6,7.59,7.59,0,0,0,.06-6.06,6.67,6.67,0,0,0-2-2.63,8.3,8.3,0,0,0-3.07-1.39c-1.09-.28-2.18-.46-3.19-.8a6.21,6.21,0,0,1-2.64-1.56,4.51,4.51,0,0,1-1.09-2.7,20.83,20.83,0,0,0-.38-3,10.17,10.17,0,0,0-2.58-4.89,8.08,8.08,0,0,0-4.24-2.28,6.36,6.36,0,0,0-3.94.47,6.1,6.1,0,0,0-2.33,1.89,5,5,0,0,0-.85,1.7,2.58,2.58,0,0,0-.12.65,6.4,6.4,0,0,1,1.1-2.24,6.1,6.1,0,0,1,2.3-1.77,6.18,6.18,0,0,1,3.78-.39,7.7,7.7,0,0,1,4,2.23,9.85,9.85,0,0,1,2.45,4.72,21.78,21.78,0,0,1,.36,2.92,4.92,4.92,0,0,0,1.18,3,6.74,6.74,0,0,0,2.83,1.68c1,.35,2.15.53,3.21.82a7.41,7.41,0,0,1,2.91,1.3,6.33,6.33,0,0,1,1.85,2.45,7.17,7.17,0,0,1,0,5.73,13.73,13.73,0,0,0-1,2.69,3.44,3.44,0,0,0,.55,2.68c1.06,1.49,2.65,2.11,3.8,3a5.46,5.46,0,0,1,2.2,3.06,6.09,6.09,0,0,1,.14,2.9A6.57,6.57,0,0,1,419.84,284Z" transform="translate(-124.15 -81.01)"/><path class="cls-9" d="M420.08,255.69a1.08,1.08,0,0,0,.14-.46,2.2,2.2,0,0,0-.3-1.36,3.44,3.44,0,0,0-1.65-1.46,5.38,5.38,0,0,0-2.91-.19c-1.07.17-2.18.56-3.4.75a4.5,4.5,0,0,1-3.65-.69,8.07,8.07,0,0,1-2.05-3.72,15.46,15.46,0,0,0-2.21-4.26,14.08,14.08,0,0,0-7.52-5.21,8,8,0,0,0-4.06,0,6.29,6.29,0,0,0-3,1.82,4.72,4.72,0,0,0-1.21,2.65,4.61,4.61,0,0,0,.27,2.19,3.54,3.54,0,0,0,.72,1.18,1.4,1.4,0,0,0,.37.32,4.91,4.91,0,0,1-.93-1.56,4.63,4.63,0,0,1-.18-2.1,4.5,4.5,0,0,1,1.2-2.47,6,6,0,0,1,2.89-1.67,7.67,7.67,0,0,1,3.86.06,13.8,13.8,0,0,1,7.26,5.08,14.61,14.61,0,0,1,2.15,4.14,8.53,8.53,0,0,0,2.21,3.89,3.86,3.86,0,0,0,2,.81,6.92,6.92,0,0,0,2-.07c1.26-.22,2.36-.63,3.4-.81a5.26,5.26,0,0,1,2.76.11,3.3,3.3,0,0,1,1.59,1.32,2.24,2.24,0,0,1,.36,1.26C420.12,255.53,420.05,255.68,420.08,255.69Z" transform="translate(-124.15 -81.01)"/><path class="cls-10" d="M338.49,335.16s-5.63-8.78-6.61-9.52-9.7-3.76-10.43-3.52-11.21,2.22-10,3.44,8.53-.24,8.53-.24l1,.47s-6.31,1.11-7.63,1.91-.77,2.22.39,2.08,6.64-1.29,7-1.07-6,1.58-6.63,2c-.9.56-1,2.18.18,2.08.68-.06,6.6-1.69,6.6-1.69a53.09,53.09,0,0,0-5.11,2.31c-.7.69-.12,1.71.9,1.47.7-.17,4-1.81,4.94-2,0,0,.88.22,1.71,2,.38.82,2.16,6,5.26,5.85,2.74-.11,5.47,2.11,5.47,2.11Z" transform="translate(-124.15 -81.01)"/><path class="cls-11" d="M311.49,325.59a4.77,4.77,0,0,0,1.92.5,11.53,11.53,0,0,0,2.16.05c.8-.1,1.68-.24,2.6-.38l1.95-.32H320a29,29,0,0,0,4.55,1.35,26.94,26.94,0,0,0-4.4-1.8l-.05,0H320l-1.94.3-2.57.42a13.75,13.75,0,0,1-2.09.05C312.24,325.68,311.5,325.52,311.49,325.59Z" transform="translate(-124.15 -81.01)"/><path class="cls-3" d="M388.94,303.45s-5.95,3.61-8.14,8.07-13.61,34.33-13.61,34.33l-28.72-14.26-7.19,12.29,27.07,21.52a17.85,17.85,0,0,0,12,2.47h0c6.47-1,9.66-1.13,11.88-7.29l7.2-19.92-1.53-36.55" transform="translate(-124.15 -81.01)"/><g class="cls-4"><path d="M380.87,320.89c-6.61,9.61-7.71,14.12-8.41,25.77-.24,3.86,0,8,2.3,11.12.84,1.13,2.49,2.09,3.57,1.19s.3-2.5-.05-3.83c-2.06-7.83-2.79-13.86-1.33-20.75s1.09-6.77,3.92-13.21" transform="translate(-124.15 -81.01)"/></g><path class="cls-8" d="M370.66,357.79a37,37,0,0,0-1.11-6.19,37.8,37.8,0,0,0-2.5-5.77,6.67,6.67,0,0,1,1.08,1.53,19.07,19.07,0,0,1,1.79,4.13,19.32,19.32,0,0,1,.79,4.44A7,7,0,0,1,370.66,357.79Z" transform="translate(-124.15 -81.01)"/><path class="cls-3" d="M380.16,392.47,376,464.64h68.79s-2-36.15-4.59-51.59c-2.68-27.3-11.2-31.35-17.17-44.52l3.37-63.86-14.56-6.74-.59-3.35-22.61,2.74s-.66,6.79-.66,6.79-2.08,6-3.25,9.1c-3.65,9.62-8.63,21.12-7.9,29.53.33,3.81,5.56,29.17,5.56,29.17l-2,20.5Z" transform="translate(-124.15 -81.01)"/><path class="cls-8" d="M385.53,309.74a3.4,3.4,0,0,1-.18.56c-.15.39-.34.91-.59,1.56-.52,1.36-1.31,3.31-2.3,5.71s-2.16,5.26-3.2,8.51a61.48,61.48,0,0,0-2.46,10.84,35.22,35.22,0,0,0,.12,11.07c.58,3.36,1.49,6.33,2.07,8.86s1,4.6,1.21,6c.09.7.16,1.25.22,1.66a2.61,2.61,0,0,1,0,.59,4.9,4.9,0,0,1-.12-.58c-.07-.41-.17-.95-.29-1.64-.27-1.42-.67-3.48-1.32-6s-1.55-5.48-2.16-8.87a35,35,0,0,1-.15-11.18,60.83,60.83,0,0,1,2.5-10.9c1.07-3.27,2.28-6.12,3.29-8.51s1.83-4.28,2.41-5.65l.65-1.54A3.16,3.16,0,0,1,385.53,309.74Z" transform="translate(-124.15 -81.01)"/><g class="cls-4"><path d="M382.74,376.11c-.72,3.53,2.14,7,5.52,8.26s7.13.85,10.71.42l25-2.94c1.32-.15,2.85-.46,3.42-1.65a3,3,0,0,0,0-2.14,8,8,0,0,0-4.2-4.63,17.85,17.85,0,0,0-6.2-1.55c-8.6-.86-17.23.67-25.73,2.19" transform="translate(-124.15 -81.01)"/></g><path class="cls-10" d="M363.28,363.45l6.34.58,2.78,1.4s-.66-.71-1.24-1.44a22.61,22.61,0,0,0-2.82-2.34l-4.73-.49s-2.65-.19-2.82-2l3.61-.34s-3.74-.27-3.65-2.13l2.73-.49a.86.86,0,0,1-.86-1l7.54-.84,7.21,5.12,7,6.16,1.57.07.55,10.06s-6.18-.76-7.87-1.59-9.18-7.6-9.18-7.6-3.93-.35-5-1.29A2.84,2.84,0,0,1,363.28,363.45Z" transform="translate(-124.15 -81.01)"/><path class="cls-11" d="M388,375.89h-.1l-.29,0-1.13-.12c-1-.12-2.45-.3-4.31-.62a25.47,25.47,0,0,1-3-.67,5.06,5.06,0,0,1-1.57-.87c-.5-.37-1-.76-1.52-1.17-2.05-1.67-4.31-3.62-6.75-5.8l.08,0a21,21,0,0,1-3.55-.61,6.4,6.4,0,0,1-.9-.31l-.44-.23-.21-.16-.18-.16a4,4,0,0,1-.64-.78,2.35,2.35,0,0,1-.36-1l0-.18.19,0,6.35.56h.06l2.78,1.4-.2.27-.89-1-.45-.51a5.35,5.35,0,0,0-.48-.47c-.69-.61-1.45-1.18-2.22-1.74l.09,0-2.84-.29-1.46-.15c-.24,0-.49,0-.75-.09a5.11,5.11,0,0,1-.75-.18,3.25,3.25,0,0,1-1.25-.68,1.89,1.89,0,0,1-.66-1.29l0-.17.18,0,3.6-.35v.35a8,8,0,0,1-2.32-.52,3.24,3.24,0,0,1-1-.64,1.5,1.5,0,0,1-.47-1.15v-.14l.14,0,2.9-.42v.34a1.49,1.49,0,0,1-.81-.36,1,1,0,0,1-.3-.84V355h.13l7.49-.88h.06l.05,0,7.2,5.13h0l6.94,6.19-.06,0,6.42.36,1.71.11.43,0,.15,0h-.59l-1.7-.05-6.43-.27h0l0,0-7-6.14h0l-7.23-5.1.11,0-7.48.9.15-.15a.7.7,0,0,0,.21.57,1.17,1.17,0,0,0,.6.26l1.24.16-1.23.18-2.9.42.15-.16a1.19,1.19,0,0,0,.37.88,3,3,0,0,0,.92.57,8.09,8.09,0,0,0,2.2.49v.35l-3.61.35.16-.19a1.6,1.6,0,0,0,.55,1.06,3,3,0,0,0,1.12.6,4.2,4.2,0,0,0,.7.17c.23,0,.47.06.72.09l1.46.15,2.84.29h.05l0,0c.78.57,1.53,1.14,2.24,1.77a6.08,6.08,0,0,1,.52.5l.45.52c.29.35.58.68.87,1l.57.66-.77-.39-2.78-1.41.06,0-6.35-.58.18-.17a2.13,2.13,0,0,0,.32.83,3,3,0,0,0,.58.71,3.62,3.62,0,0,0,1.6.8,22,22,0,0,0,3.49.61h.05l0,0c2.43,2.19,4.68,4.16,6.71,5.83.51.42,1,.82,1.5,1.18a5.06,5.06,0,0,0,1.5.86,26.23,26.23,0,0,0,3,.7c1.85.34,3.3.55,4.29.69l1.13.17.28.05Z" transform="translate(-124.15 -81.01)"/><path class="cls-11" d="M373.6,361.86a6.27,6.27,0,0,1-1.29-.81c-.77-.53-1.83-1.29-3-2.14l-.32-.24.11,0c-1.34.05-2.53.08-3.4.09a6.61,6.61,0,0,1-1.39-.06,5.59,5.59,0,0,1,1.38-.18c.86-.07,2.06-.14,3.4-.2h.06l.05,0,.32.24c1.14.85,2.17,1.64,2.91,2.22A6.63,6.63,0,0,1,373.6,361.86Z" transform="translate(-124.15 -81.01)"/><path class="cls-11" d="M372.8,358.5a6.31,6.31,0,0,1-1.19-.74c-.71-.49-1.68-1.19-2.76-2l.13,0-.43,0c-1.43.15-2.73.26-3.67.33a6.74,6.74,0,0,1-1.53,0,6.54,6.54,0,0,1,1.5-.28c.94-.13,2.23-.28,3.67-.43l.42,0H369l.05,0c1.08.81,2,1.54,2.7,2.08A5.92,5.92,0,0,1,372.8,358.5Z" transform="translate(-124.15 -81.01)"/><path class="cls-3" d="M438.58,369.66a17.88,17.88,0,0,0,2.75-12.14l-5.5-32.3c-.62-5.4-1.39-12.78-5.13-16.72-2.58-2.71-5.71-5.07-8.78-5.05l-6.6,18.71,2.48,36.16-33.47,6V379s25.58-.85,39.8-1.24a17.83,17.83,0,0,0,14.45-8.08Z" transform="translate(-124.15 -81.01)"/><path class="cls-8" d="M438.58,369.66a1.14,1.14,0,0,1-.15.24l-.47.7a18,18,0,0,1-2.15,2.44A17.88,17.88,0,0,1,425,377.82c-10.23.39-24.47.83-40.61,1.35h-.2v-15l.16,0,33.47-6-.12.17c-.89-8.35-1.61-15.23-2.12-20l-.56-5.54c-.06-.63-.11-1.11-.14-1.46s0-.5,0-.5,0,.17.08.5.1.82.18,1.45c.15,1.29.37,3.15.65,5.53.54,4.81,1.31,11.68,2.25,20v.14l-.14,0-33.46,6,.15-.19V379l-.19-.19,40.6-1.22a17.91,17.91,0,0,0,10.79-4.63,21,21,0,0,0,2.19-2.38l.49-.68A2.31,2.31,0,0,1,438.58,369.66Z" transform="translate(-124.15 -81.01)"/><path class="cls-8" d="M425.63,304.67c0,.07-1.13.51-2.79,1.57a20.33,20.33,0,0,0-2.73,2.13,19.92,19.92,0,0,0-4.8,6.91,20.54,20.54,0,0,0-1.05,3.3c-.42,1.93-.42,3.17-.5,3.17a3.74,3.74,0,0,1,0-.87,8.06,8.06,0,0,1,.06-1,11.2,11.2,0,0,1,.2-1.34,18,18,0,0,1,1-3.37,19.21,19.21,0,0,1,4.89-7,18.8,18.8,0,0,1,2.83-2.1,13.1,13.1,0,0,1,1.18-.64,7.67,7.67,0,0,1,.93-.42A3.09,3.09,0,0,1,425.63,304.67Z" transform="translate(-124.15 -81.01)"/><path class="cls-8" d="M411.9,297.83a2.36,2.36,0,0,1-.81.56,26.55,26.55,0,0,1-2.48,1c-2.11.79-4.88,2.2-8.05,3.58a24.8,24.8,0,0,1-8.54,2.23,13.43,13.43,0,0,1-2.68-.14c-.31-.05-.55-.11-.71-.15a.76.76,0,0,1-.25-.08,21,21,0,0,0,12-2.21c3.15-1.37,6-2.75,8.1-3.49,1.07-.38,1.95-.62,2.52-.88S411.88,297.8,411.9,297.83Z" transform="translate(-124.15 -81.01)"/><polygon class="cls-3" points="207.13 272.66 203.8 246.59 181.1 247.71 182.68 273.87 207.13 272.66"/><path class="cls-10" d="M334.36,334.18a2.12,2.12,0,0,1-2.44,0c-.75-.44-1.34-1.12-2.06-1.62-2.16-1.46-5.23-1.06-7.32-2.63-.29-.22-.58-.58-.43-.91s.56-.35.89-.34l8.66.06" transform="translate(-124.15 -81.01)"/><path class="cls-11" d="M331.66,328.78a3.66,3.66,0,0,0-.94-.1c-.6,0-1.47-.07-2.55-.1l-3.78-.08-1.1,0a1.69,1.69,0,0,0-1.26.29.72.72,0,0,0-.13.81,1.51,1.51,0,0,0,.44.55,6.12,6.12,0,0,0,1.1.65,34.74,34.74,0,0,0,4.5,1.21,6.63,6.63,0,0,1,1.79.77c.51.34.94.75,1.37,1.08a3,3,0,0,0,2.44.82c.64-.13.85-.48.82-.48a2.45,2.45,0,0,1-.84.29,2.93,2.93,0,0,1-2.2-.9,15.65,15.65,0,0,0-1.36-1.14,6.57,6.57,0,0,0-1.89-.88,38.29,38.29,0,0,1-4.43-1.22,6,6,0,0,1-1-.58c-.28-.23-.43-.53-.28-.65s.55-.15.92-.15h1.09l3.79,0,2.55-.06A4,4,0,0,0,331.66,328.78Z" transform="translate(-124.15 -81.01)"/><path class="cls-7" d="M325,336.38a2.28,2.28,0,0,1-.65.32,19,19,0,0,1-1.85.65,7.89,7.89,0,0,1-2.91.31,5.71,5.71,0,0,1-1.71-.42,7.46,7.46,0,0,1-1.55-1,1.45,1.45,0,0,0-.75-.3,1,1,0,0,0-.69.27,6.05,6.05,0,0,0-1,1.34,1.78,1.78,0,0,1-1.35.91,1.91,1.91,0,0,1-1.34-.48,3.23,3.23,0,0,1-1-1.74,2.46,2.46,0,0,1-.12-.71,3.11,3.11,0,0,1,.26.67,3.41,3.41,0,0,0,1,1.57,1.67,1.67,0,0,0,1.14.37,1.47,1.47,0,0,0,1.09-.79,5.74,5.74,0,0,1,1-1.42,1.41,1.41,0,0,1,.95-.37,1.84,1.84,0,0,1,1,.36,6.59,6.59,0,0,0,1.49,1,5.15,5.15,0,0,0,1.58.42,8.3,8.3,0,0,0,2.81-.22C324,336.69,325,336.31,325,336.38Z" transform="translate(-124.15 -81.01)"/><path class="cls-7" d="M326.06,340.28a72.86,72.86,0,0,1-7.66.53,75.07,75.07,0,0,1-7.68.15,76.26,76.26,0,0,1,7.66-.53C322.62,340.24,326.06,340.18,326.06,340.28Z" transform="translate(-124.15 -81.01)"/><path class="cls-7" d="M324.49,344a7.67,7.67,0,0,1-1.73.45c-1.07.23-2.57.51-4.23.76s-3.17.44-4.26.55a8.08,8.08,0,0,1-1.79.09,9.37,9.37,0,0,1,1.75-.36l4.24-.66,4.25-.64A8.85,8.85,0,0,1,324.49,344Z" transform="translate(-124.15 -81.01)"/><path class="cls-1" d="M414.43,336.69a1.76,1.76,0,0,1-.31.29l-.95.76c-.83.64-2,1.58-3.63,2.6a21.55,21.55,0,0,1-6,2.78,12.68,12.68,0,0,1-8.07-.27c-2.72-1.1-4.82-3-6.84-4.38a15.1,15.1,0,0,0-5.85-2.83,7.55,7.55,0,0,0-4.33.21,15.41,15.41,0,0,0-1.44.75,4.48,4.48,0,0,1,1.38-.89,7.56,7.56,0,0,1,4.44-.34,15.23,15.23,0,0,1,6,2.81c2.05,1.42,4.14,3.25,6.78,4.31a12.46,12.46,0,0,0,7.84.29,22.09,22.09,0,0,0,6-2.67c1.6-1,2.83-1.88,3.69-2.49l1-.7A1.88,1.88,0,0,1,414.43,336.69Z" transform="translate(-124.15 -81.01)"/><path class="cls-1" d="M435.46,322.11c0,.07-1.13-.27-3-.54a24.64,24.64,0,0,0-3.27-.26,28.28,28.28,0,0,0-4,.25,27.17,27.17,0,0,0-3.91.89,25.89,25.89,0,0,0-3.05,1.17c-1.7.79-2.67,1.43-2.71,1.37a3.16,3.16,0,0,1,.66-.5,17.67,17.67,0,0,1,1.93-1.11,22.7,22.7,0,0,1,3.07-1.27,23.29,23.29,0,0,1,8-1.16,22.44,22.44,0,0,1,3.3.35,18,18,0,0,1,2.17.52A2.82,2.82,0,0,1,435.46,322.11Z" transform="translate(-124.15 -81.01)"/><path class="cls-1" d="M439.6,348.9a7.79,7.79,0,0,0-3.42.37,20,20,0,0,0-3.41,1.61,16.09,16.09,0,0,1-4.33,1.83,12.37,12.37,0,0,1-8.34-1.16,11.5,11.5,0,0,1-2.13-1.47,3.83,3.83,0,0,1-.65-.69,19.3,19.3,0,0,0,2.9,1.92,12.59,12.59,0,0,0,8.13,1,16.28,16.28,0,0,0,4.25-1.76,18.39,18.39,0,0,1,3.5-1.56,7.25,7.25,0,0,1,2.57-.31A2.64,2.64,0,0,1,439.6,348.9Z" transform="translate(-124.15 -81.01)"/><path class="cls-1" d="M409.39,378.27c-.06,0,.42-1,.85-2.6a15.74,15.74,0,0,0,.32-6.52,16,16,0,0,0-2.41-6c-.94-1.41-1.71-2.14-1.66-2.19s.23.15.57.48a14,14,0,0,1,1.31,1.55,14.6,14.6,0,0,1,2.14,12.8,14.09,14.09,0,0,1-.74,1.89A2.34,2.34,0,0,1,409.39,378.27Z" transform="translate(-124.15 -81.01)"/><path class="cls-1" d="M381.07,318.58c-.1,0-.43-.59-1.16-1s-1.43-.38-1.45-.49a1.64,1.64,0,0,1,1.64.16C381,317.74,381.18,318.56,381.07,318.58Z" transform="translate(-124.15 -81.01)"/><path class="cls-1" d="M420.39,302.75c0,.05-.56-.07-1.54,0a8.88,8.88,0,0,0-3.89,1.44,15.83,15.83,0,0,0-2.29,1.78c-.76.71-1.52,1.54-2.31,2.41-1.59,1.72-3.35,3.77-5.87,5a15.3,15.3,0,0,1-7.59,1.35,25.88,25.88,0,0,1-6.19-1.22c-1.71-.53-3.06-1.07-4-1.43l-1.06-.44a1.82,1.82,0,0,1-.36-.18,1.77,1.77,0,0,1,.39.1l1.09.38c.94.32,2.3.81,4,1.31a27.06,27.06,0,0,0,6.13,1.13,15.18,15.18,0,0,0,7.4-1.35,20.31,20.31,0,0,0,5.78-4.89c.8-.87,1.57-1.69,2.36-2.41a16.81,16.81,0,0,1,2.35-1.77,8.83,8.83,0,0,1,4-1.36,5.58,5.58,0,0,1,1.16,0A2,2,0,0,1,420.39,302.75Z" transform="translate(-124.15 -81.01)"/><path class="cls-1" d="M410.57,296a3.3,3.3,0,0,1-.8.4c-.52.24-1.29.55-2.25.9a56.35,56.35,0,0,1-15.63,3.29c-1,.06-1.85.09-2.42.09a4,4,0,0,1-.89-.05,4.53,4.53,0,0,1,.88-.1c.57-.05,1.4-.11,2.41-.21a74.16,74.16,0,0,0,7.88-1.19,71.77,71.77,0,0,0,7.68-2.09c1-.32,1.75-.59,2.29-.78A4.44,4.44,0,0,1,410.57,296Z" transform="translate(-124.15 -81.01)"/><path class="cls-1" d="M350.81,359.32a.6.6,0,0,1-.08-.2,4.68,4.68,0,0,1-.13-.61,6.34,6.34,0,0,1,.08-2.3,12.33,12.33,0,0,1,1.17-3.2c.58-1.14,1.35-2.31,2.08-3.57a13.91,13.91,0,0,0,1.6-3.74,7.79,7.79,0,0,0,.07-3.28,11,11,0,0,0-1.09-2.86,2.29,2.29,0,0,1,.5.67,7,7,0,0,1,.85,2.14,7.63,7.63,0,0,1,0,3.41,13.61,13.61,0,0,1-1.62,3.85c-.73,1.27-1.51,2.43-2.1,3.55a13.22,13.22,0,0,0-1.22,3.09A9.13,9.13,0,0,0,350.81,359.32Z" transform="translate(-124.15 -81.01)"/><path class="cls-1" d="M434.07,387.57a3.49,3.49,0,0,1-.51-.26c-.31-.19-.8-.43-1.44-.73a16.63,16.63,0,0,0-5.78-1.27,28.53,28.53,0,0,0-8.72,1.1c-3.21.88-6.61,2.28-10.26,3.54a33.83,33.83,0,0,1-10.66,2.18,25.48,25.48,0,0,1-8.77-1.43,24.37,24.37,0,0,1-5.37-2.66c-.59-.4-1-.72-1.32-1a2.18,2.18,0,0,1-.44-.37s.64.46,1.84,1.2a26.16,26.16,0,0,0,5.38,2.53,25.39,25.39,0,0,0,8.67,1.34,34.33,34.33,0,0,0,10.55-2.2c3.63-1.25,7-2.64,10.29-3.51a28,28,0,0,1,8.83-1,15.9,15.9,0,0,1,5.82,1.41,10.6,10.6,0,0,1,1.43.8A3,3,0,0,1,434.07,387.57Z" transform="translate(-124.15 -81.01)"/><path class="cls-1" d="M439.28,414.67a10,10,0,0,1-2,1.47,16.72,16.72,0,0,1-6.46,2,23.63,23.63,0,0,1-4.71.06,31.61,31.61,0,0,1-5.31-1c-3.69-.95-7.56-2.55-11.67-4a36.87,36.87,0,0,0-12-2.42,20,20,0,0,0-5.27.7c-1.62.44-3.1,1-4.51,1.28a9.17,9.17,0,0,1-6.68-.58,4.85,4.85,0,0,1-1.43-1.18,2.58,2.58,0,0,1-.36-.54s.14.18.42.49a5.2,5.2,0,0,0,1.44,1.1,9.1,9.1,0,0,0,6.55.44c1.38-.32,2.86-.85,4.49-1.31a19.75,19.75,0,0,1,5.35-.75,36.49,36.49,0,0,1,12.09,2.41c4.14,1.44,8,3.05,11.64,4a32.12,32.12,0,0,0,5.25,1,24,24,0,0,0,4.65,0,17,17,0,0,0,6.42-1.9,9.54,9.54,0,0,0,.91-.54c.27-.16.48-.31.65-.43A4.38,4.38,0,0,1,439.28,414.67Z" transform="translate(-124.15 -81.01)"/><path class="cls-1" d="M442.64,436.42l-.16-.08-.44-.27a18.75,18.75,0,0,0-1.75-.93,21.67,21.67,0,0,0-7-1.85,36.31,36.31,0,0,0-10.75.71c-4,.8-8.29,2.15-12.89,3.26a54.51,54.51,0,0,1-6.8,1.24,46.16,46.16,0,0,1-17.18-1.39,43.33,43.33,0,0,1-6.89-2.52c-.79-.36-1.38-.68-1.78-.89l-.46-.25-.15-.1.17.06.47.22c.42.19,1,.49,1.81.82a47.37,47.37,0,0,0,6.9,2.4,46.44,46.44,0,0,0,17.07,1.27,56.28,56.28,0,0,0,6.75-1.23c4.58-1.11,8.88-2.45,12.91-3.23A35.42,35.42,0,0,1,433.3,433a20.86,20.86,0,0,1,7.05,2A12.51,12.51,0,0,1,442.64,436.42Z" transform="translate(-124.15 -81.01)"/><path class="cls-1" d="M404,360.48c0,.07-1.28-.63-3.44-1.38a28.16,28.16,0,0,0-3.87-1,27.59,27.59,0,0,0-9.76,0,28.24,28.24,0,0,0-3.88,1c-2.17.73-3.42,1.42-3.46,1.35a6.05,6.05,0,0,1,.87-.51c.28-.15.63-.33,1.05-.51s.9-.41,1.45-.59a25,25,0,0,1,3.9-1.08,29.13,29.13,0,0,1,5-.46,27.8,27.8,0,0,1,4.94.5,24.44,24.44,0,0,1,3.9,1.11,13.66,13.66,0,0,1,1.44.6,8.56,8.56,0,0,1,1.05.52A3.73,3.73,0,0,1,404,360.48Z" transform="translate(-124.15 -81.01)"/><path class="cls-1" d="M442.85,459.37l-.15-.07-.45-.25-.72-.38c-.29-.15-.63-.31-1-.47a24.21,24.21,0,0,0-6.86-1.82,41.53,41.53,0,0,0-10.53.22c-3.95.48-8.25,1.4-12.83,1.93a76,76,0,0,1-23.52-.95,68.76,68.76,0,0,1-6.94-1.74c-.81-.24-1.43-.46-1.85-.6l-.48-.17-.16-.07s.06,0,.17,0l.49.13c.43.12,1.05.32,1.87.54,1.62.45,4,1.06,6.95,1.62a78.43,78.43,0,0,0,23.42.83c4.56-.53,8.87-1.43,12.84-1.91a41.3,41.3,0,0,1,10.61-.13,23.53,23.53,0,0,1,6.88,1.95c.38.18.72.35,1,.51a7.45,7.45,0,0,1,.71.42l.43.27C442.81,459.33,442.86,459.36,442.85,459.37Z" transform="translate(-124.15 -81.01)"/></g><g id="Character_1" data-name="Character 1"><path class="cls-8" d="M284.45,464l1.49-67.41-52.37-4.36s-2.79,27-2.72,30.59c0,1.72,7.89,18.5,7.89,18.5L238.66,464Z" transform="translate(-124.15 -81.01)"/><path class="cls-9" d="M266.67,404.64a5.54,5.54,0,0,1-.44,1c-.3.62-.77,1.5-1.4,2.56a28.82,28.82,0,0,1-6.08,7.42,17.3,17.3,0,0,1-8.68,4,12.11,12.11,0,0,1-2.93,0,5.94,5.94,0,0,1-.78-.12.78.78,0,0,1-.27-.07,18.92,18.92,0,0,0,3.94-.12,17.89,17.89,0,0,0,8.48-4A31.06,31.06,0,0,0,264.6,408c.65-1,1.15-1.89,1.5-2.48A5.78,5.78,0,0,1,266.67,404.64Z" transform="translate(-124.15 -81.01)"/><path class="cls-12" d="M247.16,293.28l23.65,6.15.8-20.59s10-1.12,10.53-11-.21-32.76-.21-32.76h0a34.49,34.49,0,0,0-34.81,2.88L245.6,239Z" transform="translate(-124.15 -81.01)"/><path class="cls-13" d="M271.63,278.7a23.08,23.08,0,0,1-12.77-4.23s2.75,7.27,12.68,6.8Z" transform="translate(-124.15 -81.01)"/><path class="cls-12" d="M246.39,249.32c-.17-.08-6.73-2.3-6.8,4.48s6.75,5.47,6.77,5.27S246.39,249.32,246.39,249.32Z" transform="translate(-124.15 -81.01)"/><path class="cls-13" d="M244.31,256.48s-.12.08-.32.17a1.19,1.19,0,0,1-.88,0,2.92,2.92,0,0,1-1.33-2.64,4,4,0,0,1,.35-1.69,1.36,1.36,0,0,1,.9-.9.6.6,0,0,1,.69.33c.09.19.05.33.08.34s.15-.11.1-.39a.74.74,0,0,0-.26-.43.84.84,0,0,0-.65-.18,1.65,1.65,0,0,0-1.25,1,4,4,0,0,0-.43,1.88c0,1.37.71,2.66,1.69,3a1.31,1.31,0,0,0,1.09-.16C244.3,256.64,244.34,256.49,244.31,256.48Z" transform="translate(-124.15 -81.01)"/><path class="cls-8" d="M279.09,250.33a1.41,1.41,0,0,1-1.42,1.37,1.36,1.36,0,0,1-1.41-1.34,1.42,1.42,0,0,1,1.43-1.37A1.35,1.35,0,0,1,279.09,250.33Z" transform="translate(-124.15 -81.01)"/><path class="cls-8" d="M279.46,248.92c-.18.18-1.22-.66-2.74-.72s-2.68.65-2.83.46.11-.41.61-.75a3.89,3.89,0,0,1,2.28-.59,3.77,3.77,0,0,1,2.18.8C279.41,248.5,279.55,248.85,279.46,248.92Z" transform="translate(-124.15 -81.01)"/><path class="cls-8" d="M264.15,250.22a1.42,1.42,0,0,1-1.43,1.37,1.35,1.35,0,0,1-1.4-1.33,1.42,1.42,0,0,1,1.42-1.38A1.38,1.38,0,0,1,264.15,250.22Z" transform="translate(-124.15 -81.01)"/><path class="cls-8" d="M264.47,248.57c-.18.18-1.22-.66-2.74-.72s-2.68.65-2.84.46.12-.42.62-.75a4,4,0,0,1,2.28-.6,3.71,3.71,0,0,1,2.17.81C264.42,248.15,264.56,248.49,264.47,248.57Z" transform="translate(-124.15 -81.01)"/><path class="cls-8" d="M269.52,260.11a9.92,9.92,0,0,1,2.49-.34c.4,0,.77-.09.84-.35a1.94,1.94,0,0,0-.21-1.17c-.32-.95-.66-2-1-3-1.42-4.29-2.43-7.8-2.25-7.86s1.46,3.37,2.88,7.66l1,3a2.25,2.25,0,0,1,.14,1.53,1,1,0,0,1-.67.55,2.69,2.69,0,0,1-.66.06A10.29,10.29,0,0,1,269.52,260.11Z" transform="translate(-124.15 -81.01)"/><path class="cls-8" d="M265.12,242.61c-.17.41-1.68.15-3.48.29s-3.26.57-3.48.18c-.1-.18.17-.56.77-.93a6,6,0,0,1,5.3-.36C264.88,242.08,265.19,242.42,265.12,242.61Z" transform="translate(-124.15 -81.01)"/><path class="cls-8" d="M279.09,244.49c-.28.33-1.32-.07-2.58-.14s-2.34.13-2.57-.24c-.1-.18.08-.52.56-.83a3.61,3.61,0,0,1,2.13-.47,3.54,3.54,0,0,1,2,.78C279.09,244,279.22,244.33,279.09,244.49Z" transform="translate(-124.15 -81.01)"/><path class="cls-8" d="M287,229a3.67,3.67,0,0,0-1.21-3.33,2.6,2.6,0,0,0-3.37.11A3,3,0,0,0,280,222c-1.61-.18-3.05,1-4.63,1.35a7.39,7.39,0,0,1-4.6-.73c-1.45-.66-2.78-1.53-4.25-2.14A12.69,12.69,0,0,0,250,227.24a5.64,5.64,0,0,0-6.07,2,9.28,9.28,0,0,0-1.69,6.45,21.2,21.2,0,0,0,.94,4.5c0,.12,0,.25,0,.38-.13,5.45.21,11.88,2.54,12,4.05.23,3.41-7.45,3.41-7.45,5.06-1.71,3.52-9.24,4.81-10.32s4-3.6,14.2,2.17c4,2.24,9.34,2.41,12.3,1.87l.26,0h.07s.05,0,.08,0a9.52,9.52,0,0,0,2.72-1,5.32,5.32,0,0,0,2.31-2.36,2.9,2.9,0,0,0-.44-3.13A6.34,6.34,0,0,0,287,229Z" transform="translate(-124.15 -81.01)"/><path class="cls-13" d="M270.32,264.84a7.23,7.23,0,0,1-1,1.69,2.26,2.26,0,0,1-1.67.88,2.06,2.06,0,0,1-1.71-1,3.29,3.29,0,0,1-.4-2c.05-.63.37-1.36,1-1.41a1.56,1.56,0,0,1,.75.2l3.21,1.47" transform="translate(-124.15 -81.01)"/><path class="cls-8" d="M268.9,267.47a4.64,4.64,0,0,1-1.74-.29,2.47,2.47,0,0,1-1.26-1.25,2.62,2.62,0,0,1,0-2.14,2.33,2.33,0,0,1,.31-.48c.14-.13.11-.13.25-.1s.34.15.52.23l.52.24,1.84.81a5.61,5.61,0,0,0,1.76.61,5.94,5.94,0,0,0-1.58-1c-.5-.27-1.11-.59-1.78-.93l-.52-.26c-.19-.08-.33-.17-.59-.27a.74.74,0,0,0-.49,0,.89.89,0,0,0-.37.27,2.69,2.69,0,0,0-.39.6,3.08,3.08,0,0,0,0,2.62,2.79,2.79,0,0,0,1.6,1.42,2.67,2.67,0,0,0,1.41.11C268.75,267.61,268.91,267.5,268.9,267.47Z" transform="translate(-124.15 -81.01)"/><path class="cls-9" d="M253.33,233.87a5.77,5.77,0,0,1,0-1.2A4.74,4.74,0,0,1,255,230a6.29,6.29,0,0,1,4.53-1.28,19.2,19.2,0,0,1,5.75,1.54,29.47,29.47,0,0,0,3,1,15.52,15.52,0,0,0,7.8,0,15.66,15.66,0,0,0,3.11-1.16c.35-.18.61-.34.79-.45a2.67,2.67,0,0,0,.26-.17s-.39.19-1.1.51a16.3,16.3,0,0,1-3.11,1.07,15.88,15.88,0,0,1-4.84.37,15.27,15.27,0,0,1-2.83-.49c-1-.26-1.94-.62-2.94-1a19,19,0,0,0-5.83-1.54,6.44,6.44,0,0,0-4.68,1.39,4.73,4.73,0,0,0-1.65,2.86A2.68,2.68,0,0,0,253.33,233.87Z" transform="translate(-124.15 -81.01)"/><path class="cls-9" d="M244.9,250.3a.87.87,0,0,0,.14-.21,6.48,6.48,0,0,0,.34-.61,12.4,12.4,0,0,0,.89-2.44,13.61,13.61,0,0,0,.42-3.82,32.79,32.79,0,0,0-.69-4.64,9.13,9.13,0,0,1,.19-4.56,4.69,4.69,0,0,1,1-1.69,3.56,3.56,0,0,1,1.47-.87,3.25,3.25,0,0,1,2.44.17,4.77,4.77,0,0,1,.74.56,1.86,1.86,0,0,0-.68-.66,3.28,3.28,0,0,0-2.56-.27,3.74,3.74,0,0,0-1.58.9,4.75,4.75,0,0,0-1.1,1.77,9.1,9.1,0,0,0-.22,4.69,37.26,37.26,0,0,1,.7,4.61,13.82,13.82,0,0,1-.35,3.76,14.76,14.76,0,0,1-.8,2.44C245,250,244.88,250.28,244.9,250.3Z" transform="translate(-124.15 -81.01)"/><path class="cls-9" d="M252.41,233a2.47,2.47,0,0,0,0-.4c0-.29,0-.67,0-1.14a13.16,13.16,0,0,1,.63-4.1A7.19,7.19,0,0,1,254.5,225a5.13,5.13,0,0,1,2.73-1.65,6.77,6.77,0,0,1,3.54.3,16.27,16.27,0,0,1,3.48,1.76,30.54,30.54,0,0,0,3.44,2,10.85,10.85,0,0,0,3.6.88,11.37,11.37,0,0,0,3.34-.26,13.13,13.13,0,0,0,2.74-1,10.77,10.77,0,0,0,3.3-2.59,7,7,0,0,0,.69-.91,3.33,3.33,0,0,0,.21-.34,1.57,1.57,0,0,0-.26.31,8.18,8.18,0,0,1-.72.87,11.44,11.44,0,0,1-3.32,2.48,12.75,12.75,0,0,1-2.7.94,11.18,11.18,0,0,1-3.26.23,10.65,10.65,0,0,1-3.5-.87,29.65,29.65,0,0,1-3.41-1.95,16.55,16.55,0,0,0-3.54-1.78,7,7,0,0,0-3.69-.29,5.45,5.45,0,0,0-2.86,1.74,7.44,7.44,0,0,0-1.44,2.54,12.37,12.37,0,0,0-.55,4.17c0,.5,0,.88,0,1.14A1.87,1.87,0,0,0,252.41,233Z" transform="translate(-124.15 -81.01)"/><path class="cls-12" d="M297.08,320.14l29.85-33.51,4.23-5.93s10.33-12.77,11.16-14.12c1-1.57,1.95-1.48,2.51-1.08.86.61.81,2.11,0,3.48-.27.47-4.86,7.76-4.86,7.76a20.19,20.19,0,0,1,2.64-1.1c1.93-.7,5,.09,7.51,1.79s3.13,2.4,2.51,3.43a1.53,1.53,0,0,1-1.12.67,4.35,4.35,0,0,1-2.45-.59c-5.06-3-6.28-1-6.28-1l-.67.76s3.78-.22,5.33,1.8a2.85,2.85,0,0,1,.5,1,3.84,3.84,0,0,1-.19,6.63,1.61,1.61,0,0,1-1.82,0,2.07,2.07,0,0,1-.46-.91,4.5,4.5,0,0,0-.2-.51l-1.86,1.95s-4.4,4.17-6.11,6.2L311,329.77c-3.42,5-8.61,9.08-13.51,5.57h0C292.11,331.52,292.55,324.88,297.08,320.14Z" transform="translate(-124.15 -81.01)"/><path class="cls-12" d="M328.44,286.87a2.24,2.24,0,0,0,2.61.18c.83-.42,1.5-1.11,2.3-1.59,2.4-1.44,5.66-.82,8-2.38.32-.21.65-.58.51-.94s-.57-.41-.93-.43l-9.26-.45" transform="translate(-124.15 -81.01)"/><path class="cls-13" d="M331.66,281.26a3.66,3.66,0,0,1,1-.05c.65,0,1.58,0,2.73.05l4.05.14,1.18.05a1.78,1.78,0,0,1,1.33.38.78.78,0,0,1,.09.87,1.54,1.54,0,0,1-.51.56,5.57,5.57,0,0,1-1.21.63,34.83,34.83,0,0,1-4.89,1,7.12,7.12,0,0,0-2,.73c-.56.32-1,.73-1.53,1.07a3.3,3.3,0,0,1-2.66.73c-.68-.19-.87-.57-.85-.57a2.53,2.53,0,0,0,3.29-.47c.46-.34.93-.77,1.53-1.14a7.05,7.05,0,0,1,2.07-.82,41.2,41.2,0,0,0,4.81-1,6,6,0,0,0,1.1-.57c.31-.21.48-.53.33-.67s-.57-.19-1-.21l-1.17-.07-4.05-.25c-1.15-.08-2.08-.16-2.72-.22A3.55,3.55,0,0,1,331.66,281.26Z" transform="translate(-124.15 -81.01)"/><path class="cls-13" d="M342.13,280.68a3.75,3.75,0,0,1,1.35-1.12,3,3,0,0,1,1.84-.13,7.59,7.59,0,0,1,2.16.94,11.74,11.74,0,0,0,2.18,1.1,3.86,3.86,0,0,0,2,.18,1.51,1.51,0,0,0,1.08-.82.94.94,0,0,0,.11-.49s-.07.16-.23.42a1.43,1.43,0,0,1-1,.66,3.86,3.86,0,0,1-1.86-.25,12.62,12.62,0,0,1-2.11-1.1,7.69,7.69,0,0,0-2.26-.95,3.07,3.07,0,0,0-2,.23,2.72,2.72,0,0,0-1,.88C342.16,280.5,342.11,280.67,342.13,280.68Z" transform="translate(-124.15 -81.01)"/><path class="cls-13" d="M345.15,268.45a8.91,8.91,0,0,0-.93,1.44c-.6,1-1.33,2.2-2.13,3.53l-2.18,3.49a8.64,8.64,0,0,0-.87,1.48,8.78,8.78,0,0,0,1.07-1.34c.61-.86,1.43-2.08,2.27-3.45S344,271,344.43,270A8.12,8.12,0,0,0,345.15,268.45Z" transform="translate(-124.15 -81.01)"/><path class="cls-13" d="M342.76,283.35s.19,0,.52.1a1.57,1.57,0,0,1,1.16.64.84.84,0,0,1,0,.84,4.18,4.18,0,0,1-.65.91,1.9,1.9,0,0,0-.54,1.25,1.62,1.62,0,0,0,.76,1.27,1.83,1.83,0,0,0,1.45.21,2.34,2.34,0,0,0,1.17-.68,7.47,7.47,0,0,0,1.13-1.89,4.67,4.67,0,0,0,.38-1.44,1,1,0,0,0-.08-.54s0,.2-.05.53a5.75,5.75,0,0,1-.47,1.35,7.76,7.76,0,0,1-1.14,1.78,1.82,1.82,0,0,1-2.2.39,1.25,1.25,0,0,1-.61-1A1.65,1.65,0,0,1,344,286a4.26,4.26,0,0,0,.67-1,1.13,1.13,0,0,0-.05-1.09,1.65,1.65,0,0,0-1.35-.64A1.28,1.28,0,0,0,342.76,283.35Z" transform="translate(-124.15 -81.01)"/><path class="cls-13" d="M345.48,288.28s-.15.12-.22.43a1.5,1.5,0,0,0,.39,1.28,2,2,0,0,0,1.91.5,3.29,3.29,0,0,0,1.91-1.48,3.94,3.94,0,0,0,.58-2.35,3.7,3.7,0,0,0-.66-1.85,3.57,3.57,0,0,0-.93-.94c-.26-.17-.42-.23-.43-.21a6.32,6.32,0,0,1,1.16,1.28,3.66,3.66,0,0,1,0,3.89,3.1,3.1,0,0,1-1.7,1.36,1.79,1.79,0,0,1-1.66-.37,1.42,1.42,0,0,1-.42-1.09C345.42,288.44,345.51,288.29,345.48,288.28Z" transform="translate(-124.15 -81.01)"/><path class="cls-13" d="M337.41,290.05s-.21-.24-.71-.43a3.25,3.25,0,0,0-2.09,0l.2.23a9,9,0,0,0,.44-1.08,7.34,7.34,0,0,0,.39-4,19,19,0,0,1-.71,3.88c-.13.37-.27.73-.41,1.05l-.17.35.37-.13a3.38,3.38,0,0,1,1.92-.09A7.9,7.9,0,0,0,337.41,290.05Z" transform="translate(-124.15 -81.01)"/><path class="cls-13" d="M345.26,277.67a1.54,1.54,0,0,0,.34,1.37c.47.68,1.14.88,1.16.79s-.48-.39-.88-1S345.36,277.67,345.26,277.67Z" transform="translate(-124.15 -81.01)"/><path class="cls-3" d="M267.37,289.86l27.69,27.39,20.27-20.86,3.87-1.69,5.1-5.13,11.82,13.31-25,32.73a23.46,23.46,0,0,1-13,8.51h0a23.43,23.43,0,0,1-22-6l-21.31-20.88" transform="translate(-124.15 -81.01)"/><path class="cls-8" d="M297.73,333.16a19.41,19.41,0,0,1-.06-2.39,41.66,41.66,0,0,0-.45-5.71,34.17,34.17,0,0,0-1.4-5.55,19.1,19.1,0,0,1-.76-2.26,2.18,2.18,0,0,1,.32.56c.18.37.42.92.69,1.61A27,27,0,0,1,297.6,325a31.25,31.25,0,0,1,.34,5.78c0,.74-.06,1.33-.11,1.75A1.94,1.94,0,0,1,297.73,333.16Z" transform="translate(-124.15 -81.01)"/><g class="cls-4"><path d="M275.8,298.84c4.38,4.18,5.47,9.6,7.92,15.14,2.87,6.52,8,12.86,10,19.71a10.21,10.21,0,0,1,.07,6.28c-.72,2-2.82,4.41-4.95,4.56l-4.45-1.17Z" transform="translate(-124.15 -81.01)"/></g><path class="cls-8" d="M330.5,310.12c-.08.06-2.64-3.05-5.71-7s-5.5-7.13-5.42-7.19,2.64,3,5.72,6.95S330.59,310.05,330.5,310.12Z" transform="translate(-124.15 -81.01)"/><polygon class="cls-9" points="195.03 284.08 186.95 308.71 208.29 299.02 215.21 276.5 195.03 284.08"/><path class="cls-3" d="M246.63,275.57l-3.12,7.56a93.85,93.85,0,0,1-8.58,14.48c-4.91,6.39-6.08,27.06-6.08,27.06l4.66,63.41-1.59,3.1c-.73,1.41-.35,6.57,1.23,6.65l52.56,2.44c1.27.06,2.11-4.39,2-5.66L283.52,318,275,297.13l-2.74-4.1-.06-5.16-18.29-5.66a11.59,11.59,0,0,1-7.28-6.64Z" transform="translate(-124.15 -81.01)"/><g class="cls-4"><path d="M234.5,373.18c8,5.09,16,10.21,24.91,13.53s18.9,4.58,28,2l-.29-6.59L236.92,368.2Z" transform="translate(-124.15 -81.01)"/></g><path class="cls-3" d="M248.91,299.34s-14.38-1.24-17.35,16.72,1.82,56.91,3.2,57.23c0,0,25.72,11,52.48,13.59L306,383.44l-2.23-17.85-13.82.73s-.61-3.45-5.81-4.9c-7.51-2.1-22.62-5.58-22.62-5.58s.68-17.9.82-23.15,2-28.06-10-32.33" transform="translate(-124.15 -81.01)"/><path class="cls-8" d="M275,297.13a3.68,3.68,0,0,1,.26.53l.69,1.57,2.44,5.77c1,2.46,2.24,5.37,3.59,8.59l1,2.49a13.48,13.48,0,0,1,.89,2.69,17.73,17.73,0,0,1,.3,2.92c.05,1,.11,2,.16,3,.47,8.08.9,15.39,1.11,20.68.1,2.65.16,4.79.18,6.28,0,.71,0,1.28,0,1.7a3.13,3.13,0,0,1,0,.6,4.13,4.13,0,0,1-.05-.6c0-.42-.05-1-.08-1.7-.07-1.52-.18-3.65-.3-6.27-.32-5.32-.75-12.61-1.22-20.66-.05-1-.11-2-.16-3a17.65,17.65,0,0,0-.29-2.86,13.5,13.5,0,0,0-.86-2.63l-1-2.49c-1.32-3.24-2.5-6.16-3.51-8.62s-1.77-4.41-2.33-5.83c-.26-.66-.47-1.19-.62-1.59A3.35,3.35,0,0,1,275,297.13Z" transform="translate(-124.15 -81.01)"/><path class="cls-8" d="M272.08,287.84a3.34,3.34,0,0,1-.16.76c-.12.49-.32,1.21-.62,2.1a37,37,0,0,1-3.26,7.07l-.1.17-.15-.13a30.47,30.47,0,0,0-7.9-4.41c-2.53-1-5-1.93-7.16-2.95a26.94,26.94,0,0,1-5.44-3.26,15.45,15.45,0,0,1-3-3.07,8.67,8.67,0,0,1-.63-1,1.55,1.55,0,0,1-.18-.36s.31.47.93,1.25a16.32,16.32,0,0,0,3,3,28.53,28.53,0,0,0,5.42,3.15c2.15,1,4.61,1.87,7.16,2.92a29.82,29.82,0,0,1,8,4.5l-.26.05a41.79,41.79,0,0,0,3.36-7c.32-.89.55-1.59.71-2.07A4.67,4.67,0,0,1,272.08,287.84Z" transform="translate(-124.15 -81.01)"/><path class="cls-8" d="M252.32,300.36s.34.12,1,.39c.32.15.7.36,1.16.62a12.45,12.45,0,0,1,1.45,1.09,14.61,14.61,0,0,1,3.1,4,26.34,26.34,0,0,1,2.33,6.44c1.19,5,1.51,11.36,1.17,18.58s-.52,15.42-.83,24.4l-.12-.16c4.58,1.06,9.42,2.21,14.47,3.46,2.53.62,5.11,1.27,7.72,2a9.72,9.72,0,0,1,6.36,5.12l-.17-.11,13.82-.73h.17l0,.17c.72,5.69,1.47,11.7,2.24,17.84l0,.18-.17,0-17.47,3.21-1.31.24h0c-4.82-.52-9.55-1.21-14.18-2.11s-9.14-2-13.53-3.17a213.53,213.53,0,0,1-24.82-8.34h0l-.14-.08-.06-.08a.4.4,0,0,1-.09-.15,1.78,1.78,0,0,1-.12-.29,5.22,5.22,0,0,1-.18-.56c-.1-.38-.19-.76-.27-1.13-.16-.76-.3-1.51-.43-2.26-.25-1.5-.47-3-.67-4.47-.39-2.95-.71-5.84-1-8.68-.55-5.66-.92-11.07-1.12-16.17s-.24-9.91-.06-14.36a58.48,58.48,0,0,1,1.51-12.16,20.54,20.54,0,0,1,4.61-8.74,15.36,15.36,0,0,1,6.12-4.05,16,16,0,0,1,4.5-.94,9.91,9.91,0,0,1,1.18,0,3,3,0,0,1,.4,0h-.4a11.62,11.62,0,0,0-1.18,0,16.87,16.87,0,0,0-4.46,1,15.33,15.33,0,0,0-6,4.06,20.5,20.5,0,0,0-4.52,8.68,58.14,58.14,0,0,0-1.46,12.12c-.17,4.44-.12,9.24.09,14.33s.6,10.5,1.16,16.16c.28,2.83.6,5.72,1,8.67.2,1.47.42,3,.67,4.45.13.75.27,1.5.43,2.24q.12.57.27,1.11a4.26,4.26,0,0,0,.17.54,1.45,1.45,0,0,0,.1.25.44.44,0,0,0,.06.1l0,0h0a.24.24,0,0,0,0,.09l.05-.08a216,216,0,0,0,24.78,8.3c4.38,1.2,8.9,2.23,13.51,3.15s9.33,1.59,14.14,2.11h-.06l1.31-.24,17.47-3.2-.16.21c-.76-6.14-1.51-12.16-2.23-17.85l.2.17L290,366.5h-.12l-.05-.12a9.41,9.41,0,0,0-6.13-4.92c-2.61-.71-5.19-1.37-7.71-2-5-1.25-9.89-2.4-14.46-3.47l-.13,0v-.13c.32-9,.62-17.17.89-24.4s.07-13.52-1.09-18.53a26.79,26.79,0,0,0-2.28-6.42,14.63,14.63,0,0,0-3-4,12.58,12.58,0,0,0-1.43-1.1c-.45-.26-.82-.48-1.14-.64Z" transform="translate(-124.15 -81.01)"/><path class="cls-8" d="M289,385c-.11,0,.07-3.76.4-8.39s.67-8.37.78-8.36-.07,3.76-.4,8.39S289.09,385,289,385Z" transform="translate(-124.15 -81.01)"/><path class="cls-8" d="M249.89,365.51a1.72,1.72,0,0,1,.18-.59,8.39,8.39,0,0,1,.76-1.49,14.5,14.5,0,0,1,3.8-4,29.68,29.68,0,0,1,4.77-2.74,13.41,13.41,0,0,1,2.11-.87,14.62,14.62,0,0,1-2,1.11,38,38,0,0,0-4.67,2.81,16.47,16.47,0,0,0-3.81,3.83C250.27,364.72,250,365.54,249.89,365.51Z" transform="translate(-124.15 -81.01)"/><path class="cls-8" d="M271,391.18a1.33,1.33,0,0,1-.35.08l-1,.17c-.9.15-2.22.3-3.85.43s-3.57.2-5.74.19-4.53-.16-7-.44-4.83-.71-6.94-1.17-4-1-5.54-1.49-2.81-.94-3.65-1.29l-1-.4a1.2,1.2,0,0,1-.33-.16,1.61,1.61,0,0,1,.35.09l1,.33c.86.31,2.11.71,3.68,1.17s3.43.95,5.54,1.41,4.43.84,6.9,1.13,4.83.41,7,.46,4.09,0,5.71-.11,2.94-.2,3.85-.3l1-.1C270.83,391.17,271,391.16,271,391.18Z" transform="translate(-124.15 -81.01)"/><path class="cls-12" d="M335.54,362.46c-.55-.8-1.47-.67-2.26-.11l-2.61,1.74a11.18,11.18,0,0,1-2.31,1l-1.11.2a8.46,8.46,0,0,1-6.26-1.34l-.44-.3s7.14-1.62,8.23-2.55l0,0a1.49,1.49,0,0,0-1.28-2.54l-9,1.38a18.32,18.32,0,0,0-8.16,3.4,57.3,57.3,0,0,1-6.35,4.15l1.56,13.65,2.56-.64,4.67.41a16.65,16.65,0,0,0,9.11-1.8,18,18,0,0,0,3.53-2.09,25.62,25.62,0,0,0,1.07-3.4s1.77-1.1,1.84-1.86a12.68,12.68,0,0,0-.14-2.11s4.52-2.69,5.7-3.62C336,364.3,336,363.17,335.54,362.46Z" transform="translate(-124.15 -81.01)"/><path class="cls-13" d="M322.9,372.26a9.7,9.7,0,0,0,2.92-1.05,9.52,9.52,0,0,0,2.59-1.68c-.05-.07-1.21.67-2.73,1.42S322.88,372.18,322.9,372.26Z" transform="translate(-124.15 -81.01)"/><path class="cls-13" d="M323.86,374.88a3.1,3.1,0,0,0,1.6-.45,3.2,3.2,0,0,0,1.32-1,9.64,9.64,0,0,0-1.45.75A10.93,10.93,0,0,0,323.86,374.88Z" transform="translate(-124.15 -81.01)"/><path class="cls-13" d="M319.19,362.82a5.48,5.48,0,0,0,1.08.77,14.77,14.77,0,0,0,2.91,1.38,10.09,10.09,0,0,0,3.18.53,4.5,4.5,0,0,0,1.33-.12,17,17,0,0,1-4.42-.69,19,19,0,0,1-2.89-1.29A6.9,6.9,0,0,0,319.19,362.82Z" transform="translate(-124.15 -81.01)"/><g class="cls-4"><path d="M245.57,285.48a27.34,27.34,0,0,0,8.33,8.15,78.54,78.54,0,0,0,10.35,5.66,10.4,10.4,0,0,0,5.15,1.44,2.34,2.34,0,0,0,1.37-.48,3,3,0,0,0,.78-1.87,59.88,59.88,0,0,0,.53-10.54,38.07,38.07,0,0,1-4.23,9.92s-2.84-2.47-11.64-6S245.57,285.48,245.57,285.48Z" transform="translate(-124.15 -81.01)"/></g><path class="cls-9" d="M256.39,441.34c-.1,0-.24-5.35-.31-12s0-12,.07-12,.25,5.35.32,12S256.5,441.34,256.39,441.34Z" transform="translate(-124.15 -81.01)"/></g><g id="Desk"><path class="cls-8" d="M625.85,464.87c0,.11-112.32.2-250.84.2s-250.86-.09-250.86-.2,112.29-.19,250.86-.19S625.85,464.77,625.85,464.87Z" transform="translate(-124.15 -81.01)"/></g></svg>