<?xml version="1.0" encoding="utf-8"?>
<!-- Generator: Adobe Illustrator 24.1.1, SVG Export Plug-In . SVG Version: 6.00 Build 0)  -->
<svg version="1.1" id="_x3C_Layer_x3E_" xmlns="http://www.w3.org/2000/svg" xmlns:xlink="http://www.w3.org/1999/xlink" x="0px"
	 y="0px" viewBox="0 0 3006 1670" style="enable-background:new 0 0 3006 1670;" xml:space="preserve">
<style type="text/css">
	.st0{fill:#FFCF4E;}
	.st1{fill:#8C3C7C;}
	.st2{fill:#FD5E5A;}
	.st3{fill:#F7931E;}
	.st4{fill:#F28314;}
	.st5{fill:#083654;}
	.st6{fill:#5BC8CE;}
	.st7{fill:#FC7575;}
	.st8{fill:#AFA604;}
	.st9{fill:#FFDA88;}
	.st10{fill:#FCCC6B;}
	.st11{fill:#FFFFFF;}
	.st12{fill:#D0CD00;}
	.st13{fill:#77E6F7;}
	.st14{fill:#C9F5FC;}
	.st15{fill:#1E1D2C;}
	.st16{fill:#FD9191;}
	.st17{fill:#1B0530;}
	.st18{fill:#DD4A4A;}
	.st19{fill:#36095F;}
	.st20{fill:#18287D;}
	.st21{fill:#EADE03;}
	.st22{fill:#565179;}
	.st23{fill:#492F44;}
	.st24{fill:#352032;}
	.st25{fill:#24242D;}
	.st26{fill:#A00449;}
	.st27{fill:#ED1E79;}
	.st28{fill:#0B5965;}
	.st29{fill:#49200C;}
	.st30{fill:#592C13;}
	.st31{fill:#FFF1C5;}
	.st32{fill:#723C19;}
	.st33{fill:#052F43;}
	.st34{fill:#153D49;}
	.st35{fill:#7A3E1C;}
	.st36{fill:#512712;}
	.st37{fill:#FF00FF;}
	.st38{fill:#7675AF;}
	.st39{fill:#F478AF;}
	.st40{fill:#FF9FCD;}
	.st41{fill:#C1272D;}
	.st42{fill:#C3E2C9;}
	.st43{fill:#ED1C24;}
	.st44{fill:#DBFCE2;}
</style>
<g>
	<path class="st0" d="M0,1670v-624.4c20.6-1.8,76.4-4.7,154.6,5.6c91.8,12.2,234.2,45.8,391.8,136.5c33.4,19.3,63.9,37.4,93.4,54.9
		c236.2,140.2,343.9,204.1,642.4,68.5c170-77.2,295.5-110.7,419.5-111.9c126.1-1.1,250.7,31.4,410.9,84.4
		c163.5,54.1,279.2,3.8,413.2-54.4c126.7-55.1,270.1-117.3,480.2-94.4V1670H0z"/>
</g>
<g>
	<g>
		<path class="st1" d="M2165.5,1369.3c0,40.3-296.6,72.9-662.5,72.9c-365.9,0-662.5-32.6-662.5-72.9s296.6-72.9,662.5-72.9
			C1868.9,1296.4,2165.5,1329.1,2165.5,1369.3z"/>
		<path class="st2" d="M1357.9,1117.8c0,0-4.6,31.7-19,42.8c-6.9,5.3-39.2,27.4-39.2,18.4c0-9,29.1-24.6,29.1-24.6l13.5-34.9
			L1357.9,1117.8z"/>
		<path class="st3" d="M1140,859.8c0,0-40.7-3.7-61.3,2.6c-3.8,1.2-23.2,174.5-38.1,222.3c-14.9,47.8-6.5,117.8-6.5,132
			c0,14.2,237.8,14.2,237.8,14.2s-12.1-165.6-7.4-216.1c4.6-50.5,2.3-127.1-12.1-140.8C1238,860.2,1140,859.8,1140,859.8z"/>
		<path class="st4" d="M1265.3,1117.8c-26.1,7.5-56.6,10.6-88.3,2.3c-53.6-14.1-91.1-114.2-112.8-193.9
			c-5.5,53.8-14.4,129.2-23.5,158.6c-14.9,47.8-6.5,117.8-6.5,132c0,14.2,237.8,14.2,237.8,14.2S1267.8,1174.7,1265.3,1117.8z"/>
		<path class="st5" d="M941.2,1200.2c0,0,91,150.5,170.9,160.7c79.9,10.2,248.9-118,261.9-140.2c13-22.3-27.9-32.5-78.9-20.4
			c-51.1,12.1-172.8,42.7-231.3,9.3c-58.5-33.4-138.4-59.4-138.4-44.6C925.4,1179.8,941.2,1200.2,941.2,1200.2z"/>
		<path class="st6" d="M1183.6,1371.1c0,0-69.7-54.8-109.6-105c-39.9-50.2-79.6-84.3-102.5-97.4c-22.9-13.1-72.1-23.3-93.5,25
			c-21.4,48.3,121.7,151.6,145.8,167.8c24.1,16.1,81.7,44.9,81.7,44.9L1183.6,1371.1z"/>
		<path class="st7" d="M1127.9,1355.3l-14.9,39c0,0,38.9,4.9,70.8,11.5c2.9-9.6,6.7-19,11.2-27.9
			C1164.4,1372,1127.9,1355.3,1127.9,1355.3z"/>
		<g>
			<path class="st8" d="M1151.4,1418.2c0,0,39.5,24.4,66.3,41.1c26.9,16.6,40.8,41.7,66.9,11.9c26.1-29.7,38.4-70.9,23.2-85.1
				c-15.2-14.2-76.5-7-93.9-17.7c-17.4-10.8-30.3-5.7-28.2,3.3C1187.7,1380.6,1151.4,1418.2,1151.4,1418.2z"/>
			<path class="st9" d="M1259.1,1484.8c9.9-1.7,16-9.3,22-18c12.9-18.6,38-61.2,26.7-80.7c5,2.4,8.2,8,9.7,13.5
				C1327.4,1438.7,1282.9,1495.6,1259.1,1484.8z"/>
			<path class="st10" d="M1228.4,1382.8c22,13.9,9.6,48.3-16.2,45.1c-0.4,0-0.8-0.1-1.2-0.2c-41.4-5.5-50.9-10-60.1-11.6
				c-10.2-1.8-24-4.4-21.1-26.7c2.9-22.3,19.4-47,27.3-42.1C1162.3,1350.7,1195.3,1362,1228.4,1382.8z"/>
			<path class="st11" d="M1129.8,1389.5c-2.9,22.3,10.9,24.9,21.1,26.7c9.2,1.6,18.7,6,60.1,11.6c0.4,0.1,0.8,0.1,1.2,0.2
				c2.3,0.3,4.5,0.3,6.6,0c-0.6,0-1.3-0.1-1.9-0.2c-0.4-0.1-0.8-0.1-1.2-0.2c-41.4-5.5-50.9-10-60.1-11.6
				c-10.2-1.8-24-4.4-21.1-26.7c2.3-18.3,13.9-38.2,22.3-42.1C1148.8,1343,1132.6,1367.5,1129.8,1389.5z"/>
			<path class="st8" d="M1219.5,1427.8c0,0-48-31.6-54.3-25.8c-6.3,5.7-13.9,16.2-13.9,16.2s51.5,27,64.9,23.8
				C1229.6,1438.8,1219.5,1427.8,1219.5,1427.8z"/>
			<g>
				<path class="st11" d="M1208.7,1366.3c0.6,0.4,1,1,1.1,1.8c2.4,29-29.3,47.2-30.6,48c-1.1,0.6-2.6,0.2-3.2-0.9
					c-0.6-1.1-0.2-2.6,0.9-3.2c0.3-0.2,30.4-17.6,28.3-43.5c-0.1-1.3,0.9-2.4,2.1-2.5C1207.8,1365.9,1208.3,1366,1208.7,1366.3z"/>
			</g>
			<g>
				<path class="st11" d="M1229,1377.2c0.6,0.4,1,1,1.1,1.7c2,18.3-28.8,44.9-30.1,46.1c-1,0.8-2.5,0.7-3.3-0.3
					c-0.8-1-0.7-2.5,0.3-3.3c8.4-7.2,30-28.8,28.5-42c-0.1-1.3,0.8-2.4,2.1-2.6C1228.1,1376.8,1228.6,1377,1229,1377.2z"/>
			</g>
			<g>
				<path class="st11" d="M1243.9,1384.6c0.5,0.3,0.9,0.8,1,1.5c3.7,15.9-26.4,46.1-29.9,49.5c-0.9,0.9-2.4,0.9-3.3,0
					c-0.9-0.9-0.9-2.4,0-3.3c8.9-8.7,31.3-33.8,28.6-45.1c-0.3-1.3,0.5-2.5,1.7-2.8C1242.8,1384.2,1243.4,1384.3,1243.9,1384.6z"/>
			</g>
			<path class="st12" d="M1233.9,1447.9c0,0,20,24.2,27.9,22.3c7.9-1.9,46.2-65.7,35.2-72.4c-10.9-6.8-41.3-5.9-46.5-1.2
				C1245.4,1401.1,1233.9,1447.9,1233.9,1447.9z"/>
		</g>
		<polygon class="st7" points="1022,1373.9 1119.5,1352.9 1135.3,1390 1022,1409.1 		"/>
		<path class="st13" d="M1097.2,1343.3l38.1,71.5c0,0,207.1-58.5,257.3-95.7c50.2-37.2,46.4-80.8,46.4-92.9
			c0-12.1-52.1-27.2-75.7-27.2C1339.7,1199,1196.1,1343.3,1097.2,1343.3z"/>
		<path class="st14" d="M1439,1226.2c-1.4-13.9-68.8-26.6-77.1-23.6c-27.7,8.4-165.7,145.9-264.7,140.6
			c101.4-7.9,236.9-149.3,270.3-147.3C1385.7,1197.3,1439.3,1212.5,1439,1226.2z"/>
		<path class="st15" d="M1129.8,1127.9c0,0,142.6-27.9,190.4-9.8c47.8,18.1-9.3,57.6-23.7,57.6s-13.4-29-28.3-32.1
			c-14.9-3.2-66-8.3-76.2,12.2c-10.2,20.4-2.8,33-24.6,30.2c-21.8-2.8-47.4-19.7-47.4-36.8C1120,1132,1129.8,1127.9,1129.8,1127.9z"
			/>
		<path class="st16" d="M1055,1102.2c0,0,37.6,5.1,37.6,14.4c0,9.3-5.1,33.4-5.1,46c0,12.5,13,29.7,20.9,29.7c7.9,0-7-21.4-7-23.7
			c0-2.3,16.3,30.4,23.2,30.4c7,0,5.7-9.4,0.9-18.6c-4.8-9.1-5.5-39-0.4-49.3c5.1-10.3,21.3,2.1,30.8,2.1c9.6,0,25.4-8,19.8-13.6
			c-5.6-5.6-17.2,6.7-23.9,0c-6.7-6.7,1.6-23.8-17.9-28c-19.5-4.2-64.6-28.8-64.6-28.8L1055,1102.2z"/>
		<path class="st7" d="M1369.8,1058.1c0,0-17.3,44.1-33,39c-15.8-5.1-37.1,21.5-37.1,25.7c0,16.1,23.7-18.8,31.6-10.9
			c7.9,7.9-6.4,15.7-14.4,22.6c-8,6.9-33.4,23.2-26.5,26.1c7,2.9,33.5-17.2,37.2-20.9c3.7-3.7,2.8,0,2.8,0s-39.9,25.6-33,32.6
			c7,7,39.8-23.3,39.8-23.3s35.4-34.2,46.6-45.4c11.1-11.1,33.4-57.3,33.4-57.3L1369.8,1058.1z"/>
		<path class="st2" d="M1365.5,1068l26.1,25.6c3.6-5.6,7.5-12.3,11.2-19l-34-13.7C1367.9,1062.7,1366.8,1065.1,1365.5,1068z"/>
		<path class="st0" d="M1078.7,862.4c0,0-42.3,6.2-71.1,52.7c-28.8,46.4-55,109.2-33.4,147.7c9.6,17.1,85,53.9,85,53.9l27.1-54.3
			c0,0-43-4.8-52.7-37.7c-9.8-33,39.9-52.7,39.9-52.7S1099.1,892.1,1078.7,862.4z"/>
		<path class="st0" d="M1243.1,869.3c0,0,3.5,86.6,23.4,106.4c0,0,88.5,5.7,95.9,26.6c7.4,20.9-11.6,55.7-11.6,55.7l53.4,26.5
			c0,0,41.3-69.2,32-105.9C1427,942,1271.9,872.1,1243.1,869.3z"/>
		<g>
			<path class="st17" d="M1146.8,841.1h-5.6c0,0-16.2-33.4-16.2-47.6c0-14.2,0-20.6,0-42.7c0-22,18.3-47.6,56.7-47.6
				c38.4,0,46.9,7.1,63.3,16.4c16.4,9.2,3.6,49.7,0,70.4c-6.7,38.2-32.3,61.4-32.3,61.4L1146.8,841.1z"/>
			<path class="st7" d="M1140.8,828.4l-10.9,61.7c9.4,31.8,72,47.1,81.7,2.4c1.4-6.3,1.1-56.8,1.1-56.8
				C1218.4,808.6,1141,821.9,1140.8,828.4z"/>
			<path class="st2" d="M1140.8,828.4l-1.8,10.5c6.4,28,22.5,45.8,34.5,49.3c10.2,3,26.4-6.6,39.1-22.5c0.1-14.8,0.1-30,0.1-30
				C1218.4,808.6,1141,821.9,1140.8,828.4z"/>
			<path class="st2" d="M1228.2,791.8c1.1-1.4,9.9-22,17.4-15.1c7.5,6.9-5.9,36.4-11.9,38.9c-6,2.6-5.8,0.4-5.8,0.4L1228.2,791.8z"
				/>
			<path class="st2" d="M1139.9,787.7c-0.9-1.6-6.9-23.2-15.2-17.3c-8.3,5.9,1,36.8,6.6,40.2c5.6,3.3,5.7,1.2,5.7,1.2L1139.9,787.7z
				"/>
			<path class="st18" d="M1137.9,788.6c0-1.9-1.6-11.3-7.8-10.4c-6.2,0.9,0.3,31.6,6.1,26.5C1142,799.6,1137.9,788.6,1137.9,788.6z"
				/>
			<path class="st18" d="M1239.7,784.8c0.4,0.4,4.4,6.7,1.3,13.6c-3.1,6.9-8.8,18.4-9.8,12.3
				C1230.2,804.5,1233.3,778.3,1239.7,784.8z"/>
			<path class="st7" d="M1180.9,723.1c0,0-35.6,7.4-41.2,24.2c-5.7,16.8-3.6,18.9-3.6,57.1c0,38.2,22,63.2,37.3,67.2
				c15.3,4,44.4-17.5,54.4-45.7c10-28.2,9.5-63.9,9.5-80C1237.3,729.8,1180.9,723.1,1180.9,723.1z"/>
			<path class="st19" d="M1122.4,761.3l13.5,21.7c0,0,6.6-41.4,13-43.3c6.4-1.9,0,8.3,0,8.3s24.7-4,33.4-6.4
				c8.8-2.4-0.2,7.1,1.7,11.6c1.9,4.5,37.9-9,37.9-9s-5.5,19.7-24.2,19.7c0,0,11.1,5,27.3-0.2c16.1-5.2,14.9-17.5,14.9-17.5
				l-6.2,24.9c0,0,3.2-0.7,3.2,1.4c0,2.1-3.2,30-3.2,30s24.7-34.5,26.3-43.8c1.7-9.2,10.9-12.3,10.9-19.2c0-6.9,15.9-54-15.2-62.1
				c-31.1-8.1-36.7,7.6-36.7,7.6s-14.7-15.6-31-13.5c-16.4,2.1-35.8,29.6-35.8,29.6s-17.3,2.4-19.7,13.3c0,0-6.9,5.9-11.6,18.5
				C1116.2,745.4,1122.4,761.3,1122.4,761.3z"/>
			<path class="st20" d="M1183.3,805.4c-3.4,1.2-7.7,5-9.8,7.7c14.1-6.5,7.7-8.8,17.6,2.4C1190.2,812,1186.6,804.2,1183.3,805.4z"/>
			<path class="st20" d="M1178.2,774.5c-1.9-9.2-16.3-15.2-22.1-7.9C1163.5,762.7,1173.2,767.8,1178.2,774.5z"/>
			<path class="st20" d="M1175.9,781.2c0,3.7-2.5,6.8-5.7,6.8c-3.1,0-5.7-3-5.7-6.8c0-3.7,2.5-6.8,5.7-6.8
				C1173.4,774.5,1175.9,777.5,1175.9,781.2z"/>
			<path class="st20" d="M1198.8,776.7c3.8-8.6,19.1-11.4,23.3-3C1215.6,768.4,1205.1,771.2,1198.8,776.7z"/>
			<path class="st20" d="M1199.6,783.8c-0.8,3.7,1,7.2,4.1,7.8c3.1,0.7,6.2-1.7,7-5.4c0.8-3.6-1-7.2-4.1-7.8
				C1203.5,777.7,1200.4,780.1,1199.6,783.8z"/>
			<path class="st20" d="M1197.1,837.1c0,6.5-3.3,11.8-7.4,11.8c-4.1,0-7.4-5.3-7.4-11.8c0-6.5,3.3-11.8,7.4-11.8
				C1193.8,825.3,1197.1,830.6,1197.1,837.1z"/>
		</g>
		<path class="st15" d="M1271.9,1119.6c3.9-25.8,0.1-38,8.3-37.3c2.6,0.2,4.5,2.6,4.3,5.2
			C1284.3,1088.7,1284.7,1087.1,1271.9,1119.6z"/>
		<g>
			<path class="st12" d="M1041.5,1355.3c0,0-46.4,0-78,0c-31.6,0-56.7-13.9-63.2,25.1c-6.5,39,4.6,80.5,25.1,84.5
				c20.4,4.1,68.7-34.4,89.2-34.4c20.4,0,28.8-11.1,22.3-17.6C1030.4,1406.4,1041.5,1355.3,1041.5,1355.3z"/>
			<path class="st9" d="M914.9,1355.3c-7.5,6.7-8.7,16.3-9.2,26.9c-1.2,22.6-0.1,72.1,19.8,82.7c-5.6,0.6-11.2-2.5-15.3-6.4
				C881,1430.5,888.9,1358.7,914.9,1355.3z"/>
			<path class="st9" d="M994.6,1426c-26-0.2-33.6-36.1-9.9-46.9c0.4-0.2,0.8-0.3,1.1-0.5c38.1-17.1,48.5-18.3,57.2-21.8
				c9.6-3.8,22.7-8.9,32,11.6s8.3,50.2-1,50.2C1067.7,1418.5,1033.7,1426.3,994.6,1426z"/>
			<path class="st11" d="M1075,1368.3c-9.3-20.4-22.4-15.4-32-11.6c-8.6,3.5-19.1,4.7-57.2,21.8c-0.4,0.2-0.8,0.3-1.1,0.5
				c-2.1,1-4,2.2-5.6,3.5c0.6-0.3,1.1-0.6,1.7-0.9c0.4-0.2,0.8-0.3,1.1-0.5c38.1-17.1,48.5-18.3,57.2-21.8c9.6-3.8,22.7-8.9,32,11.6
				c7.6,16.8,8.3,39.8,3.2,47.5C1083.2,1417.9,1084.2,1388.6,1075,1368.3z"/>
			<path class="st12" d="M978.5,1383c0,0,57.4,1.6,59.7-6.6c2.3-8.2,3.3-21.1,3.3-21.1s-57.9,4.2-67.7,13.9
				C964.1,1379,978.5,1383,978.5,1383z"/>
			<g>
				<path class="st11" d="M1020.1,1429.7c-0.7,0-1.4-0.3-1.9-1c-17.3-23.4,0.1-55.6,0.8-56.9c0.6-1.1,2-1.6,3.2-0.9
					c1.1,0.6,1.6,2,0.9,3.2c-0.2,0.3-16.6,31-1.1,51.9c0.8,1,0.5,2.5-0.5,3.3C1021,1429.5,1020.6,1429.7,1020.1,1429.7z"/>
			</g>
			<g>
				<path class="st11" d="M997.1,1431c-0.7,0-1.4-0.3-1.8-0.9c-11.4-14.5,0.8-53.4,1.4-55c0.4-1.2,1.7-1.9,2.9-1.5
					c1.2,0.4,1.9,1.7,1.5,2.9c-3.4,10.6-10.3,40.3-2.1,50.7c0.8,1,0.6,2.5-0.4,3.3C998.1,1430.9,997.6,1431,997.1,1431z"/>
			</g>
			<g>
				<path class="st11" d="M980.5,1432.6c-0.6,0-1.2-0.2-1.7-0.7c-11.5-11.5-1.8-53.1-0.6-57.8c0.3-1.2,1.6-2,2.8-1.7
					c1.3,0.3,2,1.6,1.7,2.8c-2.9,12.1-8.8,45.2-0.6,53.4c0.9,0.9,0.9,2.4,0,3.3C981.7,1432.4,981.1,1432.6,980.5,1432.6z"/>
			</g>
			<path class="st21" d="M955.7,1373.5c0,0-29.8-10-35.5-4.3c-5.7,5.7-4.7,80.1,8.2,80.1c12.9,0,38.2-16.8,40.2-23.4
				C970.5,1419.3,955.7,1373.5,955.7,1373.5z"/>
		</g>
		<path class="st15" d="M1176.9,1177.5c18,90.6,111.9,107.4,147.4,69.8c18.5-19.6,12.1-43.7-17.4-41.4
			c-43.4,3.5-76.5,71.9-29.9,131.3c40,49.4,123.9,20.9,136.6-16.6c3-9,1.1-22.8-8.3-22.7c-28.2-0.5-87,79.5-56.4,130.3
			c33.6,56.9,168.8,93.1,234.6,101.1l-1.1,9.3c-68.7-8.7-205.4-46.2-240.7-106.2c-33.5-56.1,29.1-142.3,63.8-142.1
			c14.8,0.1,20,18.3,15.1,32.6c-15.1,43.2-105.9,72.3-148.9,18.5c-49.9-64.1-13.3-137.7,34.7-141.4c35.1-2.4,44.1,27.9,22,51.2
			c-41.2,43.3-139.7,17.3-156.1-73L1176.9,1177.5z"/>
		<g>
			<rect x="1381.8" y="1509.8" class="st22" width="302.5" height="22.3"/>
			<polygon class="st23" points="1700.7,1493.6 1365.3,1493.6 1368,1509.8 1698,1509.8 			"/>
			<path class="st24" d="M1698.3,1508.2c-60.1-0.8-244.8-4.2-306.6-14.6h-26.4l2.7,16.2h330L1698.3,1508.2z"/>
			<polygon class="st23" points="1689.6,1544.8 1687.8,1527.7 1378.2,1527.7 1376.4,1544.8 			"/>
			
				<rect x="1570.3" y="1514.8" transform="matrix(-1 -1.224647e-16 1.224647e-16 -1 3167.3057 3038.2939)" class="st25" width="26.7" height="8.7"/>
			
				<rect x="1617.7" y="1514.8" transform="matrix(-1 -1.224647e-16 1.224647e-16 -1 3262.0908 3038.2939)" class="st25" width="26.7" height="8.7"/>
			
				<rect x="1522.6" y="1514.8" transform="matrix(-1 -1.224647e-16 1.224647e-16 -1 3071.9658 3038.2939)" class="st25" width="26.7" height="8.7"/>
			
				<rect x="1390.3" y="1519.1" transform="matrix(-1 -1.224647e-16 1.224647e-16 -1 2893.2568 3042.6484)" class="st23" width="112.7" height="4.4"/>
		</g>
		<g>
			<path class="st26" d="M1689.6,1089.2l-63.9-73.2c0,0-13.8,17.4-22.3,61.2c-8.5,43.9-14.4,143-14.4,143l87.5-5.3L1689.6,1089.2z"
				/>
			<path class="st27" d="M1692.7,970.7c0,0,40.6-32.8,98.3-9.4c57.7,23.4,116.2,216.2,116.2,320.8c0,0-45.1,108-202.6,11.2
				c0,0-55.5-254-78.9-277.4C1625.6,1016,1653.2,985.9,1692.7,970.7z"/>
			<path class="st28" d="M1811.3,1320.2c0,0,195-87.4,260.6-70.2c8.1,2.1,19.7,4.2,25,9.1c37,34.9,0.8,131.5-37.4,143.8
				c-43.7,14-257.4-28.1-312.1-35.9c-54.6-7.8-246.2,29.4-261.7,13.9c-15.5-15.5-23.8-96.6,49.5-116.9
				C1608.4,1243.8,1811.3,1320.2,1811.3,1320.2z"/>
			<path class="st29" d="M1744.3,1405.7c0,0-19.2-9.6-44.5-26.1c-18.6-12.1-40.5-28-60.6-46.7c-47.5-44-91.5-55.4-127.4-58.1
				c-35.8-2.6-58.9,83.6,16.1,122.8c75,39.3,210.3,39.8,210.3,39.8C1751.5,1439.5,1755.2,1414.7,1744.3,1405.7z"/>
			<path class="st30" d="M1509.9,1317c0,0,17.3-7.9,17.3-14.3c0-6.4-3.8-12.9-12.3-7s-44.4,23.4-45.4,27.5
				C1468.4,1327.2,1509.9,1317,1509.9,1317z"/>
			<path class="st30" d="M1651,1216.5c0,0-19.2,73.7-36.7,97.4c-17.6,23.7-48,30.7-48,30.7l-41.8-14.9c0,0,49-19,62.9-70.2
				c10.3-37.9,10.8-39.8,10.8-39.8L1651,1216.5z"/>
			<g>
				<path class="st9" d="M1863.5,1392.2c0,0-2.3-18.7-18.7-26.9c-16.4-8.2-55,5.8-76.7,8.8c-21.6,2.9-75.5,0.6-86,24
					c-10.5,23.4-19.9,54.4,43.3,57.3S1877,1438.4,1863.5,1392.2z"/>
				<path class="st31" d="M1682.2,1398.1c10.5-23.4,64.4-21.1,86-24c21.6-2.9,60.3-17,76.7-8.8c6.6,3.3,10.9,8.3,13.7,13.1
					c-0.2-0.1-0.3-0.2-0.5-0.2c-16.4-8.2-55,5.8-76.7,8.8c-21.6,2.9-75.5,0.6-86,24c-5.4,12-10.5,26-5.6,37.2
					C1667.2,1437,1674.3,1415.4,1682.2,1398.1z"/>
				<path class="st32" d="M1811.7,1400.4c0,0,22.7-8.1,53-22.8c22.2-10.7,48.6-25,73.1-42.1c57.9-40.4,107.2-79.2,148.3-79.2
					s62.2,118.3-26.8,152c-88.9,33.6-243.3,24.2-243.3,24.2C1800.6,1433.6,1798.5,1408.6,1811.7,1400.4z"/>
			</g>
			<g>
				<path class="st33" d="M1845.9,849.8c0,0,5.4,23.1-7.2,29.8c-12.6,6.7-22.2-3.1-22.2-3.1s2.8,30.1-36.3,34.7
					c-19.9,2.3-29.7-8.1-29.7-8.1s-20.3,19.7-47.4,0c-27.2-19.7-21.4-34.1-21.4-34.1s-21.1-5.2-26.5-27.2c-5.5-22,2.2-42.4,2.2-42.4
					s-24.5-31.7-18.6-56.4c6-24.7,14.2-35.2,14.2-35.2s-6-24.1,15-38.1c21-14,49.4-4.7,49.4-4.7s21.3-30.8,62.9-19.4
					c41.7,11.4,44.7,30.1,44.7,30.1s39.1,4,45.6,24.7c6.5,20.7,0,42.1,0,42.1s16.7,1.7,13.1,17.2c-3.6,15.6-13.1,20.4-13.1,20.4
					s20.2,9.5,13.6,22.8c-6.6,13.3-20.4,10.2-20.4,10.2s6.4,25.7,1.7,30.9C1860.7,849.2,1845.9,849.8,1845.9,849.8z"/>
				<path class="st34" d="M1725.5,746.3c-27.7-11.5-96.7,0.9-103.8,64.8c0,0,116.1,87,127.9,54.6
					C1757.7,843.7,1769.7,764.6,1725.5,746.3z"/>
				<g>
					<path class="st32" d="M1727.5,887.5c2.5-7.8,21.1,66.9,9.2,103.2c-2,6-64.8,64.2-83,43.8c0,0,12.3-22.1,14.6-54
						c2.3-31.8-14.7-47.8-14.7-47.8S1725,895,1727.5,887.5z"/>
					<path class="st35" d="M1648.2,775.1c-10.1,6.4-28,24.4-26.5,39.6c1.5,15.2-11,35.2-6.2,66.6c4.7,31.4,21.5,50.9,29.5,54.1
						c7.9,3.2,54.8-7.8,72.6-25.5c17.8-17.8,52.1-50,19.2-104.5C1703.9,750.8,1668,762.6,1648.2,775.1z"/>
					<path d="M1647.7,851.6c-5.6,4.9-11,5.5-12,5.9c1.8,3.5,3.9,8.2,7.5,13.4c-0.7-3.7-1.8-7.3-3-10.8c8.4-2.1,14.2-9.8,15.2-18.2
						C1651.4,848.4,1650.1,849.3,1647.7,851.6z"/>
					<path d="M1682.4,806.7c6.2-0.6,12.3,3.4,16.5,8.4c-11.1-7.2-17-5.6-23.4-1.1c-6.5,4.5-7.4,7.8-9.2,5.5
						C1664,816.7,1674.5,807.8,1682.4,806.7z"/>
					<path d="M1632.8,817.6c-3.3-0.4-7.1,2.3-11.2,4.1c7.2-10.7,15.6-11.5,22.6,0.9c1.2,2-1.4,4.1-2.8,2.3
						C1641.4,824.9,1634.7,817.8,1632.8,817.6z"/>
					<path d="M1683.7,847.6c0,3.2-2.6,5.8-5.8,5.8s-5.8-2.6-5.8-5.8c0-3.2,2.6-5.8,5.8-5.8S1683.7,844.4,1683.7,847.6z"/>
					<path d="M1635.9,844.1c0,2.9-2.3,5.2-5.2,5.2c-2.9,0-5.2-2.3-5.2-5.2c0-2.9,2.3-5.2,5.2-5.2
						C1633.6,838.9,1635.9,841.3,1635.9,844.1z"/>
					<path d="M1654.5,895.3c2.9,6.2,1.2,13.1-3.8,15.4c-4.9,2.3-11.3-1-14.1-7.2c-2.9-6.2-1.2-13.1,3.8-15.4
						C1645.3,885.8,1651.6,889,1654.5,895.3z"/>
				</g>
				<path class="st34" d="M1657,770.3c0,0,32.3,13.5,47.9,21.7c15.6,8.2,37.4,75.2,42.9,75.2s21.8-47.9,0-79.1
					C1725.9,756.8,1668,752.5,1657,770.3z"/>
				<path class="st35" d="M1724.7,839.8c0,0,5.7-21.6,16-11.3c10.3,10.3,5.4,40.1-5.1,41C1724.9,870.3,1724.7,839.8,1724.7,839.8z"
					/>
				<path class="st36" d="M1740.6,839.8c0,0-6.3-5.6-11,0c-4.7,5.6-0.1,23.3,5.5,21.7C1740.7,860,1743.2,842.4,1740.6,839.8z"/>
				
					<ellipse transform="matrix(0.7071 -0.7071 0.7071 0.7071 -110.2106 1482.1174)" class="st37" cx="1734" cy="874.1" rx="8.4" ry="8.4"/>
			</g>
			<path class="st15" d="M1590.3,1377.6l-76.6-3.5H1497l-21.9-33.9l-6.8-10.5c0,0,40.4-6.5,42.7-6.5c2.3,0,106.6,22.5,106.6,22.5
				l-16.8,27.2L1590.3,1377.6z"/>
			<path class="st38" d="M1614.9,1334c-23.2-22.7-102.9-29-128.1-21.4c-25.2,7.6-21.4,20.6-7.7,22.9c13.7,2.3,80.7-0.4,111.8,10.7
				C1621.9,1357.4,1619.6,1338.6,1614.9,1334z"/>
			<path class="st32" d="M1471.5,1320.5c0,0-23.1,8-23.1,20.8c0,12.9,30.1,47.7,48,49.7c17.8,2,40.5-11.8,40.5-18.2
				c0-6.4-18.5-2-21.8,1.3c0,0,18.3-7.5,12-13.8c-6.3-6.3-24,2.4-24,2.4s15.2-5.7,8.5-12.4c-6.7-6.7-26,2-26,2s23-0.3,17.3-9.4
				c-5.6-9.1-25.5-10.9-31.3-12.5C1465.8,1328.9,1471.5,1320.5,1471.5,1320.5z"/>
			<path class="st32" d="M1795.1,1144.2c0,0-17.4,64.1-31,123.7c-13.7,59.7-106.1,89.7-106.1,89.7c-11.7-30.2-56.6-48-65.9-48
				c-9.4,0-14,11.7,3.9,18.3c17.9,6.6,17.9,24.2,10.1,32c-7.8,7.8-53.1-3.9-53.1-3.9s1.6-12.1-2.7-16.4c-4.3-4.3-18.1,16.6-11.7,23
				c6.4,6.4,19.1,15.2,19.1,15.2s-3.9,2.3-3.9,7c0,4.7,16.3,9.8,16.3,12.8s5.1,8.7,24.6,8.7c19.5,0,41-11.3,41-11.3
				s82.7-12.5,140.4-52.4c57.7-39.9,96-198.5,96-198.5H1795.1z"/>
			<path class="st39" d="M1760.9,953.6c0,0-5-0.2-10.9,51.9c-5.9,52.1,25.7,177.3,25.7,177.3h96.3c0,0,12.7-11.1,0-101.8
				C1859.5,990.2,1819,939.7,1760.9,953.6z"/>
			<path class="st40" d="M1760.9,953.6c-2.2,2.1-3.4,10.7-3.8,13.7c-10.2,70.6,4.4,115.3,18.7,215.4
				c-10.8-30.6-21.3-72.2-27.2-113.7c-3.8-30-6.7-61.5,6-102.3c1-3.2,2.4-7.4,4-10.3C1759.2,955.4,1759.8,954.1,1760.9,953.6z"/>
			<g>
				<path class="st41" d="M1694.7,1369.3c0,0-25,0.3-35.8,21.2c-22.3,43.2,11.5,49.4,11.5,49.4s13.6-51.3,34.2-57.2
					c20.6-6,86.7-13.3,86.7-13.3H1694.7z"/>
				<path class="st42" d="M1666.3,1391.9c10.5-23.4,64.4-21,86-23.9c21.7-2.9,60.3-6.8,76.7,1.4c6.6,3.3,10.9-1.8,13.7,3
					c-0.2-0.1-0.3-0.2-0.5-0.2c-16.4-8.2-55,5.8-76.7,8.7c-21.6,2.9-75.5,0.6-86,23.9c-5.4,12-1.5,26.3,3.3,37.5
					C1649.2,1439.9,1658.5,1409.2,1666.3,1391.9z"/>
				<path class="st43" d="M1863.5,1392.2c0,0-2.3-18.7-18.7-26.9c-16.4-8.2-55,5.8-76.7,8.8c-21.6,2.9-75.5,0.6-86,24
					c-10.5,23.4-19.9,54.4,43.3,57.3S1877,1438.4,1863.5,1392.2z"/>
				<path class="st44" d="M1682.2,1398.1c10.5-23.4,64.4-21.1,86-24c21.6-2.9,60.3-17,76.7-8.8c6.6,3.3,10.9,8.3,13.7,13.1
					c-0.2-0.1-0.3-0.2-0.5-0.2c-16.4-8.2-55,5.8-76.7,8.8c-21.6,2.9-75.5,0.6-86,24c-5.4,12-10.5,26-5.6,37.2
					C1667.2,1437,1674.3,1415.4,1682.2,1398.1z"/>
				<path class="st32" d="M1811.7,1400.4c0,0,22.7-8.1,53-22.8c22.2-10.7,48.6-25,73.1-42.1c57.9-40.4,107.2-79.2,148.3-79.2
					s62.2,118.3-26.8,152c-88.9,33.6-243.3,24.2-243.3,24.2C1800.6,1433.6,1798.5,1408.6,1811.7,1400.4z"/>
			</g>
			<path class="st36" d="M2087.8,1303.7c-9.3-7.1-50.4-23.2-44.6,13.6c5.9,36.8,32.6,42.8,49.5,27.5
				C2109.6,1329.5,2096,1310,2087.8,1303.7z"/>
		</g>
	</g>
	<g>
		<path class="st44" d="M1763,1444.6c-1.3,0-2.3-1-2.3-2.3c0-27.2,26.4-42,27.5-42.7c1.1-0.6,2.6-0.2,3.2,0.9
			c0.6,1.1,0.2,2.6-0.9,3.2c-0.3,0.1-25.1,14.2-25.1,38.6C1765.3,1443.5,1764.3,1444.6,1763,1444.6z"/>
	</g>
	<g>
		<path class="st44" d="M1793.7,1439.9c-0.3,0-0.5,0-0.8-0.1c-27.6-9.8-43.5-32-44.2-33c-0.7-1-0.5-2.5,0.6-3.3
			c1.1-0.7,2.5-0.5,3.3,0.6c0.2,0.2,15.8,21.9,41.9,31.2c1.2,0.4,1.8,1.8,1.4,3C1795.6,1439.3,1794.7,1439.9,1793.7,1439.9z"/>
	</g>
	<g>
		<path class="st20" d="M966.2,914.2c-0.2,0-0.3,0-0.5-0.1c-1.3-0.3-2.1-1.5-1.8-2.8c17.9-82.4,116.6-76.6,117.6-76.6
			c1.3,0.1,2.3,1.2,2.2,2.5c-0.1,1.3-1.1,2.3-2.5,2.2c-0.9-0.1-95.7-5.6-112.7,72.9C968.3,913.4,967.3,914.2,966.2,914.2z"/>
	</g>
	<g>
		<path class="st20" d="M916.9,986.2c-1.1,0-2.1-0.8-2.3-2c-11.8-77.7,49.7-124,50.3-124.4c1-0.8,2.5-0.5,3.3,0.5
			c0.8,1,0.5,2.5-0.5,3.3c-0.6,0.4-59.8,45.1-48.4,120c0.2,1.3-0.7,2.5-2,2.7C917.1,986.2,917,986.2,916.9,986.2z"/>
	</g>
	<g>
		<path class="st20" d="M1475.1,1000.6c-0.2,0-0.4,0-0.7-0.1c-1.2-0.4-2-1.7-1.6-2.9c18.4-63.1-48.7-106.6-49.4-107
			c-1.1-0.7-1.4-2.1-0.7-3.2c0.7-1.1,2.1-1.4,3.2-0.7c0.7,0.5,70.8,45.8,51.3,112.3C1477.1,1000,1476.2,1000.6,1475.1,1000.6z"/>
	</g>
	<g>
		<path class="st20" d="M1907.2,787.3c-0.2,0-0.4,0-0.6-0.1c-1.3-0.3-2-1.6-1.7-2.8c24.2-98.5-7.8-110.9-8.1-111
			c-1.2-0.4-1.9-1.7-1.5-3c0.4-1.2,1.7-1.9,2.9-1.5c1.5,0.5,36.6,13.1,11.2,116.6C1909.2,786.6,1908.2,787.3,1907.2,787.3z"/>
	</g>
</g>
</svg>
