<svg id="Camada_1" data-name="Camada 1" xmlns="http://www.w3.org/2000/svg" viewBox="0 0 461.01 425.78"><defs><style>.cls-1{fill:#ececec;}.cls-2{fill:#e1e1e1;}.cls-3{fill:#f5f5f5;}.cls-4{fill:#fff;}.cls-19,.cls-5{fill:none;stroke-miterlimit:10;}.cls-5{stroke:#fbfbfb;stroke-width:0.25px;}.cls-6{fill:#1a2e35;}.cls-7{fill:#a26752;}.cls-8{fill:#8a503f;}.cls-9{fill:#ff4f5b;}.cls-10{opacity:0.6;}.cls-11{opacity:0.3;}.cls-12{fill:#375a64;}.cls-13{fill:#fafafa;}.cls-14{fill:#ff9a6c;}.cls-15{fill:#eb7446;}.cls-16{fill:#ffbf9d;}.cls-17{opacity:0.2;}.cls-18{fill:#c78976;}.cls-19{stroke:#fff;stroke-width:0.05px;}</style></defs><path class="cls-1" d="M541.55,98.16c-9.47-21.9-24.69-41.71-45-54.28S450.74,26.52,427.9,33.42c-57.73,17.43-78.1,97.4-135.78,115-38.32,11.67-79.56-8.81-119.29-3.63-39.42,5.14-56.56,38.16-65.62,76.87-4.31,18.43-.73,38.19,7.38,56.45,15.46,34.8,46.34,60.36,83.14,70.12l21.5,3.61a389.15,389.15,0,0,0,200.4-18.72c6.32-2.36,12.19-4.74,17.48-7.09,42.35-18.83,79-51.54,99.4-93.17S560,140.7,541.55,98.16Z" transform="translate(-102.97 -26.67)"/><path class="cls-1" d="M298.74,26.7a32.54,32.54,0,0,0-31.06,20.48,32.55,32.55,0,0,0,9.86,35.88,32.53,32.53,0,0,0,37.17,1.72A32.53,32.53,0,0,0,327.85,50a32.54,32.54,0,0,0-29-23.28" transform="translate(-102.97 -26.67)"/><rect class="cls-2" x="326.01" y="13.43" width="70.31" height="101.91"/><rect class="cls-3" x="322.49" y="13.43" width="70.31" height="101.91"/><rect class="cls-4" x="331.22" y="24.47" width="52.84" height="79.84"/><path class="cls-2" d="M487,131s0-.13,0-.39v-1.13c0-1,0-2.47,0-4.38,0-3.82,0-9.4,0-16.44,0-14.08-.05-34-.09-57.49l.18.17-52.84,0h0l.19-.19c0,30.11,0,57.88,0,79.83l-.15-.15,38.46.08,10.62,0,2.79,0h1s-.32,0-.94,0l-2.76,0-10.59,0-38.55.08H434V131c0-22,0-49.72,0-79.83V51h53.21v.18c0,23.52-.06,43.5-.09,57.6,0,7,0,12.59,0,16.41,0,1.89,0,3.35,0,4.34,0,.49,0,.86,0,1.11S487,131,487,131Z" transform="translate(-102.97 -26.67)"/><path class="cls-5" d="M484.59,51.67" transform="translate(-102.97 -26.67)"/><path class="cls-2" d="M496,40.1a12.77,12.77,0,0,1-1.25,1.82c-.82,1.09-2,2.58-3.3,4.18s-2.56,3-3.48,4a10.62,10.62,0,0,1-1.55,1.58A13.15,13.15,0,0,1,487.74,50l3.38-4.11,3.38-4.11A13,13,0,0,1,496,40.1Z" transform="translate(-102.97 -26.67)"/><path class="cls-4" d="M487.3,130.72a65.66,65.66,0,0,0,9.22,11.52" transform="translate(-102.97 -26.67)"/><path class="cls-2" d="M496.52,142.24a10.74,10.74,0,0,1-1.61-1.46,51.33,51.33,0,0,1-3.47-3.92,50.35,50.35,0,0,1-3.06-4.25,11.91,11.91,0,0,1-1.08-1.89,13.56,13.56,0,0,1,1.3,1.73c.78,1.09,1.87,2.58,3.14,4.17s2.48,3,3.37,4A14.34,14.34,0,0,1,496.52,142.24Z" transform="translate(-102.97 -26.67)"/><path class="cls-4" d="M425.45,141.93l9.21-11.36" transform="translate(-102.97 -26.67)"/><path class="cls-2" d="M434.66,130.57a69.34,69.34,0,0,1-4.46,5.8,68.84,68.84,0,0,1-4.75,5.56,71.31,71.31,0,0,1,4.46-5.8A68.84,68.84,0,0,1,434.66,130.57Z" transform="translate(-102.97 -26.67)"/><path class="cls-2" d="M425.46,40.1a65.18,65.18,0,0,1,4.47,5.34A64.89,64.89,0,0,1,434.1,51a63.16,63.16,0,0,1-4.47-5.34A64.89,64.89,0,0,1,425.46,40.1Z" transform="translate(-102.97 -26.67)"/><rect class="cls-2" x="349.91" y="40.68" width="17.69" height="50.24"/><polygon class="cls-2" points="216.05 2.41 216.05 68.63 120.94 68.63 117.52 2.88 216.05 2.41"/><rect class="cls-4" x="235.24" y="14.8" width="65.61" height="95.1" transform="translate(102.72 303.72) rotate(-90)"/><path class="cls-2" d="M316,95.61H220V29.09h96Zm-95.1-.9h94.2V30h-94.2Z" transform="translate(-102.97 -26.67)"/><rect class="cls-4" x="127.82" y="11.03" width="74.5" height="49.31"/><path class="cls-2" d="M305.29,37.7h-1.42l-4.1,0-15.35.06-53.63.1.22-.21c0,15.06,0,31.76,0,49.3h0l-.24-.24,74.5,0-.18.19c0-15,.07-27.31.09-35.88,0-4.28,0-7.63.05-9.92,0-1.13,0-2,0-2.61s0-.9,0-.9,0,.28,0,.86,0,1.46,0,2.57c0,2.29,0,5.62.05,9.88,0,8.6.06,20.94.1,36v.18h-.19l-74.5,0h-.23V87h0c0-17.54,0-34.24,0-49.3v-.22h.21l53.77.11,15.31.06,4.05,0h1Z" transform="translate(-102.97 -26.67)"/><path class="cls-2" d="M220.49,29.36a8.42,8.42,0,0,1,1.64,1.06c1,.7,2.29,1.7,3.72,2.84s2.69,2.23,3.58,3a7.76,7.76,0,0,1,1.36,1.4c-.09.1-2.37-1.79-5.23-4.07A52,52,0,0,1,220.49,29.36Z" transform="translate(-102.97 -26.67)"/><path class="cls-2" d="M315.59,29.55a47.84,47.84,0,0,1-5,4.26,46.82,46.82,0,0,1-5.3,3.89,46,46,0,0,1,5-4.26A44.82,44.82,0,0,1,315.59,29.55Z" transform="translate(-102.97 -26.67)"/><path class="cls-4" d="M315.52,95.17l-10.61-8.6" transform="translate(-102.97 -26.67)"/><path class="cls-2" d="M304.91,86.57a47.61,47.61,0,0,1,5.45,4.12,49.88,49.88,0,0,1,5.16,4.48,49.73,49.73,0,0,1-5.45-4.12A49.88,49.88,0,0,1,304.91,86.57Z" transform="translate(-102.97 -26.67)"/><path class="cls-2" d="M220.49,95.16a46.12,46.12,0,0,1,4.95-4.22,45.83,45.83,0,0,1,5.25-3.85,44.41,44.41,0,0,1-5,4.22A44.82,44.82,0,0,1,220.49,95.16Z" transform="translate(-102.97 -26.67)"/><rect class="cls-2" x="261.1" y="37.88" width="16.51" height="46.88" transform="translate(105.07 304) rotate(-90)"/><path class="cls-3" d="M142.08,415.71c.94-3.71-1.51-7.41-4.25-10.08s-6-5.06-7.43-8.6c-2.33-5.74.71-13.2-3.23-18-2.32-2.81-6.45-3.73-8.51-6.74a15.38,15.38,0,0,1-1.87-5.38A54.75,54.75,0,0,0,103,341.53a47.56,47.56,0,0,0,5.48,24.53c1.6,3,3.56,5.94,4.11,9.3.88,5.46-2.14,11.12-.76,16.48,1.57,6.13,8.49,10.2,8.85,16.52.31,5.34-4.32,10.06-3.95,15.4a14.46,14.46,0,0,0,2.42,6.32c4.17,6.85,10.27,11.55,19.47,11.34l11.27.33Z" transform="translate(-102.97 -26.67)"/><path class="cls-2" d="M152.2,442a8.9,8.9,0,0,0,3.11-.08A19.67,19.67,0,0,0,159,441a15.36,15.36,0,0,0,4.51-2.51,6.29,6.29,0,0,0,1.85-2.49,11.88,11.88,0,0,0,.51-3.37,32.69,32.69,0,0,1,.24-3.64,9.86,9.86,0,0,1,1.36-3.64c1.31-2.34,3.51-4.56,4.2-7.73s.18-6.5-.36-9.88-1.07-7.06.2-10.59,3.64-6.73,4.86-10.71.61-8.33.84-12.59a16.63,16.63,0,0,1,1.44-6.26c.9-2,2.15-3.89,3.13-6,2-4.26,2.3-9.07,2.82-13.79q.38-3.57.77-7.2a34.59,34.59,0,0,1,1.21-7.22,64.82,64.82,0,0,1,2.65-7,23.49,23.49,0,0,0,1.29-3.65,36.74,36.74,0,0,0,.34-3.88,46.4,46.4,0,0,0-.34-7.8c-.32-2.59-.81-5.17-1.1-7.77,0-.16,0-.31,0-.45l-.07-.52-.46.23a17.39,17.39,0,0,0-6,5.16,27,27,0,0,0-3.69,6.89c-1.86,4.85-2.51,9.93-3.43,14.77S173.56,339,171.1,343c-1.22,2-2.71,3.85-4,5.82a15.79,15.79,0,0,0-2.76,6.44c-.64,4.77,2,8.94,1.48,13.17a14.53,14.53,0,0,1-2,5.86c-1,1.8-2.21,3.48-3.34,5.17a33.06,33.06,0,0,0-3,5.21,16.51,16.51,0,0,0-1.36,5.66c-.25,3.8.31,7.4,0,10.81a24.89,24.89,0,0,1-2.73,9.28c-1.34,2.78-2.85,5.29-4.1,7.73-.63,1.22-1.22,2.41-1.69,3.6a18.09,18.09,0,0,0-1,3.57,22.41,22.41,0,0,0,0,6.43,16.34,16.34,0,0,0,3.27,8.19,8.12,8.12,0,0,0,.92,1,4.12,4.12,0,0,0,.75.62c.42.31.64.45.64.45a13.9,13.9,0,0,1-2.19-2.14,16.42,16.42,0,0,1-3.11-8.13,22.66,22.66,0,0,1,.11-6.34,17.25,17.25,0,0,1,1-3.49,38,38,0,0,1,1.7-3.55c1.26-2.42,2.78-4.92,4.16-7.72a25.44,25.44,0,0,0,2.82-9.44c.28-3.48-.27-7.1,0-10.81a16,16,0,0,1,1.33-5.47,32.66,32.66,0,0,1,3-5.11c1.13-1.67,2.34-3.36,3.38-5.2a15.26,15.26,0,0,0,2.12-6.1c.51-4.5-2.12-8.7-1.46-13.14a15.27,15.27,0,0,1,2.66-6.15c1.28-1.93,2.77-3.78,4-5.84,2.54-4.16,3.75-9,4.66-13.88s1.58-9.91,3.4-14.66a27.28,27.28,0,0,1,3.59-6.71,16.73,16.73,0,0,1,5.79-4.94l-.52-.29c0,.15,0,.3,0,.46.3,2.63.78,5.22,1.1,7.78a45,45,0,0,1,.34,7.68,35.25,35.25,0,0,1-.32,3.77,23.15,23.15,0,0,1-1.25,3.52,64.71,64.71,0,0,0-2.67,7.06,36.09,36.09,0,0,0-1.23,7.34c-.26,2.42-.51,4.83-.76,7.21-.51,4.74-.84,9.47-2.74,13.58-.94,2.05-2.19,3.94-3.12,6a17.27,17.27,0,0,0-1.47,6.5c-.22,4.35.37,8.59-.79,12.45s-3.59,7.06-4.81,10.7-.73,7.48-.18,10.85,1.13,6.69.42,9.69-2.76,5.23-4.1,7.64a10.49,10.49,0,0,0-1.38,3.78,34.2,34.2,0,0,0-.22,3.69,11.4,11.4,0,0,1-.46,3.28,6.06,6.06,0,0,1-1.73,2.38,15.36,15.36,0,0,1-4.4,2.51,19.14,19.14,0,0,1-3.61,1A14.48,14.48,0,0,1,153,442C152.47,442,152.2,442,152.2,442Z" transform="translate(-102.97 -26.67)"/><path class="cls-2" d="M187.06,309.06a1.63,1.63,0,0,0-.11.35c-.06.27-.14.6-.24,1-.22.89-.48,2.23-.89,3.91s-1.45,3.57-2.31,5.9-1.8,5-2.63,8-1.59,6.35-2.36,9.93-1.6,7.41-3.55,11c-.91,1.83-1.94,3.69-2.75,5.72a26.49,26.49,0,0,0-1.59,6.48,132.76,132.76,0,0,1-2.35,13.65c-2.21,9.24-4.31,18.05-6.23,26.07s-3.73,15.2-5.22,21.27-2.62,10.91-3.46,14.36l-.9,3.91-.22,1a1.85,1.85,0,0,0-.05.35,1,1,0,0,0,.12-.33c.08-.27.18-.6.29-1l1-3.88c.88-3.43,2.14-8.3,3.68-14.29s3.35-13.26,5.37-21.24,4.06-16.83,6.28-26.08a126.78,126.78,0,0,0,2.35-13.7,26.08,26.08,0,0,1,1.53-6.32c.78-2,1.8-3.83,2.71-5.69a41.69,41.69,0,0,0,3.53-11.19c.76-3.59,1.47-6.92,2.27-9.93s1.67-5.68,2.52-8,1.8-4.24,2.2-6,.59-3,.76-3.95c.07-.42.13-.76.17-1A1.36,1.36,0,0,0,187.06,309.06Z" transform="translate(-102.97 -26.67)"/><path class="cls-2" d="M154.19,442.06c7.34-4.42,9.38-17.71,6.26-25.69s-8.53-15.25-9.41-23.77c-.67-6.55,1.43-13.28-.13-19.68-2.11-8.63-10.58-15.27-10.54-24.16,0-5,2.84-9.69,2.59-14.67-.32-6.1-5-10.92-8-16.29-4.49-8.21-4.83-17.94-6.41-27.17s-5.14-19.09-13.35-23.59c-1.17,7.85-3.2,13.23-2.49,23.85.25,3.81,4.72,11.09,5.37,19.45.39,5,.67,10,1,15s.67,9.82,2.44,14.36c1.36,3.48,3.52,6.64,4.54,10.23,1.9,6.77-.51,14.12,1,21,1.31,5.81,5.36,10.8,6.22,16.69,1.2,8.28-4.11,16.92-1.32,24.8,1.38,3.92,4.62,7.05,5.56,11.09.73,3.14,0,6.47.64,9.63,1.06,5.07,10.78,9,16,8.63" transform="translate(-102.97 -26.67)"/><path class="cls-1" d="M117.3,274.82a2.43,2.43,0,0,0,0,.44c0,.33.11.75.18,1.29.17,1.13.37,2.79.77,4.94s1.55,4.58,2.45,7.51,1.91,6.29,2.76,10.07,1.59,7.95,2.35,12.44,1.6,9.39,3.86,14.06c1,2.35,2.21,4.7,3.1,7.2a32.32,32.32,0,0,1,1.59,8,163.11,163.11,0,0,0,2.26,17.13l6.54,32.72c2.12,10,4,19,5.63,26.64s2.94,13.67,3.86,18c.46,2.08.83,3.72,1.09,4.88q.18.78.3,1.26a2.93,2.93,0,0,0,.12.43,1.77,1.77,0,0,0-.05-.44c-.06-.33-.14-.75-.23-1.28-.23-1.17-.55-2.81-.95-4.9-.87-4.3-2.11-10.44-3.63-18s-3.42-16.65-5.48-26.68-4.19-21.1-6.49-32.7a164.53,164.53,0,0,1-2.26-17.08,32.73,32.73,0,0,0-1.65-8.11c-.91-2.55-2.1-4.91-3.15-7.24-2.24-4.6-3.05-9.42-3.87-13.89S124.89,302.73,124,299s-1.88-7.16-2.87-10.08-2.12-5.34-2.57-7.45-.68-3.78-.9-4.9l-.24-1.27A1.88,1.88,0,0,0,117.3,274.82Z" transform="translate(-102.97 -26.67)"/><path class="cls-3" d="M499.38,429.26c-18.28-10.86-23.89-33.11-24.69-53.43-.14-3.39-.77-6.93.62-10s5-5.39,8.12-4.19c2.6,1,3.91,3.84,5.5,6.15a19.88,19.88,0,0,0,8.49,7c2.24,1,4.95,1.44,7,.11,2.8-1.82,2.85-5.88,2.58-9.24q-.75-9.4-1.51-18.81c-.27-3.36-.53-6.79.28-10.06s2.9-6.41,6-7.54,7.23.42,8.15,3.66a32.15,32.15,0,0,1,.4,4.18c.2,1.39,1,2.89,2.32,3.18s2.64-.76,3.58-1.82c3.22-3.65,5.25-8.2,7.13-12.71s3.69-9.13,6.57-13.07,7-7.19,11.82-7.82,10.15,2,11.72,6.6-.85,9.67-3.57,13.73a75.1,75.1,0,0,1-14.54,16.06,6.25,6.25,0,0,0-2.41,3c-.56,2.3,1.73,4.37,4,4.94,2.57.65,5.27.19,7.91.3s5.58,1.07,6.75,3.47c1.63,3.34-1,7.16-3.63,9.73a64.64,64.64,0,0,1-18.23,12.39c-2.41,1.09-4.95,2.08-6.82,4s-2.85,5-1.47,7.28,4.53,2.82,7.09,2.14,4.77-2.25,7.18-3.36c4.49-2.09,10.48-2.21,13.74,1.57,2.14,2.48,2.58,6.12,1.83,9.33a24.51,24.51,0,0,1-4.49,8.69,64.82,64.82,0,0,1-26.19,21.45c-10.45,4.51-20.31,6.25-31.26,3.14" transform="translate(-102.97 -26.67)"/><path class="cls-2" d="M502.69,430.21c.14-8.08-1.26-3.6,1-14a300.4,300.4,0,0,1,9.57-33.34l3-8.61c1-2.82,1.95-5.62,3.07-8.3a149.13,149.13,0,0,1,7.3-15c2.55-4.67,5.15-9,7.6-13.05s4.83-7.75,7.13-11.05a119.47,119.47,0,0,1,12-14.73c1.54-1.62,2.79-2.84,3.64-3.65.41-.39.73-.7,1-.92a2.61,2.61,0,0,1,.34-.3,2,2,0,0,1-.3.34l-.93,1c-.83.84-2,2.09-3.56,3.73A126.1,126.1,0,0,0,541.66,327c-2.27,3.3-4.61,7-7,11.07s-5,8.39-7.54,13.05a151.25,151.25,0,0,0-7.24,15c-1.11,2.67-2.07,5.45-3,8.28s-2,5.7-3,8.6a314.31,314.31,0,0,0-9.6,33.26c-2.27,10.41-.9,5.88-1.1,13.94" transform="translate(-102.97 -26.67)"/><path class="cls-2" d="M519.44,365.88a7,7,0,0,1-.43-1.41c-.25-.92-.56-2.26-.92-3.92-.72-3.31-1.56-7.92-2.47-13s-1.82-9.68-2.59-13c-.38-1.65-.7-3-.94-3.9a6.51,6.51,0,0,1-.29-1.44,7.19,7.19,0,0,1,.53,1.38c.3.89.69,2.21,1.13,3.85.88,3.28,1.86,7.87,2.77,13l2.29,13c.29,1.56.53,2.88.72,3.94A6.12,6.12,0,0,1,519.44,365.88Z" transform="translate(-102.97 -26.67)"/><path class="cls-2" d="M562.1,354.6a9.18,9.18,0,0,1-1.71.33c-1.1.19-2.7.44-4.66.81-3.93.72-9.32,1.91-15.22,3.48s-11.16,3.23-14.94,4.54c-1.9.64-3.42,1.2-4.47,1.58a9.74,9.74,0,0,1-1.66.54,10.33,10.33,0,0,1,1.57-.77c1-.45,2.53-1.07,4.41-1.77,3.75-1.42,9-3.15,14.93-4.73a152.9,152.9,0,0,1,15.31-3.3c2-.32,3.59-.51,4.7-.62A9.47,9.47,0,0,1,562.1,354.6Z" transform="translate(-102.97 -26.67)"/><path class="cls-2" d="M504.15,415.34a2.67,2.67,0,0,1-.34-.51l-.85-1.51c-.74-1.32-1.75-3.25-3-5.65-2.45-4.8-5.63-11.54-9-19s-6.52-14.25-8.87-19.09l-2.8-5.73c-.3-.63-.55-1.14-.75-1.57a2.18,2.18,0,0,1-.23-.56,1.92,1.92,0,0,1,.34.51l.85,1.5c.74,1.32,1.76,3.25,3,5.65,2.46,4.8,5.63,11.54,9,19s6.52,14.24,8.87,19.09l2.8,5.73.75,1.56A2.15,2.15,0,0,1,504.15,415.34Z" transform="translate(-102.97 -26.67)"/><path class="cls-2" d="M560.26,392.57a2.28,2.28,0,0,1-.55.27l-1.63.69-6,2.45c-5.07,2.07-12,5-19.74,8.26s-14.71,6.14-19.83,8.1c-2.56,1-4.64,1.76-6.08,2.26l-1.67.58a2.64,2.64,0,0,1-.6.16s.18-.12.55-.28l1.63-.68,6-2.45c5.07-2.07,12-5,19.75-8.27s14.7-6.13,19.82-8.1c2.56-1,4.64-1.76,6.08-2.26l1.67-.57A2.09,2.09,0,0,1,560.26,392.57Z" transform="translate(-102.97 -26.67)"/><path class="cls-6" d="M550.13,439.44c0,.15-98.21.26-219.34.26s-219.35-.11-219.35-.26,98.19-.26,219.35-.26S550.13,439.3,550.13,439.44Z" transform="translate(-102.97 -26.67)"/><path class="cls-6" d="M466.89,82.31c-7.17-3.08-15.51,1.32-18.73,6.21s-4.6,10.74-5.53,16.52a135.48,135.48,0,0,0-.88,36c.38,3.53,1.07,7.37,3.77,9.67s6.3,2.38,9.62,1.8c3-.51,6-1.66,8-4,3-3.59,2.6-8.81,2.28-13.47a140.08,140.08,0,0,1,5-47.81" transform="translate(-102.97 -26.67)"/><path class="cls-6" d="M451.26,88.83c3.29-6.54,13.25-10.07,21.37-7.88,6.82,1.84,14.11,8.85,14.6,16,.72,10.44-4.92,21.1-1.58,31,3.88,11.54,18.2,17.13,21.87,28.75A18.25,18.25,0,0,1,506,171.19c-1.29,2.23-3.26,4.3-5.81,4.71-3.17.51-6.1-1.62-8.6-3.63-6.77-5.44-13.65-11-18.37-18.3-5.55-8.59-7.69-19-7.78-29.27s1.74-20.36,3.56-30.43" transform="translate(-102.97 -26.67)"/><path class="cls-7" d="M479.79,101.51a15.4,15.4,0,0,0-13.85-17.26c-8.22-.79-15.52,5.33-16.75,13.49-1.08,7.16-2,14.38-2,17,.1,7.91,4.72,11,6.6,11.91a9.9,9.9,0,0,0,2.08.52h0a.06.06,0,0,1,.05.06l-1.76,9.08c-.8,5.95,2.52,11.26,8.46,12.12s10.62-3.7,11.53-9.65Z" transform="translate(-102.97 -26.67)"/><path class="cls-6" d="M451,101.67a1.26,1.26,0,0,0,1,1.43,1.19,1.19,0,0,0,1.44-.94,1.26,1.26,0,0,0-1-1.43A1.22,1.22,0,0,0,451,101.67Z" transform="translate(-102.97 -26.67)"/><path class="cls-6" d="M451,99.89c.13.18,1.17-.38,2.51-.18s2.22,1,2.39.87,0-.38-.42-.75a3.45,3.45,0,0,0-1.88-.9,3.34,3.34,0,0,0-2,.35C451.13,99.53,451,99.81,451,99.89Z" transform="translate(-102.97 -26.67)"/><path class="cls-6" d="M463.69,103.73a1.26,1.26,0,0,0,1,1.43,1.21,1.21,0,0,0,1.45-.94,1.27,1.27,0,0,0-1-1.43A1.2,1.2,0,0,0,463.69,103.73Z" transform="translate(-102.97 -26.67)"/><path class="cls-6" d="M464.14,102.06c.13.18,1.18-.38,2.51-.18s2.22,1,2.39.87,0-.38-.41-.75a3.49,3.49,0,0,0-1.89-.9,3.34,3.34,0,0,0-2,.34C464.26,101.7,464.07,102,464.14,102.06Z" transform="translate(-102.97 -26.67)"/><path class="cls-6" d="M457.83,111.28a8.59,8.59,0,0,0-2.11-.71c-.34-.09-.66-.2-.68-.44a1.74,1.74,0,0,1,.38-1l1.39-2.46a45.41,45.41,0,0,0,3.26-6.48,45.9,45.9,0,0,0-3.78,6.2l-1.35,2.48a2,2,0,0,0-.37,1.32.9.9,0,0,0,.49.58,2.06,2.06,0,0,0,.57.16A9.46,9.46,0,0,0,457.83,111.28Z" transform="translate(-102.97 -26.67)"/><path class="cls-8" d="M456,127.18s5.1,1.18,12.14-1.77c0,0-3,6.54-12.62,4.22Z" transform="translate(-102.97 -26.67)"/><path class="cls-8" d="M457.93,114.59a2.4,2.4,0,0,1,2.29-.58,2.2,2.2,0,0,1,1.4,1,1.41,1.41,0,0,1-.12,1.61,1.62,1.62,0,0,1-1.82.19,4.88,4.88,0,0,1-1.56-1.27,1.58,1.58,0,0,1-.33-.45.44.44,0,0,1,.08-.5" transform="translate(-102.97 -26.67)"/><path class="cls-6" d="M461.64,112.78c-.22,0-.43,1.41-1.83,2.26s-2.91.46-3,.66.31.34,1,.45a3.71,3.71,0,0,0,2.46-.48,3.13,3.13,0,0,0,1.43-1.9C461.85,113.17,461.74,112.78,461.64,112.78Z" transform="translate(-102.97 -26.67)"/><path class="cls-6" d="M463.88,99.63c.08.38,1.44.4,3,.82s2.75,1,3,.73c.12-.14-.06-.51-.52-.94a5,5,0,0,0-2.14-1.12,5.15,5.15,0,0,0-2.42-.07C464.18,99.2,463.85,99.44,463.88,99.63Z" transform="translate(-102.97 -26.67)"/><path class="cls-6" d="M451.91,97.22c.19.34,1.16.16,2.27.31s2,.5,2.28.22,0-.47-.36-.82a3.2,3.2,0,0,0-1.77-.77,3.24,3.24,0,0,0-1.89.35C452,96.77,451.82,97.06,451.91,97.22Z" transform="translate(-102.97 -26.67)"/><path class="cls-6" d="M455.34,85.19a16.33,16.33,0,0,0,11.29,13.08L466.18,96a23,23,0,0,0,12.48,11.09,15.82,15.82,0,0,0-23.25-20.59" transform="translate(-102.97 -26.67)"/><path class="cls-6" d="M506.52,162.82a13.73,13.73,0,0,0,1.54-2.41,12.3,12.3,0,0,0,.79-7.59,15.8,15.8,0,0,0-1.93-5,26.46,26.46,0,0,0-3.78-4.87c-3-3.17-7-6-10.57-9.57a20.75,20.75,0,0,1-4.36-6,23.34,23.34,0,0,1-1.87-6.68,59.27,59.27,0,0,1,0-11.68c.25-3.31.52-6,.69-7.83.08-.88.15-1.59.2-2.13a3.52,3.52,0,0,1,.11-.74,4.82,4.82,0,0,1,0,.75c0,.54-.06,1.25-.11,2.14-.13,1.91-.3,4.57-.52,7.84a60.73,60.73,0,0,0,.16,11.59,23,23,0,0,0,1.85,6.52,20.34,20.34,0,0,0,4.26,5.88c3.57,3.56,7.53,6.38,10.56,9.61a26.44,26.44,0,0,1,3.8,5,16,16,0,0,1,1.92,5.12,12.26,12.26,0,0,1-1,7.75,8.94,8.94,0,0,1-1.19,1.79A5,5,0,0,1,506.52,162.82Z" transform="translate(-102.97 -26.67)"/><path class="cls-9" d="M514.23,408.34,519,431.57l9,17.3a2.43,2.43,0,0,1-1.17,3.35h0a2.39,2.39,0,0,1-2.22-.14c-4.3-2.58-20.07-12.14-20.33-13.86-.29-2-6.62-24.18-6.62-24.18Z" transform="translate(-102.97 -26.67)"/><g class="cls-10"><path class="cls-4" d="M526.85,452.22,504,436.65l.22,1a3.71,3.71,0,0,0,1.37,2.12c1.87,1.39,7.09,5.12,19,12.35a2.42,2.42,0,0,0,2.29.12Z" transform="translate(-102.97 -26.67)"/></g><g class="cls-10"><path class="cls-4" d="M507,428.12a1.47,1.47,0,0,1,.82,1.78,1.41,1.41,0,0,1-1.76.82,1.54,1.54,0,0,1-.85-1.89,1.45,1.45,0,0,1,1.92-.65" transform="translate(-102.97 -26.67)"/></g><path class="cls-6" d="M519.26,443.32a7.4,7.4,0,0,1,1.62-2.26,7.28,7.28,0,0,1,2.54-1.11c0-.07-.33-.18-.88-.13a3.76,3.76,0,0,0-2,.84,3.72,3.72,0,0,0-1.23,1.77C519.15,443,519.2,443.32,519.26,443.32Z" transform="translate(-102.97 -26.67)"/><path class="cls-6" d="M521.61,446c.13.08.7-.84,1.82-1.46a19.38,19.38,0,0,1,2.19-.8,2.66,2.66,0,0,0-2.44.35C521.91,444.84,521.48,446,521.61,446Z" transform="translate(-102.97 -26.67)"/><path class="cls-6" d="M515.29,440.05a24.31,24.31,0,0,1,2.66-2.44,22.45,22.45,0,0,1,3.24-1.58,6.63,6.63,0,0,0-5.9,4Z" transform="translate(-102.97 -26.67)"/><path class="cls-6" d="M513.26,433.11c.09.12,1.25-.7,2.89-1.14s3.06-.34,3.08-.49a6,6,0,0,0-6,1.63Z" transform="translate(-102.97 -26.67)"/><path class="cls-6" d="M511.69,426.32a12.25,12.25,0,0,1,3-1.26,12,12,0,0,1,3.24.07c0-.06-.29-.29-.9-.48a5.33,5.33,0,0,0-2.44-.1,5.09,5.09,0,0,0-2.23,1C511.86,426,511.65,426.28,511.69,426.32Z" transform="translate(-102.97 -26.67)"/><path class="cls-6" d="M514.34,423.78a2.07,2.07,0,0,0-.17-.89,6.11,6.11,0,0,0-1.21-2.13,2.82,2.82,0,0,0-1.45-1,1,1,0,0,0-1,.46,1.57,1.57,0,0,0-.12,1.12,3.41,3.41,0,0,0,3.64,2.43,4,4,0,0,0,3.35-2.9,1.36,1.36,0,0,0-.19-1.13,1,1,0,0,0-1.09-.28,3.46,3.46,0,0,0-1.35,1.14,6.71,6.71,0,0,0-1.16,2.16,2.16,2.16,0,0,0-.18.88,11.31,11.31,0,0,1,1.63-2.8,3.19,3.19,0,0,1,1.19-1,.52.52,0,0,1,.6.15.93.93,0,0,1,.08.75,3.55,3.55,0,0,1-2.94,2.48,3,3,0,0,1-3.12-2,1.21,1.21,0,0,1,.06-.79.52.52,0,0,1,.56-.26,2.39,2.39,0,0,1,1.24.84A9,9,0,0,1,514.34,423.78Z" transform="translate(-102.97 -26.67)"/><path class="cls-9" d="M451.48,410.77l1.1,18.87s-18.81,7.46-18.95,11l36.67-.82-.5-29.48Z" transform="translate(-102.97 -26.67)"/><g class="cls-10"><path class="cls-4" d="M463.89,427.8a1.5,1.5,0,0,1,1.07,1.69,1.44,1.44,0,0,1-1.66,1.08,1.58,1.58,0,0,1-1.13-1.79,1.5,1.5,0,0,1,1.85-.94" transform="translate(-102.97 -26.67)"/></g><g class="cls-10"><path class="cls-4" d="M470.3,439.79l-.16-3-35.1,1.9s-1.62.74-1.41,1.89Z" transform="translate(-102.97 -26.67)"/></g><path class="cls-6" d="M452,429.47c0,.18.91.24,1.8.8s1.38,1.3,1.55,1.22-.13-1.1-1.22-1.76S451.94,429.31,452,429.47Z" transform="translate(-102.97 -26.67)"/><path class="cls-6" d="M448.17,431.15c0,.17.75.46,1.37,1.2s.82,1.54,1,1.53.27-1-.53-1.94S448.17,431,448.17,431.15Z" transform="translate(-102.97 -26.67)"/><path class="cls-6" d="M446.09,435.8c.16,0,.39-.87-.09-1.84s-1.33-1.34-1.4-1.19.46.67.84,1.47S445.91,435.79,446.09,435.8Z" transform="translate(-102.97 -26.67)"/><path class="cls-6" d="M452.21,425.14c.08.16.89-.1,1.91-.06s1.81.35,1.9.2-.68-.78-1.88-.82S452.12,425,452.21,425.14Z" transform="translate(-102.97 -26.67)"/><g class="cls-11"><polygon points="348.73 387.84 348.92 391.2 366.94 390.63 366.9 387.6 348.73 387.84"/></g><path class="cls-6" d="M452.06,421.33a3.5,3.5,0,0,0,1.84-.05,8.42,8.42,0,0,0,1.9-.63,9.25,9.25,0,0,0,1.05-.59,2.22,2.22,0,0,0,.54-.44.79.79,0,0,0,.06-1,1,1,0,0,0-.79-.39,2.69,2.69,0,0,0-.69.11,6,6,0,0,0-1.13.42,6.18,6.18,0,0,0-1.67,1.15c-.83.81-1.11,1.48-1.05,1.51s.49-.51,1.34-1.18a7.37,7.37,0,0,1,1.62-1,7.46,7.46,0,0,1,1-.35c.39-.11.72-.12.82,0s.05.1,0,.21a2.42,2.42,0,0,1-.4.33,11,11,0,0,1-1,.57,10.4,10.4,0,0,1-1.76.72A12,12,0,0,0,452.06,421.33Z" transform="translate(-102.97 -26.67)"/><path class="cls-6" d="M452.3,421.58a3,3,0,0,0,.44-1.78,6.1,6.1,0,0,0-.29-2,6,6,0,0,0-.5-1.1,1.49,1.49,0,0,0-1.19-.9.84.84,0,0,0-.75.52,2.55,2.55,0,0,0-.18.68,3.94,3.94,0,0,0,0,1.24,4.19,4.19,0,0,0,.83,1.88c.73.93,1.49,1.13,1.5,1.07s-.57-.42-1.14-1.32a4.22,4.22,0,0,1-.62-1.72,3.43,3.43,0,0,1,0-1.06c.05-.39.19-.71.33-.67s.5.28.66.59a5.85,5.85,0,0,1,.47,1,6.52,6.52,0,0,1,.4,1.83C452.38,420.88,452.2,421.56,452.3,421.58Z" transform="translate(-102.97 -26.67)"/><path class="cls-6" d="M480,208.82s10.78,23.41,12.4,30.24,31.73,187.3,31.73,187.3L496.47,428,458.91,251.5,474,426.76,446.81,429s-20.57-185.2-19.7-190.43c1.31-7.89,8-30.59,8-30.59Z" transform="translate(-102.97 -26.67)"/><path class="cls-12" d="M458.68,250.36s0,.16-.22.3a.94.94,0,0,1-1.06-.1,2.38,2.38,0,0,1-.65-1.56l-.36-2.15c-.53-3.19-1.22-7.6-1.95-12.48s-1.36-9.3-1.79-12.5c-.19-1.53-.36-2.8-.48-3.8a6.38,6.38,0,0,1-.11-1.4,8.12,8.12,0,0,1,.31,1.37c.16,1,.38,2.26.64,3.77.53,3.19,1.22,7.61,1.94,12.48s1.37,9.3,1.8,12.5c.1.79.2,1.51.28,2.17a2.33,2.33,0,0,0,.5,1.45.85.85,0,0,0,.88.16C458.61,250.48,458.66,250.34,458.68,250.36Z" transform="translate(-102.97 -26.67)"/><path class="cls-12" d="M455.85,220.21s0-.16.27-.3a1.44,1.44,0,0,1,1.09-.17,1.47,1.47,0,0,1,1.16,1.2,1.74,1.74,0,0,1-.89,1.83,1.82,1.82,0,0,1-2-.34,1.67,1.67,0,0,1-.47-1.59c.24-1,.91-1.18.91-1.11a2.72,2.72,0,0,0-.55,1.17,1.3,1.3,0,0,0,.43,1.18,1.38,1.38,0,0,0,1.46.23,1.3,1.3,0,0,0,.65-1.3,1.09,1.09,0,0,0-.78-.91A1.91,1.91,0,0,0,455.85,220.21Z" transform="translate(-102.97 -26.67)"/><path class="cls-7" d="M408.24,105.42l-17-26.16h0l-5.15-8.61S384.6,62,383.86,59.58c-1.51-5-2-4.88-2.51-4.6-1.49.74,2.33,8.9.49,7.62s-3.5-10.52-5-9.68c-2,1.09,2.17,9.56,2.47,10.3s-.77,1.2-1,.51c-.34-1-4.11-11.23-6.07-10.18-1.08.58.15,2.43.15,2.43s4.24,9.33,3.3,9.8S372,60.86,371.27,59s-2-2.25-2.5-1.23c-.37.7,1.86,6.52,2.66,8.37s3.12,6.86,0,5.31-6.16-1.55-7-1a1.1,1.1,0,0,0,.77,1.93,13.27,13.27,0,0,1,3.41.93,8.48,8.48,0,0,1,2.44,1.45c.84.72,1.53,1.37,2.1,1.94l4.2,8.74h0L396,121.91l38.93,32.24,9.82-17.69Z" transform="translate(-102.97 -26.67)"/><path class="cls-7" d="M508.78,251.6c.25.77.51,1.67.76,2.75a8.48,8.48,0,0,1,.17,2.84,12.31,12.31,0,0,1-.74,3.46c-.47,1,.5,2,1.37,1.56s2.25-3.13,2.31-6.64,3.47.84,4.74,2.4,5.43,6.21,6.22,6.2c1.15,0,1.35-1.26,0-2.79s-4.89-6.39-4-7,7.2,7.42,7.2,7.42,1.08,1.94,2.1,1.24c1.83-1.26-5.56-9.31-6.28-10.06-.5-.52.41-1.24.92-.65s6.15,8.17,8,6.91c1.44-1-6-6.68-6.3-8.9s5.21,4.91,6.55,3.93c.49-.36.81-.7-2.94-4.34-1.82-1.76-8.8-7.09-8.8-7.09L505.3,194.21l-18.36.3Z" transform="translate(-102.97 -26.67)"/><path class="cls-9" d="M452,136.39h0a93,93,0,0,1-8.76-3.91L414.1,110.41l-13,17.36s33.23,30,33.78,29.84S452,136.39,452,136.39Z" transform="translate(-102.97 -26.67)"/><path class="cls-9" d="M454.19,136.31l-2.2.08a15.21,15.21,0,0,0-13.93,10.4c-2.22,6.68-2.09,8.87-3.63,13.85-3.68,11.93,2.93,26.39,2.93,26.39l-2.28,21,44.91.81,2.26-25.28,8.39-37.85s-1.87-8.12-9-8.77C477.94,136.58,454.19,136.31,454.19,136.31Z" transform="translate(-102.97 -26.67)"/><path class="cls-9" d="M483,137.57s10.64,0,13.88,12.22,9.69,44.54,9.69,44.54l-20.16,6.06L475.54,156.1a21.85,21.85,0,0,1-.87-7.75C475,143.93,476.67,138.17,483,137.57Z" transform="translate(-102.97 -26.67)"/><polygon class="cls-9" points="348.03 110.25 351.58 103.46 357.57 106.85 357.57 109.8 359.47 106.85 373.63 103.46 373.63 111.85 357.11 113.64 348.03 110.25"/><path class="cls-6" d="M439.91,147.25a8.15,8.15,0,0,1-.74,1.44c-.26.45-.57,1-.88,1.67s-.73,1.41-1.06,2.27a30,30,0,0,0-1.09,2.83c-.39,1-.68,2.15-1,3.33a47.24,47.24,0,0,0-1.25,7.85,45.83,45.83,0,0,0,.24,8c.18,1.21.32,2.36.57,3.42a29.6,29.6,0,0,0,.73,2.95c.22.9.52,1.68.75,2.38s.46,1.3.66,1.78a9.81,9.81,0,0,1,.56,1.52,11.1,11.1,0,0,1-.74-1.44,16,16,0,0,1-.75-1.76c-.26-.69-.59-1.47-.84-2.38s-.57-1.87-.79-2.95-.43-2.24-.63-3.46a40.74,40.74,0,0,1,1-16c.35-1.18.66-2.32,1.07-3.34a30.3,30.3,0,0,1,1.16-2.84c.36-.86.79-1.59,1.14-2.25a16.37,16.37,0,0,1,1-1.64A10.53,10.53,0,0,1,439.91,147.25Z" transform="translate(-102.97 -26.67)"/><path class="cls-6" d="M459.49,133a8.47,8.47,0,0,1-.53,2c-.39,1.25-1,3-1.62,4.84-.11.29-.21.59-.31.86l-.11.3-.27-.16a19.71,19.71,0,0,1-3.58-2.75,5.27,5.27,0,0,1-1.18-1.4,49.73,49.73,0,0,0,5,3.71l-.38.13.31-.86c.66-1.88,1.28-3.57,1.76-4.79A8.7,8.7,0,0,1,459.49,133Z" transform="translate(-102.97 -26.67)"/><path class="cls-6" d="M471.1,139.27a10.16,10.16,0,0,1-2.13.92c-1.34.5-3.21,1.17-5.29,1.88l-.3.1,0-.31,0-.26c-.33-2.23-.6-4.26-.76-5.74a11.22,11.22,0,0,1-.17-2.4,11.09,11.09,0,0,1,.53,2.35c.26,1.46.59,3.48.91,5.72l0,.25-.34-.21c2.09-.7,4-1.31,5.35-1.73A10.62,10.62,0,0,1,471.1,139.27Z" transform="translate(-102.97 -26.67)"/><path class="cls-6" d="M478.54,199.86a7.25,7.25,0,0,1,1.31,7.95,18.34,18.34,0,0,0,0-4.09A19.32,19.32,0,0,0,478.54,199.86Z" transform="translate(-102.97 -26.67)"/><path class="cls-13" d="M504.84,187.23a17,17,0,0,1-2.88.88c-1.8.46-4.31,1-7.09,1.56s-5.34.89-7.18,1.11a15.45,15.45,0,0,1-3,.22,20.25,20.25,0,0,1,2.95-.58c1.83-.31,4.36-.74,7.14-1.26s5.29-1,7.1-1.41A19.47,19.47,0,0,1,504.84,187.23Z" transform="translate(-102.97 -26.67)"/><path class="cls-13" d="M502.54,175a17.15,17.15,0,0,1-3,1.09c-1.86.59-4.46,1.29-7.34,2s-5.49,1.35-7.37,1.85a23.71,23.71,0,0,1-3.07.74,16,16,0,0,1,3-1.1c1.85-.59,4.46-1.28,7.34-2s5.49-1.35,7.37-1.85A21.14,21.14,0,0,1,502.54,175Z" transform="translate(-102.97 -26.67)"/><path class="cls-6" d="M486.37,200.39a6.06,6.06,0,0,1-.37-1.16l-.81-3.23c-.66-2.73-1.55-6.51-2.49-10.69s-1.77-8-2.34-10.73c-.26-1.3-.48-2.39-.65-3.27a6.16,6.16,0,0,1-.17-1.21,5.55,5.55,0,0,1,.37,1.16l.81,3.23c.66,2.73,1.55,6.51,2.49,10.7s1.77,8,2.34,10.73c.26,1.29.48,2.39.65,3.26A5.45,5.45,0,0,1,486.37,200.39Z" transform="translate(-102.97 -26.67)"/><path class="cls-13" d="M501.47,165.53c0,.15-15.07-.14-33.65-.64s-33.65-1-33.64-1.17,15.07.14,33.65.65S501.47,165.39,501.47,165.53Z" transform="translate(-102.97 -26.67)"/><path class="cls-13" d="M496.31,148.4a2.3,2.3,0,0,1-.58.09l-1.67.15c-1.46.11-3.56.26-6.17.41-5.21.32-12.41.66-20.37.87s-15.17.27-20.39.23c-2.61,0-4.72,0-6.17-.08l-1.68-.06a2.08,2.08,0,0,1-.59,0,2.08,2.08,0,0,1,.59-.05l1.68,0,6.17-.08c5.22-.07,12.42-.17,20.38-.39s15.15-.5,20.36-.71l6.17-.26,1.68-.05A2.65,2.65,0,0,1,496.31,148.4Z" transform="translate(-102.97 -26.67)"/><path class="cls-13" d="M424.3,149.17c-.11-.09,3.33-4.24,7.67-9.25s8-9,8.07-8.91-3.33,4.24-7.67,9.25S424.41,149.26,424.3,149.17Z" transform="translate(-102.97 -26.67)"/><path class="cls-13" d="M480.7,184.28c0,.14-10.28-.77-22.93-2s-22.9-2.4-22.89-2.54,10.28.76,22.94,2S480.71,184.13,480.7,184.28Z" transform="translate(-102.97 -26.67)"/><path class="cls-13" d="M481.21,198.12c0,.14-10,0-22.26-.25s-22.25-.62-22.25-.76,10,0,22.26.24S481.21,198,481.21,198.12Z" transform="translate(-102.97 -26.67)"/><path class="cls-6" d="M451,207.87a3.81,3.81,0,0,1,0-.74c0-.48,0-1.19,0-2.11,0-1.84.13-4.5.35-7.77.12-1.64.26-3.44.46-5.36s.49-4,.76-6.12c.54-4.3,1-9.05,1.5-14a204.76,204.76,0,0,1,3.65-25.4c.73-3.21,1.47-5.77,2-7.52.29-.83.52-1.49.69-2a4.16,4.16,0,0,1,.28-.69,5.33,5.33,0,0,1-.18.72c-.15.52-.34,1.19-.59,2-.5,1.76-1.19,4.33-1.87,7.53a230.36,230.36,0,0,0-3.49,25.38c-.5,5-1,9.74-1.54,14.05-.29,2.16-.59,4.19-.81,6.11s-.38,3.7-.52,5.33c-.27,3.27-.41,5.92-.52,7.76,0,.87-.08,1.57-.11,2.11A3.81,3.81,0,0,1,451,207.87Z" transform="translate(-102.97 -26.67)"/><rect class="cls-13" x="364.26" y="137.04" width="10.88" height="2.83"/><g class="cls-11"><path d="M479.84,172.33a22.09,22.09,0,0,0,.77,24.85q1-7,2-14" transform="translate(-102.97 -26.67)"/></g><path class="cls-6" d="M473.51,102.47c1.29,2.63.66,5.77-.27,8.55s-2.12,5.6-1.88,8.51c.22,2.72,1.68,5.21,1.94,7.91.45,4.57-2.47,8.7-3.67,13.13a18.09,18.09,0,0,0,3.95,16.49,2.1,2.1,0,0,0,1.5.89,1.58,1.58,0,0,0,1.37-1.35,7.27,7.27,0,0,0,0-2.08c-.56-6.54,5.73-11.78,6.65-18.28.6-4.22-1.15-8.41-1.41-12.67-.33-5.36,1.69-10.56,2.35-15.89a12.37,12.37,0,0,0-.31-5.45A5.65,5.65,0,0,0,480,98.45a3.73,3.73,0,0,0-4.46,2.2" transform="translate(-102.97 -26.67)"/><path class="cls-14" d="M352.46,142.53l-21.17,13.4,15-41.05,4.05-8.1c.54-.68,1.2-1.46,2-2.35a9,9,0,0,1,2.45-1.87,14.24,14.24,0,0,1,3.55-1.44,1.19,1.19,0,0,0,.58-2.18c-1-.5-4.18-.11-7.38,2s-1.35-3.63-.71-5.72,2.28-8.64,1.8-9.34c-.72-1-2-.46-2.54,1.64s-2.78,8.28-3.87,7.89,2.3-11,2.3-11,1.09-2.15-.15-2.64c-2.24-.88-5,10.64-5.23,11.75-.16.76-1.36.38-1.14-.43s3.61-10.49,1.34-11.41c-1.75-.71-2.36,9.46-4.17,11.07s1.25-7.66-.45-8.27c-.63-.22-1.13-.3-2.12,5.27-.48,2.71-1,12.22-1,12.22l-4.93,9.72.12.1L310.64,154.4c-3.87,10.22,2.44,18.49,8.78,22.22h0a17.83,17.83,0,0,0,19-.54l24.45-16.32Z" transform="translate(-102.97 -26.67)"/><path class="cls-12" d="M365.64,411l1.08,18.53s-18.47,7.31-18.6,10.76l36-.19-.51-29.55Z" transform="translate(-102.97 -26.67)"/><g class="cls-10"><path class="cls-4" d="M377.81,427.76a1.46,1.46,0,0,1,1.05,1.65,1.41,1.41,0,0,1-1.63,1.06,1.54,1.54,0,0,1-1.1-1.76,1.46,1.46,0,0,1,1.81-.91" transform="translate(-102.97 -26.67)"/></g><g class="cls-10"><path class="cls-4" d="M384.12,440.14l0-3-34.58,1.29s-1.59.73-1.38,1.86Z" transform="translate(-102.97 -26.67)"/></g><path class="cls-6" d="M366.13,429.4c0,.17.89.23,1.77.78s1.35,1.27,1.51,1.2-.12-1.08-1.2-1.73S366.09,429.24,366.13,429.4Z" transform="translate(-102.97 -26.67)"/><path class="cls-6" d="M362.39,431c0,.17.73.45,1.34,1.18s.81,1.52,1,1.5.27-1-.51-1.9S362.39,430.87,362.39,431Z" transform="translate(-102.97 -26.67)"/><path class="cls-6" d="M360.35,435.61c.16,0,.38-.85-.09-1.81s-1.3-1.31-1.38-1.16.45.65.83,1.44S360.17,435.59,360.35,435.61Z" transform="translate(-102.97 -26.67)"/><path class="cls-6" d="M366.35,425.15c.08.16.88-.1,1.87-.06s1.78.34,1.87.19-.67-.76-1.84-.8S366.26,425,366.35,425.15Z" transform="translate(-102.97 -26.67)"/><path class="cls-6" d="M366.2,421.41a3.48,3.48,0,0,0,1.8-.05,8.74,8.74,0,0,0,1.88-.62,8.21,8.21,0,0,0,1-.58,2.41,2.41,0,0,0,.54-.43.76.76,0,0,0,.05-.94,1,1,0,0,0-.77-.38,2.27,2.27,0,0,0-.68.1,6.9,6.9,0,0,0-1.11.41,6.53,6.53,0,0,0-1.64,1.13c-.82.79-1.09,1.46-1,1.49s.47-.5,1.31-1.16a6.87,6.87,0,0,1,1.58-.94,5.65,5.65,0,0,1,1-.34c.38-.11.7-.12.81,0s0,.09,0,.21a2,2,0,0,1-.39.32,10.55,10.55,0,0,1-.94.56,10.07,10.07,0,0,1-1.73.71A11.55,11.55,0,0,0,366.2,421.41Z" transform="translate(-102.97 -26.67)"/><path class="cls-6" d="M366.44,421.65a2.91,2.91,0,0,0,.43-1.75,5.66,5.66,0,0,0-.29-2,6,6,0,0,0-.48-1.08,1.49,1.49,0,0,0-1.17-.88.81.81,0,0,0-.74.52,2.22,2.22,0,0,0-.17.66,4.07,4.07,0,0,0,.84,3.06c.72.92,1.46,1.11,1.47,1.05s-.56-.42-1.12-1.3a4.17,4.17,0,0,1-.61-1.68,4,4,0,0,1,0-1c.05-.39.19-.7.33-.66s.49.27.64.57a5.39,5.39,0,0,1,.47,1,6.67,6.67,0,0,1,.39,1.79C366.51,421,366.34,421.63,366.44,421.65Z" transform="translate(-102.97 -26.67)"/><path class="cls-12" d="M427.93,410.78l1.41,18.5s-18.33,7.64-18.4,11.09l36-1.45L444,410.08Z" transform="translate(-102.97 -26.67)"/><g class="cls-10"><path class="cls-4" d="M440.4,427.27a1.47,1.47,0,0,1,1.08,1.63,1.41,1.41,0,0,1-1.61,1.09,1.55,1.55,0,0,1-1.14-1.74,1.46,1.46,0,0,1,1.8-.94" transform="translate(-102.97 -26.67)"/></g><g class="cls-10"><path class="cls-4" d="M446.9,438.92l-.21-2.91-34.41,2.48s-1.57.76-1.34,1.88Z" transform="translate(-102.97 -26.67)"/></g><path class="cls-6" d="M428.75,429.12c0,.17.89.22,1.78.75s1.37,1.25,1.53,1.17-.14-1.08-1.23-1.7S428.7,429,428.75,429.12Z" transform="translate(-102.97 -26.67)"/><path class="cls-6" d="M425,430.83c0,.17.74.44,1.36,1.16s.83,1.49,1,1.48.24-1-.55-1.89S425,430.66,425,430.83Z" transform="translate(-102.97 -26.67)"/><path class="cls-6" d="M423.08,435.43c.16,0,.37-.86-.12-1.8s-1.33-1.29-1.4-1.14.46.64.85,1.42S422.9,435.42,423.08,435.43Z" transform="translate(-102.97 -26.67)"/><path class="cls-6" d="M428.89,424.86c.08.16.88-.11,1.87-.09s1.79.31,1.87.16-.68-.75-1.86-.77S428.8,424.73,428.89,424.86Z" transform="translate(-102.97 -26.67)"/><path class="cls-6" d="M428.68,421.13a3.41,3.41,0,0,0,1.8-.09,7.69,7.69,0,0,0,1.86-.65,9.76,9.76,0,0,0,1-.59,2.08,2.08,0,0,0,.53-.45.75.75,0,0,0,0-.93.93.93,0,0,0-.78-.37,2.24,2.24,0,0,0-.68.12,6.49,6.49,0,0,0-2.72,1.58c-.8.81-1.06,1.48-1,1.51s.47-.51,1.29-1.19a6.85,6.85,0,0,1,2.59-1.33c.38-.11.7-.13.81,0s0,.09,0,.2a2,2,0,0,1-.39.33,9.44,9.44,0,0,1-.93.58,10.35,10.35,0,0,1-1.72.74A11.65,11.65,0,0,0,428.68,421.13Z" transform="translate(-102.97 -26.67)"/><path class="cls-6" d="M428.92,421.37a3,3,0,0,0,.4-1.76,5.88,5.88,0,0,0-.32-2,6.58,6.58,0,0,0-.51-1.08,1.49,1.49,0,0,0-1.18-.86.86.86,0,0,0-.74.53,2.64,2.64,0,0,0-.15.67,4,4,0,0,0,0,1.21,4.21,4.21,0,0,0,.85,1.83c.74.91,1.48,1.09,1.49,1s-.57-.41-1.14-1.28A4.29,4.29,0,0,1,427,418a3.62,3.62,0,0,1,0-1c0-.39.17-.7.32-.67s.49.27.65.57a5.71,5.71,0,0,1,.49.95,6.65,6.65,0,0,1,.42,1.79C429,420.68,428.82,421.35,428.92,421.37Z" transform="translate(-102.97 -26.67)"/><path class="cls-14" d="M398.3,97.36l-3.53,40.94-20.51-1.63c-.13-2.4,0-11.66,0-11.66s-8.53-1.33-8.64-9.86c-.05-4.14.55-12.71,1.17-20.42a15.79,15.79,0,0,1,16.66-14.49h0A15.8,15.8,0,0,1,398.3,97.36Z" transform="translate(-102.97 -26.67)"/><path class="cls-15" d="M374.29,124.89a19.88,19.88,0,0,0,11.12-3.17s-2.63,6.14-11.14,5.38Z" transform="translate(-102.97 -26.67)"/><path class="cls-6" d="M368.85,101.77c.14.17,1.1-.47,2.41-.4s2.23.77,2.38.62-.06-.37-.47-.69a3.36,3.36,0,0,0-1.9-.69,3.16,3.16,0,0,0-1.92.52C368.93,101.42,368.78,101.7,368.85,101.77Z" transform="translate(-102.97 -26.67)"/><path class="cls-6" d="M380.85,102c.16.16,1.06-.55,2.37-.59s2.29.59,2.43.43-.09-.36-.52-.65a3.43,3.43,0,0,0-1.95-.54,3.19,3.19,0,0,0-1.88.67C380.91,101.59,380.78,101.88,380.85,102Z" transform="translate(-102.97 -26.67)"/><path class="cls-6" d="M376.78,109.88a8.35,8.35,0,0,0-2.13-.39c-.34,0-.65-.1-.71-.32a1.72,1.72,0,0,1,.22-1q.48-1.22,1-2.55A44.8,44.8,0,0,0,377.38,99a43.29,43.29,0,0,0-2.76,6.47l-.95,2.56a2,2,0,0,0-.17,1.32.86.86,0,0,0,.55.49,2.51,2.51,0,0,0,.57.08A8.82,8.82,0,0,0,376.78,109.88Z" transform="translate(-102.97 -26.67)"/><path class="cls-6" d="M380.63,110.79c-.21,0-.21,1.41-1.43,2.42s-2.73.85-2.74,1.05.33.28,1,.29a3.57,3.57,0,0,0,2.3-.8,3.07,3.07,0,0,0,1.11-2C380.89,111.13,380.73,110.78,380.63,110.79Z" transform="translate(-102.97 -26.67)"/><path class="cls-6" d="M381.2,95.89c.13.35,1.44.19,3,.37s2.78.61,3,.29c.09-.16-.12-.49-.62-.84a5.27,5.27,0,0,0-4.55-.5C381.43,95.44,381.15,95.72,381.2,95.89Z" transform="translate(-102.97 -26.67)"/><path class="cls-6" d="M369.14,96.49c.26.34,1.3,0,2.55,0s2.3.23,2.55-.13c.1-.17-.06-.52-.52-.84a3.69,3.69,0,0,0-4.11.13C369.17,96,369,96.32,369.14,96.49Z" transform="translate(-102.97 -26.67)"/><path class="cls-6" d="M389,88l0,0a6.7,6.7,0,0,1,2.5,4.34l0,.17c.33,2.43.27,4.91.63,7.34a11.05,11.05,0,0,0,3,6.58c.74.69,2,1.16,2.65.35a2,2,0,0,0,.3-1.11c.46-5.88,2.06-11.09,2.05-17.23a5.16,5.16,0,0,0-2.15-4.22c-1.28-.92-2.85-1.88-4.28-1.2s-3.28,3.35-4.39,4.49" transform="translate(-102.97 -26.67)"/><path class="cls-14" d="M395.42,101.22c.15-.07,5.86-1.74,5.68,4.1s-6,4.44-6,4.27S395.42,101.22,395.42,101.22Z" transform="translate(-102.97 -26.67)"/><path class="cls-15" d="M396.94,107.44s.1.07.27.16a1,1,0,0,0,.76,0,2.52,2.52,0,0,0,1.23-2.22A3.35,3.35,0,0,0,399,104a1.21,1.21,0,0,0-.74-.8.52.52,0,0,0-.61.26c-.09.16-.05.28-.08.29s-.13-.1-.07-.34a.66.66,0,0,1,.24-.36.76.76,0,0,1,.57-.13,1.4,1.4,0,0,1,1,.94,3.33,3.33,0,0,1,.3,1.63,2.63,2.63,0,0,1-1.56,2.47,1.09,1.09,0,0,1-.93-.18C397,107.58,396.92,107.45,396.94,107.44Z" transform="translate(-102.97 -26.67)"/><path class="cls-6" d="M394,84c1.44-2.33-2.49-5.68-5.37-6.59s-6.67.5-9.54,1.45c-1.81.59-3.61,1.43-5.51,1.35a12.67,12.67,0,0,1-3.7-.94,9.44,9.44,0,0,0-3.73-.74,3.54,3.54,0,0,0-3.07,2,2.21,2.21,0,0,0,1.48,3,2.87,2.87,0,1,0-.77,5.31c-.83-.63-2.1.41-2,1.44a3,3,0,0,0,2,2.21,10.88,10.88,0,0,0,7.78-.12c2.52-.85,4.86-2.17,7.35-3.08s6.68-2.54,9.18-1.66c1.85.65,3.13,2.87,4.17,2.38a3.54,3.54,0,0,0,1.85-2.62A10.3,10.3,0,0,0,394,84" transform="translate(-102.97 -26.67)"/><path class="cls-12" d="M363.84,83.26c.05,0,.3.43.93,1.11A8,8,0,0,0,368,86.46a7.4,7.4,0,0,0,5.56-.23c2-.89,3.68-2.67,5.64-4.34a12.12,12.12,0,0,1,6.55-3.15,6.72,6.72,0,0,1,5.58,1.93,5.06,5.06,0,0,1,1.32,3.77,3.74,3.74,0,0,1-.25,1.07c-.1.23-.17.34-.19.34a9.14,9.14,0,0,0,.22-1.42A5,5,0,0,0,391,81a6.37,6.37,0,0,0-5.23-1.68,11.76,11.76,0,0,0-6.23,3.06c-1.92,1.64-3.67,3.46-5.79,4.38a7.92,7.92,0,0,1-9.19-2.19,6.46,6.46,0,0,1-.61-.91C363.88,83.39,363.82,83.27,363.84,83.26Z" transform="translate(-102.97 -26.67)"/><path class="cls-12" d="M396.91,101s-.26-.16-.48-.62a4,4,0,0,1-.29-2.11c.13-1.88,1.79-3.9,2-6.5a5.86,5.86,0,0,0-.65-3.48,4.46,4.46,0,0,0-2.17-1.87,3.83,3.83,0,0,0-1.94-.27c-.47.08-.72.19-.75.14a1.49,1.49,0,0,1,.7-.35,3.53,3.53,0,0,1,2.13.1A4.68,4.68,0,0,1,398,88a6.21,6.21,0,0,1,.76,3.81,10.47,10.47,0,0,1-1.13,3.67,11.48,11.48,0,0,0-1,2.82A4.39,4.39,0,0,0,396.91,101Z" transform="translate(-102.97 -26.67)"/><polygon class="cls-6" points="311.53 202.9 345.04 397.92 318.61 401.14 281.09 227.18 284.21 398.63 258.91 398.63 248.9 201.19 311.53 202.9"/><path class="cls-9" d="M354.35,167.5l-9.45,5.87-10.73-20.6c4.72-3.4,19.82-13.11,23.65-15.62a17.65,17.65,0,0,1,3-1.62,30.66,30.66,0,0,1,7.94-1.95c2.42-.33,4.26-.49,5.45-.64a35.16,35.16,0,0,0,21.17,0h0c.83,0,1.64.1,2.41.19h0c7.05,1,13.8,5.91,18,10.46l16.68,15-16.36,19.56-5.06-6,1.19,27.63,4.83,34.37H351.73s-.14-8.11.45-19.37c.84-15.83,1.67-40.47,1.67-40.47" transform="translate(-102.97 -26.67)"/><path class="cls-6" d="M353.71,184.87a32.51,32.51,0,0,0,.42-4.54c.18-2.81.44-6.68.79-11s.73-8.13,1-10.93a30.85,30.85,0,0,0,.33-4.55,25,25,0,0,0-.84,4.48c-.41,2.79-.87,6.66-1.23,10.94s-.52,8.18-.58,11A25.86,25.86,0,0,0,353.71,184.87Z" transform="translate(-102.97 -26.67)"/><path class="cls-6" d="M409.87,157.61a11.89,11.89,0,0,0-.16,3.13c0,1.93.11,4.6.33,7.54s.51,5.59.79,7.51a11.85,11.85,0,0,0,.63,3.07,15.54,15.54,0,0,0-.12-3.13c-.17-2.21-.36-4.73-.57-7.5s-.39-5.3-.55-7.51A14,14,0,0,0,409.87,157.61Z" transform="translate(-102.97 -26.67)"/><rect class="cls-13" x="290.61" y="134.21" width="10.88" height="2.83"/><path class="cls-13" d="M414.71,142.82a9.54,9.54,0,0,0-2.6-.37,12.5,12.5,0,0,0-6.65,2.43c-1.27.84-2.57,1.89-4,3a28.09,28.09,0,0,1-5,2.89,30.11,30.11,0,0,1-6.12,1.84,30.51,30.51,0,0,1-6.86.36,27.92,27.92,0,0,1-6.75-1.27,31.71,31.71,0,0,1-3.06-1.15,29.12,29.12,0,0,1-2.77-1.48c-3.55-2.1-5.9-5-8.39-6.73a10.14,10.14,0,0,0-6.67-2.17,7.8,7.8,0,0,0-2.52.71.53.53,0,0,1,.14-.11,2.41,2.41,0,0,1,.45-.25,5.84,5.84,0,0,1,1.91-.56,10.21,10.21,0,0,1,6.9,2.08c2.57,1.73,4.95,4.6,8.43,6.62a27,27,0,0,0,2.73,1.43,25.59,25.59,0,0,0,3,1.12,27.42,27.42,0,0,0,6.62,1.24,30.56,30.56,0,0,0,6.74-.35,29.29,29.29,0,0,0,6-1.77,28,28,0,0,0,5-2.81c1.46-1,2.78-2.08,4.08-2.91a12.31,12.31,0,0,1,6.85-2.32,6.28,6.28,0,0,1,2,.31,2.6,2.6,0,0,1,.48.18C414.66,142.78,414.71,142.81,414.71,142.82Z" transform="translate(-102.97 -26.67)"/><path class="cls-13" d="M354.45,163.85c-.08.06-.72-.86-2-2a16.06,16.06,0,0,0-2.5-1.82,18.61,18.61,0,0,0-3.45-1.55,18.26,18.26,0,0,0-3.71-.73,17.24,17.24,0,0,0-3.1.06c-1.75.2-2.8.58-2.84.48a2.78,2.78,0,0,1,.72-.32,10.47,10.47,0,0,1,2.07-.53,14.37,14.37,0,0,1,3.18-.16,16.89,16.89,0,0,1,3.84.7,16.53,16.53,0,0,1,3.54,1.64,14.32,14.32,0,0,1,2.5,2,9.27,9.27,0,0,1,.83.9,5.52,5.52,0,0,1,.56.73C354.34,163.59,354.48,163.83,354.45,163.85Z" transform="translate(-102.97 -26.67)"/><path class="cls-13" d="M409.65,173.48a2.49,2.49,0,0,1-.5.3l-1.5.79-1.08.55c-.41.19-.86.37-1.34.57-1,.39-2,.9-3.29,1.28l-2,.66c-.68.22-1.41.38-2.15.58-1.49.43-3.11.7-4.82,1a55.72,55.72,0,0,1-22.42-.9c-1.68-.46-3.28-.86-4.72-1.41-.73-.26-1.44-.48-2.1-.76l-1.9-.81c-1.22-.48-2.25-1.07-3.18-1.54-.46-.24-.9-.45-1.29-.67l-1-.64-1.43-.9a3.19,3.19,0,0,1-.48-.34,2.18,2.18,0,0,1,.53.25l1.48.81,1,.6c.4.21.84.41,1.3.64.94.44,2,1,3.2,1.46l1.89.77c.66.26,1.37.47,2.1.72,1.44.53,3,.91,4.69,1.35a57.06,57.06,0,0,0,22.24.89c1.69-.31,3.31-.56,4.78-1,.74-.19,1.47-.34,2.15-.55l1.95-.62c1.25-.36,2.33-.84,3.3-1.2.48-.19.94-.35,1.35-.53l1.1-.51,1.53-.69A2.37,2.37,0,0,1,409.65,173.48Z" transform="translate(-102.97 -26.67)"/><path class="cls-13" d="M427.51,156.65a24,24,0,0,0-3-.25,15,15,0,0,0-7,2.09,33.9,33.9,0,0,0-5.84,4.52,20.65,20.65,0,0,1-2.31,2.06,16.31,16.31,0,0,1,2.06-2.32,28,28,0,0,1,5.83-4.71,14.09,14.09,0,0,1,7.21-2,9.39,9.39,0,0,1,2.26.32A2.07,2.07,0,0,1,427.51,156.65Z" transform="translate(-102.97 -26.67)"/><path class="cls-13" d="M411,194.55a2.93,2.93,0,0,1-.54.28l-1.58.7c-.68.31-1.53.67-2.54,1s-2.13.82-3.43,1.18l-2,.61c-.71.21-1.45.37-2.22.56-1.53.42-3.19.7-4.94,1a72.2,72.2,0,0,1-23,.19c-1.76-.31-3.43-.57-5-.95-.77-.18-1.52-.33-2.23-.53l-2-.58c-1.3-.34-2.43-.77-3.44-1.12s-1.87-.67-2.56-1l-1.59-.68a2.63,2.63,0,0,1-.54-.27,2.21,2.21,0,0,1,.58.17l1.62.59c.7.27,1.56.58,2.58.89s2.16.72,3.46,1l2,.54c.71.19,1.46.32,2.22.5,1.53.36,3.19.6,4.94.89a80,80,0,0,0,11.45.79,81.59,81.59,0,0,0,11.44-1c1.74-.32,3.4-.58,4.92-1,.76-.18,1.51-.33,2.21-.53l2-.57c1.29-.34,2.42-.77,3.43-1.1s1.87-.66,2.57-.94l1.61-.61A2.6,2.6,0,0,1,411,194.55Z" transform="translate(-102.97 -26.67)"/><path class="cls-13" d="M414.73,220.8a3.84,3.84,0,0,1-.64-.05l-1.8-.23c-1.57-.21-3.83-.49-6.64-.78s-6.16-.55-9.88-.73-7.83-.24-12.13-.16-8.4.37-12.11.69-7,.76-9.84,1.18-5.05.78-6.6,1.07l-1.79.31a3,3,0,0,1-.64.07,2.85,2.85,0,0,1,.62-.18l1.77-.4c1.54-.35,3.79-.78,6.58-1.24s6.13-.91,9.85-1.29,7.83-.62,12.15-.73,8.43,0,12.16.2,7.09.5,9.9.85,5.07.66,6.63.94l1.79.33A2.73,2.73,0,0,1,414.73,220.8Z" transform="translate(-102.97 -26.67)"/><path class="cls-14" d="M436.4,195.82l1-9.17a38.79,38.79,0,0,1-3.33-25l-2.41-2.16-13.47,16.17,18.23,20.13" transform="translate(-102.97 -26.67)"/><path class="cls-6" d="M185,84.06A18.91,18.91,0,0,0,166.44,99.2c-.77,4.44.06,9.26-2,13.28-2.72,5.32-9.82,7.76-11.42,13.52-1.33,4.81,1.83,10,.48,14.84-1,3.47-4.1,5.92-5.61,9.19a10.46,10.46,0,0,0,.69,10,9.5,9.5,0,0,0,9,4.12c2.2-.32,4.18-1.43,6.29-2.12,4.55-1.49,9.49-.95,14.23-.28s9.61,1.42,14.27.33,9.13-4.56,9.83-9.29c.45-3.08-.72-6.13-1.66-9.09-6.21-19.55-3.34-40.87-7.75-60.91" transform="translate(-102.97 -26.67)"/><path class="cls-6" d="M167.6,102.07A20.41,20.41,0,0,0,163.43,98a7.86,7.86,0,0,0-5.53-1.44,4.93,4.93,0,0,0-4.09,3.67,3.62,3.62,0,0,0,3,4.23,2.83,2.83,0,0,0-3.77,2.12,3.9,3.9,0,0,0,2.38,4,6.39,6.39,0,0,0,4.89-.14,18.78,18.78,0,0,0,4.25-2.65l4.54-3.42" transform="translate(-102.97 -26.67)"/><path class="cls-12" d="M151.92,158.9a2.64,2.64,0,0,1-.78-.36,4.15,4.15,0,0,1-1.51-1.94,5.81,5.81,0,0,1-.1-3.9,12.18,12.18,0,0,1,2.82-4.34,29,29,0,0,0,4-4.72,9.18,9.18,0,0,0,.75-6.78c-.45-2.44-1.45-5-1.43-7.81a7.6,7.6,0,0,1,1.22-4.08,10.66,10.66,0,0,1,3.22-3c2.5-1.59,5.25-2.46,7.46-4a9,9,0,0,0,2.72-2.79,10.18,10.18,0,0,0,1.25-3.55,61.19,61.19,0,0,0,.46-7.1,25.51,25.51,0,0,1,1.07-6.18,13.44,13.44,0,0,1,5.19-7.3,9.1,9.1,0,0,1,2.2-1.09,6.33,6.33,0,0,1,.62-.18.83.83,0,0,1,.22,0,12.18,12.18,0,0,0-2.93,1.48,13.43,13.43,0,0,0-4.95,7.24,25.36,25.36,0,0,0-1,6.09,63.34,63.34,0,0,1-.42,7.17,10.88,10.88,0,0,1-1.3,3.72,9.57,9.57,0,0,1-2.86,3c-2.29,1.62-5.06,2.49-7.47,4a10.1,10.1,0,0,0-3.06,2.82,7,7,0,0,0-1.15,3.81c0,2.7.94,5.22,1.39,7.71a12.75,12.75,0,0,1,.25,3.73,7.81,7.81,0,0,1-1.1,3.36,28.89,28.89,0,0,1-4.08,4.75,12.06,12.06,0,0,0-2.81,4.19,5.61,5.61,0,0,0,0,3.72,4.21,4.21,0,0,0,1.39,1.94C151.65,158.78,151.93,158.87,151.92,158.9Z" transform="translate(-102.97 -26.67)"/><path class="cls-12" d="M165.94,108.28a17.33,17.33,0,0,0,.88-3.88,16.89,16.89,0,0,0-.54-3.93,6.82,6.82,0,0,1-.34,7.81Z" transform="translate(-102.97 -26.67)"/><path class="cls-12" d="M171.15,140.72a2.21,2.21,0,0,1-.37-.39A5.23,5.23,0,0,1,170,139a8.38,8.38,0,0,1,.08-5.57c.67-2.33,2.47-4.6,4.23-7.13a17.82,17.82,0,0,0,2.29-4.22,16.22,16.22,0,0,0,.82-5.07c.06-3.56-.63-6.94-.83-10.07a18.37,18.37,0,0,1,.95-8.23,10.3,10.3,0,0,1,3.3-4.51,8.1,8.1,0,0,1,1.32-.78,2.72,2.72,0,0,1,.5-.18c0,.06-.68.31-1.69,1.12a10.45,10.45,0,0,0-3.08,4.48,18.31,18.31,0,0,0-.82,8.07c.22,3.08.93,6.47.87,10.11a16.48,16.48,0,0,1-.86,5.23,18.53,18.53,0,0,1-2.37,4.33c-1.81,2.54-3.59,4.73-4.28,7a8.42,8.42,0,0,0-.24,5.38A8.6,8.6,0,0,0,171.15,140.72Z" transform="translate(-102.97 -26.67)"/><path class="cls-6" d="M144.74,142.78a4.72,4.72,0,0,1,.29.46,3,3,0,0,0,1.14,1,4.24,4.24,0,0,0,2.34.48,4.08,4.08,0,0,0,2.78-1.39,6.64,6.64,0,0,0,1.56-3.51,11.58,11.58,0,0,0-.37-4.47c-.38-1.56-1-3.15-1.43-4.87a12.23,12.23,0,0,1-.41-5.51,10.26,10.26,0,0,1,2.57-4.9,24.16,24.16,0,0,1,3.87-3.38c1.31-1,2.62-1.78,3.77-2.63a26.32,26.32,0,0,0,3.05-2.55,11.35,11.35,0,0,0,3.08-4.77,15.86,15.86,0,0,0,.39-2.07,6,6,0,0,1-.19,2.13,11.35,11.35,0,0,1-3,5,25.65,25.65,0,0,1-3,2.64c-1.16.87-2.46,1.71-3.75,2.67a24.31,24.31,0,0,0-3.77,3.32,9.94,9.94,0,0,0-2.44,4.66,11.93,11.93,0,0,0,.39,5.29c.45,1.69,1,3.29,1.41,4.89a11.78,11.78,0,0,1,.32,4.65,6.89,6.89,0,0,1-1.71,3.69,4.44,4.44,0,0,1-5.49.84,3.07,3.07,0,0,1-1.13-1.14,2.54,2.54,0,0,1-.17-.38C144.74,142.83,144.73,142.78,144.74,142.78Z" transform="translate(-102.97 -26.67)"/><path class="cls-6" d="M208.09,93.6c.76,5.16,2.16,10.27,4.38,13.46,1.8,2.57,5.29,4,5.82,7.14.44,2.6-1.11,5.19-.86,7.82.4,4.14,5,6.66,6.26,10.62,1.07,3.29-.41,7-2.92,9.39s-5.87,3.66-9.21,4.55c-4.77,1.29-10.56,1.68-14-1.88-2.35-2.44-2.88-6.07-3.17-9.44-.8-9-.77-18.1-.74-27.16" transform="translate(-102.97 -26.67)"/><path class="cls-16" d="M176.9,102.29a15.53,15.53,0,0,1,14-17.4c8.28-.79,15.64,5.38,16.88,13.6,1.09,7.21,2,14.49,2,17.13-.1,8-4.77,11.08-6.66,12a10.58,10.58,0,0,1-2.1.52h0s-.05,0,0,.06l1.77,9.15c.8,6-2.54,11.35-8.53,12.22s-10.7-3.73-11.62-9.73Z" transform="translate(-102.97 -26.67)"/><path class="cls-6" d="M206.14,102c-.13.18-1.18-.38-2.53-.18s-2.24,1-2.41.87,0-.38.42-.75a3.46,3.46,0,0,1,1.9-.91,3.28,3.28,0,0,1,2,.35C206,101.62,206.21,101.89,206.14,102Z" transform="translate(-102.97 -26.67)"/><path class="cls-6" d="M194,104.35c-.13.19-1.18-.37-2.53-.17s-2.24,1-2.41.87,0-.38.42-.76a3.49,3.49,0,0,1,1.9-.9,3.28,3.28,0,0,1,2,.35C193.86,104,194.05,104.27,194,104.35Z" transform="translate(-102.97 -26.67)"/><path class="cls-6" d="M199,112.13a9.36,9.36,0,0,1,2.13-.71c.34-.09.66-.2.68-.45a1.72,1.72,0,0,0-.38-1l-1.4-2.47a45.84,45.84,0,0,1-3.29-6.53,45.67,45.67,0,0,1,3.81,6.25l1.36,2.5a2,2,0,0,1,.38,1.32.91.91,0,0,1-.5.59,2.56,2.56,0,0,1-.57.17A8.6,8.6,0,0,1,199,112.13Z" transform="translate(-102.97 -26.67)"/><path class="cls-14" d="M200.92,128.16s-5.15,1.19-12.24-1.78c0,0,3.06,6.59,12.72,4.25Z" transform="translate(-102.97 -26.67)"/><path class="cls-14" d="M198.93,115.47a2.47,2.47,0,0,0-2.31-.59,2.22,2.22,0,0,0-1.41,1.05,1.41,1.41,0,0,0,.12,1.62,1.65,1.65,0,0,0,1.84.19,5.09,5.09,0,0,0,1.57-1.28,1.58,1.58,0,0,0,.33-.45.45.45,0,0,0-.08-.51" transform="translate(-102.97 -26.67)"/><path class="cls-6" d="M195.19,113.64c.22,0,.44,1.42,1.84,2.28s2.94.47,3,.67-.3.34-1,.45a3.64,3.64,0,0,1-2.48-.48,3.16,3.16,0,0,1-1.44-1.92C195,114,195.09,113.65,195.19,113.64Z" transform="translate(-102.97 -26.67)"/><path class="cls-6" d="M193.28,100.5c-.07.39-1.45.41-3,.83s-2.78,1-3,.74c-.12-.14.05-.52.52-.95a5.09,5.09,0,0,1,2.16-1.13,5.24,5.24,0,0,1,2.44-.07C193,100.07,193.32,100.32,193.28,100.5Z" transform="translate(-102.97 -26.67)"/><path class="cls-6" d="M205,98.26c-.19.34-1.17.16-2.29.3s-2,.51-2.3.22c-.11-.14,0-.47.36-.82a3.35,3.35,0,0,1,3.7-.42C204.91,97.8,205.08,98.09,205,98.26Z" transform="translate(-102.97 -26.67)"/><path class="cls-6" d="M203.79,103.11a1.26,1.26,0,0,0,1,1.43,1.19,1.19,0,0,0,1.44-.94,1.26,1.26,0,0,0-1-1.43A1.22,1.22,0,0,0,203.79,103.11Z" transform="translate(-102.97 -26.67)"/><path class="cls-6" d="M191.44,105.42a1.27,1.27,0,0,0,1,1.43,1.21,1.21,0,0,0,1.45-.94,1.26,1.26,0,0,0-1-1.43A1.21,1.21,0,0,0,191.44,105.42Z" transform="translate(-102.97 -26.67)"/><path class="cls-16" d="M177.77,140.14l30.32-5.87-.87,16.89s-13.48,4.19-14,4.45-9.33,0-9.33,0Z" transform="translate(-102.97 -26.67)"/><path class="cls-16" d="M144.17,254.93c-.23.77-.47,1.68-.71,2.76a8.46,8.46,0,0,0-.13,2.84,12.88,12.88,0,0,0,.8,3.45c.49,1-.46,2-1.34,1.58s-2.3-3.1-2.42-6.6-3.46.89-4.7,2.47-5.33,6.31-6.11,6.31c-1.16,0-1.38-1.24-.1-2.79s4.78-6.48,3.92-7.09-7.08,7.54-7.08,7.54-1,2-2.07,1.27c-1.86-1.22,5.4-9.39,6.1-10.15.5-.53-.42-1.24-.92-.64s-6,8.27-7.91,7c-1.46-.94,5.9-6.78,6.16-9s-5.13,5-6.49,4c-.5-.35-.83-.69,2.87-4.38,1.79-1.8,8.68-7.23,8.68-7.23l14-48.86h18.36Z" transform="translate(-102.97 -26.67)"/><path class="cls-16" d="M233.34,127.14s26.15-10.41,30.3-13.62,30.25-26.68,30.25-26.68l3.47-2.91c.43-.68.91-1.49,1.44-2.47a8.28,8.28,0,0,0,.89-2.69,12.49,12.49,0,0,0,.18-3.54,1.1,1.1,0,0,1,1.73-1.15c.72.67,1.36,3.61.52,7s3.56.09,5.19-1.09,6.85-4.6,7.61-4.39c1.11.31,1,1.56-.67,2.71s-6.38,4.91-5.71,5.74,8.87-5.31,8.87-5.31,1.54-1.59,2.34-.66c1.45,1.69-7.76,7.56-8.65,8.1-.62.37.07,1.3.71.86s8.05-6.3,9.54-4.6c1.14,1.31-7.53,4.9-8.39,7s6.3-3.4,7.34-2.11c.39.49.61.9-4,3.44C314.13,92,306,95.33,306,95.33l-.86.89-34.77,36.05L238.46,145Z" transform="translate(-102.97 -26.67)"/><path class="cls-9" d="M135.57,401.44l-5.12,23.16-9.34,17.14a2.44,2.44,0,0,0,1.12,3.37h0a2.44,2.44,0,0,0,2.23-.1c4.34-2.51,20.26-11.82,20.54-13.53.33-2,7-24.07,7-24.07Z" transform="translate(-102.97 -26.67)"/><g class="cls-10"><path class="cls-4" d="M122.23,445.11l23.15-15.19-.24,1a3.66,3.66,0,0,1-1.4,2.1c-1.89,1.36-7.17,5-19.21,12a2.44,2.44,0,0,1-2.3.08Z" transform="translate(-102.97 -26.67)"/></g><g class="cls-10"><path class="cls-4" d="M142.48,421.34a1.46,1.46,0,0,0-.85,1.76,1.41,1.41,0,0,0,1.75.86,1.55,1.55,0,0,0,.89-1.88,1.48,1.48,0,0,0-1.92-.69" transform="translate(-102.97 -26.67)"/></g><path class="cls-6" d="M130,436.34a5.25,5.25,0,0,0-4.11-3.45c0-.06.33-.16.89-.11a3.78,3.78,0,0,1,2,.87,3.74,3.74,0,0,1,1.2,1.8C130.08,436,130,436.33,130,436.34Z" transform="translate(-102.97 -26.67)"/><path class="cls-6" d="M127.57,439c-.13.07-.69-.86-1.8-1.49a18.71,18.71,0,0,0-2.17-.84,2.67,2.67,0,0,1,2.44.39C127.3,437.81,127.71,439,127.57,439Z" transform="translate(-102.97 -26.67)"/><path class="cls-6" d="M134,433.14a22.46,22.46,0,0,0-2.62-2.49,25.76,25.76,0,0,0-3.22-1.64,6.65,6.65,0,0,1,5.84,4.13Z" transform="translate(-102.97 -26.67)"/><path class="cls-6" d="M136.14,426.23c-.1.12-1.24-.72-2.88-1.19s-3-.39-3.07-.55a4.79,4.79,0,0,1,3.21.05A4.71,4.71,0,0,1,136.14,426.23Z" transform="translate(-102.97 -26.67)"/><path class="cls-6" d="M137.81,419.47a11.42,11.42,0,0,0-3-1.32,11.82,11.82,0,0,0-3.24,0c0-.06.29-.28.9-.46a5.29,5.29,0,0,1,4.66,1C137.65,419.09,137.86,419.43,137.81,419.47Z" transform="translate(-102.97 -26.67)"/><path class="cls-6" d="M135.2,416.88a2.09,2.09,0,0,1,.19-.88,6,6,0,0,1,1.25-2.11,2.72,2.72,0,0,1,1.46-1,1,1,0,0,1,1,.47,1.59,1.59,0,0,1,.11,1.13,3.43,3.43,0,0,1-3.68,2.37,4,4,0,0,1-3.3-3,1.34,1.34,0,0,1,.21-1.13,1,1,0,0,1,1.09-.25,3.31,3.31,0,0,1,1.32,1.16,6.92,6.92,0,0,1,1.14,2.17,2.12,2.12,0,0,1,.16.88,11.62,11.62,0,0,0-1.58-2.82,3.21,3.21,0,0,0-1.18-1,.53.53,0,0,0-.6.14,1,1,0,0,0-.09.75,3.56,3.56,0,0,0,2.89,2.53,3,3,0,0,0,3.15-2,1.14,1.14,0,0,0,0-.8.54.54,0,0,0-.56-.27,2.49,2.49,0,0,0-1.25.83A9.14,9.14,0,0,0,135.2,416.88Z" transform="translate(-102.97 -26.67)"/><path class="cls-9" d="M207.75,410l-.7,18.54s18.61,6.94,18.81,10.38l-36-.07-.09-28.93Z" transform="translate(-102.97 -26.67)"/><g class="cls-10"><path class="cls-4" d="M195.92,426.93a1.47,1.47,0,0,0-1,1.68,1.41,1.41,0,0,0,1.65,1,1.55,1.55,0,0,0,1.07-1.78,1.48,1.48,0,0,0-1.84-.88" transform="translate(-102.97 -26.67)"/></g><g class="cls-10"><path class="cls-4" d="M189.86,438.82l.11-2.92,34.47,1.16s1.6.7,1.42,1.83Z" transform="translate(-102.97 -26.67)"/></g><path class="cls-6" d="M207.63,428.33c0,.18-.89.25-1.75.82s-1.33,1.3-1.49,1.23.1-1.09,1.16-1.75S207.67,428.17,207.63,428.33Z" transform="translate(-102.97 -26.67)"/><path class="cls-6" d="M211.4,429.9c0,.17-.72.47-1.32,1.21s-.77,1.53-1,1.52-.28-1,.48-1.91S211.4,429.73,211.4,429.9Z" transform="translate(-102.97 -26.67)"/><path class="cls-6" d="M213.54,434.42c-.16,0-.4-.84.05-1.8s1.27-1.34,1.35-1.2-.44.66-.8,1.46S213.71,434.4,213.54,434.42Z" transform="translate(-102.97 -26.67)"/><path class="cls-6" d="M207.32,424.09c-.07.16-.88-.09-1.87,0s-1.77.38-1.86.22.65-.77,1.82-.83S207.41,424,207.32,424.09Z" transform="translate(-102.97 -26.67)"/><g class="cls-11"><polygon points="104.63 386.97 104.51 390.28 86.82 390.08 86.8 387.1 104.63 386.97"/></g><path class="cls-6" d="M207.39,420.34a3.28,3.28,0,0,1-1.8,0,8.43,8.43,0,0,1-1.88-.58,9.54,9.54,0,0,1-1-.55,2.41,2.41,0,0,1-.54-.43.75.75,0,0,1-.08-.93.93.93,0,0,1,.77-.4,2.29,2.29,0,0,1,.68.09,6.42,6.42,0,0,1,1.12.39,6.54,6.54,0,0,1,1.66,1.09c.83.78,1.11,1.43,1.05,1.47s-.48-.5-1.33-1.14a7.34,7.34,0,0,0-2.64-1.23c-.38-.1-.71-.1-.8.07s0,.09,0,.2a1.54,1.54,0,0,0,.4.31,8.33,8.33,0,0,0,.95.55,10.2,10.2,0,0,0,1.74.67A13.35,13.35,0,0,1,207.39,420.34Z" transform="translate(-102.97 -26.67)"/><path class="cls-6" d="M207.16,420.6a2.94,2.94,0,0,1-.47-1.75,5.78,5.78,0,0,1,.25-2,6.34,6.34,0,0,1,.46-1.09,1.48,1.48,0,0,1,1.16-.91.84.84,0,0,1,.75.5,2.34,2.34,0,0,1,.18.66,3.84,3.84,0,0,1,0,1.22,4.17,4.17,0,0,1-.77,1.86c-.71.93-1.44,1.14-1.46,1.08s.56-.43,1.1-1.32a4.26,4.26,0,0,0,.57-1.7,3.66,3.66,0,0,0,0-1c-.06-.38-.2-.69-.34-.65s-.49.28-.63.59a5.06,5.06,0,0,0-.45,1,6.13,6.13,0,0,0-.35,1.79C207.07,419.91,207.26,420.57,207.16,420.6Z" transform="translate(-102.97 -26.67)"/><path class="cls-6" d="M172.62,206.41s-11.38,18-13,24.87c-1.47,6.17-26.37,140.24-31.52,168a5.67,5.67,0,0,0,3.95,6.47l22.52,6.77a5.69,5.69,0,0,0,7.19-4.25l27.77-129.9-8.13,128.7a6.58,6.58,0,0,0,6.77,7l22.07-.68a6.57,6.57,0,0,0,6.37-6.17c1.92-31,10.54-172,8.81-176.41-2-5-7.06-22.25-7.06-22.25Z" transform="translate(-102.97 -26.67)"/><path class="cls-12" d="M163.61,401.93a7.63,7.63,0,0,1-1.37-.18c-.89-.14-2.16-.37-3.72-.69-3.13-.65-7.43-1.66-12.11-3s-8.85-2.82-11.83-4c-1.49-.57-2.69-1.05-3.51-1.4a6.56,6.56,0,0,1-1.26-.6,7.82,7.82,0,0,1,1.33.41l3.56,1.25c3,1.05,7.19,2.44,11.86,3.8s8.94,2.42,12,3.16l3.68.86A6.22,6.22,0,0,1,163.61,401.93Z" transform="translate(-102.97 -26.67)"/><path class="cls-12" d="M135.69,393.7a4.88,4.88,0,0,1-1.24-5.28c.15,0,0,1.26.33,2.71S135.82,393.61,135.69,393.7Z" transform="translate(-102.97 -26.67)"/><path class="cls-12" d="M138.47,388.92a4.78,4.78,0,0,1-.27,2.66A4.72,4.72,0,0,1,137,394a13.4,13.4,0,0,1,.74-2.52A13.21,13.21,0,0,1,138.47,388.92Z" transform="translate(-102.97 -26.67)"/><path class="cls-12" d="M209.13,395.7a5.88,5.88,0,0,1,.64,2.34,5.76,5.76,0,0,1,.13,2.43,5.81,5.81,0,0,1-.64-2.34A6,6,0,0,1,209.13,395.7Z" transform="translate(-102.97 -26.67)"/><path class="cls-12" d="M211.81,394.45a12,12,0,0,1-.07,5,6.36,6.36,0,0,1-.22-2.51A6.45,6.45,0,0,1,211.81,394.45Z" transform="translate(-102.97 -26.67)"/><path class="cls-12" d="M199.41,212.68a3.53,3.53,0,0,1,0,.71c0,.52,0,1.19-.07,2-.08,1.76-.23,4.3-.46,7.44-.46,6.28-1.31,14.94-2.71,24.45s-3,18.05-4.32,24.21c-.64,3.09-1.18,5.57-1.58,7.29-.19.81-.35,1.47-.47,2a4.55,4.55,0,0,1-.19.68,3.09,3.09,0,0,1,.09-.7c.1-.51.22-1.17.37-2,.35-1.79.83-4.27,1.42-7.32,1.19-6.18,2.77-14.72,4.17-24.22s2.3-18.14,2.86-24.4c.25-3.09.46-5.61.61-7.43.08-.83.13-1.5.18-2A4.38,4.38,0,0,1,199.41,212.68Z" transform="translate(-102.97 -26.67)"/><path class="cls-12" d="M219.5,212.66a1.65,1.65,0,0,1-.5.06l-1.45.07c-1.26.06-3.07.11-5.32.14-4.5.08-10.71.07-17.56-.12s-13.06-.54-17.55-.86c-2.24-.16-4.05-.31-5.3-.44l-1.44-.15a1.71,1.71,0,0,1-.5-.09,2.52,2.52,0,0,1,.51,0l1.44.05,5.32.27c4.48.23,10.68.52,17.53.71s13,.25,17.55.27l5.32,0,1.44,0A1.88,1.88,0,0,1,219.5,212.66Z" transform="translate(-102.97 -26.67)"/><path class="cls-12" d="M203.23,212.44a10.2,10.2,0,0,1,0,1.7c0,1.18-.09,2.75-.15,4.63-.15,3.91-.4,9.31-.7,15.26-.16,3-.27,5.82-.47,8.41a16.5,16.5,0,0,1-1.75,6.68,8.7,8.7,0,0,1-3.2,3.37,5.8,5.8,0,0,1-1.17.52c-.28.08-.42.11-.43.09a15.44,15.44,0,0,0,1.49-.78,8.94,8.94,0,0,0,3-3.38,16.41,16.41,0,0,0,1.6-6.54c.17-2.56.27-5.41.43-8.39.3-6,.61-11.35.85-15.26.13-1.88.24-3.44.32-4.62A11.29,11.29,0,0,1,203.23,212.44Z" transform="translate(-102.97 -26.67)"/><path class="cls-12" d="M177.52,223.54a4.31,4.31,0,0,1,0,1.16,16.53,16.53,0,0,1-.56,3.11,18.87,18.87,0,0,1-14.56,13.6,16.57,16.57,0,0,1-3.14.34,4.62,4.62,0,0,1-1.16-.07c0-.11,1.66,0,4.22-.63a19.44,19.44,0,0,0,14.29-13.34A41.62,41.62,0,0,0,177.52,223.54Z" transform="translate(-102.97 -26.67)"/><path class="cls-12" d="M225.25,242.37a2.68,2.68,0,0,1-.79-.2,12.08,12.08,0,0,1-2-.89,17,17,0,0,1-2.73-1.82,17.8,17.8,0,0,1-4.89-6.35,17.11,17.11,0,0,1-1.06-3.11,12.71,12.71,0,0,1-.34-2.19,2.22,2.22,0,0,1,0-.81c.1,0,.18,1.14.68,2.9a18.88,18.88,0,0,0,1.14,3,21,21,0,0,0,2.06,3.34,21.24,21.24,0,0,0,2.71,2.85,18.54,18.54,0,0,0,2.6,1.87C224.19,241.9,225.28,242.27,225.25,242.37Z" transform="translate(-102.97 -26.67)"/><path class="cls-12" d="M185.2,226.82s0,.15,0,.45-.1.75-.17,1.31c-.16,1.18-.4,2.87-.69,5-.61,4.38-1.55,10.7-2.78,18.49-2.46,15.59-6.2,37.08-11.06,60.68s-9.92,44.82-13.82,60.11c-2,7.65-3.58,13.82-4.76,18.08-.58,2.1-1,3.75-1.35,4.9l-.37,1.27c-.09.28-.14.42-.14.42s0-.15.09-.44.18-.74.31-1.28c.3-1.15.72-2.81,1.26-4.92,1.12-4.27,2.69-10.46,4.6-18.12,3.81-15.31,8.81-36.54,13.67-60.13s8.66-45.05,11.21-60.63c1.27-7.78,2.27-14.09,2.94-18.46.34-2.16.6-3.84.78-5,.1-.55.17-1,.22-1.3S185.2,226.82,185.2,226.82Z" transform="translate(-102.97 -26.67)"/><path class="cls-12" d="M203.5,401.8a2,2,0,0,1,0-.43c0-.3.05-.71.09-1.24.1-1.12.23-2.72.4-4.77.38-4.17.92-10.15,1.58-17.54C206.89,363,209,342.57,210.53,320c.77-11.32,1.29-22.11,1.51-31.93s.16-18.68,0-26.11-.57-13.43-.86-17.57c-.15-2.06-.27-3.66-.35-4.78,0-.52-.06-.94-.07-1.24a2,2,0,0,1,0-.43,2.52,2.52,0,0,1,.06.42c0,.31.07.72.13,1.24.1,1.12.25,2.72.44,4.77.36,4.14.75,10.15,1,17.58s.35,16.29.14,26.13-.7,20.63-1.47,32c-1.56,22.64-3.7,43.08-5.1,57.88-.74,7.37-1.33,13.35-1.74,17.52-.22,2-.39,3.64-.5,4.76-.06.52-.11.93-.15,1.24A2.52,2.52,0,0,1,203.5,401.8Z" transform="translate(-102.97 -26.67)"/><path class="cls-12" d="M217.16,399.47c0,.14-7.91,1.13-17.69,2.21s-17.74,1.83-17.76,1.69,7.91-1.13,17.7-2.21S217.15,399.32,217.16,399.47Z" transform="translate(-102.97 -26.67)"/><path class="cls-6" d="M187.43,88.7a13,13,0,0,0-2.17,12.92c1.13,2.88,3.34,5.53,3.15,8.61-.23,3.83-4.14,6.83-3.93,10.65.25,4.32,5.76,7,5.77,11.36s-2.66,6.06-7.79,7c-3.29.6-5.12-3.47-6.75-6.39s-2.17-6.31-2.5-9.64a99.06,99.06,0,0,1-.26-16.61c.31-4.47,1-9.06,3.3-12.89a16.68,16.68,0,0,1,11-7.64" transform="translate(-102.97 -26.67)"/><path class="cls-6" d="M209.3,96.71c-1.65,2.51-6.88,1-10-.77A7.52,7.52,0,0,1,189,93.81c-1.81,2.31-5.48,1.55-6.82-1s-.59-6.17,1.25-8.44a11.78,11.78,0,0,1,7.19-3.91,16.67,16.67,0,0,1,16.94,7c1.74,2.62,2.78,6.17,1.75,9.32" transform="translate(-102.97 -26.67)"/><path class="cls-12" d="M209.34,96.21c-.08.06-1-1.57-2.94-3.79a20.66,20.66,0,0,0-9.5-6.22,16.09,16.09,0,0,0-11.19.87,14,14,0,0,0-3.79,2.86,1,1,0,0,1,.18-.29,5.2,5.2,0,0,1,.6-.75,10.26,10.26,0,0,1,2.84-2.15,15.94,15.94,0,0,1,11.5-1,18.78,18.78,0,0,1,5.79,2.87,22.22,22.22,0,0,1,3.84,3.61,21,21,0,0,1,2.07,2.88A5.41,5.41,0,0,1,209.34,96.21Z" transform="translate(-102.97 -26.67)"/><path class="cls-12" d="M193.82,97.23c-.09,0-.29-.89-.91-2.23a10.57,10.57,0,0,0-3.58-4.34,8,8,0,0,0-5.4-1.26,15.85,15.85,0,0,0-2.29.63s.16-.18.53-.39a5.73,5.73,0,0,1,1.7-.6,7.82,7.82,0,0,1,5.74,1.19,9.84,9.84,0,0,1,3.64,4.62A6.22,6.22,0,0,1,193.82,97.23Z" transform="translate(-102.97 -26.67)"/><path class="cls-9" d="M177.77,140.14s-13.5,3.85-18.55,12.17-20.65,66.91-20.65,66.91l17.86,2,14.86-39,3.67,12.2-2.34,12,45.72,2.15L221.5,156l48.88-23.74,5.5-5.7-14.2-15-5.42,5.06-49,18s1.83,14.48-11.38,16.58S177.77,140.14,177.77,140.14Z" transform="translate(-102.97 -26.67)"/><rect class="cls-13" x="100.91" y="133.1" width="10.88" height="2.83"/><path class="cls-6" d="M166.22,164.92c.14,0,2.18,6.38,4.56,14.35s4.21,14.46,4.07,14.5-2.18-6.38-4.56-14.35S166.08,165,166.22,164.92Z" transform="translate(-102.97 -26.67)"/><path class="cls-6" d="M230.29,144.52a33.51,33.51,0,0,0-5.5,5.38,32.57,32.57,0,0,0-3.65,6.77,6.81,6.81,0,0,1,.57-2.23,19.16,19.16,0,0,1,2.66-4.86,19.59,19.59,0,0,1,3.94-3.9A7.21,7.21,0,0,1,230.29,144.52Z" transform="translate(-102.97 -26.67)"/><g class="cls-17"><path d="M167.08,167.68a71,71,0,0,0-1.55,15,12.42,12.42,0,0,0,.43,3.7,4.76,4.76,0,0,0,2.23,2.88c1.35-2,2.75-4,2.95-6.37a13.69,13.69,0,0,0-.77-4.85q-1.55-5.45-3.1-10.87" transform="translate(-102.97 -26.67)"/></g><path class="cls-6" d="M179.05,137.31c2.41,1.7,3.23,4.94,3.11,7.88s-1,5.83-1.1,8.77.61,6.19,3,7.95L195.66,158c-2.29-1.3-2.77-4.45-2.28-7s1.71-5,1.85-7.66c.37-6.92-4.6-12.82-6.92-15.62" transform="translate(-102.97 -26.67)"/><polygon class="cls-9" points="123.79 386.88 119.29 412.62 141.55 412.62 144 388.29 123.79 386.88"/><path class="cls-6" d="M245,437.19a16.23,16.23,0,0,1-3.24.18c-2,0-4.77,0-7.82-.14l-7.81-.33a19.86,19.86,0,0,1-3.24-.26,14.61,14.61,0,0,1,3.25-.18c2,0,4.77,0,7.82.15l7.81.32A18.34,18.34,0,0,1,245,437.19Z" transform="translate(-102.97 -26.67)"/><g class="cls-10"><polyline class="cls-4" points="119.29 412.62 141.55 412.62 141.76 410.52 119.69 409.96 119.29 412.37"/></g><path class="cls-6" d="M233.12,437.17a96.9,96.9,0,0,1,1.22-9.81,95.41,95.41,0,0,1,1.74-9.74,93.57,93.57,0,0,1-1.22,9.82A92.32,92.32,0,0,1,233.12,437.17Z" transform="translate(-102.97 -26.67)"/><path class="cls-6" d="M243.74,437.13a10.67,10.67,0,0,0-.38-4.67,9.28,9.28,0,0,0-2.81-4.15,9.08,9.08,0,0,0-5.73-2,9.49,9.49,0,0,0-5.79,1.88,10.28,10.28,0,0,0-3.1,4,13.24,13.24,0,0,0-1,4.6.9.9,0,0,1-.06-.33,7.75,7.75,0,0,1,0-1,10.18,10.18,0,0,1,.75-3.46,10.33,10.33,0,0,1,3.15-4.2,9.72,9.72,0,0,1,6.09-2,9.11,9.11,0,0,1,8.88,6.58,8.61,8.61,0,0,1,.33,3.52,6,6,0,0,1-.19.95C243.79,437,243.76,437.14,243.74,437.13Z" transform="translate(-102.97 -26.67)"/><path class="cls-9" d="M322.49,406.36l5.41,17.75s19.86.45,21.18,3.64l-34,11.73-9.57-27.31Z" transform="translate(-102.97 -26.67)"/><g class="cls-10"><path class="cls-4" d="M316.87,426.26a1.46,1.46,0,0,0-.41,1.92,1.4,1.4,0,0,0,1.89.42,1.54,1.54,0,0,0,.43-2,1.47,1.47,0,0,0-2-.23" transform="translate(-102.97 -26.67)"/></g><g class="cls-10"><path class="cls-4" d="M315.05,439.48l-.86-2.79,32.95-10.21s1.74.14,1.94,1.27Z" transform="translate(-102.97 -26.67)"/></g><path class="cls-6" d="M328.39,423.74c.06.17-.75.53-1.38,1.35s-.83,1.66-1,1.65-.26-1.06.53-2S328.38,423.58,328.39,423.74Z" transform="translate(-102.97 -26.67)"/><path class="cls-6" d="M332.47,424c.1.15-.53.68-.85,1.57s-.23,1.7-.4,1.75-.59-.85-.17-2S332.41,423.83,332.47,424Z" transform="translate(-102.97 -26.67)"/><path class="cls-6" d="M336,427.56c-.14.09-.65-.66-.54-1.72s.76-1.69.88-1.57-.19.76-.27,1.63S336.13,427.49,336,427.56Z" transform="translate(-102.97 -26.67)"/><path class="cls-6" d="M326.71,419.83c0,.18-.86.21-1.77.6s-1.55.94-1.69.83.37-.95,1.45-1.39S326.75,419.68,326.71,419.83Z" transform="translate(-102.97 -26.67)"/><g class="cls-11"><polygon points="220.59 383.21 221.55 386.37 204.78 391.98 203.78 389.17 220.59 383.21"/></g><path class="cls-6" d="M325.55,416.27a3.27,3.27,0,0,1-1.7.58,8.34,8.34,0,0,1-2,.07,8,8,0,0,1-1.15-.18,2.55,2.55,0,0,1-.66-.22.78.78,0,0,1-.38-.86,1,1,0,0,1,.6-.63,2.29,2.29,0,0,1,.67-.14,7.74,7.74,0,0,1,1.18,0,6.47,6.47,0,0,1,1.93.49c1,.46,1.53,1,1.48,1s-.62-.31-1.63-.63a7.38,7.38,0,0,0-1.82-.34,8,8,0,0,0-1.08,0c-.39,0-.7.13-.74.33s0,.09.11.17a1.89,1.89,0,0,0,.48.17c.36.09.73.15,1.07.2a9.35,9.35,0,0,0,1.87.06A13.7,13.7,0,0,1,325.55,416.27Z" transform="translate(-102.97 -26.67)"/><path class="cls-6" d="M325.42,416.59c-.05,0-.59-.44-1-1.49a5.8,5.8,0,0,1-.33-3.13,1.48,1.48,0,0,1,.79-1.24.83.83,0,0,1,.87.23,2.34,2.34,0,0,1,.4.56,4,4,0,0,1,.39,1.15,4.1,4.1,0,0,1-.12,2c-.36,1.12-1,1.55-1,1.5a11.85,11.85,0,0,0,.6-1.61,4.11,4.11,0,0,0,0-1.78,4.18,4.18,0,0,0-.37-1c-.18-.34-.41-.59-.54-.5s-.36.42-.4.76a6.82,6.82,0,0,0-.11,1.07,6.48,6.48,0,0,0,.26,1.82C325.11,416,325.5,416.53,325.42,416.59Z" transform="translate(-102.97 -26.67)"/><path class="cls-18" d="M222.69,182l-6.41,13.2a16.15,16.15,0,0,0,2.64,18h0a16.12,16.12,0,0,0,13.71,5.11l24.87-2.83V200.68L233,201.4l6.13-10.79Z" transform="translate(-102.97 -26.67)"/><path class="cls-6" d="M254.26,135.14c-4.11-6.95-5.29-16.2-6.33-24.2-.49-3.77-1.35-9.13,1.3-11.48,2.84-2.53,3.11-6.42,6.37-8.37s7.68-2.1,10.76.12" transform="translate(-102.97 -26.67)"/><path class="cls-18" d="M265.64,159.73h0a11.14,11.14,0,0,0,12-10.64c.25-6.07.47-12.2.47-12.2s9.2-.83,9.89-9.93.45-30.09.45-30.09h0a31.68,31.68,0,0,0-32,2l.47,32,0,17.22C256.9,153.85,259.88,159.28,265.64,159.73Z" transform="translate(-102.97 -26.67)"/><path class="cls-6" d="M279,115.83c-1.57-2-4.12-2.73-6.22-1.38a5.31,5.31,0,0,0-1.78,6.61,7,7,0,0,0,4.46,3.39,3.48,3.48,0,0,1,2.72,3.77c-.27,2.28-4.07,3.12-5.79,5-2.67,2.93-8.53,4.16-12.47,4.61s-3.41.49-5.65-2.7a12.18,12.18,0,0,1-2.19-7.39l-.36-20.13a28.07,28.07,0,0,1,.48-7.21,9.67,9.67,0,0,1,3.82-6c2.22-1.45,5-1.57,7.55-2.38,3.15-1,5.83-3.09,8.78-4.59s6.57-2.39,9.53-.89c2.12,1.07,3.53,3.19,5.6,4.37,2.93,1.68,6.94,1.32,8.35,5.65a7.3,7.3,0,0,1-.06,4.62c-2,5.88-9.31,8.23-14.55,5.67-.11,1,.87,3.22-.19,6.37-.34,1-.46,2.53-2,2.56" transform="translate(-102.97 -26.67)"/><path class="cls-8" d="M277.34,121.5s0,.17-.12.4a1.39,1.39,0,0,1-1,.5,2.51,2.51,0,0,1-2.35-2.52,2.66,2.66,0,0,1,.67-1.92,2.78,2.78,0,0,1,1.43-.82c.94-.19,1.48.16,1.44.22s-.56,0-1.31.22a2.29,2.29,0,0,0-1.58,2.27,2.12,2.12,0,0,0,1.7,2.09A1.69,1.69,0,0,0,277.34,121.5Z" transform="translate(-102.97 -26.67)"/><path class="cls-6" d="M255,100.66a10.65,10.65,0,1,0-14.58-7.2,2.52,2.52,0,0,1,0,1.87c-.38.68-1.29.77-2,1-2.58,1-2.93,4.9-1.05,6.9s5,2.29,7.69,1.58c-.65,2.34,1.44,4.84,3.86,5.12a6.73,6.73,0,0,0,6.1-3.25,15.26,15.26,0,0,0,2.07-6.91" transform="translate(-102.97 -26.67)"/><path class="cls-3" d="M261.13,89.59a3,3,0,0,1,0,.93,13.68,13.68,0,0,1-.36,2.51,15.26,15.26,0,0,1-11.3,11.33,12.86,12.86,0,0,1-2.51.36,2.82,2.82,0,0,1-.93,0c0-.1,1.32-.11,3.34-.69a15.77,15.77,0,0,0,11-11.06C261,90.91,261,89.58,261.13,89.59Z" transform="translate(-102.97 -26.67)"/><path class="cls-12" d="M251,81.16s.09,0,.28-.1a3,3,0,0,1,.83-.08A4.88,4.88,0,0,1,255,82.06a6.21,6.21,0,0,1,1.43,1.6,7.26,7.26,0,0,1,.88,2.31,13.3,13.3,0,0,1-.22,5.55,22.47,22.47,0,0,1-4.27,9,21.16,21.16,0,0,1-2.05,2.25,4.61,4.61,0,0,1-.87.7c-.07-.07,1.13-1.12,2.63-3.17a24.05,24.05,0,0,0,4.05-8.93,13.46,13.46,0,0,0,.26-5.35,7,7,0,0,0-.78-2.18,6.15,6.15,0,0,0-1.29-1.53,4.94,4.94,0,0,0-2.65-1.17C251.45,81.11,251.05,81.21,251,81.16Z" transform="translate(-102.97 -26.67)"/><path class="cls-12" d="M240,95.67s.08-.26.33-.68a8.58,8.58,0,0,1,1.27-1.6,10.67,10.67,0,0,1,12.57-2,9.52,9.52,0,0,1,1.71,1.12c.37.32.54.52.52.54s-.86-.63-2.39-1.33a11,11,0,0,0-12.16,2C240.58,94.79,240.05,95.72,240,95.67Z" transform="translate(-102.97 -26.67)"/><path class="cls-12" d="M257.87,99.22c.05-.07,1.2.87,3.18,2.2a51.14,51.14,0,0,0,8.14,4.46,49.81,49.81,0,0,0,4.8,1.78,15,15,0,0,0,4,.87,4.69,4.69,0,0,0,2.62-.65c.56-.35.78-.66.82-.63s-.15.37-.7.79a4.6,4.6,0,0,1-2.74.86,14.3,14.3,0,0,1-4.18-.78,42.82,42.82,0,0,1-13-6.4c-1-.71-1.72-1.33-2.23-1.77S257.84,99.25,257.87,99.22Z" transform="translate(-102.97 -26.67)"/><path class="cls-6" d="M255.12,87.73a4.22,4.22,0,0,1-.09-1.27,9.75,9.75,0,0,1,.63-3.41,6.89,6.89,0,0,1,3.42-3.83,5.55,5.55,0,0,1,3.07-.55,5.22,5.22,0,0,1,3,1.48,6.63,6.63,0,0,1,1.7,2.87,8.19,8.19,0,0,1,.22,3.09A12.27,12.27,0,0,1,265.31,91a25.91,25.91,0,0,1-2,2.83,5.86,5.86,0,0,1-.84.95,6.64,6.64,0,0,1,.67-1.07c.46-.68,1.13-1.64,1.83-2.9a12.33,12.33,0,0,0,1.59-4.72,7.68,7.68,0,0,0-.23-2.88,6.23,6.23,0,0,0-1.57-2.64,4.79,4.79,0,0,0-2.7-1.36,5.07,5.07,0,0,0-2.79.48A6.6,6.6,0,0,0,256,83.19a11,11,0,0,0-.77,3.29A8.09,8.09,0,0,1,255.12,87.73Z" transform="translate(-102.97 -26.67)"/><path class="cls-18" d="M358.9,66.68c-1.48-.74-5.74,7.19-5.81,4.95s6.34-9.09,4.76-9.81c-2.06-.93-6.37,7.45-6.78,8.14s-1.42.1-1-.5c.59-.85,6.55-10,4.54-10.95-1.12-.52-1.87,1.57-1.87,1.57s-4.94,9-5.88,8.51,1.78-5.85,2.83-7.6.63-2.92-.51-2.74c-.78.12-4.12,5.39-5.11,7.14s-3.65,6.59-4.29,3.14-2.43-5.86-3.37-6.17a1.09,1.09,0,0,0-1.09,1.76,12.62,12.62,0,0,1,1.3,3.3,8.64,8.64,0,0,1,.3,2.82c-.08,1.11-.19,2-.3,2.84l-1.95,4.09S320.59,109.32,318.14,114s-22,24.92-22,24.92l4.13,23.72L332,128.25l16.77-47.2.41-1.17s6-6.39,7.52-8.43C359.83,67.25,359.45,67,358.9,66.68Z" transform="translate(-102.97 -26.67)"/><path class="cls-12" d="M241.66,225.86s-10,22.59-12.14,45L219,414.53l35.27,3.67,10.37-148.89s32.35,150.27,33.63,150.27,28.39-10.1,28.39-10.1l-31.95-182.9Z" transform="translate(-102.97 -26.67)"/><path class="cls-6" d="M279.55,273c0,.17-7.19-1.42-16-3.56s-15.85-4-15.81-4.2,7.19,1.42,16,3.56S279.59,272.78,279.55,273Z" transform="translate(-102.97 -26.67)"/><path class="cls-13" d="M256.28,387.13s-.12.05-.37.08-.6.08-1.07.09a20.77,20.77,0,0,1-3.94-.24,37.7,37.7,0,0,1-5.69-1.38c-2.1-.65-4.37-1.49-6.77-2.28a39.7,39.7,0,0,0-6.88-1.65,20.94,20.94,0,0,0-5.75,0,17.88,17.88,0,0,0-5.06,1.61s.1-.1.3-.23a10.38,10.38,0,0,1,.93-.54,13.1,13.1,0,0,1,3.77-1.21,20.32,20.32,0,0,1,5.87-.06,37.66,37.66,0,0,1,7,1.63l6.75,2.31a42.52,42.52,0,0,0,5.6,1.48A34.6,34.6,0,0,0,256.28,387.13Z" transform="translate(-102.97 -26.67)"/><path class="cls-13" d="M256.42,375a7.54,7.54,0,0,1-1.44,0,31.77,31.77,0,0,0-3.91.12c-3.3.23-7.75,1.3-12.72,2.33a47.79,47.79,0,0,1-7.12.92,25,25,0,0,1-5.85-.4,16.1,16.1,0,0,1-3.77-1.2,8.41,8.41,0,0,1-1-.5c-.21-.12-.32-.19-.31-.21a25.34,25.34,0,0,0,5.1,1.55c3.24.6,7.85.35,12.8-.67s9.45-2.05,12.79-2.19a24.37,24.37,0,0,1,4,0A6.68,6.68,0,0,1,256.42,375Z" transform="translate(-102.97 -26.67)"/><path class="cls-13" d="M319.31,361a1.12,1.12,0,0,1-.19.32,6.36,6.36,0,0,1-.7.81,8.63,8.63,0,0,1-3.4,2,14.84,14.84,0,0,1-5.81.62c-2.2-.17-4.56-.7-7-1.1a22.78,22.78,0,0,0-7-.19,22,22,0,0,0-5.54,1.46,37.28,37.28,0,0,0-4.69,2.48s.09-.1.27-.25a10.38,10.38,0,0,1,.85-.65,19.65,19.65,0,0,1,3.43-1.92,21.48,21.48,0,0,1,5.62-1.6,22.69,22.69,0,0,1,7.14.15c2.5.41,4.83.95,7,1.14a14.84,14.84,0,0,0,5.66-.49,9.06,9.06,0,0,0,3.37-1.79C319,361.37,319.27,361,319.31,361Z" transform="translate(-102.97 -26.67)"/><path class="cls-13" d="M324.64,387.46a6.57,6.57,0,0,1-.93,1.11,24.48,24.48,0,0,1-2.93,2.62A27.87,27.87,0,0,1,309,396.35a28.49,28.49,0,0,1-12.9-.7,25.57,25.57,0,0,1-3.68-1.38,6.75,6.75,0,0,1-1.26-.69,7.65,7.65,0,0,1,1.34.51,32.87,32.87,0,0,0,3.7,1.21,30,30,0,0,0,12.71.54,29,29,0,0,0,11.7-4.95C323.23,389,324.56,387.38,324.64,387.46Z" transform="translate(-102.97 -26.67)"/><path class="cls-13" d="M315.89,350c0,.05-.5,0-1.39,0a10.44,10.44,0,0,0-3.66.84,19.91,19.91,0,0,0-4.75,3c-1.66,1.32-3.38,2.94-5.42,4.38a14.47,14.47,0,0,1-6.47,2.67,21.18,21.18,0,0,1-5.71,0c-1.62-.2-2.9-.46-3.79-.65a6.4,6.4,0,0,1-1.36-.36,7.44,7.44,0,0,1,1.4.16c.89.13,2.19.33,3.79.49a22.62,22.62,0,0,0,5.6-.09,14.26,14.26,0,0,0,6.24-2.62c2-1.4,3.72-3,5.42-4.33a19.64,19.64,0,0,1,4.91-2.92,9.79,9.79,0,0,1,3.8-.71,6.28,6.28,0,0,1,1,.13C315.78,349.9,315.9,349.94,315.89,350Z" transform="translate(-102.97 -26.67)"/><path class="cls-13" d="M259.42,344.26a1.09,1.09,0,0,1-.32.21,8.79,8.79,0,0,1-1,.5,13,13,0,0,1-3.93,1,22.15,22.15,0,0,1-6-.28A57,57,0,0,1,241,343.9a66.17,66.17,0,0,0-7-1.85,23.13,23.13,0,0,0-5.9-.4,17.78,17.78,0,0,0-5.28,1.32,1.32,1.32,0,0,1,.32-.21,9.08,9.08,0,0,1,1-.49,13.06,13.06,0,0,1,3.94-1,21.82,21.82,0,0,1,6,.3,59,59,0,0,1,7.13,1.83,63.55,63.55,0,0,0,7.05,1.83,22.59,22.59,0,0,0,5.9.38A18,18,0,0,0,259.42,344.26Z" transform="translate(-102.97 -26.67)"/><path class="cls-13" d="M311.17,319.65a1.52,1.52,0,0,1-.1.37,7,7,0,0,1-.44,1,11,11,0,0,1-2.51,3.22,16.78,16.78,0,0,1-5.18,3.14,31.6,31.6,0,0,1-7.21,1.69c-2.6.35-5.08.56-7.31.9a48.16,48.16,0,0,0-5.89,1.05,10.14,10.14,0,0,0-3.52,1.84c-.74.59-1.09,1-1.13,1s.07-.12.23-.32a8.6,8.6,0,0,1,.77-.8,9.6,9.6,0,0,1,3.54-2,42.32,42.32,0,0,1,5.93-1.17c2.24-.37,4.73-.6,7.31-.94a32.68,32.68,0,0,0,7.11-1.63,17.29,17.29,0,0,0,5.11-3A13.71,13.71,0,0,0,311.17,319.65Z" transform="translate(-102.97 -26.67)"/><path class="cls-13" d="M225,316.75a20.09,20.09,0,0,0,5,2.35,15.84,15.84,0,0,0,5.93.51,18.75,18.75,0,0,0,6.91-2.36c2.31-1.24,4.44-2.61,6.56-3.55a16.09,16.09,0,0,1,5.93-1.49,9.15,9.15,0,0,1,4.06.71,6.19,6.19,0,0,1,1,.56c.21.15.32.23.31.25s-.47-.27-1.36-.62a9.59,9.59,0,0,0-4-.53,16.4,16.4,0,0,0-5.76,1.56c-2.06.95-4.17,2.31-6.51,3.57a18.71,18.71,0,0,1-7.1,2.38,15.57,15.57,0,0,1-6.08-.64,14.35,14.35,0,0,1-3.73-1.76,8,8,0,0,1-.9-.67C225.07,316.86,225,316.76,225,316.75Z" transform="translate(-102.97 -26.67)"/><path class="cls-13" d="M305.49,290.47a7.07,7.07,0,0,1-.79,1.25,21,21,0,0,1-2.69,3,23,23,0,0,1-11.91,5.74,29.16,29.16,0,0,1-7.34,0,23.41,23.41,0,0,0-5.9.05,10.23,10.23,0,0,0-3.71,1.33c-.8.5-1.17.87-1.2.84s.07-.12.24-.3a7.49,7.49,0,0,1,.84-.71,9.72,9.72,0,0,1,3.76-1.52,22.43,22.43,0,0,1,6-.17A29.8,29.8,0,0,0,290,300a23.62,23.62,0,0,0,11.74-5.49A38.88,38.88,0,0,0,305.49,290.47Z" transform="translate(-102.97 -26.67)"/><path class="cls-13" d="M260.87,288a19.67,19.67,0,0,0-5.07-.95,14.79,14.79,0,0,0-5.48.9c-1,.34-1.95.9-3,1.35a6.47,6.47,0,0,1-1.78.46,4.27,4.27,0,0,1-1.9-.25,16.84,16.84,0,0,1-3.16-1.81,14,14,0,0,0-3-1.39,14.71,14.71,0,0,0-5.5-.73,19.71,19.71,0,0,0-5,1.11,1.13,1.13,0,0,1,.31-.19,8.13,8.13,0,0,1,1-.43,13.8,13.8,0,0,1,3.75-.86,14.84,14.84,0,0,1,5.67.64,14.22,14.22,0,0,1,3.09,1.42,16.91,16.91,0,0,0,3.06,1.75,4.44,4.44,0,0,0,3.32-.2c1-.41,2-1,3.08-1.33a14.68,14.68,0,0,1,5.65-.8,14.21,14.21,0,0,1,3.78.73,10.18,10.18,0,0,1,1,.4C260.77,287.87,260.88,287.93,260.87,288Z" transform="translate(-102.97 -26.67)"/><path class="cls-13" d="M305.49,284.36a8.43,8.43,0,0,1-1.08,1.1,32.74,32.74,0,0,1-3.22,2.67c-.73.51-1.5,1.11-2.4,1.63-.45.27-.9.56-1.39.83l-1.52.79a34,34,0,0,1-7.16,2.62,34.52,34.52,0,0,1-7.58.85l-1.71,0c-.56,0-1.1-.1-1.62-.15a26.8,26.8,0,0,1-2.86-.42,31.63,31.63,0,0,1-4.06-1,7.54,7.54,0,0,1-1.44-.54c0-.11,2.1.63,5.56,1.22.87.12,1.81.3,2.85.35.51,0,1,.1,1.59.12l1.69,0A33.09,33.09,0,0,0,295.67,291l1.51-.76c.49-.26.94-.54,1.38-.8.91-.5,1.68-1.07,2.42-1.55,1.43-1,2.56-1.89,3.3-2.54A8.5,8.5,0,0,1,305.49,284.36Z" transform="translate(-102.97 -26.67)"/><path class="cls-13" d="M299.42,255.75a5,5,0,0,1-.65.39l-1.92,1c-1.68.88-4.12,2.14-7.24,3.46a42.35,42.35,0,0,1-11.47,3.19,27.07,27.07,0,0,1-7.06-.13,40,40,0,0,1-7.32-2c-4.86-1.77-9.32-3.88-13.64-5a32.9,32.9,0,0,0-11.7-.92,34.32,34.32,0,0,0-7.77,1.72c-.89.32-1.58.58-2,.78a3.36,3.36,0,0,1-.72.26,4,4,0,0,1,.67-.36q.68-.34,2-.87a32.39,32.39,0,0,1,19.66-1.07c4.38,1.1,8.87,3.21,13.7,5a40.32,40.32,0,0,0,7.21,2,27.51,27.51,0,0,0,6.94.15,43,43,0,0,0,11.38-3c3.13-1.27,5.58-2.48,7.29-3.3l2-.94A3.12,3.12,0,0,1,299.42,255.75Z" transform="translate(-102.97 -26.67)"/><path class="cls-13" d="M297.34,240.84a9.87,9.87,0,0,0-1.89-1.76,12.08,12.08,0,0,0-6.69-1.76,13.77,13.77,0,0,0-4.74.84c-1.65.59-3.37,1.34-5.18,2.16a60.87,60.87,0,0,1-12.08,4.57,47.43,47.43,0,0,1-23.32-.31,47.11,47.11,0,0,1-6.7-2.42c-.76-.35-1.33-.66-1.73-.86a3,3,0,0,1-.58-.34,4,4,0,0,1,.63.25l1.77.77a53.56,53.56,0,0,0,6.71,2.25,47.94,47.94,0,0,0,10.36,1.45,47,47,0,0,0,12.73-1.29,62.84,62.84,0,0,0,12-4.51c1.81-.81,3.55-1.55,5.23-2.13a14.27,14.27,0,0,1,4.88-.8,12,12,0,0,1,6.81,2,7,7,0,0,1,1.4,1.36A3.28,3.28,0,0,1,297.34,240.84Z" transform="translate(-102.97 -26.67)"/><path class="cls-9" d="M317.48,148l-14.06-18.49-.62.45-22.44,14.12-23.93.83s-16.79,0-23.09,13.24c-.69,1.45-14.48,29-14.48,29L240.15,195l3.45-9.85,4.4,22.33-6.34,18.4L295,228.71,290.59,202l4-32Z" transform="translate(-102.97 -26.67)"/><path class="cls-6" d="M280.33,191.09a5.63,5.63,0,0,1,0,1.53,14.6,14.6,0,0,1-1,4.08,19.79,19.79,0,0,1-9.34,10,27.53,27.53,0,0,1-13.49,2.7,32,32,0,0,1-4.16-.42,6.17,6.17,0,0,1-1.49-.35c0-.12,2.16.28,5.67.32a28.75,28.75,0,0,0,13.17-2.83,20.23,20.23,0,0,0,9.22-9.57A23.7,23.7,0,0,0,280.33,191.09Z" transform="translate(-102.97 -26.67)"/><path class="cls-6" d="M248.21,208.46c-.18,0-2.74-11.55-5.72-25.87s-5.26-26-5.08-26,2.73,11.54,5.72,25.87S248.38,208.42,248.21,208.46Z" transform="translate(-102.97 -26.67)"/><g class="cls-17"><path d="M254.79,209.39c-.58-2.1,1.06-4.26,3-5.2s4.21-1.06,6.33-1.55a17.83,17.83,0,0,0,10.29-6.86c.33-.47.73-1,1.3-1a1.23,1.23,0,0,1,1.16,1,4,4,0,0,1,.11,2c-1,5.12-5.13,7.25-9.37,9.52s-7.62,2.49-12.85,2.08" transform="translate(-102.97 -26.67)"/></g><path class="cls-19" d="M262.78,79" transform="translate(-102.97 -26.67)"/></svg>