<?xml version="1.0" encoding="utf-8"?>
<!-- Generator: Adobe Illustrator 24.1.1, SVG Export Plug-In . SVG Version: 6.00 Build 0)  -->
<svg version="1.1" id="Layer_1" xmlns="http://www.w3.org/2000/svg" xmlns:xlink="http://www.w3.org/1999/xlink" x="0px" y="0px"
	 viewBox="0 0 77.7 51" style="enable-background:new 0 0 77.7 51;" xml:space="preserve">
<style type="text/css">
	.st0{fill:#818384;}
</style>
<g>
	<g>
		<path class="st0" d="M59.1,14.1c0.1-1.9,0.9-2.6,3.5-2.6h14.6V6.3H63.5c-6.5,0-10.1,2.8-10.1,8c0,10.2,18.7,8.1,18.7,13.6
			c0,1.9-1,2.8-3.5,2.8H49.5c1.9-2.4,3.1-5.4,3.1-8.9c0-8.7-5.7-16.1-15.3-16.1c-8.7,0-14.9,6.5-14.9,16.3v2.4h-6.6
			c-5.1,0-10.2-3.3-10.2-9.6s5.1-9.6,10.2-9.6H20V0h-5.2C7.9,0,0,5.3,0,14.8s7.9,14.8,14.8,14.8h7.6V51h5.4V29.5h10.3v-5.2H27.8
			v-1.4c0-8.1,4.3-12.1,9.5-12.1c5.8,0,9.9,4.3,9.9,10.3c0,5.2-2.8,8.5-7.3,9.5H33v5.2h35.6c5.2,0,9.2-2.7,9.2-8.3
			C77.7,17,59,19.2,59.1,14.1"/>
		<path class="st0" d="M37.4,43.6c-0.3,0.1-0.9,0.3-1.6,0.3c-1.7,0-3-1-3-2.8c0-1.7,1.3-2.9,3.2-2.9c0.8,0,1.2,0.2,1.5,0.2L37.2,39
			c-0.3-0.1-0.7-0.2-1.2-0.2c-1.4,0-2.4,0.8-2.4,2.3c0,1.3,0.9,2.2,2.3,2.2c0.5,0,1-0.1,1.3-0.2L37.4,43.6z"/>
		<path class="st0" d="M38.7,41.9c0,1,0.7,1.4,1.5,1.4c0.6,0,0.9-0.1,1.2-0.2l0.1,0.5c-0.3,0.1-0.8,0.2-1.5,0.2
			c-1.3,0-2.2-0.8-2.2-2s0.8-2.1,2.1-2.1c1.4,0,1.8,1.1,1.8,1.8c0,0.2,0,0.3,0,0.3L38.7,41.9L38.7,41.9z M41.1,41.4
			c0-0.5-0.2-1.2-1.1-1.2c-0.8,0-1.2,0.7-1.2,1.2H41.1z"/>
		<path class="st0" d="M42.8,40.9c0-0.4,0-0.7,0-1.1h0.7l0,0.7h0c0.2-0.4,0.7-0.7,1.5-0.7c0.6,0,1.5,0.3,1.5,1.7v2.3h-0.8v-2.3
			c0-0.6-0.3-1.2-1-1.2c-0.5,0-0.9,0.3-1.1,0.7c0,0.1,0,0.2,0,0.3v2.4h-0.8L42.8,40.9L42.8,40.9z"/>
		<path class="st0" d="M48.8,38.7v1.1h1.1v0.5h-1.1v2.1c0,0.5,0.2,0.8,0.6,0.8c0.2,0,0.4,0,0.5,0l0,0.5c-0.2,0.1-0.4,0.1-0.7,0.1
			c-0.4,0-0.7-0.1-0.9-0.3c-0.2-0.2-0.3-0.6-0.3-1v-2.1h-0.7v-0.5H48v-0.9L48.8,38.7z"/>
		<path class="st0" d="M50.8,41.1c0-0.5,0-0.9,0-1.2h0.7l0,0.8h0c0.2-0.5,0.7-0.9,1.2-0.9c0.1,0,0.2,0,0.2,0v0.7c-0.1,0-0.2,0-0.3,0
			c-0.6,0-1,0.4-1.1,0.9c0,0.1,0,0.2,0,0.3v2.1h-0.8L50.8,41.1L50.8,41.1z"/>
		<path class="st0" d="M57.7,41.8c0,1.5-1.1,2.1-2.2,2.1c-1.2,0-2.1-0.8-2.1-2c0-1.3,1-2.1,2.2-2.1C56.8,39.8,57.7,40.6,57.7,41.8
			 M54.2,41.8c0,0.9,0.5,1.5,1.3,1.5c0.8,0,1.3-0.6,1.3-1.5c0-0.7-0.4-1.5-1.3-1.5C54.6,40.3,54.2,41.1,54.2,41.8"/>
		<path class="st0" d="M33.2,45.5c0.4-0.1,0.9-0.1,1.5-0.1c0.8,0,1.3,0.2,1.7,0.5c0.3,0.3,0.5,0.7,0.5,1.1c0,0.5-0.2,0.9-0.5,1.2
			c-0.4,0.4-1.1,0.6-1.9,0.6c-0.2,0-0.5,0-0.6,0v2.2h-0.8V45.5z M34,48.1c0.2,0,0.4,0.1,0.7,0.1c1,0,1.5-0.4,1.5-1.2
			c0-0.7-0.6-1.1-1.4-1.1c-0.3,0-0.6,0-0.7,0.1V48.1z"/>
		<path class="st0" d="M40.2,50.9l-0.1-0.5h0c-0.2,0.3-0.7,0.6-1.3,0.6c-0.9,0-1.3-0.6-1.3-1.1c0-1,0.9-1.5,2.6-1.5v-0.1
			c0-0.3-0.1-0.9-1-0.9c-0.4,0-0.8,0.1-1.1,0.3l-0.2-0.5c0.4-0.2,0.9-0.3,1.4-0.3c1.3,0,1.7,0.8,1.7,1.6V50c0,0.3,0,0.7,0.1,0.9
			H40.2z M40,48.9c-0.9,0-1.9,0.1-1.9,0.9c0,0.5,0.3,0.7,0.8,0.7c0.6,0,0.9-0.3,1.1-0.7c0-0.1,0-0.2,0-0.2V48.9z"/>
		<path class="st0" d="M45.8,49.8c0,0.4,0,0.8,0,1.1h-0.7l0-0.6h0c-0.2,0.3-0.7,0.7-1.5,0.7c-0.7,0-1.5-0.3-1.5-1.7V47h0.8v2.2
			c0,0.8,0.3,1.3,1,1.3c0.5,0,0.9-0.3,1-0.7c0-0.1,0.1-0.2,0.1-0.4V47h0.8L45.8,49.8L45.8,49.8z"/>
		<rect x="47.1" y="45.1" class="st0" width="0.8" height="5.8"/>
		<path class="st0" d="M51.7,50.9l-0.1-0.5h0c-0.2,0.3-0.7,0.6-1.3,0.6c-0.9,0-1.3-0.6-1.3-1.1c0-1,0.9-1.5,2.6-1.5v-0.1
			c0-0.3-0.1-0.9-1-0.9c-0.4,0-0.8,0.1-1.1,0.3l-0.2-0.5c0.4-0.2,0.9-0.3,1.4-0.3c1.3,0,1.7,0.8,1.7,1.6V50c0,0.3,0,0.7,0.1,0.9
			H51.7z M51.5,48.9c-0.9,0-1.9,0.1-1.9,0.9c0,0.5,0.3,0.7,0.8,0.7c0.6,0,0.9-0.3,1.1-0.7c0-0.1,0-0.2,0-0.2V48.9z"/>
		<path class="st0" d="M55.5,50c0.3,0.2,0.9,0.4,1.4,0.4c0.8,0,1.3-0.4,1.3-0.9c0-0.5-0.3-0.8-1.2-1.1c-1-0.3-1.6-0.8-1.6-1.5
			c0-0.8,0.8-1.5,2-1.5c0.6,0,1.1,0.1,1.3,0.3l-0.2,0.6c-0.2-0.1-0.6-0.3-1.2-0.3c-0.8,0-1.2,0.5-1.2,0.8c0,0.5,0.4,0.8,1.2,1
			c1,0.4,1.6,0.8,1.6,1.6c0,0.8-0.7,1.6-2.1,1.6c-0.6,0-1.2-0.2-1.6-0.3L55.5,50z"/>
		<path class="st0" d="M64,48.9c0,1.5-1.1,2.1-2.2,2.1c-1.2,0-2.1-0.8-2.1-2c0-1.3,1-2.1,2.2-2.1C63.2,46.9,64,47.7,64,48.9
			 M60.5,48.9c0,0.9,0.5,1.5,1.3,1.5c0.8,0,1.3-0.6,1.3-1.5c0-0.7-0.4-1.5-1.3-1.5S60.5,48.2,60.5,48.9"/>
		<path class="st0" d="M68.7,49.8c0,0.4,0,0.8,0,1.1h-0.7L68,50.3h0c-0.2,0.3-0.7,0.7-1.4,0.7c-0.7,0-1.5-0.3-1.5-1.7V47h0.8v2.2
			c0,0.8,0.3,1.3,1,1.3c0.5,0,0.9-0.3,1.1-0.7c0-0.1,0.1-0.2,0.1-0.4V47h0.8L68.7,49.8L68.7,49.8z"/>
		<path class="st0" d="M69.6,50.5l2-2.3c0.2-0.2,0.4-0.4,0.6-0.6v0h-2.4V47h3.3l0,0.5l-2,2.3c-0.2,0.2-0.4,0.4-0.6,0.6v0h2.6v0.6
			h-3.6V50.5z"/>
		<path class="st0" d="M76.4,50.9l-0.1-0.5h0C76,50.7,75.6,51,74.9,51c-0.9,0-1.3-0.6-1.3-1.1c0-1,0.9-1.5,2.6-1.5v-0.1
			c0-0.3-0.1-0.9-1-0.9c-0.4,0-0.8,0.1-1.1,0.3l-0.2-0.5c0.4-0.2,0.9-0.3,1.4-0.3c1.3,0,1.7,0.8,1.7,1.6V50c0,0.3,0,0.7,0.1,0.9
			C77.1,50.9,76.4,50.9,76.4,50.9z M76.2,48.9c-0.9,0-1.9,0.1-1.9,0.9c0,0.5,0.3,0.7,0.8,0.7c0.6,0,0.9-0.3,1.1-0.7
			c0-0.1,0.1-0.2,0.1-0.2V48.9z"/>
	</g>
</g>
</svg>
