<?xml version="1.0" encoding="utf-8"?>
<!-- Generator: Adobe Illustrator 24.1.2, SVG Export Plug-In . SVG Version: 6.00 Build 0)  -->
<svg version="1.1" xmlns="http://www.w3.org/2000/svg" xmlns:xlink="http://www.w3.org/1999/xlink" x="0px" y="0px"
	 viewBox="0 0 750 500" style="enable-background:new 0 0 750 500;" xml:space="preserve">
<style type="text/css">
	.st0{fill:#F5F5F5;}
	.st1{fill:#E0E0E0;}
	.st2{fill:#EBEBEB;}
	.st3{display:none;}
	.st4{display:inline;fill:#EBEBEB;}
	.st5{fill:#E8505B;}
	.st6{opacity:0.2;}
	.st7{opacity:0.3;}
	.st8{fill:#FFFFFF;}
	.st9{fill:#FAFAFA;}
	.st10{fill:#263238;}
	.st11{fill:#455A64;}
	.st12{opacity:0.4;}
	.st13{opacity:0.8;}
	.st14{fill:#FFBE9D;}
	.st15{opacity:0.6;}
	.st16{fill:none;stroke:#4E585D;stroke-width:5.000000e-02;stroke-miterlimit:10;}
	.st17{fill:#EB996E;}
</style>
<g id="Background_Complete">
	<g>
		<g>
			<g>
				<path class="st0" d="M190.7,436.3c0.4-3.2-4.1-5.9-7.6-6.2c-1.6-0.1-3.3,0.1-4.9-0.4c-3.4-1.2-4.7-5.5-8-6.9
					c-2.5-1-5.3-0.1-7.7,1.1c-2.4,1.2-4.7,2.7-7.4,2.9c-2.3,0.1-4.8-0.7-6.8,0.4c-1.5,0.8-2.3,2.6-3.7,3.6c-1.4,1-3.1,1.2-4.8,1.3
					c-1.7,0.1-3.4,0.1-5,0.8c-1.5,0.7-2.8,2.3-2.5,4L190.7,436.3z"/>
			</g>
		</g>
	</g>
	<g>
		<g>
			<g>
				<path class="st0" d="M660,149.9c0.7-5.3-6.8-9.7-12.4-10.2c-2.7-0.2-5.5,0.2-8.1-0.7c-5.5-1.9-7.7-9.1-13.1-11.4
					c-4-1.7-8.7-0.2-12.6,1.8c-3.9,2-7.8,4.4-12.2,4.7c-3.8,0.2-7.9-1.2-11.3,0.7c-2.5,1.4-3.8,4.2-6.1,5.9c-2.2,1.6-5.2,2-7.9,2.1
					c-2.8,0.2-5.6,0.2-8.2,1.3c-2.5,1.2-4.6,3.8-4.1,6.6L660,149.9z"/>
			</g>
		</g>
	</g>
	<g>
		<g>
			<g>
				<path class="st0" d="M105.5,283.2l24.1-3.7c2,13.2-7.2,25.8-20.4,27.8c-13.2,2-25.8-7.2-27.8-20.4c-2-13.2,7.2-25.8,20.4-27.8
					c2.1-0.3,4.2-0.4,6.4-0.1L105.5,283.2z"/>
			</g>
		</g>
		<g>
			<g>
				<path class="st1" d="M113.3,259l-2.9,18.7l18.4-3.4C128.7,274.3,126,263.8,113.3,259z"/>
			</g>
		</g>
	</g>
	<g>
		<g>
			<g>
				<g>
					<g>
						<path class="st2" d="M564.5,355.1c2.1,0,4.2,0.4,6.3,1l4.1-4.2l8.3,5l-1.9,5.6c1.5,1.5,2.7,3.2,3.7,5.1l5.9-0.1l2.3,9.4
							l-5.2,2.6c0,2.1-0.4,4.2-1,6.3l4.2,4.1l-5,8.3l-5.6-1.9c-1.5,1.5-3.2,2.7-5.1,3.7l0.1,5.9l-9.4,2.3l-2.6-5.2
							c-2.1,0-4.2-0.4-6.3-1l-4.1,4.2l-8.3-5l1.9-5.6c-1.5-1.5-2.7-3.2-3.7-5.1l-5.9,0.1l-2.3-9.4l5.2-2.6c0-2.1,0.4-4.2,1-6.3
							l-4.2-4.1l5-8.3l5.6,1.9c1.5-1.5,3.2-2.7,5.1-3.7l-0.1-5.9l9.4-2.3L564.5,355.1L564.5,355.1z M562,368.8
							c-5.6,1.4-9,7-7.6,12.6c1.4,5.6,7,9,12.6,7.6c5.6-1.4,9-7,7.6-12.6C573.2,370.9,567.5,367.5,562,368.8z"/>
					</g>
				</g>
			</g>
		</g>
		<g>
			<g>
				<g>
					<g>
						<g>
							<path class="st2" d="M562,368.8c0,0,0.9-0.4,2.5-0.4c1.6,0,4.2,0.4,6.6,2.3c1.2,0.9,2.3,2.2,3,3.8c0.7,1.6,1.1,3.5,0.9,5.5
								c-0.1,1-0.4,2-0.8,3c-0.4,1-1,1.9-1.7,2.7c-1.4,1.7-3.4,3-5.6,3.5c-2.3,0.5-4.6,0.3-6.6-0.5c-1-0.4-1.9-1-2.7-1.7
								c-0.8-0.7-1.5-1.4-2-2.3c-1.1-1.7-1.6-3.6-1.8-5.3c-0.1-1.8,0.3-3.4,0.9-4.8c1.2-2.8,3.3-4.3,4.8-5.1
								C561,368.9,562,368.8,562,368.8c0,0.1-0.9,0.2-2.3,1c-1.4,0.8-3.4,2.3-4.5,5c-0.6,1.3-0.9,2.9-0.8,4.6
								c0.1,1.7,0.6,3.5,1.7,5.1c0.5,0.8,1.2,1.5,2,2.2c0.8,0.6,1.6,1.2,2.6,1.6c1.9,0.8,4.1,1,6.3,0.5c2.1-0.5,4-1.7,5.3-3.3
								c0.7-0.8,1.2-1.7,1.6-2.6c0.4-0.9,0.6-1.9,0.7-2.8c0.2-1.9-0.2-3.7-0.8-5.3c-0.7-1.6-1.7-2.8-2.8-3.7
								c-2.3-1.9-4.7-2.3-6.3-2.4C562.9,368.6,562,368.9,562,368.8z"/>
						</g>
					</g>
				</g>
			</g>
		</g>
	</g>
	<g>
		<g>
			<g>
				<g>
					<path class="st2" d="M332.2,387.3c-0.1,0-0.1-0.7-0.2-1.9c0-0.6-0.1-1.4-0.3-2.3c-0.1-0.9-0.3-2-0.6-3.1
						c-0.5-2.3-1.6-5.1-3.2-8c-1.7-2.9-4.1-6-7.5-8.6c-3.3-2.6-7.5-4.8-12.4-5.8c-4.9-0.9-10.3-0.9-15.6,1c-2.6,0.9-5.2,2.2-7.6,3.9
						c-1.2,0.8-2.3,1.8-3.4,2.8c-1,1.1-2.1,2.1-3,3.4c-3.8,4.8-6,10.9-6.2,17.3c-0.1,6.4,1.8,12.7,5.3,17.6c0.8,1.3,1.8,2.4,2.8,3.5
						c1.1,1,2.1,2.1,3.3,2.9c2.3,1.8,4.8,3.3,7.4,4.2c5.2,2.1,10.7,2.4,15.5,1.7c4.9-0.7,9.2-2.8,12.7-5.2c3.5-2.5,6-5.4,7.9-8.2
						c1.8-2.8,3-5.6,3.6-7.9c0.4-1.1,0.6-2.2,0.8-3.1c0.2-0.9,0.3-1.7,0.4-2.3C332,388,332.1,387.3,332.2,387.3c0.1,0,0.1,0.7,0,2
						c0,0.6,0,1.4-0.2,2.4c-0.1,0.9-0.3,2-0.6,3.2c-0.5,2.4-1.7,5.2-3.5,8.2c-1.8,3-4.4,6.1-8,8.7c-3.5,2.6-8,4.8-13.2,5.6
						c-5.1,0.8-10.9,0.5-16.3-1.7c-2.7-1-5.4-2.5-7.8-4.4c-1.2-0.9-2.3-2-3.5-3.1c-1-1.2-2.1-2.3-3-3.7c-3.7-5.2-5.8-11.8-5.6-18.6
						c0.2-6.8,2.6-13.3,6.5-18.3c0.9-1.3,2.1-2.4,3.2-3.5c1.2-1,2.3-2.1,3.6-2.9c2.5-1.8,5.2-3.1,8-4c5.6-1.9,11.3-1.9,16.4-0.9
						c5.1,1.1,9.5,3.5,12.9,6.2c3.4,2.8,5.9,6,7.5,9.1c1.6,3.1,2.6,5.9,3.1,8.3c0.3,1.2,0.4,2.3,0.5,3.2c0.1,0.9,0.1,1.7,0.1,2.4
						C332.3,386.6,332.2,387.3,332.2,387.3z"/>
				</g>
			</g>
		</g>
		<g>
			<g>
				<g>
					<path class="st2" d="M326.1,368.3c0.1,0.1-0.5,0.6-1.5,1.4c-0.6,0.4-1.2,0.9-2,1.4c-0.4,0.3-0.8,0.6-1.2,0.8
						c-0.5,0.3-1,0.5-1.5,0.8c-4.1,2.4-10.5,4.8-17.9,4.5c-0.9,0-1.8-0.1-2.7-0.1c-0.9-0.1-1.7-0.3-2.6-0.4
						c-0.4-0.1-0.8-0.1-1.3-0.2c-0.4-0.1-0.8-0.2-1.2-0.3c-0.8-0.2-1.6-0.4-2.3-0.6c-3-1-5.6-2.2-7.6-3.5c-4.1-2.5-6.1-4.7-5.9-4.9
						c0.2-0.2,2.4,1.7,6.5,3.8c2,1.1,4.6,2.1,7.5,3.1c0.7,0.2,1.5,0.4,2.3,0.6c0.4,0.1,0.8,0.2,1.2,0.3c0.4,0.1,0.8,0.1,1.2,0.2
						c0.8,0.1,1.6,0.2,2.5,0.4c0.8,0,1.7,0.1,2.6,0.1c7,0.2,13.2-1.9,17.3-3.9c0.5-0.2,1-0.4,1.5-0.7c0.5-0.2,0.9-0.5,1.3-0.7
						c0.8-0.4,1.5-0.8,2.1-1.1C325.3,368.5,326,368.2,326.1,368.3z"/>
				</g>
			</g>
		</g>
		<g>
			<g>
				<g>
					<path class="st2" d="M277.4,405.3c-0.1-0.1,0.5-0.6,1.5-1.4c0.6-0.4,1.2-0.9,2-1.4c0.4-0.3,0.8-0.6,1.2-0.8
						c0.5-0.3,1-0.5,1.5-0.8c4.1-2.4,10.5-4.8,17.9-4.5c0.9,0,1.8,0.1,2.7,0.1c0.9,0.1,1.7,0.3,2.6,0.4c0.4,0.1,0.8,0.1,1.3,0.2
						c0.4,0.1,0.8,0.2,1.2,0.3c0.8,0.2,1.6,0.4,2.3,0.6c3,1,5.6,2.2,7.6,3.5c4.1,2.5,6.1,4.7,5.9,4.9c-0.2,0.2-2.4-1.7-6.5-3.8
						c-2-1.1-4.6-2.1-7.5-3.1c-0.7-0.2-1.5-0.4-2.3-0.6c-0.4-0.1-0.8-0.2-1.2-0.3c-0.4-0.1-0.8-0.1-1.2-0.2
						c-0.8-0.1-1.6-0.2-2.5-0.4c-0.8,0-1.7-0.1-2.6-0.1c-7-0.2-13.2,1.9-17.3,3.9c-0.5,0.2-1,0.4-1.5,0.7c-0.5,0.2-0.9,0.5-1.3,0.7
						c-0.8,0.4-1.5,0.8-2.1,1.1C278.2,405.1,277.5,405.4,277.4,405.3z"/>
				</g>
			</g>
		</g>
		<g>
			<g>
				<g>
					<path class="st2" d="M332.2,388c0,0.5-13.6,0.5-30.4,0.1c-16.8-0.4-30.4-1.1-30.4-1.6c0-0.5,13.6-0.5,30.4-0.1
						C318.6,386.8,332.2,387.5,332.2,388z"/>
				</g>
			</g>
		</g>
		<g>
			<g>
				<g>
					<path class="st2" d="M300.3,416.9c-0.5,0-0.5-13.6-0.1-30.4c0.4-16.8,1.1-30.4,1.6-30.4c0.5,0,0.5,13.6,0.1,30.4
						C301.5,403.4,300.8,417,300.3,416.9z"/>
				</g>
			</g>
		</g>
		<g>
			<g>
				<g>
					<path class="st2" d="M300.3,416.9c-0.1,0.2-3.5-2.1-7.3-7.2c-1.9-2.6-3.9-5.9-5.4-9.9c-1.5-4-2.5-8.7-2.4-13.6
						c0.1-5,1.3-9.6,3.1-13.5c1.7-3.9,3.9-7.1,5.9-9.6c4.1-4.9,7.5-7.1,7.6-7c0.2,0.2-2.9,2.7-6.7,7.7c-1.9,2.5-3.9,5.7-5.5,9.4
						c-1.6,3.8-2.7,8.2-2.8,12.9c-0.1,4.7,0.8,9.2,2.1,13.1c1.4,3.9,3.2,7.1,5,9.7C297.5,414.2,300.5,416.7,300.3,416.9z"/>
				</g>
			</g>
		</g>
		<g>
			<g>
				<g>
					<path class="st2" d="M302.5,356.2c0.1-0.2,3.5,2.1,7.3,7.2c1.9,2.6,3.9,5.9,5.4,9.9c1.5,4,2.5,8.7,2.4,13.6
						c-0.1,5-1.3,9.6-3.1,13.5c-1.7,3.9-3.9,7.1-5.9,9.6c-4.1,4.9-7.5,7.1-7.6,7c-0.2-0.2,2.9-2.7,6.7-7.7c1.9-2.5,3.9-5.7,5.5-9.4
						c1.6-3.8,2.7-8.2,2.8-12.9c0.1-4.7-0.8-9.2-2.1-13.1c-1.4-3.9-3.2-7.1-5-9.7C305.3,358.9,302.3,356.3,302.5,356.2z"/>
				</g>
			</g>
		</g>
	</g>
	<g>
		<g>
			<g>
				<g>
					<g>
						
							<rect x="209.5" y="215" transform="matrix(0.9961 -8.848188e-02 8.848188e-02 0.9961 -19.6207 21.6975)" class="st0" width="50.9" height="34.3"/>
					</g>
				</g>
			</g>
			<g>
				<g>
					<g>
						<g>
							<path class="st1" d="M258.7,212.8c0,0-0.1,0.2-0.4,0.5c-0.3,0.3-0.8,0.8-1.3,1.4c-1.2,1.2-2.8,2.9-4.8,5
								c-4.2,4.2-9.9,9.9-16.2,16.3l-0.1,0.1l-0.2-0.1c-0.1-0.1-0.3-0.2-0.4-0.3c-7.5-5-14.3-9.6-19.3-12.9c-2.4-1.6-4.4-3-5.8-3.9
								c-0.7-0.5-1.2-0.8-1.6-1.1c-0.4-0.3-0.5-0.4-0.5-0.4c0,0,0.2,0.1,0.6,0.3c0.4,0.3,0.9,0.6,1.6,1c1.4,0.9,3.4,2.2,5.9,3.8
								c5,3.3,11.8,7.8,19.4,12.8c0.1,0.1,0.3,0.2,0.4,0.3l-0.3,0c6.3-6.3,12.1-12,16.3-16.2c2.1-2,3.7-3.7,5-4.8
								c0.6-0.5,1-1,1.4-1.3C258.6,213,258.7,212.8,258.7,212.8z"/>
						</g>
					</g>
				</g>
			</g>
		</g>
		<g>
			<g>
				<g>
					<g>
						<path class="st1" d="M211.1,251.5c-0.1-0.1,3.3-5.1,7.6-11.2c4.3-6.1,7.9-11,8-10.9c0.1,0.1-3.3,5.1-7.6,11.2
							C214.8,246.7,211.2,251.6,211.1,251.5z"/>
					</g>
				</g>
			</g>
		</g>
		<g>
			<g>
				<g>
					<g>
						<path class="st1" d="M243.5,227.4c0.1-0.1,4.3,4.2,9.3,9.6c5.1,5.4,9.1,9.9,9,9.9c-0.1,0.1-4.3-4.2-9.3-9.6
							C247.4,231.9,243.4,227.5,243.5,227.4z"/>
					</g>
				</g>
			</g>
		</g>
	</g>
	<g>
		<g>
			<g>
				<path class="st2" d="M258.5,143.7c1.1-8.1-10.4-14.9-19-15.5c-4.1-0.3-8.4,0.3-12.3-1.1c-8.5-2.9-11.8-13.9-20.1-17.4
					c-6.2-2.6-13.3-0.3-19.3,2.7c-6,3-11.9,6.8-18.6,7.2c-5.8,0.4-12.1-1.8-17.2,1.1c-3.8,2.1-5.8,6.5-9.3,9.1
					c-3.4,2.5-7.9,3.1-12.1,3.3c-4.2,0.2-8.6,0.3-12.5,2c-3.9,1.8-7.1,5.9-6.3,10L258.5,143.7z"/>
			</g>
		</g>
	</g>
	<g>
		<g>
			<g>
				<path class="st2" d="M447.6,451.6c0.7-5.1-6.5-9.3-11.9-9.7c-2.6-0.2-5.3,0.2-7.7-0.7c-5.3-1.8-7.4-8.7-12.6-10.9
					c-3.9-1.6-8.3-0.2-12.1,1.7c-3.7,1.9-7.5,4.3-11.6,4.5c-3.6,0.2-7.6-1.1-10.8,0.7c-2.4,1.3-3.6,4.1-5.8,5.7
					c-2.1,1.6-4.9,1.9-7.6,2.1c-2.7,0.1-5.4,0.2-7.8,1.3c-2.4,1.1-4.4,3.7-3.9,6.3L447.6,451.6z"/>
			</g>
		</g>
	</g>
	<g>
		<g>
			<g>
				<path class="st0" d="M433.2,103.5c0.7-5.3-6.8-9.7-12.4-10.2c-2.7-0.2-5.5,0.2-8.1-0.7c-5.5-1.9-7.7-9.1-13.1-11.4
					c-4-1.7-8.7-0.2-12.6,1.8c-3.9,2-7.8,4.4-12.2,4.7c-3.8,0.2-7.9-1.2-11.3,0.7c-2.5,1.4-3.8,4.2-6.1,5.9c-2.2,1.6-5.2,2-7.9,2.1
					s-5.6,0.2-8.2,1.3c-2.5,1.2-4.6,3.8-4.1,6.6L433.2,103.5z"/>
			</g>
		</g>
	</g>
</g>
<g id="Background_Simple" class="st3">
	<path class="st4" d="M315.8,129c-11.4-19.6-38-28.8-59-20.2c-9.5,3.9-17.9,10.9-28.1,12.3c-16.3,2.4-30.8-9.9-41.7-22.1
		c-11-12.2-22.5-26.1-38.7-28.9c-21-3.6-40.3,13.8-49.1,33.1c-14.8,32.5-8.4,73.4,15.5,99.9c23,25.4,56.2,42,95.9,40.5l0,0
		c21.1-1.9,31.6-4.2,51.8-10.7c20.2-6.5,37.5-26.1,49.2-43.7S326.4,147.3,315.8,129z"/>
	<path class="st4" d="M481.8,96.7c-12.2-13.5-29.6-22.1-47.7-23.7c-15.8-1.3-37-1.4-51.6,6.1l0,0c0,0,0,0,0,0c0,0,0,0-0.1,0
		c-14.2,6.8-27,17.7-32.2,30.6c-5.2,12.9-2.9,28.6,5.9,39.3c8.9,10.7,24.1,15.8,37.6,12.3c13.5-3.5,24.9-14.7,38.8-14.5
		c13.5,0.2,25.2,11.3,38.7,10.5c12.8-0.8,22.9-13.1,24-25.8C496.5,118.7,490.4,106.2,481.8,96.7z"/>
	<path class="st4" d="M656.6,118.9c-10.1-14.4-32.3-18.6-47-8.8l-2.7,2c-13.6,11.2-16.2,33.6-5.3,47.5c10.8,13.9,33.2,17,47.4,6.5
		C663.1,155.6,666.7,133.4,656.6,118.9z"/>
</g>
<g id="Sheet">
	<g>
		<g>
			<g>
				<g>
					<g>
						<g>
							<g>
								<g>
									<path class="st5" d="M386.4,239.6l-32.3,17c-2.2,1.2-5,0.3-6.2-1.9L324.5,210c-1.2-2.2-0.3-5,1.9-6.2l20.5-10.8l24.4,8
										l17,32.4C389.5,235.7,388.6,238.4,386.4,239.6z"/>
								</g>
							</g>
						</g>
					</g>
				</g>
			</g>
			<g>
				<g>
					<g>
						<g>
							<g>
								<g>
									<path class="st5" d="M346.9,193l6.6,12.6c1.1,2.1,3.7,2.9,5.7,1.8l12.1-6.4L346.9,193z"/>
								</g>
							</g>
						</g>
					</g>
				</g>
			</g>
			<g class="st6">
				<g>
					<g>
						<g>
							<g>
								<g>
									<path d="M354.2,206.6c0,0,1.4,3.1,5.4,2.3c0.2,0,0.3-0.1,0.4-0.1c1.7-0.5,13.1-4.2,13-4.4c-0.1-0.3-1.8-3.4-1.8-3.4
										l-12.1,6.4C359.2,207.4,356.1,208.9,354.2,206.6z"/>
								</g>
							</g>
						</g>
					</g>
				</g>
			</g>
			<g class="st7">
				<g>
					<g>
						<g>
							<g>
								<g>
									<path class="st8" d="M346.9,193l6.6,12.6c1.1,2.1,3.7,2.9,5.7,1.8l12.1-6.4L346.9,193z"/>
								</g>
							</g>
						</g>
					</g>
				</g>
			</g>
		</g>
		<g>
			<g>
				<g>
					<g>
						<g>
							<path class="st9" d="M350.5,206.5c0.1,0.2-3.2,2.1-7.3,4.2c-4.1,2.2-7.5,3.8-7.6,3.6c-0.1-0.2,3.2-2.1,7.3-4.2
								C347,208,350.4,206.4,350.5,206.5z"/>
						</g>
					</g>
				</g>
			</g>
		</g>
		<g>
			<g>
				<g>
					<g>
						<g>
							<path class="st9" d="M363.9,208.6c0.1,0.2-5.3,3.2-12.1,6.8c-6.8,3.6-12.4,6.3-12.4,6.2c-0.1-0.2,5.3-3.2,12.1-6.8
								C358.2,211.2,363.8,208.4,363.9,208.6z"/>
						</g>
					</g>
				</g>
			</g>
		</g>
		<g>
			<g>
				<g>
					<g>
						<g>
							<path class="st9" d="M369.2,213.3c0.1,0.2-5.8,3.4-13.2,7.3c-7.4,3.9-13.5,6.9-13.5,6.8c-0.1-0.2,5.8-3.4,13.2-7.3
								C363.1,216.2,369.1,213.2,369.2,213.3z"/>
						</g>
					</g>
				</g>
			</g>
		</g>
		<g>
			<g>
				<g>
					<g>
						<g>
							<path class="st9" d="M372.2,218.9c0.1,0.2-5.8,3.4-13.2,7.3c-7.4,3.9-13.5,6.9-13.5,6.8c-0.1-0.2,5.8-3.4,13.2-7.3
								C366,221.8,372.1,218.8,372.2,218.9z"/>
						</g>
					</g>
				</g>
			</g>
		</g>
		<g>
			<g>
				<g>
					<g>
						<g>
							<path class="st9" d="M375.1,224.5c0.1,0.2-5.8,3.4-13.2,7.3c-7.4,3.9-13.5,6.9-13.5,6.8c-0.1-0.2,5.8-3.4,13.2-7.3
								C369,227.4,375,224.4,375.1,224.5z"/>
						</g>
					</g>
				</g>
			</g>
		</g>
		<g>
			<g>
				<g>
					<g>
						<g>
							<path class="st9" d="M378.1,230.1c0.1,0.2-5.8,3.4-13.2,7.3c-7.4,3.9-13.5,6.9-13.5,6.8c-0.1-0.2,5.8-3.4,13.2-7.3
								C371.9,233,378,230,378.1,230.1z"/>
						</g>
					</g>
				</g>
			</g>
		</g>
	</g>
</g>
<g id="Stopwatch">
	<g>
		<g>
			<g>
				<g>
					<g>
						<g>
							
								<rect x="263.8" y="274.5" transform="matrix(0.4483 -0.8939 0.8939 0.4483 -101.2341 390.1298)" class="st10" width="3.3" height="5.1"/>
						</g>
					</g>
				</g>
				<g>
					<g>
						<g>
							<path class="st11" d="M266.1,273.6l-3,6l-4.9-2.5c0.5-2.4,1.5-4.4,3-6L266.1,273.6z"/>
						</g>
					</g>
				</g>
			</g>
			<g>
				<g>
					<g>
						<g>
							<path class="st10" d="M263.5,278.6c0,0.1-1.2-0.4-2.7-1.1c-1.4-0.7-2.5-1.3-2.5-1.4c0-0.1,1.2,0.4,2.7,1.1
								C262.5,277.9,263.6,278.5,263.5,278.6z"/>
						</g>
					</g>
				</g>
			</g>
			<g>
				<g>
					<g>
						<g>
							<path class="st10" d="M264.1,277.5c-0.1,0.1-1.2-0.5-2.7-1.2c-1.4-0.8-2.6-1.4-2.5-1.5c0.1-0.1,1.3,0.4,2.7,1.2
								C263.1,276.7,264.2,277.4,264.1,277.5z"/>
						</g>
					</g>
				</g>
			</g>
			<g>
				<g>
					<g>
						<g>
							<path class="st10" d="M264.9,275.9c-0.1,0.1-1.3-0.5-2.7-1.2c-1.4-0.8-2.6-1.5-2.5-1.5c0.1-0.1,1.3,0.4,2.7,1.2
								C263.8,275.1,264.9,275.8,264.9,275.9z"/>
						</g>
					</g>
				</g>
			</g>
			<g>
				<g>
					<g>
						<g>
							<path class="st10" d="M265.6,274.5c0,0.1-1.2-0.4-2.7-1.1c-1.4-0.7-2.5-1.4-2.5-1.5c0-0.1,1.2,0.4,2.7,1.1
								C264.5,273.8,265.6,274.4,265.6,274.5z"/>
						</g>
					</g>
				</g>
			</g>
		</g>
		<g>
			<g>
				<g>
					<g>
						<g>
							
								<rect x="301.4" y="259.4" transform="matrix(0.9161 0.4009 -0.4009 0.9161 130.4329 -99.5112)" class="st10" width="3.3" height="5.1"/>
						</g>
					</g>
				</g>
				<g>
					<g>
						<g>
							<path class="st11" d="M306.6,262.4l-6.2-2.7l2.2-5c2.4,0.4,4.5,1.3,6.2,2.7L306.6,262.4z"/>
						</g>
					</g>
				</g>
			</g>
			<g>
				<g>
					<g>
						<g>
							<path class="st10" d="M301.4,260.1c-0.1,0,0.3-1.3,1-2.7c0.6-1.5,1.2-2.6,1.3-2.6c0.1,0-0.3,1.3-1,2.7
								C302.1,259,301.5,260.2,301.4,260.1z"/>
						</g>
					</g>
				</g>
			</g>
			<g>
				<g>
					<g>
						<g>
							<path class="st10" d="M302.6,260.7c-0.1,0,0.4-1.3,1.1-2.7c0.7-1.5,1.3-2.6,1.4-2.6c0.1,0-0.3,1.3-1,2.8
								C303.3,259.5,302.7,260.7,302.6,260.7z"/>
						</g>
					</g>
				</g>
			</g>
			<g>
				<g>
					<g>
						<g>
							<path class="st10" d="M304.2,261.3c-0.1,0,0.4-1.3,1.1-2.8c0.7-1.5,1.3-2.6,1.4-2.6c0.1,0-0.4,1.3-1.1,2.8
								C304.9,260.2,304.3,261.4,304.2,261.3z"/>
						</g>
					</g>
				</g>
			</g>
			<g>
				<g>
					<g>
						<g>
							<path class="st10" d="M305.6,261.9c-0.1,0,0.3-1.3,1-2.7c0.6-1.5,1.2-2.6,1.3-2.5c0.1,0-0.3,1.3-1,2.7
								C306.3,260.9,305.7,262,305.6,261.9z"/>
						</g>
					</g>
				</g>
			</g>
		</g>
		<g>
			<g>
				<g>
					<g>
						<g>
							
								<rect x="279.4" y="258.4" transform="matrix(0.9228 -0.3854 0.3854 0.9228 -79.0179 128.6234)" class="st10" width="3.9" height="6"/>
						</g>
					</g>
				</g>
				<g>
					<g>
						<g>
							<path class="st5" d="M284.6,258.8l-7.4,3.1l-2.5-6c2.3-1.7,4.8-2.8,7.4-3.1L284.6,258.8z"/>
						</g>
					</g>
				</g>
			</g>
			<g>
				<g>
					<g>
						<g>
							<path class="st10" d="M282.2,252.8c0.1,0-1.1,1.6-3.3,2.5c-2.2,0.9-4.1,0.7-4.1,0.7c0-0.1,1.9-0.1,4-1
								C280.8,254,282.1,252.7,282.2,252.8z"/>
						</g>
					</g>
				</g>
			</g>
			<g>
				<g>
					<g>
						<g>
							<path class="st10" d="M279.7,260.8c-0.1,0-0.7-1.1-1.3-2.5c-0.6-1.4-1-2.6-0.9-2.6c0.1,0,0.7,1.1,1.3,2.5
								C279.4,259.6,279.8,260.8,279.7,260.8z"/>
						</g>
					</g>
				</g>
			</g>
			<g>
				<g>
					<g>
						<g>
							<path class="st10" d="M281.1,260.3c-0.1,0-0.7-1.1-1.3-2.5c-0.6-1.4-1-2.6-0.9-2.7c0.1,0,0.7,1.1,1.3,2.5
								C280.8,259,281.2,260.2,281.1,260.3z"/>
						</g>
					</g>
				</g>
			</g>
			<g>
				<g>
					<g>
						<g>
							<path class="st10" d="M282.5,259.7c-0.1,0-0.7-1.1-1.3-2.5c-0.6-1.4-1-2.6-0.9-2.7c0.1,0,0.7,1.1,1.3,2.5
								C282.2,258.4,282.6,259.6,282.5,259.7z"/>
						</g>
					</g>
				</g>
			</g>
			<g>
				<g>
					<g>
						<g>
							<path class="st10" d="M283.6,259.2c-0.1,0-0.7-1.2-1.3-2.7c-0.6-1.5-1.1-2.8-1-2.9c0.1,0,0.7,1.2,1.3,2.7
								C283.3,257.8,283.7,259.1,283.6,259.2z"/>
						</g>
					</g>
				</g>
			</g>
			<g>
				<g>
					<g>
						<g>
							<path class="st10" d="M278.3,261.3c-0.1,0-0.7-1.2-1.3-2.7c-0.6-1.5-1.1-2.8-1-2.9c0.1,0,0.7,1.2,1.3,2.7
								C278,260,278.4,261.3,278.3,261.3z"/>
						</g>
					</g>
				</g>
			</g>
		</g>
		<g>
			<g>
				<g>
					
						<ellipse transform="matrix(0.5527 -0.8334 0.8334 0.5527 -109.8416 372.6461)" class="st5" cx="292.2" cy="288.6" rx="28.1" ry="28.1"/>
				</g>
			</g>
		</g>
		<g>
			<g>
				<g>
					<g>
						
							<ellipse transform="matrix(0.3722 -0.9281 0.9281 0.3722 -84.3193 452.2163)" class="st9" cx="292.1" cy="288.4" rx="23.6" ry="23.6"/>
					</g>
				</g>
			</g>
			<g>
				<g>
					<g>
						<g>
							<path class="st10" d="M313.9,279.3c0,0-0.1-0.1-0.2-0.3c-0.1-0.2-0.3-0.6-0.5-1c-0.1-0.2-0.2-0.5-0.4-0.7
								c-0.1-0.3-0.3-0.5-0.5-0.9c-0.4-0.6-0.8-1.3-1.4-2.1c-1.1-1.5-2.7-3.2-4.8-4.8c-2.1-1.6-4.9-3-8.1-3.8
								c-3.2-0.8-7-1.1-10.8-0.2c-0.9,0.2-1.9,0.4-2.9,0.8c-0.5,0.2-1,0.3-1.4,0.5c-0.5,0.2-0.9,0.4-1.4,0.7
								c-0.2,0.1-0.5,0.2-0.7,0.3l-0.7,0.4c-0.4,0.3-0.9,0.5-1.4,0.8c-0.8,0.7-1.8,1.3-2.5,2.1c-0.8,0.7-1.6,1.6-2.3,2.4
								c-0.4,0.4-0.7,0.9-1,1.4c-0.4,0.4-0.6,0.9-0.9,1.4c-0.6,1-1.1,2-1.6,3.1c-0.4,1.1-0.8,2.2-1.1,3.4c-0.5,2.3-0.8,4.8-0.6,7.3
								c0.2,2.5,0.8,4.9,1.7,7.3c1,2.3,2.4,4.5,4,6.4c1.6,1.9,3.5,3.4,5.6,4.7c1,0.7,2.1,1.1,3.2,1.6c1.1,0.4,2.2,0.8,3.3,1.1
								c0.6,0.1,1.1,0.3,1.7,0.4c0.6,0.1,1.1,0.2,1.7,0.2c1.1,0.1,2.2,0.2,3.3,0.1c1.1,0,2.2-0.2,3.2-0.4c0.5-0.1,1-0.3,1.6-0.4
								l0.8-0.2c0.3-0.1,0.5-0.2,0.7-0.3c0.5-0.2,1-0.4,1.5-0.5c0.5-0.2,0.9-0.4,1.4-0.6c0.9-0.4,1.8-1,2.6-1.5
								c3.3-2.1,5.7-5,7.4-7.9c1.7-2.9,2.6-5.8,3-8.5c0.4-2.6,0.3-4.9,0-6.8c-0.1-0.9-0.3-1.7-0.5-2.4c-0.1-0.3-0.2-0.7-0.2-1
								c-0.1-0.3-0.2-0.5-0.3-0.8c-0.2-0.5-0.3-0.8-0.4-1.1C314,279.5,313.9,279.3,313.9,279.3s0.1,0.1,0.1,0.4
								c0.1,0.3,0.2,0.6,0.4,1.1c0.1,0.2,0.2,0.5,0.3,0.8c0.1,0.3,0.2,0.6,0.3,1c0.2,0.7,0.4,1.5,0.5,2.4c0.3,1.9,0.4,4.2,0.1,6.8
								c-0.4,2.6-1.2,5.6-2.9,8.6c-1.7,2.9-4.1,5.8-7.5,8c-0.9,0.5-1.7,1.1-2.6,1.5c-0.5,0.2-0.9,0.5-1.4,0.7
								c-0.5,0.2-1,0.4-1.5,0.5c-0.3,0.1-0.5,0.2-0.8,0.3l-0.8,0.2c-0.5,0.1-1,0.3-1.6,0.4c-1.1,0.1-2.2,0.4-3.3,0.4
								c-1.1,0.1-2.2,0-3.4-0.1c-0.6-0.1-1.1-0.2-1.7-0.2c-0.6-0.1-1.1-0.2-1.7-0.4c-1.2-0.2-2.3-0.7-3.4-1.1
								c-1.1-0.5-2.2-1-3.2-1.6c-2.1-1.3-4.1-2.8-5.7-4.7c-1.6-1.9-3-4.1-4-6.5c-1-2.4-1.6-4.9-1.8-7.4c-0.2-2.5,0.1-5,0.6-7.4
								c0.3-1.2,0.7-2.3,1.1-3.4c0.5-1.1,1-2.2,1.6-3.2c0.3-0.5,0.6-1,0.9-1.5c0.3-0.5,0.7-0.9,1-1.4c0.8-0.9,1.5-1.7,2.3-2.5
								c0.8-0.8,1.7-1.4,2.6-2.1c0.4-0.3,0.9-0.6,1.4-0.9l0.7-0.4c0.2-0.1,0.5-0.2,0.7-0.4c0.5-0.2,1-0.5,1.4-0.7
								c0.5-0.2,1-0.4,1.5-0.5c1-0.4,2-0.6,2.9-0.8c3.9-0.9,7.7-0.6,10.9,0.3c3.3,0.9,6,2.3,8.1,3.9c2.1,1.6,3.7,3.3,4.8,4.9
								c0.6,0.7,1,1.5,1.4,2.1c0.2,0.3,0.4,0.6,0.5,0.9c0.1,0.3,0.2,0.5,0.4,0.8c0.2,0.4,0.4,0.8,0.5,1
								C313.9,279.2,313.9,279.3,313.9,279.3z"/>
						</g>
					</g>
				</g>
			</g>
		</g>
		<g>
			<g>
				<g>
					<g>
						<g>
							<path class="st10" d="M310.6,280.3c-2,0.9-3.6,1.4-3.7,1.3c-0.1-0.1,1.4-1,3.4-2c1.9-0.9,3.6-1.5,3.7-1.3
								C314.1,278.6,312.6,279.5,310.6,280.3z"/>
						</g>
					</g>
				</g>
			</g>
			<g>
				<g>
					<g>
						<g>
							<path class="st10" d="M311,295.7c-2-0.8-3.6-1.5-3.5-1.7c0.1-0.2,1.8,0.3,3.8,1c2,0.7,3.6,1.4,3.5,1.7
								C314.7,296.9,313,296.4,311,295.7z"/>
						</g>
					</g>
				</g>
			</g>
			<g>
				<g>
					<g>
						<g>
							<path class="st10" d="M300.5,306.8c-0.9-2-1.5-3.6-1.3-3.7c0.1-0.1,1,1.4,2,3.4c1,1.9,1.6,3.6,1.3,3.7
								C302.2,310.3,301.3,308.8,300.5,306.8z"/>
						</g>
					</g>
				</g>
			</g>
			<g>
				<g>
					<g>
						<g>
							<path class="st10" d="M285.1,307.4c0.8-2,1.5-3.6,1.6-3.6c0.2,0.1-0.3,1.8-0.9,3.8c-0.7,2-1.4,3.6-1.6,3.6
								C283.9,311.1,284.4,309.4,285.1,307.4z"/>
						</g>
					</g>
				</g>
			</g>
			<g>
				<g>
					<g>
						<g>
							<path class="st10" d="M273.8,297c2-0.9,3.6-1.5,3.7-1.4c0.1,0.1-1.4,1.1-3.3,2c-1.9,1-3.6,1.6-3.7,1.4
								C270.4,298.8,271.9,297.9,273.8,297z"/>
						</g>
					</g>
				</g>
			</g>
			<g>
				<g>
					<g>
						<g>
							<path class="st10" d="M273.1,281.6c2,0.7,3.6,1.5,3.6,1.6c-0.1,0.2-1.8-0.2-3.8-0.9c-2.1-0.6-3.7-1.4-3.6-1.6
								C269.4,280.5,271.1,280.9,273.1,281.6z"/>
						</g>
					</g>
				</g>
			</g>
			<g>
				<g>
					<g>
						<g>
							<path class="st10" d="M283.4,270.2c0.9,1.9,1.6,3.6,1.4,3.7c-0.1,0.1-1.1-1.4-2.1-3.3c-1-1.9-1.6-3.5-1.4-3.7
								C281.5,266.8,282.5,268.3,283.4,270.2z"/>
						</g>
					</g>
				</g>
			</g>
			<g>
				<g>
					<g>
						<g>
							<path class="st10" d="M298.7,269.4c-0.7,2-1.4,3.6-1.6,3.6c-0.2,0,0.2-1.8,0.9-3.8c0.6-2.1,1.3-3.7,1.6-3.6
								C299.8,265.6,299.4,267.3,298.7,269.4z"/>
						</g>
					</g>
				</g>
			</g>
			<g>
				<g>
					<g>
						<g>
							<path class="st10" d="M310.2,279.5c-1.9,0.9-3.6,1.6-3.6,1.5c-0.1-0.1,1.4-1.1,3.3-2.1c1.9-1,3.5-1.7,3.6-1.5
								C313.7,277.6,312.2,278.6,310.2,279.5z"/>
						</g>
					</g>
				</g>
			</g>
		</g>
		<g>
			<g>
				<g>
					<g>
						<path class="st8" d="M273.8,268.4c0,0-0.3,0.4-0.9,1c-0.6,0.6-1.4,1.6-2.4,2.8c-1.8,2.4-4,6.2-4.9,10.8
							c-1,4.6-0.5,8.9,0.2,11.9c0.4,1.5,0.8,2.7,1.1,3.5c0.3,0.8,0.5,1.3,0.5,1.3c0,0-0.1-0.1-0.2-0.3c-0.1-0.2-0.3-0.5-0.4-0.9
							c-0.3-0.8-0.8-2-1.2-3.5c-0.8-3-1.3-7.4-0.3-12.1c1-4.7,3.1-8.5,5.1-10.9c1-1.2,1.8-2.1,2.5-2.7c0.3-0.3,0.6-0.5,0.7-0.7
							C273.7,268.4,273.8,268.4,273.8,268.4z"/>
					</g>
				</g>
			</g>
		</g>
		<g>
			<g>
				<g>
					<g>
						<path class="st8" d="M280.5,263.9c0,0.1-1,0.7-2.4,1.5c-1.3,0.8-2.4,1.4-2.5,1.3c-0.1-0.1,0.9-0.9,2.3-1.7
							C279.3,264.3,280.4,263.9,280.5,263.9z"/>
					</g>
				</g>
			</g>
		</g>
		<g class="st12">
			<g>
				<g>
					<path d="M280.2,308.8c0,0,18.8,13.1,32.5-3.3c14.3-17.2-4.9-34.8-4.9-34.8s15.9,13.8,2.8,32.6c-3.3,4.7-8.1,6.7-11.9,7.9
						C288.7,314.2,280.2,308.8,280.2,308.8z"/>
				</g>
			</g>
		</g>
		<g>
			<g>
				<g>
					<path class="st1" d="M293.4,274.3c1.4,3.2,2.7,6.4,3.7,9.7c0.4,1.2,0.7,2.4,0.7,3.7c0,1.3-0.3,2.6-1.2,3.5s-2.3,1.3-3.4,0.7
						L293.4,274.3z"/>
				</g>
			</g>
		</g>
		<g>
			<g>
				<g>
					<g>
						<g>
							<polygon class="st5" points="290.9,286.9 293.3,270.3 294.8,287.3 292.7,289.1 							"/>
						</g>
					</g>
				</g>
				<g class="st12">
					<g>
						<g>
							<polygon points="293.3,270.3 293.1,286.4 294.8,287.3 							"/>
						</g>
					</g>
				</g>
			</g>
			<g>
				<g>
					<g>
						<g>
							<g>
								<path class="st9" d="M295.2,288c0.6,1.4-0.1,3-1.5,3.6c-1.4,0.6-3-0.1-3.6-1.5c-0.6-1.4,0.1-3,1.5-3.6
									C293,285.9,294.6,286.6,295.2,288z"/>
							</g>
						</g>
					</g>
					<g>
						<g>
							<g>
								<g>
									<path class="st10" d="M295.2,288c0,0-0.1-0.2-0.4-0.5c-0.3-0.3-0.8-0.8-1.5-0.9c-0.7-0.2-1.7,0-2.4,0.6
										c-0.7,0.6-1.1,1.8-0.6,2.9c0.4,1.1,1.5,1.6,2.5,1.6c1,0,1.8-0.6,2.1-1.3c0.4-0.6,0.4-1.3,0.4-1.7
										C295.3,288.3,295.2,288,295.2,288c0,0,0.2,0.2,0.3,0.6c0.1,0.4,0.1,1.1-0.3,1.9c-0.4,0.7-1.2,1.4-2.4,1.5
										c-1.1,0.1-2.4-0.6-2.9-1.8c-0.5-1.2-0.1-2.6,0.7-3.3c0.8-0.8,1.9-0.9,2.7-0.6c0.8,0.2,1.3,0.7,1.5,1.1
										C295.2,287.8,295.2,288,295.2,288z"/>
								</g>
							</g>
						</g>
					</g>
				</g>
				<g>
					<g>
						<g>
							<g>
								<path class="st11" d="M294.6,288.3c0.4,1-0.1,2.3-1.1,2.7c-1,0.4-2.3-0.1-2.7-1.1c-0.4-1,0.1-2.3,1.1-2.7
									C292.9,286.7,294.1,287.2,294.6,288.3z"/>
							</g>
						</g>
					</g>
				</g>
			</g>
		</g>
	</g>
</g>
<g id="Video">
	<g>
		<g>
			<g>
				<g>
					<g>
						<path class="st5" d="M255.5,358.2c0,0,0.6-0.1,1.2-0.8c0.3-0.4,0.6-1,0.6-1.7c0-0.4-0.1-0.7-0.2-1.1c-0.1-0.4-0.2-0.8-0.3-1.3
							c-0.9-3.7-2.3-9.1-3.9-15.7c-0.4-1.7-0.8-3.4-1.3-5.2c-0.2-0.9-0.4-1.8-0.7-2.8c-0.1-0.5-0.2-1-0.4-1.4
							c-0.2-0.4-0.5-0.8-0.9-1c-0.4-0.2-0.9-0.4-1.3-0.3c-0.4,0-1,0.2-1.5,0.3c-1,0.3-2,0.5-3.1,0.8c-2.1,0.5-4.2,1.1-6.4,1.7
							c-8.7,2.3-18.3,4.7-28.4,7.3c-1.2,0.3-1.9,1.6-1.7,2.7c0.3,1.2,0.6,2.5,0.9,3.7c0.6,2.5,1.2,4.9,1.8,7.3
							c1.2,4.8,2.3,9.4,3.3,13.8c0.1,0.5,0.3,1.1,0.4,1.6c0.1,0.5,0.3,1,0.7,1.3c0.4,0.3,0.8,0.6,1.3,0.6c0.5,0.1,1-0.1,1.5-0.2
							c2.1-0.5,4.1-1,6-1.5c3.9-1,7.5-1.9,10.8-2.8c6.6-1.7,11.9-3,15.7-4c1.8-0.5,3.3-0.8,4.3-1.1c0.5-0.1,0.8-0.2,1.1-0.3
							C255.4,358.2,255.5,358.2,255.5,358.2c0,0-0.1,0-0.4,0.1c-0.3,0.1-0.6,0.2-1.1,0.3c-1,0.3-2.4,0.7-4.2,1.1
							c-3.7,1-9.1,2.4-15.6,4.1c-3.3,0.9-6.9,1.8-10.8,2.8c-1.9,0.5-4,1-6,1.6c-0.5,0.1-1.1,0.3-1.7,0.2c-0.6-0.1-1.2-0.3-1.6-0.7
							c-0.4-0.4-0.7-1-0.8-1.5c-0.1-0.5-0.3-1.1-0.4-1.6c-1.1-4.4-2.2-9-3.4-13.8c-0.6-2.4-1.2-4.8-1.8-7.3
							c-0.3-1.2-0.6-2.5-0.9-3.7c-0.3-1.4,0.6-2.9,2.1-3.3c10.1-2.6,19.7-5.1,28.4-7.3c2.2-0.6,4.3-1.1,6.4-1.6
							c1-0.3,2.1-0.5,3.1-0.8c0.5-0.1,1-0.3,1.5-0.3c0.6,0,1.1,0.1,1.6,0.4c0.5,0.3,0.8,0.7,1.1,1.2c0.2,0.5,0.3,1,0.4,1.4
							c0.2,0.9,0.4,1.9,0.7,2.8c0.4,1.8,0.8,3.6,1.2,5.2c1.6,6.6,2.8,12,3.7,15.7c0.1,0.5,0.2,0.9,0.3,1.3c0.1,0.4,0.2,0.8,0.2,1.2
							c0,0.8-0.3,1.4-0.7,1.7c-0.3,0.4-0.7,0.6-0.9,0.7C255.6,358.2,255.5,358.2,255.5,358.2z"/>
					</g>
				</g>
			</g>
		</g>
		<g>
			<g>
				<g>
					<polygon class="st5" points="233.2,344.4 239.3,346.2 234.7,350.8 230.1,355.3 228.6,348.9 227.1,342.6 					"/>
				</g>
			</g>
		</g>
	</g>
</g>
<g id="Photos">
	<g>
		<g>
			<g>
				<g>
					<g>
						<g>
							<g>
								<g>
									<g>
										
											<rect x="144.6" y="300.9" transform="matrix(0.9678 -0.2519 0.2519 0.9678 -73.9156 50.6994)" class="st2" width="33" height="26.4"/>
									</g>
								</g>
							</g>
						</g>
						<g>
							<g>
								<g>
									<g>
										<g>
											<path class="st10" d="M173.7,297.1c0,0-0.1,0-0.2,0c-0.1,0-0.3,0.1-0.4,0.1c-0.4,0.1-1,0.3-1.7,0.5
												c-1.5,0.4-3.7,1-6.5,1.7c-5.6,1.5-13.6,3.6-23.1,6l0.1-0.1c2,7.6,4.3,16.3,6.7,25.6l0,0l-0.1-0.1
												c11.8-3.1,22.8-5.9,32-8.3l-0.1,0.1c-2-7.7-3.6-14.1-4.8-18.5c-0.6-2.2-1-4-1.3-5.2c-0.2-0.6-0.3-1.1-0.3-1.4
												C173.8,297.3,173.7,297.1,173.7,297.1s0,0.2,0.1,0.5c0.1,0.3,0.2,0.8,0.4,1.3c0.3,1.2,0.8,2.9,1.4,5.2
												c1.2,4.5,2.9,10.9,4.9,18.6l0,0.1l-0.1,0c-9.1,2.4-20.1,5.3-32,8.3l-0.1,0l0-0.1l0,0c-2.4-9.2-4.7-18-6.6-25.6l0-0.1
												l0.1,0c9.5-2.5,17.5-4.5,23.1-6c2.8-0.7,5-1.3,6.5-1.7c0.8-0.2,1.3-0.3,1.7-0.4c0.2,0,0.3-0.1,0.4-0.1
												C173.7,297.1,173.7,297.1,173.7,297.1z"/>
										</g>
									</g>
								</g>
							</g>
						</g>
					</g>
				</g>
			</g>
			<g>
				<g>
					<g>
						<g>
							
								<rect x="145.7" y="302.5" transform="matrix(0.9678 -0.2519 0.2519 0.9678 -73.9166 50.6934)" class="st5" width="30.7" height="23.1"/>
						</g>
					</g>
				</g>
			</g>
			<g>
				<g>
					<g>
						<g>
							<polygon class="st5" points="149.1,329.1 155.9,312.5 164.6,319.5 167.7,313.8 178.8,321.4 							"/>
						</g>
					</g>
				</g>
			</g>
			<g>
				<g>
					<g>
						<g>
							<g>
								<g>
									<path class="st5" d="M164.6,308.4c0.3,1.3-0.4,2.6-1.7,2.9c-1.3,0.3-2.6-0.4-2.9-1.7c-0.3-1.3,0.4-2.6,1.7-2.9
										S164.3,307.1,164.6,308.4z"/>
								</g>
							</g>
						</g>
					</g>
				</g>
			</g>
			<g class="st6">
				<g>
					<g>
						<g>
							<polygon points="149.1,329.1 155.9,312.5 164.6,319.5 167.7,313.8 178.8,321.4 							"/>
						</g>
					</g>
				</g>
			</g>
			<g class="st6">
				<g>
					<g>
						<g>
							<g>
								<g>
									<path d="M164.6,308.4c0.3,1.3-0.4,2.6-1.7,2.9c-1.3,0.3-2.6-0.4-2.9-1.7c-0.3-1.3,0.4-2.6,1.7-2.9S164.3,307.1,164.6,308.4
										z"/>
								</g>
							</g>
						</g>
					</g>
				</g>
			</g>
		</g>
		<g>
			<g>
				<g>
					<g>
						<g>
							<g>
								<g>
									<g>
										
											<rect x="159" y="276.7" transform="matrix(0.9975 -7.031159e-02 7.031159e-02 0.9975 -20.405 13.6689)" class="st2" width="49.9" height="39.9"/>
									</g>
								</g>
							</g>
						</g>
						<g>
							<g>
								<g>
									<g>
										<g>
											<path class="st10" d="M207.5,275c0,0-0.1,0-0.2,0c-0.2,0-0.4,0-0.7,0.1c-0.6,0-1.5,0.1-2.7,0.2
												c-2.4,0.2-5.8,0.4-10.2,0.8c-8.7,0.6-21.2,1.5-36,2.6l0.1-0.1c0.8,11.8,1.8,25.4,2.8,39.8l0,0l-0.2-0.1
												c18.4-1.3,35.6-2.5,49.8-3.5l-0.1,0.1c-0.8-12-1.5-21.9-2-28.9c-0.2-3.5-0.4-6.2-0.5-8.1c-0.1-0.9-0.1-1.6-0.1-2.1
												C207.5,275.3,207.5,275,207.5,275s0,0.2,0.1,0.7c0,0.5,0.1,1.2,0.2,2.1c0.1,1.9,0.3,4.6,0.6,8c0.5,7,1.2,16.9,2.1,28.9
												l0,0.1l-0.1,0c-14.2,1-31.4,2.2-49.8,3.5l-0.1,0l0-0.1l0,0c-1-14.4-2-28-2.8-39.8l0-0.1l0.1,0c14.8-1,27.3-1.9,36-2.5
												c4.4-0.3,7.8-0.5,10.2-0.7c1.2-0.1,2.1-0.1,2.7-0.2c0.3,0,0.5,0,0.7,0C207.4,275,207.5,275,207.5,275z"/>
										</g>
									</g>
								</g>
							</g>
						</g>
					</g>
				</g>
			</g>
			<g>
				<g>
					<g>
						<g>
							
								<rect x="160.7" y="279.2" transform="matrix(0.9975 -7.031098e-02 7.031098e-02 0.9975 -20.405 13.6665)" class="st5" width="46.4" height="34.9"/>
						</g>
					</g>
				</g>
			</g>
			<g>
				<g>
					<g>
						<g>
							<polygon class="st5" points="162,315.7 176.7,292.9 187.6,305.8 193.9,298.1 208.3,312.5 							"/>
						</g>
					</g>
				</g>
			</g>
			<g>
				<g>
					<g>
						<g>
							<g>
								<g>
									<path class="st5" d="M190.7,289.3c0.1,2-1.4,3.8-3.4,3.9c-2,0.1-3.8-1.4-3.9-3.4c-0.1-2,1.4-3.8,3.4-3.9
										C188.8,285.8,190.6,287.3,190.7,289.3z"/>
								</g>
							</g>
						</g>
					</g>
				</g>
			</g>
			<g class="st6">
				<g>
					<g>
						<g>
							<polygon points="162,315.7 176.7,292.9 187.6,305.8 193.9,298.1 208.3,312.5 							"/>
						</g>
					</g>
				</g>
			</g>
			<g class="st6">
				<g>
					<g>
						<g>
							<g>
								<g>
									<path d="M190.7,289.3c0.1,2-1.4,3.8-3.4,3.9c-2,0.1-3.8-1.4-3.9-3.4c-0.1-2,1.4-3.8,3.4-3.9
										C188.8,285.8,190.6,287.3,190.7,289.3z"/>
								</g>
							</g>
						</g>
					</g>
				</g>
			</g>
		</g>
	</g>
</g>
<g id="Light_Bulb">
	<g>
		<g>
			<g>
				<g>
					<g>
						<path class="st5" d="M112.3,336c-2.4-7.8-10.7-12.2-18.5-9.7C86,328.6,81.6,337,84,344.8c1.8,5.7,6.6,9.5,12.1,10.3
							c0.5,1.7,1.1,3.6,1.1,3.6l12.4-3.9c0,0-0.5-2-1.1-3.8C112.4,347.1,114,341.4,112.3,336z"/>
					</g>
				</g>
			</g>
			<g>
				<g>
					<g>
						<g>
							<path class="st10" d="M105.1,356.1c0,0,0-0.1,0-0.2c0-0.1-0.1-0.3-0.1-0.5c-0.1-0.5-0.2-1.2-0.4-2c-0.1-0.9-0.3-2-0.4-3.2
								c-0.1-1.3-0.1-2.7,0.1-4.3c0.1-0.8,0.2-1.6,0.5-2.5c0.1-0.4,0.3-0.8,0.7-1.2c0.3-0.3,0.9-0.5,1.4-0.4
								c0.2,0.1,0.5,0.2,0.6,0.4c0.1,0.2,0.2,0.5,0.2,0.7c-0.1,0.5-0.4,1-0.8,1.3c-0.8,0.6-1.9,0.9-3,0.7c-1.1-0.2-2.1-0.8-2.7-1.7
								c-0.3-0.5-0.6-1-0.6-1.6c0-0.6,0.3-1.2,1-1.4c0.3-0.1,0.7,0,0.9,0.3c0.2,0.2,0.4,0.5,0.4,0.8c0,0.6-0.2,1.2-0.6,1.7
								c-0.7,1-1.7,1.8-3,2c-1.2,0.2-2.5-0.3-3.4-1.2c-0.4-0.4-0.7-1.1-0.6-1.7c0-0.3,0.2-0.6,0.4-0.8c0.3-0.2,0.6-0.2,0.9-0.2
								c0.3,0.1,0.6,0.2,0.8,0.4c0.2,0.2,0.4,0.5,0.5,0.7c0.2,0.5,0.3,1.1,0.3,1.7c0,1.1-0.5,2.2-1.3,3c-0.8,0.8-1.8,1.2-2.8,1.3
								c-0.5,0-1,0-1.5-0.3c-0.4-0.3-0.7-0.8-0.5-1.3c0.1-0.2,0.3-0.4,0.5-0.5c0.2-0.1,0.5-0.1,0.7-0.1c0.5,0.1,0.9,0.4,1.2,0.7
								c0.6,0.7,1.1,1.3,1.6,1.9c2,2.5,3.6,4.6,4.6,6.1c0.5,0.7,0.9,1.3,1.2,1.7c0.1,0.2,0.2,0.3,0.3,0.4c0.1,0.1,0.1,0.2,0.1,0.2
								s0,0-0.1-0.1c-0.1-0.1-0.2-0.2-0.3-0.4c-0.3-0.4-0.7-1-1.2-1.7c-1.1-1.4-2.6-3.5-4.6-6c-0.5-0.6-1-1.3-1.6-1.9
								c-0.3-0.3-0.7-0.6-1.1-0.7c-0.4-0.1-0.9,0.1-1.1,0.5c-0.2,0.4,0.1,0.9,0.4,1.1c0.4,0.3,0.9,0.3,1.4,0.2c1-0.1,2-0.5,2.7-1.3
								c0.7-0.7,1.2-1.8,1.2-2.9c0-0.5-0.1-1.1-0.3-1.6c-0.2-0.5-0.6-1-1.1-1.1c-0.3-0.1-0.5,0-0.8,0.2c-0.2,0.2-0.3,0.4-0.4,0.7
								c0,0.6,0.2,1.1,0.6,1.5c0.8,0.9,2,1.3,3.2,1.1c1.2-0.2,2.2-0.9,2.9-1.9c0.3-0.5,0.6-1,0.5-1.6c0-0.3-0.1-0.5-0.3-0.7
								c-0.2-0.2-0.5-0.3-0.7-0.2c-0.3,0.1-0.5,0.2-0.6,0.4c-0.2,0.2-0.2,0.5-0.2,0.8c0,0.5,0.3,1.1,0.6,1.5
								c0.6,0.9,1.6,1.5,2.6,1.7c1,0.2,2.1-0.1,2.9-0.7c0.4-0.3,0.7-0.7,0.7-1.2c0.1-0.5-0.2-0.9-0.7-1c-0.4-0.1-0.9,0-1.2,0.3
								c-0.3,0.3-0.5,0.7-0.7,1.1c-0.3,0.8-0.4,1.7-0.5,2.4c-0.2,1.6-0.2,3-0.1,4.3c0.1,1.3,0.2,2.4,0.4,3.2c0.1,0.9,0.2,1.6,0.3,2
								c0,0.2,0.1,0.4,0.1,0.5C105.1,356,105.1,356.1,105.1,356.1z"/>
						</g>
					</g>
				</g>
			</g>
			<g>
				<g>
					<g>
						<path class="st10" d="M109.4,357.3l-10.6,3.3c-0.4,0.1-0.9-0.1-1-0.5l0,0c-0.1-0.4,0.1-0.9,0.5-1l10.6-3.3
							c0.4-0.1,0.9,0.1,1,0.5l0,0C110.1,356.7,109.8,357.2,109.4,357.3z"/>
					</g>
				</g>
			</g>
			<g>
				<g>
					<g>
						<path class="st10" d="M109.6,358L99,361.3c-0.4,0.1-0.7,0.6-0.5,1c0.1,0.4,0.6,0.7,1,0.5l1.2-0.4l2.5,2.5
							c0.3,0.3,0.7,0.4,1.1,0.3l3.8-1.2c0.4-0.1,0.7-0.4,0.7-0.8l0.6-3.4l0.8-0.2c0.4-0.1,0.7-0.6,0.5-1
							C110.5,358.1,110,357.9,109.6,358z"/>
					</g>
				</g>
			</g>
		</g>
		<g class="st6">
			<g>
				<g>
					<g>
						<path class="st8" d="M86.3,334.2c0.7-1.2,1.5-2.1,2.2-2.8c0.8-0.7,1.5-1.1,2-1.3c0.5-0.2,0.8-0.3,0.9-0.2c0.1,0.2-0.8,1-2,2.4
							c-1.1,1.4-2.4,3.6-2.8,6.3c-0.4,2.7,0.3,5.1,1,6.8c0.7,1.7,1.5,2.6,1.3,2.8c-0.1,0.1-0.4,0-0.8-0.4c-0.4-0.3-1-0.9-1.6-1.8
							c-0.6-0.8-1.1-1.9-1.4-3.3c-0.3-1.3-0.5-2.8-0.3-4.4"/>
					</g>
				</g>
			</g>
		</g>
		<g class="st6">
			<g>
				<g>
					<g>
						<path class="st8" d="M95,329.5c-0.9,0.3-1.8,0.3-2-0.2c-0.1-0.2,0-0.5,0.2-0.8c0.3-0.3,0.7-0.6,1.2-0.7
							c0.5-0.2,1.1-0.2,1.4-0.1c0.4,0.1,0.6,0.3,0.7,0.5"/>
					</g>
				</g>
			</g>
		</g>
		<g>
			<g>
				<g>
					<g>
						<path class="st11" d="M108.6,363.6c0,0-0.3,0-0.8,0c-0.5,0-1.2,0.1-1.9,0.3c-0.7,0.2-1.3,0.6-1.7,0.9
							c-0.4,0.3-0.6,0.5-0.6,0.5c0,0,0.2-0.3,0.6-0.6c0.4-0.3,1-0.7,1.7-1c0.7-0.2,1.4-0.3,1.9-0.3
							C108.3,363.5,108.6,363.6,108.6,363.6z"/>
					</g>
				</g>
			</g>
		</g>
		<g>
			<g>
				<g>
					<g>
						<path class="st11" d="M109.3,359.9c0,0-1.9,0.7-4.3,1.4c-2.4,0.7-4.3,1.3-4.3,1.3c0,0,1.9-0.7,4.3-1.4
							C107.4,360.4,109.3,359.8,109.3,359.9z"/>
					</g>
				</g>
			</g>
		</g>
		<g>
			<g>
				<g>
					<g>
						<path class="st11" d="M109.1,361.4c0,0-0.4,0.2-1,0.4c-0.6,0.2-1.5,0.6-2.5,0.9c-1,0.3-1.9,0.6-2.5,0.8
							c-0.7,0.2-1.1,0.3-1.1,0.3c0,0,0.4-0.2,1-0.4c0.7-0.2,1.6-0.5,2.5-0.8c1-0.3,1.8-0.6,2.5-0.8
							C108.7,361.5,109.1,361.3,109.1,361.4z"/>
					</g>
				</g>
			</g>
		</g>
	</g>
</g>
<g id="Character">
	<g>
		<g>
			<g>
				<g>
					<g>
						<path class="st5" d="M427.9,269.7c-11-10.2-30.5-9-40.2,2.5c-3.8,4.5-6.4,10.4-11.6,13.2c-8,4.2-17.8-1.1-26.8-0.3
							c-10.6,0.9-19.3,11.7-18,22.2c0.6,4.8,2.9,9.8,0.6,14.1c-2.9,5.4-11.1,5.6-14.6,10.7c-3.1,4.5-0.7,11.3,3.9,14.4
							c4.5,3.1,10.4,3.5,15.9,3.3c5.5-0.3,11.1-1,16.5,0.2c5.9,1.3,11,5,16.7,7.2c13.6,5.4,29.5,2.4,42-5.1
							c12.6-7.5,22.3-18.9,30.8-30.8"/>
					</g>
				</g>
				<g class="st13">
					<g>
						<g>
							<path class="st8" d="M427.9,269.7c-11-10.2-30.5-9-40.2,2.5c-3.8,4.5-6.4,10.4-11.6,13.2c-8,4.2-17.8-1.1-26.8-0.3
								c-10.6,0.9-19.3,11.7-18,22.2c0.6,4.8,2.9,9.8,0.6,14.1c-2.9,5.4-11.1,5.6-14.6,10.7c-3.1,4.5-0.7,11.3,3.9,14.4
								c4.5,3.1,10.4,3.5,15.9,3.3c5.5-0.3,11.1-1,16.5,0.2c5.9,1.3,11,5,16.7,7.2c13.6,5.4,29.5,2.4,42-5.1
								c12.6-7.5,22.3-18.9,30.8-30.8"/>
						</g>
					</g>
				</g>
			</g>
			<g>
				<g>
					<path class="st5" d="M425.2,283.5c-8.9-8.8-25.6-7.5-33.2,2.5c-4.6,6.1-7.3,15.4-14.8,16.5c-5.1,0.7-10-3.2-15.2-2.8
						c-6.9,0.5-11.1,8.9-9.3,15.6c1.8,6.7,7.7,11.5,13.8,14.6c21.4,10.9,49.9,5.1,65.4-13.2"/>
				</g>
			</g>
		</g>
		<g>
			<g>
				<g>
					<g>
						<polyline class="st14" points="628.9,305.9 617.4,289.5 632.4,278.8 643,300.2 629.6,305.8 						"/>
					</g>
				</g>
				<g>
					<g>
						<g>
							<g>
								<g>
									<g>
										<path class="st5" d="M642.3,297.3l8.2,14.8c0,0,17.8-3.4,19.5-0.8L642,328.2l-13.7-22.5L642.3,297.3z"/>
									</g>
								</g>
							</g>
						</g>
						<g class="st15">
							<g>
								<g>
									<g>
										<g>
											<path class="st8" d="M641.1,316.1c-0.5,0.5-0.5,1.3,0,1.8c0.5,0.5,1.3,0.5,1.8,0c0.5-0.5,0.5-1.5,0-1.9
												C642.4,315.6,641.4,315.6,641.1,316.1"/>
										</g>
									</g>
								</g>
							</g>
						</g>
						<g class="st15">
							<g>
								<g>
									<g>
										<path class="st8" d="M642,328.2l-1.3-2.3l27.4-15.3c0,0,1.6-0.2,2,0.8L642,328.2z"/>
									</g>
								</g>
							</g>
						</g>
						<g>
							<g>
								<g>
									<g>
										<g>
											<path class="st10" d="M650.9,311.7c0.1,0.1-0.6,0.6-1,1.5c-0.4,0.8-0.4,1.6-0.6,1.7c-0.1,0-0.4-0.9,0.1-1.9
												C649.9,311.9,650.8,311.5,650.9,311.7z"/>
										</g>
									</g>
								</g>
							</g>
						</g>
						<g>
							<g>
								<g>
									<g>
										<g>
											<path class="st10" d="M654.6,311.1c0.1,0.1-0.3,0.7-0.5,1.6c-0.1,0.9,0.1,1.6,0,1.6c-0.1,0.1-0.7-0.6-0.5-1.7
												C653.7,311.5,654.5,311,654.6,311.1z"/>
										</g>
									</g>
								</g>
							</g>
						</g>
						<g>
							<g>
								<g>
									<g>
										<g>
											<path class="st10" d="M658.4,313.6c-0.1,0.1-0.7-0.5-0.8-1.4c-0.1-1,0.4-1.6,0.5-1.6c0.1,0.1,0,0.7,0.1,1.5
												C658.2,312.9,658.5,313.5,658.4,313.6z"/>
										</g>
									</g>
								</g>
							</g>
						</g>
						<g>
							<g>
								<g>
									<g>
										<g>
											<path class="st10" d="M648.6,308.5c0,0.2-0.7,0.3-1.5,0.9c-0.8,0.5-1.2,1.1-1.3,1.1c-0.1-0.1,0.1-0.9,1-1.5
												C647.7,308.3,648.6,308.4,648.6,308.5z"/>
										</g>
									</g>
								</g>
							</g>
						</g>
					</g>
					<g>
						<g>
							<g>
								<g>
									<g>
										<path class="st10" d="M646.9,305.6c0,0.1-0.5,0.5-1.4,0.8c-0.5,0.2-1.1,0.3-1.7,0.4c-0.3,0-0.7,0.1-1.1,0.1
											c-0.2,0-0.4,0-0.6-0.1c-0.2-0.1-0.5-0.4-0.5-0.7c0-0.3,0.2-0.5,0.4-0.7c0.2-0.1,0.4-0.2,0.6-0.2c0.4-0.1,0.7-0.2,1.1-0.2
											c0.7-0.1,1.3,0,1.8,0.1c1,0.2,1.5,0.6,1.5,0.6c0,0.1-0.6-0.2-1.6-0.3c-0.5,0-1.1-0.1-1.7,0c-0.3,0.1-0.6,0.1-1,0.2
											c-0.3,0.1-0.6,0.3-0.6,0.4c0,0.1,0,0.1,0.1,0.1c0.1,0,0.3,0,0.5,0.1c0.3,0,0.7,0,1,0c0.6-0.1,1.2-0.2,1.7-0.3
											C646.3,305.8,646.9,305.5,646.9,305.6z"/>
									</g>
								</g>
							</g>
						</g>
					</g>
					<g>
						<g>
							<g>
								<g>
									<g>
										<path class="st10" d="M646.9,305.9c0,0.1-0.6-0.3-1.2-1.1c-0.3-0.4-0.6-1-0.7-1.7c-0.1-0.3-0.1-0.7-0.2-1.1
											c0-0.4,0-0.9,0.5-1.2c0.3-0.2,0.6-0.1,0.8,0c0.2,0.1,0.3,0.3,0.5,0.4c0.2,0.3,0.4,0.6,0.6,0.9c0.3,0.7,0.3,1.3,0.3,1.8
											c-0.1,1.1-0.6,1.6-0.6,1.5c-0.1,0,0.2-0.6,0.2-1.5c0-0.5-0.1-1-0.4-1.6c-0.1-0.3-0.3-0.5-0.5-0.8
											c-0.2-0.3-0.5-0.4-0.6-0.3c-0.1,0.1-0.2,0.4-0.2,0.8c0,0.3,0,0.7,0.1,1c0.1,0.6,0.3,1.1,0.6,1.6
											C646.5,305.4,646.9,305.8,646.9,305.9z"/>
									</g>
								</g>
							</g>
						</g>
					</g>
				</g>
				<g>
					<g>
						<polyline class="st10" points="586.1,247.6 622,304.1 641.7,290.7 608.6,222.7 						"/>
					</g>
				</g>
				<g>
					<g>
						<g>
							<path class="st11" d="M589,235.2c0.1,0.1-0.9,2.4-1.4,5.4c-0.5,3-0.3,5.6-0.5,5.6c-0.1,0-0.6-2.5,0-5.7
								C587.6,237.4,588.9,235.1,589,235.2z"/>
						</g>
					</g>
				</g>
				<g>
					<g>
						<g>
							<path class="st11" d="M585.3,235.4c0.2,0,0,2.5,0.4,5.5c0.4,3,1.2,5.3,1,5.4c-0.1,0.1-1.1-2.3-1.5-5.3
								C584.8,237.9,585.2,235.4,585.3,235.4z"/>
						</g>
					</g>
				</g>
			</g>
			<g>
				<g>
					<g>
						<path class="st10" d="M445.9,247.4l-24.7-7.6c-29.7,37.9-27.8,79.5,20.1,104.1l26.6-29.8L445.9,247.4z"/>
					</g>
				</g>
				<g>
					<g>
						<g>
							<path class="st1" d="M448.3,241.4c-15.8,9.2-23.6,28.6-21.7,47.6c2.1,20.8,15.9,41.1,41.1,46.7l169.5-33.9
								c29.6-5.9,47.8-35.9,39.4-64.9l0,0c-7.7-26.4-34.8-42.2-61.5-35.7L448.3,241.4z"/>
						</g>
					</g>
					<g>
						<g>
							<g>
								<path class="st10" d="M448.3,241.4c0,0,0.5-0.1,1.6-0.4c1.1-0.3,2.6-0.6,4.6-1.1c4.1-1,10.1-2.5,17.8-4.3
									c15.5-3.8,37.9-9.2,65.6-15.9c13.9-3.3,29-7,45.3-11c8.1-2,16.6-4,25.3-6.1c2.2-0.5,4.4-1,6.6-1.6c1.1-0.2,2.2-0.4,3.4-0.6
									c0.6-0.1,1.1-0.2,1.7-0.3l1.7-0.2c1.1-0.1,2.3-0.2,3.5-0.3c1.2,0,2.3,0,3.5,0c1.2,0,2.3,0.1,3.5,0.2l1.8,0.2l0.9,0.1
									l0.9,0.2c1.2,0.2,2.3,0.5,3.5,0.7c1.2,0.3,2.3,0.7,3.4,1c0.6,0.2,1.2,0.3,1.7,0.5l1.7,0.7l1.7,0.7c0.6,0.2,1.1,0.4,1.7,0.7
									c1.1,0.6,2.2,1.1,3.2,1.7c1.1,0.6,2.1,1.3,3.1,1.9c0.5,0.3,1,0.6,1.5,1l1.5,1.1l1.5,1.1l0.7,0.6l0.7,0.6
									c7.4,6.6,13,15.6,15.6,25.5c2.6,10,2.2,20.9-1.5,30.9c-3.7,10-10.6,18.9-19.7,25c-3.8,2.6-8,4.6-12.3,6.1
									c-4.3,1.5-8.8,2.2-13.2,3.1c-8.8,1.8-17.5,3.5-26,5.2c-17.1,3.4-33.7,6.7-49.7,9.9c-31.9,6.4-61.4,12.2-87.2,17.4l0,0l0,0
									c-4.5-1.1-8.9-2.6-12.9-4.6c-4-2.1-7.6-4.5-10.8-7.3c-3.1-2.8-5.8-6-8.2-9.2c-2.2-3.3-4.1-6.7-5.5-10.2
									c-0.4-0.9-0.6-1.7-1-2.6c-0.3-0.9-0.6-1.7-0.8-2.6c-0.2-0.9-0.5-1.7-0.7-2.6c-0.2-0.9-0.4-1.7-0.5-2.6
									c-0.2-0.9-0.4-1.7-0.4-2.5c-0.1-0.8-0.2-1.7-0.3-2.5c-0.1-0.8-0.1-1.7-0.2-2.5c-0.1-0.8-0.1-1.6-0.1-2.4
									c-0.1-6.4,0.9-12.3,2.5-17.3c1.6-5.1,3.7-9.3,6-12.7c2.3-3.4,4.6-6,6.7-7.8c0.5-0.5,1-0.9,1.5-1.3c0.5-0.4,0.9-0.7,1.4-1
									c0.4-0.3,0.8-0.6,1.2-0.9c0.4-0.2,0.7-0.5,1-0.6C447.7,241.8,448.3,241.4,448.3,241.4s-0.6,0.4-1.8,1.2
									c-0.3,0.2-0.6,0.4-1,0.7c-0.4,0.3-0.7,0.6-1.2,0.9c-0.4,0.3-0.9,0.7-1.4,1.1c-0.5,0.4-0.9,0.9-1.5,1.3
									c-2.1,1.9-4.4,4.5-6.7,7.9c-2.2,3.4-4.4,7.6-5.9,12.7c-1.6,5-2.5,10.9-2.4,17.3c0,0.8,0,1.6,0.1,2.4
									c0.1,0.8,0.1,1.6,0.2,2.5c0.1,0.8,0.2,1.7,0.3,2.5c0.1,0.8,0.3,1.7,0.4,2.5c0.2,0.8,0.4,1.7,0.5,2.6
									c0.2,0.8,0.5,1.7,0.7,2.6c0.2,0.9,0.5,1.7,0.8,2.6c0.3,0.9,0.6,1.7,1,2.6c1.4,3.4,3.3,6.8,5.5,10.1c2.3,3.2,5,6.3,8.1,9.1
									c3.2,2.7,6.8,5.2,10.7,7.2c4,2,8.3,3.4,12.8,4.5l-0.1,0c25.8-5.2,55.2-11.1,87.2-17.5c16-3.2,32.6-6.5,49.7-9.9
									c8.5-1.7,17.2-3.4,26-5.2c4.4-0.9,8.9-1.6,13.1-3.1c4.3-1.4,8.4-3.4,12.1-6c9-6,15.8-14.9,19.5-24.8
									c3.7-9.9,4.1-20.7,1.5-30.6c-2.6-9.9-8.1-18.7-15.4-25.3l-0.7-0.6l-0.7-0.6l-1.4-1.1l-1.4-1.1c-0.5-0.4-1-0.7-1.5-1
									c-1-0.6-2-1.3-3.1-1.9c-1.1-0.6-2.1-1.1-3.2-1.7c-0.5-0.3-1.1-0.5-1.6-0.7l-1.7-0.7l-1.7-0.7c-0.6-0.2-1.1-0.4-1.7-0.5
									c-1.1-0.3-2.3-0.7-3.4-1c-1.2-0.2-2.3-0.5-3.5-0.7l-0.9-0.2l-0.9-0.1l-1.7-0.2c-1.2-0.1-2.3-0.3-3.5-0.2c-1.2,0-2.3,0-3.5,0
									c-1.1,0.1-2.3,0.2-3.4,0.3l-1.7,0.2c-0.6,0.1-1.1,0.2-1.7,0.3c-1.1,0.2-2.2,0.4-3.3,0.6c-2.2,0.5-4.4,1.1-6.6,1.6
									c-8.7,2.1-17.1,4.1-25.2,6.1c-16.3,3.9-31.5,7.6-45.3,10.9c-27.7,6.6-50.1,12-65.7,15.7c-7.8,1.8-13.8,3.3-17.9,4.3
									c-2,0.5-3.6,0.8-4.7,1.1C448.9,241.3,448.3,241.4,448.3,241.4z"/>
							</g>
						</g>
					</g>
				</g>
				<g>
					<g>
						<path class="st5" d="M467.7,335.7l-22.4,50.8c0,0,105.5-10.2,101-66.6L467.7,335.7z"/>
					</g>
				</g>
				<g>
					<g>
						<path class="st5" d="M528.2,222.2c0,0-50.7-49.2-115.2-28.5l35.4,47.7L528.2,222.2z"/>
					</g>
				</g>
				<g>
					<g>
						<path class="st5" d="M620.8,200.5c21.8,16.1,35.1,78.6,24.6,98.4c61.7-18.1,74.6-71,74.6-71
							C675.4,186.4,620.8,200.5,620.8,200.5z"/>
					</g>
				</g>
				<g>
					<g>
						<g>
							<path class="st11" d="M436,312.5c0.1,0.1-3.3,4.2-7.6,9.1c-4.3,4.9-7.9,8.8-8,8.7c-0.1-0.1,3.3-4.2,7.6-9.1
								C432.3,316.3,435.9,312.4,436,312.5z"/>
						</g>
					</g>
				</g>
				<g>
					<g>
						<g>
							<path class="st10" d="M720,227.9c0,0-0.1,0.2-0.4,0.7c-0.3,0.5-0.7,1.1-1.2,1.9c-0.5,0.9-1.2,1.9-1.9,3.2
								c-0.4,0.6-0.8,1.3-1.2,2c-0.5,0.7-1,1.4-1.5,2.2c-1.1,1.5-2.3,3.3-3.6,5.2c-1.4,1.8-3,3.7-4.7,5.8c-0.9,1-1.8,2-2.8,3.1
								c-1,1-1.9,2.2-3.1,3.2c-2.2,2.1-4.5,4.4-7.2,6.5c-5.2,4.3-11.3,8.6-18.5,12.2c-3.5,1.8-7.4,3.4-11.4,4.9
								c-2,0.7-4.1,1.4-6.1,2.1c-2,0.7-4.3,1.2-6.4,1.7c-17.5,3.9-36.8,7.8-57,12c-40.5,8.4-77.1,15.8-103.7,21.2
								c-13.3,2.7-24,4.8-31.4,6.3c-3.7,0.7-6.6,1.3-8.6,1.7c-1,0.2-1.7,0.3-2.2,0.4c-0.5,0.1-0.8,0.1-0.8,0.1s0.3-0.1,0.8-0.2
								c0.5-0.1,1.3-0.3,2.2-0.5c2-0.4,4.8-1,8.5-1.8c7.4-1.5,18.2-3.7,31.4-6.5c26.5-5.5,63.2-13,103.6-21.3
								c20.2-4.2,39.5-8.2,57-12c2.2-0.5,4.3-0.9,6.4-1.6c2.1-0.8,4.1-1.4,6.1-2.1c4-1.4,7.8-3,11.3-4.8c7.1-3.6,13.2-7.8,18.4-12.1
								c2.7-2.1,4.9-4.4,7.2-6.5c1.1-1,2.1-2.2,3.1-3.2c1-1.1,1.9-2.1,2.8-3.1c1.7-2.1,3.3-4,4.7-5.8c1.4-1.9,2.6-3.6,3.7-5.1
								c0.5-0.8,1.1-1.5,1.5-2.2c0.4-0.7,0.9-1.4,1.2-2c0.8-1.2,1.4-2.3,2-3.1c0.5-0.8,0.9-1.5,1.2-1.9
								C719.9,228.1,720,227.9,720,227.9z"/>
						</g>
					</g>
				</g>
				<g>
					<g>
						<g>
							<path class="st10" d="M559.5,317.4c0,0-0.1-0.1-0.2-0.2c-0.1-0.2-0.3-0.4-0.5-0.6c-0.4-0.6-1.1-1.4-1.8-2.4
								c-0.4-0.5-0.8-1.1-1.3-1.7c-0.5-0.7-0.9-1.4-1.4-2.2c-1-1.6-2.3-3.3-3.4-5.4c-0.6-1-1.2-2.1-1.8-3.2
								c-0.6-1.1-1.2-2.3-1.8-3.6c-1.3-2.4-2.4-5.2-3.7-8c-2.3-5.8-4.5-12.3-6.1-19.3c-1.5-7-2.3-13.8-2.7-20.1
								c-0.1-3.1-0.2-6.1-0.1-8.8c0.1-1.4,0-2.7,0.2-4c0.1-1.3,0.2-2.5,0.3-3.7c0.1-2.3,0.5-4.4,0.8-6.3c0.1-0.9,0.3-1.8,0.4-2.6
								c0.2-0.8,0.3-1.5,0.4-2.1c0.3-1.3,0.5-2.2,0.6-3c0.1-0.3,0.1-0.6,0.2-0.8c0-0.2,0.1-0.3,0.1-0.3s0,0.1,0,0.3
								c0,0.2-0.1,0.5-0.1,0.8c-0.1,0.7-0.3,1.7-0.5,3c-0.1,0.6-0.3,1.4-0.4,2.1c-0.1,0.8-0.2,1.7-0.4,2.6c-0.2,1.8-0.6,3.9-0.7,6.3
								c-0.1,1.2-0.2,2.4-0.3,3.7c-0.1,1.3-0.1,2.6-0.1,4c-0.1,2.8,0,5.7,0.1,8.8c0.4,6.2,1.2,13,2.7,20c1.6,7,3.7,13.5,6,19.2
								c1.2,2.8,2.3,5.6,3.6,8c0.6,1.2,1.2,2.4,1.8,3.6c0.6,1.1,1.2,2.2,1.8,3.2c1.1,2.1,2.3,3.8,3.3,5.4c0.5,0.8,1,1.5,1.4,2.2
								c0.5,0.6,0.9,1.2,1.3,1.8c0.7,1,1.3,1.9,1.8,2.5c0.2,0.3,0.3,0.5,0.4,0.6C559.4,317.4,559.5,317.4,559.5,317.4z"/>
						</g>
					</g>
				</g>
				<g>
					<g>
						<g>
							<path class="st5" d="M511.8,265l-106.3,22c0,0-0.5,10.4,2.1,10.5c2.2,0.1,81.2-14.2,106.9-18.8c4.2-0.8,6.7-5.1,5.3-9.1l0,0
								C518.7,266.2,515.3,264.3,511.8,265z"/>
						</g>
					</g>
				</g>
			</g>
			<g>
				<g>
					<g>
						
							<ellipse transform="matrix(1.408490e-03 -1 1 1.408490e-03 337.291 848.0717)" class="st9" cx="593.3" cy="255.2" rx="23.6" ry="25.4"/>
					</g>
				</g>
				<g>
					<g>
						<g>
							<path class="st10" d="M618.7,255.2c0,0,0-0.1,0-0.4c0-0.3-0.1-0.7-0.1-1.2c0-0.3,0-0.5-0.1-0.9c-0.1-0.3-0.1-0.7-0.2-1
								c-0.1-0.4-0.1-0.8-0.2-1.2c-0.1-0.4-0.2-0.9-0.4-1.3c-0.2-0.9-0.7-1.9-1.1-3c-0.5-1.1-1.1-2.2-1.9-3.3
								c-1.5-2.3-3.7-4.6-6.6-6.6c-2.9-1.9-6.4-3.5-10.4-4.2c-1-0.1-2-0.3-3.1-0.3c-0.5,0-1.1-0.1-1.6-0.1c-0.5,0-1.1,0.1-1.6,0.1
								l-0.8,0l-0.8,0.1c-0.5,0.1-1.1,0.2-1.6,0.2c-0.5,0.1-1.1,0.3-1.6,0.4l-0.8,0.2l-0.8,0.3c-4.3,1.4-8.6,4-11.7,7.9
								c-3.2,3.8-5.1,8.9-5.2,14.1c0.1,5.3,1.9,10.4,5.1,14.1c3.1,3.9,7.3,6.5,11.7,7.9l0.8,0.3l0.8,0.2c0.5,0.1,1.1,0.3,1.6,0.4
								c0.6,0.1,1.1,0.2,1.6,0.2l0.8,0.1l0.8,0c0.5,0,1.1,0.1,1.6,0.1c0.5,0,1.1,0,1.6-0.1c1.1,0,2.1-0.2,3.1-0.3
								c4-0.6,7.6-2.2,10.4-4.1c2.9-1.9,5-4.3,6.6-6.5c0.8-1.1,1.4-2.3,1.9-3.3c0.4-1.1,0.9-2.1,1.1-3c0.1-0.5,0.3-0.9,0.4-1.3
								c0.1-0.4,0.1-0.8,0.2-1.2c0.1-0.4,0.1-0.7,0.2-1c0-0.3,0-0.6,0.1-0.9c0-0.5,0.1-0.9,0.1-1.2
								C618.7,255.3,618.7,255.2,618.7,255.2c0,0,0,0.1,0,0.4c0,0.3,0,0.7,0,1.2c0,0.3,0,0.5,0,0.9c0,0.3-0.1,0.7-0.2,1
								c-0.1,0.4-0.1,0.8-0.2,1.2c-0.1,0.4-0.2,0.9-0.3,1.3c-0.2,1-0.6,2-1.1,3.1c-0.5,1.1-1.1,2.2-1.9,3.4
								c-1.5,2.3-3.7,4.7-6.6,6.7c-2.9,2-6.5,3.6-10.6,4.3c-1,0.1-2.1,0.3-3.1,0.3c-0.5,0-1.1,0.1-1.6,0.1c-0.5,0-1.1-0.1-1.6-0.1
								l-0.8,0l-0.8-0.1c-0.6-0.1-1.1-0.2-1.7-0.2c-0.6-0.1-1.1-0.3-1.7-0.4l-0.8-0.2l-0.8-0.3c-4.4-1.4-8.7-4.1-11.9-8.1
								c-3.3-3.9-5.2-9.1-5.3-14.5c0.1-5.4,2-10.6,5.3-14.4c3.2-3.9,7.5-6.6,11.9-8l0.8-0.3l0.8-0.2c0.6-0.1,1.1-0.3,1.7-0.4
								c0.6-0.1,1.1-0.2,1.7-0.2l0.8-0.1l0.8,0c0.5,0,1.1,0,1.6-0.1c0.5,0,1.1,0,1.6,0.1c1.1,0,2.1,0.2,3.1,0.3
								c4.1,0.7,7.7,2.3,10.6,4.3c2.9,2,5.1,4.4,6.6,6.7c0.8,1.1,1.3,2.3,1.9,3.4c0.4,1.1,0.9,2.1,1.1,3.1c0.1,0.5,0.3,0.9,0.3,1.3
								c0.1,0.4,0.1,0.8,0.2,1.2c0.1,0.4,0.1,0.7,0.2,1c0,0.3,0,0.6,0,0.9c0,0.5,0,0.9,0,1.2C618.7,255.1,618.7,255.2,618.7,255.2z"
								/>
						</g>
					</g>
				</g>
			</g>
			<g>
				<g>
					<g>
						<path class="st16" d="M612.7,264.9"/>
					</g>
				</g>
			</g>
		</g>
	</g>
	<g>
		<g>
			<g>
				<path class="st5" d="M292.7,340.5c-2.9,1.3-6.3,1.1-9.5,0.8c-3.2-0.4-6.4-0.9-9.6-0.3c-4.9,1-9.2,4.6-14.1,4.4
					c-6.9-0.4-11-7.8-17.1-11c-7.4-4-17.3-1.5-23.3-8.9c-3.6-4.4-4.2-10.8-1.4-15.8c4.3-7.8,14.3-9.1,22.1-6.3
					c6.7,2.4,12.2,7.3,17.4,12.1c1.8,1.6,3.6,3.3,5.4,4.9c5.9,5.1,13.7,7.6,21.5,6.8l0,0c3.8-0.4,7.5,0.7,10.4,3
					c0.8,0.6,1.4,1.5,1.8,2.4l0,0c0.4,0.9,0.6,1.9,0.5,2.9C296.7,338.1,295.1,339.5,292.7,340.5z"/>
			</g>
		</g>
		<g class="st13">
			<g>
				<g>
					<path class="st8" d="M292.7,340.5c-2.9,1.3-6.3,1.1-9.5,0.8c-3.2-0.4-6.4-0.9-9.6-0.3c-4.9,1-9.2,4.6-14.1,4.4
						c-6.9-0.4-11-7.8-17.1-11c-7.4-4-17.3-1.5-23.3-8.9c-3.6-4.4-4.2-10.8-1.4-15.8c4.3-7.8,14.3-9.1,22.1-6.3
						c6.7,2.4,12.2,7.3,17.4,12.1c1.8,1.6,3.6,3.3,5.4,4.9c5.9,5.1,13.7,7.6,21.5,6.8l0,0c3.8-0.4,7.5,0.7,10.4,3
						c0.8,0.6,1.4,1.5,1.8,2.4l0,0c0.4,0.9,0.6,1.9,0.5,2.9C296.7,338.1,295.1,339.5,292.7,340.5z"/>
				</g>
			</g>
		</g>
	</g>
	<g>
		<g>
			<g>
				<path class="st5" d="M179.5,337.2c-2-3.5-8-3.6-11.6-1.8c-3.6,1.8-6.1,5.1-8.5,8.3c-2.4,3.2-5.2,6.4-9,7.7
					c-4.1,1.4-8.5,0.3-12.8,0.3c-4.3,0-9.3,2.1-10,6.3c-0.4,2.4,0.4,5.2,2.1,6.8c1.8,1.6,3.7,2.9,5.9,3.8c5.5,2.2,12.1,3.6,18,3.5
					c7.9-0.1,15.7-4.1,20.3-10.4C178.8,355.4,185,344.3,179.5,337.2"/>
			</g>
		</g>
		<g class="st13">
			<g>
				<g>
					<path class="st8" d="M179.5,337.2c-2-3.5-8-3.6-11.6-1.8c-3.6,1.8-6.1,5.1-8.5,8.3c-2.4,3.2-5.2,6.4-9,7.7
						c-4.1,1.4-8.5,0.3-12.8,0.3c-4.3,0-9.3,2.1-10,6.3c-0.4,2.4,0.4,5.2,2.1,6.8c1.8,1.6,3.7,2.9,5.9,3.8c5.5,2.2,12.1,3.6,18,3.5
						c7.9-0.1,15.7-4.1,20.3-10.4C178.8,355.4,185,344.3,179.5,337.2"/>
				</g>
			</g>
		</g>
	</g>
	<g>
		<g>
			<g>
				<path class="st5" d="M70.5,357.6c-1.8,0.7-3.5,1.7-4.7,3.1c-1.2,1.5-1.8,3.5-1.2,5.3s2.7,3.1,4.5,2.4c1-0.3,1.7-1.1,2.7-1.3
					c1.6-0.3,3,1.1,4.5,1.4c2.4,0.4,4.6-1.9,4.5-4.3c0-2.4-2-4.2-3.9-5.6C74.5,356.8,71.5,357.3,70.5,357.6"/>
			</g>
		</g>
		<g class="st13">
			<g>
				<g>
					<path class="st8" d="M70.5,357.6c-1.8,0.7-3.5,1.7-4.7,3.1c-1.2,1.5-1.8,3.5-1.2,5.3s2.7,3.1,4.5,2.4c1-0.3,1.7-1.1,2.7-1.3
						c1.6-0.3,3,1.1,4.5,1.4c2.4,0.4,4.6-1.9,4.5-4.3c0-2.4-2-4.2-3.9-5.6C74.5,356.8,71.5,357.3,70.5,357.6"/>
				</g>
			</g>
		</g>
	</g>
	<g>
		<g>
			<g>
				<path class="st11" d="M507.2,194.4c-8.2-0.4-12.2,5.8-16.8,7c-4.6,1.2-9.6,1.5-14-0.3c-5.7-2.3-9.6-7.6-14.6-11.2
					c-10-7.2-24.8-6.8-34.4,1c-0.2,5.4,4.4,9.8,9,12.8c4.5,3.1,17,7.5,18.6,12.7c1.2,3.9-7.2,7.2-5.1,10.7c2,3.4,9.1,3.1,13,2.5
					c24.4-4.2,15.9,3.3,23.4,2.6c0,0,15.8-4,28.2-6.1"/>
			</g>
		</g>
		<g>
			<g>
				<g>
					<polyline class="st14" points="589.5,338.2 581.6,319.7 598.5,312.4 604.4,335.5 590.2,338.2 					"/>
				</g>
			</g>
			<g>
				<g>
					<g>
						<g>
							<g>
								<g>
									<path class="st5" d="M604.4,332.5l5,16.1c0,0,18.1,0.4,19.3,3.3l-31,10.7l-8.8-24.8L604.4,332.5z"/>
								</g>
							</g>
						</g>
					</g>
					<g class="st15">
						<g>
							<g>
								<g>
									<g>
										<path class="st8" d="M599.3,350.7c-0.5,0.4-0.7,1.2-0.4,1.7c0.3,0.6,1.2,0.7,1.7,0.4c0.5-0.4,0.8-1.3,0.4-1.9
											c-0.4-0.5-1.4-0.7-1.8-0.2"/>
									</g>
								</g>
							</g>
						</g>
					</g>
					<g class="st15">
						<g>
							<g>
								<g>
									<path class="st8" d="M597.6,362.7l-0.8-2.5l30-9.3c0,0,1.6,0.1,1.8,1.1L597.6,362.7z"/>
								</g>
							</g>
						</g>
					</g>
					<g>
						<g>
							<g>
								<g>
									<g>
										<path class="st10" d="M609.8,348.3c0,0.2-0.7,0.5-1.3,1.2c-0.6,0.7-0.8,1.5-0.9,1.5c-0.1,0-0.2-1,0.5-1.9
											C608.8,348.3,609.8,348.2,609.8,348.3z"/>
									</g>
								</g>
							</g>
						</g>
					</g>
					<g>
						<g>
							<g>
								<g>
									<g>
										<path class="st10" d="M613.5,348.6c0.1,0.1-0.5,0.6-0.8,1.4c-0.3,0.8-0.2,1.5-0.4,1.6c-0.1,0.1-0.5-0.8-0.2-1.8
											C612.6,348.8,613.4,348.4,613.5,348.6z"/>
									</g>
								</g>
							</g>
						</g>
					</g>
					<g>
						<g>
							<g>
								<g>
									<g>
										<path class="st10" d="M616.7,351.8c-0.1,0.1-0.6-0.6-0.5-1.6c0.1-1,0.7-1.5,0.8-1.4c0.1,0.1-0.2,0.7-0.2,1.5
											C616.6,351.1,616.8,351.7,616.7,351.8z"/>
									</g>
								</g>
							</g>
						</g>
					</g>
					<g>
						<g>
							<g>
								<g>
									<g>
										<path class="st10" d="M608.2,344.8c0,0.2-0.8,0.2-1.6,0.5c-0.8,0.3-1.4,0.9-1.5,0.8c-0.1-0.1,0.3-0.9,1.3-1.3
											C607.4,344.4,608.3,344.6,608.2,344.8z"/>
									</g>
								</g>
							</g>
						</g>
					</g>
				</g>
				<g>
					<g>
						<g>
							<g>
								<g>
									<path class="st10" d="M607.2,341.6c0,0.1-0.5,0.4-1.6,0.5c-0.5,0.1-1.1,0.1-1.8,0.1c-0.3,0-0.7-0.1-1.1-0.2
										c-0.2,0-0.4-0.1-0.6-0.2c-0.2-0.1-0.5-0.5-0.3-0.8c0.1-0.3,0.3-0.5,0.5-0.6c0.2-0.1,0.4-0.1,0.6-0.1c0.4,0,0.7,0,1.1,0
										c0.7,0.1,1.3,0.2,1.8,0.4c0.9,0.4,1.4,0.9,1.3,0.9c-0.1,0.1-0.6-0.3-1.5-0.6c-0.5-0.1-1-0.3-1.7-0.3c-0.3,0-0.6,0-1,0
										c-0.4,0-0.6,0.1-0.7,0.3c0,0.1,0,0.1,0.1,0.2c0.1,0.1,0.3,0.1,0.4,0.1c0.3,0.1,0.7,0.1,1,0.2c0.6,0.1,1.2,0.1,1.7,0.1
										C606.5,341.6,607.1,341.5,607.2,341.6z"/>
								</g>
							</g>
						</g>
					</g>
				</g>
				<g>
					<g>
						<g>
							<g>
								<g>
									<path class="st10" d="M607,341.8c0,0-0.5-0.4-0.9-1.4c-0.2-0.5-0.3-1.1-0.4-1.8c0-0.3,0-0.7,0.1-1.1
										c0.1-0.4,0.2-0.9,0.7-1.1c0.3-0.1,0.6,0,0.8,0.2c0.2,0.2,0.3,0.3,0.4,0.5c0.2,0.3,0.3,0.7,0.4,1c0.1,0.7,0.1,1.3-0.1,1.8
										c-0.3,1-0.9,1.4-0.9,1.4c-0.1-0.1,0.3-0.5,0.5-1.5c0.1-0.5,0.1-1,0-1.6c-0.1-0.3-0.2-0.6-0.3-0.9c-0.2-0.3-0.4-0.5-0.5-0.5
										c-0.2,0.1-0.3,0.4-0.4,0.7c-0.1,0.3-0.1,0.7-0.1,1c0,0.6,0.1,1.2,0.2,1.7C606.8,341.3,607.1,341.8,607,341.8z"/>
								</g>
							</g>
						</g>
					</g>
				</g>
			</g>
			<g>
				<g>
					<path class="st10" d="M508.5,195c0,0-14.7,29.1-4.8,35.9s55.9,41.4,55.9,41.4l23.5,62.7l22-9l-18.3-73.4L540.5,211L508.5,195z"
						/>
				</g>
			</g>
			<g>
				<g>
					<g>
						<path class="st11" d="M565,260.8c0.1,0.1-1.4,2.1-2.5,5c-1.2,2.9-1.4,5.4-1.6,5.3c-0.1,0-0.1-2.6,1.1-5.5
							C563.2,262.6,564.9,260.7,565,260.8z"/>
					</g>
				</g>
			</g>
			<g>
				<g>
					<g>
						<path class="st11" d="M561.4,260.2c0.2,0-0.5,2.4-0.7,5.4c-0.2,3,0,5.5-0.1,5.5c-0.1,0-0.6-2.4-0.4-5.5
							C560.4,262.5,561.2,260.1,561.4,260.2z"/>
					</g>
				</g>
			</g>
			<g>
				<g>
					<g>
						<path class="st11" d="M585.3,334.1c0,0-0.1-0.1-0.1-0.3c-0.1-0.2-0.2-0.5-0.4-0.9c-0.3-0.9-0.8-2.1-1.4-3.6
							c-1.2-3.2-3-7.8-5.1-13.5c-2.1-5.7-4.6-12.6-7.3-20.4c-0.7-1.9-1.3-3.9-1.9-6c-0.6-2.1-1.2-4.2-2.1-6.3
							c-1.7-4.2-3.7-8.4-5.9-12.7l0.1,0.1c-2.5-2.1-5.1-4.3-7.8-6.5c-2.1-1.7-4.2-3.4-6.3-5c-2.1-1.6-4.2-3.2-6.2-4.7
							c-4.1-3.1-8-6.1-11.8-8.8c-3.8-2.7-7.6-5.1-11-7.5c-3.4-2.4-6.6-4.7-9.1-7.3c-1.3-1.3-2.4-2.6-3.2-3.9
							c-0.9-1.4-1.4-2.8-1.8-4.2c-0.7-2.8-0.4-5.3-0.1-7.2c0.4-2,0.9-3.4,1.3-4.4c0.2-0.5,0.4-0.9,0.5-1.1c0.1-0.2,0.2-0.4,0.2-0.4
							c0,0,0,0.1-0.1,0.4c-0.1,0.3-0.2,0.6-0.4,1.1c-0.3,1-0.8,2.5-1.2,4.4c-0.3,1.9-0.5,4.4,0.2,7.1c0.3,1.4,0.9,2.7,1.8,4.1
							c0.8,1.3,1.9,2.6,3.2,3.9c2.5,2.5,5.6,4.8,9.1,7.2c3.4,2.3,7.2,4.7,11.1,7.4c3.8,2.7,7.8,5.7,11.8,8.7c2,1.5,4.1,3.1,6.2,4.7
							c2.1,1.6,4.2,3.3,6.3,5c2.7,2.2,5.3,4.4,7.8,6.5l0,0l0,0c2.2,4.3,4.2,8.5,5.9,12.7c0.9,2.1,1.5,4.2,2.1,6.3
							c0.6,2.1,1.3,4.1,1.9,6c2.6,7.8,5.1,14.7,7.1,20.4c2.1,5.7,3.8,10.3,4.9,13.6c0.6,1.6,1,2.8,1.3,3.7c0.1,0.4,0.3,0.7,0.3,1
							C585.3,333.9,585.3,334.1,585.3,334.1z"/>
					</g>
				</g>
			</g>
		</g>
		<g>
			<g>
				<polygon class="st10" points="526.6,204.3 555,208.3 569.5,212 549.6,219.2 				"/>
			</g>
		</g>
		<g>
			<g>
				<g>
					<path class="st10" d="M491.9,202.3c0,0-0.2,0.3-0.6,0.7c-0.4,0.4-1,1-1.8,1.6c-1.6,1.3-4,2.9-6.9,4.1c-2.9,1.2-5.7,1.8-7.8,2
						c-1,0.1-1.9,0.2-2.4,0.1c-0.6,0-0.9,0-0.9-0.1c0-0.1,1.3-0.1,3.3-0.4c2-0.3,4.8-1,7.7-2.2c2.9-1.2,5.3-2.7,6.9-3.9
						C490.9,203.1,491.8,202.2,491.9,202.3z"/>
				</g>
			</g>
		</g>
		<g>
			<g>
				<g>
					<path class="st5" d="M512.2,160.7l-5.5,41.1c0,0,18.2-1.2,31,3.1c12.8,4.3,20.7,4.1,20.7,4.1l-2.7-25.6l9.6-21l4.2,24.5
						l19.7,20.2l12.8-2.9l-13.3-22.2l-9.2-45.3c0,0,0,0,0-0.1c-0.8-3.8-2.8-7.2-5.8-9.6l-0.4-0.3l-19.3-10.8l-6.5,0.1
						c-7.1,0.2-12.7,1-16.3,1.7c-3.3,0.6-6.6,2.3-8.8,4.7l0,0c-1.6,1.7-3.6,4.9-4.5,8.4L512.2,160.7z"/>
				</g>
			</g>
			<g>
				<g>
					<g>
						<path class="st10" d="M573.5,143.5c0,0-0.1,0.5-0.5,1.3c-0.4,0.9-0.9,2.1-1.5,3.5c-1.3,3-3,7.1-5,11.6
							c-2,4.4-3.8,8.5-5.1,11.5c-0.6,1.4-1.2,2.6-1.6,3.5c-0.4,0.8-0.6,1.2-0.6,1.3c0,0,0.1-0.5,0.4-1.3c0.3-0.8,0.8-2,1.4-3.5
							c1.2-3,3-7.1,5-11.6c2-4.5,3.8-8.6,5.1-11.5c0.6-1.4,1.2-2.6,1.6-3.5C573.3,144,573.5,143.5,573.5,143.5z"/>
					</g>
				</g>
			</g>
			<g>
				<g>
					<g>
						<path class="st5" d="M519,136.4c3.8,10.5,11,34.4,14.5,43.6c1.1,2.8,2.9,5.3,5.2,7.1l39,27.6l9-11.7l-29.2-28.2l-15.8-46.7
							c-2.2-6.2-11.4-9.6-17.2-6.3l0,0C520.3,124.4,517.3,131.6,519,136.4z"/>
					</g>
				</g>
				<g>
					<g>
						<g>
							<path class="st10" d="M542.5,130.1c0,0,0.1,0.3,0.3,0.8c0.2,0.6,0.5,1.4,0.8,2.4c0.7,2.1,1.8,5.2,3.1,9
								c2.7,7.8,6.5,19,11,32.5l-0.1-0.1c8.6,8.3,18.6,17.9,29.3,28.2l0.2,0.2l-0.1,0.2c-2.1,2.7-4.3,5.5-6.5,8.4
								c-0.9,1.1-1.7,2.2-2.5,3.3l-0.2,0.2l-0.2-0.1c-10.7-7.7-20.8-15-29.9-21.6c-2.3-1.7-4.5-3.3-6.7-4.8
								c-0.5-0.4-1.1-0.8-1.6-1.2c-0.5-0.4-1.1-0.8-1.6-1.2c-1-0.9-1.8-1.9-2.5-3c-0.7-1.1-1.2-2.2-1.6-3.4
								c-0.4-1.1-0.9-2.2-1.3-3.3c-0.8-2.2-1.6-4.3-2.3-6.3c-2.9-8-5-14.5-6.4-19.1c-0.7-2.2-1.2-4-1.6-5.2c-0.2-0.6-0.3-1-0.4-1.4
								c-0.1-0.3-0.1-0.5-0.1-0.5s0.1,0.2,0.2,0.5c0.1,0.3,0.3,0.8,0.5,1.3c0.4,1.2,1,2.9,1.7,5.2c1.5,4.5,3.7,11,6.6,19
								c0.7,2,1.5,4.1,2.3,6.3c0.4,1.1,0.9,2.2,1.3,3.3c0.4,1.1,0.9,2.2,1.6,3.3c0.7,1,1.5,2,2.4,2.9c0.5,0.4,1,0.8,1.5,1.2
								c0.5,0.4,1.1,0.8,1.6,1.2c2.2,1.6,4.4,3.2,6.7,4.8c9.2,6.6,19.3,13.9,30,21.5l-0.4,0.1c0.8-1,1.7-2.2,2.5-3.3
								c2.2-2.9,4.4-5.7,6.5-8.4l0,0.3c-10.7-10.3-20.6-20-29.2-28.2l0,0l0-0.1c-4.5-13.5-8.2-24.7-10.9-32.5c-1.3-3.9-2.3-7-3-9.1
								c-0.3-1-0.6-1.8-0.8-2.4C542.6,130.4,542.5,130.1,542.5,130.1z"/>
						</g>
					</g>
				</g>
			</g>
			<g>
				<g>
					<g>
						<path class="st10" d="M538.8,124.4c-0.1,0.1-0.7-0.6-2-1.4c-1.3-0.8-3.2-1.6-5.5-1.7c-2.3-0.1-4.3,0.5-5.6,1.2
							c-1.3,0.7-2.1,1.3-2.1,1.2c0,0,0.6-0.8,1.9-1.5c1.3-0.8,3.4-1.5,5.8-1.4c2.4,0.1,4.4,1,5.6,1.9
							C538.3,123.5,538.8,124.3,538.8,124.4z"/>
					</g>
				</g>
			</g>
			<g>
				<g>
					<g>
						<path class="st10" d="M589.6,182.7c0,0.2-1.8,0-4,0.5c-2.2,0.5-3.7,1.5-3.8,1.4c-0.1-0.1,1.4-1.3,3.7-1.9
							C587.8,182.2,589.7,182.6,589.6,182.7z"/>
					</g>
				</g>
			</g>
			<g>
				<g>
					<g>
						<path class="st9" d="M524.1,152.1c0,0-0.1,0.1-0.4,0.1c-0.3,0.1-0.6,0.1-1.1,0.2c-0.9,0.1-2.2,0.1-3.6-0.2
							c-1.4-0.3-2.5-1-3.3-1.5c-0.4-0.3-0.7-0.5-0.9-0.7c-0.2-0.2-0.3-0.3-0.3-0.3c0-0.1,1.8,1.5,4.5,2.2
							C521.8,152.6,524.1,152,524.1,152.1z"/>
					</g>
				</g>
			</g>
			<g>
				<g>
					<g>
						<path class="st9" d="M527.2,161.1c0,0-0.7-0.5-1.8-1.1c-1.2-0.6-3-1.1-5-1.3c-2-0.2-3.9,0-5.2,0.1c-0.6,0.1-1.1,0.1-1.6,0.1
							c-0.4,0-0.6,0-0.6,0c0,0,0.2-0.1,0.6-0.1c0.4-0.1,0.9-0.1,1.6-0.2c1.3-0.2,3.2-0.3,5.2-0.2c2,0.2,3.8,0.7,5,1.3
							c0.6,0.3,1,0.6,1.3,0.8C527,160.9,527.2,161,527.2,161.1z"/>
					</g>
				</g>
			</g>
			<g class="st12">
				<g>
					<g>
						<path d="M522.1,145.9c0,0,1,15.6,2.2,22.9s3.5,14.6,8.6,19.8c5.2,5.2,12.6,7.5,19.8,9c-2.3-1.8-4.6-3.6-6.9-5.4
							c-2.9-2.4-7.1-4.8-9.5-7.7c-4.5-5.7-5.5-12.9-7.8-19.7C526.6,158.3,524.3,152.2,522.1,145.9"/>
					</g>
				</g>
			</g>
			<g>
				<g>
					<g>
						<path class="st9" d="M549.3,152c0,0-0.3,0.2-0.8,0.4c-0.6,0.2-1.4,0.4-2.5,0.4c-2.2,0-5-1-8.2-0.7c-3.2,0.2-6,1.4-7.8,2.5
							c-0.9,0.5-1.6,1.1-2.1,1.4c-0.2,0.2-0.4,0.3-0.5,0.4c-0.1,0.1-0.2,0.1-0.2,0.1c0,0,0.9-1,2.7-2.2c1.8-1.1,4.6-2.4,7.9-2.6
							c3.3-0.3,6.1,0.8,8.3,0.8c1.1,0,1.9-0.1,2.5-0.3C549,152.2,549.3,152,549.3,152z"/>
					</g>
				</g>
			</g>
			<g>
				<g>
					<g>
						<path class="st9" d="M546.4,144.4c0,0-0.1,0.1-0.2,0.1c-0.2,0.1-0.4,0.2-0.6,0.3c-0.5,0.3-1.2,0.7-2.2,1.1
							c-1.9,0.9-4.5,1.9-7.6,2.6c-3.1,0.7-5.9,1-8,1.1c-1,0-1.9,0-2.4,0c-0.2,0-0.5,0-0.7,0c-0.2,0-0.2,0-0.2,0s0.1,0,0.2,0
							c0.2,0,0.4,0,0.7,0c0.6,0,1.4,0,2.4-0.1c2.1-0.1,4.9-0.4,7.9-1.1c3-0.7,5.7-1.7,7.6-2.6c0.9-0.4,1.7-0.8,2.2-1
							c0.2-0.1,0.4-0.2,0.6-0.3C546.3,144.5,546.4,144.4,546.4,144.4z"/>
					</g>
				</g>
			</g>
			<g>
				<g>
					<g>
						<path class="st9" d="M568.5,152.6c0,0-0.1,0-0.3-0.1c-0.2,0-0.4-0.1-0.8-0.3c-0.6-0.3-1.5-0.8-2.4-1.6c-1.9-1.6-3.7-4.7-6.6-7
							c-2.9-2.4-6.2-3.6-8.5-4.2c-1.2-0.3-2.2-0.4-2.9-0.5c-0.3,0-0.6-0.1-0.8-0.1c-0.2,0-0.3,0-0.3,0c0,0,1.5-0.1,4,0.5
							c2.4,0.5,5.7,1.8,8.6,4.2c1.5,1.2,2.7,2.5,3.7,3.8c1,1.3,2,2.4,2.9,3.2c0.9,0.8,1.8,1.4,2.4,1.6
							C568.2,152.5,568.5,152.6,568.5,152.6z"/>
					</g>
				</g>
			</g>
			<g>
				<g>
					<g>
						<path class="st9" d="M567.4,157.4c0,0-0.3-0.1-0.8-0.2c-0.5-0.2-1.2-0.6-2-1.2c-0.8-0.6-1.6-1.5-2.5-2.5c-0.9-1-1.8-2.1-3-3
							c-1.2-0.9-2.5-1.5-3.8-1.7c-1.3-0.2-2.5-0.1-3.5-0.1c-1,0.1-1.8,0.2-2.3,0.3c-0.2,0-0.4,0.1-0.6,0.1c-0.1,0-0.2,0-0.2,0
							c0,0,0.1,0,0.2-0.1c0.2,0,0.4-0.1,0.6-0.1c0.5-0.1,1.3-0.2,2.3-0.3c1-0.1,2.2-0.2,3.5,0c1.3,0.2,2.7,0.7,3.9,1.7
							c1.2,1,2.1,2.1,3,3.1c0.9,1,1.6,1.9,2.4,2.5c0.8,0.6,1.5,1,2,1.3C567.1,157.3,567.4,157.4,567.4,157.4z"/>
					</g>
				</g>
			</g>
			<g>
				<g>
					<g>
						<path class="st9" d="M582.7,154.2c0,0-0.8-0.3-2.2-0.2c-0.7,0.1-1.5,0.2-2.4,0.5c-0.9,0.3-1.8,0.7-2.8,1.2
							c-1,0.4-1.9,0.8-2.8,1c-0.9,0.2-1.8,0.2-2.5,0.1c-0.7-0.1-1.2-0.3-1.6-0.5c-0.3-0.2-0.5-0.4-0.5-0.4c0-0.1,0.7,0.6,2.1,0.7
							c0.7,0.1,1.5,0,2.4-0.2c0.9-0.2,1.8-0.6,2.8-1c1-0.4,1.9-0.9,2.8-1.2c0.9-0.3,1.7-0.5,2.4-0.5c0.7,0,1.3,0.1,1.7,0.2
							C582.5,154.1,582.7,154.2,582.7,154.2z"/>
					</g>
				</g>
			</g>
			<g>
				<g>
					<g>
						<path class="st9" d="M584.3,159.6c0,0.1-0.9-0.9-2.8-1c-0.9,0-2,0.1-3.1,0.6c-1.1,0.4-2.3,1.2-3.4,2c-1.2,0.8-2.3,1.6-3.4,2.1
							c-1.1,0.5-2.2,0.8-3.2,0.8c-0.9,0-1.7-0.1-2.2-0.3c-0.5-0.2-0.7-0.4-0.7-0.4c0-0.1,1,0.7,2.9,0.6c0.9-0.1,2-0.3,3.1-0.9
							c1.1-0.5,2.2-1.3,3.4-2.1c1.2-0.8,2.3-1.5,3.5-2c1.2-0.4,2.3-0.6,3.2-0.5c0.9,0.1,1.7,0.3,2.1,0.6
							C584.1,159.4,584.3,159.6,584.3,159.6z"/>
					</g>
				</g>
			</g>
			<g class="st12">
				<g>
					<g>
						<path d="M567.6,175.7c2-8.2,2.4-17.1,2.7-25.5c-0.7,2.9-2.5,5.5-3.6,8.3c-0.5,1.3-1.4,3.8-1.4,3.8l2.3,13.2"/>
					</g>
				</g>
			</g>
		</g>
		<g>
			<g>
				<g>
					<g>
						<path class="st10" d="M554.4,79.4c-0.2,1.5-1.3,2.9-2.8,3.3c-0.8,0.3-1.7,0.3-2.5,0.6c-0.8,0.3-1.6,1.1-1.4,1.9
							c0.1,0.6,0.7,1,1.2,1.5c0.5,0.4,0.9,1.1,0.6,1.7c-0.3,0.6-1.2,0.7-1.7,1.2c-0.5,0.6-0.3,1.5,0.1,2.1c0.5,0.6,1.1,1,1.8,1.4
							c0.6,0.4,1.2,1,1.4,1.7"/>
					</g>
				</g>
				<g>
					<g>
						<g>
							<path class="st10" d="M584.1,92.4c2.2-4.6,0.6-10.4-2.8-14.3s-8.3-6-13.3-7.4c-0.7-0.2-1.6-0.4-2.1,0.2
								c-0.4,0.5-0.3,1.3,0.1,1.8c0.4,0.5,1.1,0.7,1.7,1c-2-1-4.2-1.7-6.4-1.8c-0.8,0-1.6,0.1-2.3,0.5c-0.7,0.4-1.1,1.2-0.9,2
								c0.2,0.7,1.3,1.2,1.9,0.6c-2.1-0.2-4.3,0.3-6.1,1.4c-1.3,0.8-2.4,2.2-2.1,3.7c0.2,0.9,0.8,1.6,1.1,2.4
								c0.5,1.6-0.2,3.2-0.8,4.7c-0.9,2.4-1.4,5-1,7.5c0.4,2.5,1.8,4.9,4,6.2"/>
						</g>
					</g>
					<g>
						<g>
							<g>
								<g>
									<g>
										<g>
											<g>
												<g>
													<g>
														<g>
															<g>
																<g>
																	<path class="st14" d="M553.4,131.6c-5.6-1.5-8.8-7.3-7.2-12.8l9.2-31.1c2.1-8,10.4-12.6,18.4-10.3l0.7,0.3
																		c7.2,2.6,11.3,10.4,9.2,17.8c-1.9,6.9-4.1,14.5-5.4,18.1c-2.8,7.4-10.7,5.9-10.7,5.9l-1.9,5.6
																		C564,130.1,558.6,133,553.4,131.6L553.4,131.6z"/>
																</g>
															</g>
														</g>
													</g>
												</g>
											</g>
										</g>
									</g>
								</g>
								<g>
									<g>
										<g>
											<g>
												<g>
													<g>
														<g>
															<g>
																<g>
																	<path class="st17" d="M567.7,119.4c0,0-4.9-1.3-8.7-6.3c0,0,0.4,6.2,8,8.2L567.7,119.4z"/>
																</g>
															</g>
														</g>
													</g>
												</g>
											</g>
										</g>
									</g>
								</g>
							</g>
						</g>
					</g>
					<g>
						<g>
							<g>
								<path class="st10" d="M566.3,82c-0.6-1.3-1.4-4.3-2.4-5.3c-1-1-2.7-0.7-4.1-0.3c-1.5,0.4-2.7,1.5-3.2,3
									c-2,5.4-2.2,10.5-3.7,15.7c-0.1,0.4-0.2,0.7-0.1,1.1c0.3,0.9,1.3,1.2,2.2,1.4c2.3,0.3,3.5-1.3,4.5-3.3
									c0.2-0.4,0.7-3.2,0.8-3.7c0.3-3.6,2.4-6.8,5.6-8.3L566.3,82z"/>
							</g>
						</g>
						<g>
							<g>
								<path class="st10" d="M566.5,82.5"/>
							</g>
						</g>
					</g>
					<g>
						<g>
							<g>
								<g>
									<g>
										<g>
											<g>
												<g>
													<g>
														<g>
															<path class="st14" d="M556.7,92c-0.1-0.1-4.6-3.4-6.3,1.8c-1.7,5.2,3.8,5.8,3.9,5.6C554.4,99.3,556.7,92,556.7,92z"
																/>
														</g>
													</g>
												</g>
											</g>
										</g>
									</g>
								</g>
							</g>
						</g>
						<g>
							<g>
								<g>
									<g>
										<g>
											<g>
												<g>
													<g>
														<g>
															<g>
																<path class="st17" d="M553.4,97c0,0-0.1,0-0.3,0.1c-0.2,0-0.4,0-0.7-0.2c-0.5-0.4-0.7-1.4-0.4-2.3
																	c0.1-0.5,0.4-0.9,0.7-1.2c0.3-0.3,0.6-0.5,0.9-0.5c0.3,0,0.4,0.3,0.5,0.4c0,0.2,0,0.3,0,0.3c0,0,0.1-0.1,0.2-0.3
																	c0-0.1,0-0.3-0.1-0.4c-0.1-0.1-0.3-0.3-0.5-0.3c-0.4-0.1-0.9,0.1-1.2,0.5c-0.3,0.3-0.6,0.8-0.8,1.3
																	c-0.3,1.1-0.1,2.2,0.6,2.7c0.3,0.2,0.7,0.2,0.9,0.1C553.4,97.1,553.5,97,553.4,97z"/>
															</g>
														</g>
													</g>
												</g>
											</g>
										</g>
									</g>
								</g>
							</g>
						</g>
					</g>
					<g>
						<g>
							<path class="st10" d="M564.3,83.1c2.5-1.7,5.2-0.9,6.9,0.1c1.7,1,3.2,2.5,5,3.4c1.8,0.9,4.1,1.2,5.7,0c1.2-0.9,1.7-2.5,1.8-4
								c0.2-2.9-0.7-5.8-2.6-8c-0.5-0.6-1.2-1.1-1.9-0.8c-0.9,0.4-0.7,1.6-0.4,2.5c0,0-8.7-3.2-14-1.4
								C559.6,76.9,564.3,83.1,564.3,83.1z"/>
						</g>
					</g>
					<g>
						<g>
							<g>
								<path class="st11" d="M567.6,70.6c0,0,0.1,0.4,0.4,1c0.3,0.6,0.8,1.5,1.7,2.3c0.9,0.8,2,1.7,3.5,2.4
									c0.7,0.3,1.5,0.6,2.4,0.8c0.9,0.2,1.8,0.3,2.7,0.6c0.9,0.3,1.8,0.6,2.5,1.3c0.7,0.6,1.2,1.4,1.5,2.1
									c0.3,0.8,0.4,1.6,0.3,2.4c-0.1,0.7-0.4,1.4-0.7,1.9c-0.7,1.1-1.7,1.6-2.4,1.8c-0.3,0.1-0.6,0.1-0.8,0.1c-0.2,0-0.3,0-0.3,0
									c0,0,0.4,0,1-0.3c0.6-0.2,1.5-0.8,2.1-1.8c0.3-0.5,0.6-1.1,0.6-1.8c0.1-0.7,0-1.4-0.3-2.2c-0.3-0.7-0.8-1.4-1.4-2
									c-0.6-0.6-1.5-0.9-2.3-1.2c-0.9-0.2-1.8-0.4-2.7-0.6c-0.9-0.2-1.7-0.5-2.4-0.9c-1.5-0.7-2.7-1.7-3.5-2.6
									c-0.8-0.9-1.4-1.8-1.6-2.5c-0.1-0.3-0.2-0.6-0.2-0.8C567.6,70.7,567.6,70.6,567.6,70.6z"/>
							</g>
						</g>
					</g>
					<g>
						<g>
							<g>
								<path class="st11" d="M561.9,72.1c0,0,0.1,0.4,0.4,1c0.3,0.6,0.8,1.5,1.8,2.4c0.9,0.9,2.2,1.6,3.8,2.2
									c1.6,0.6,3.4,0.9,5.3,1.2c1.9,0.4,3.8,0.7,5.4,1.5c0.8,0.4,1.4,1,1.7,1.8c0.3,0.8,0.3,1.5,0.1,2.2c-0.4,1.3-1.3,2.1-1.8,2.4
									c-0.3,0.2-0.6,0.3-0.7,0.4c-0.2,0.1-0.3,0.1-0.3,0.1c0,0,0.4-0.2,0.9-0.6c0.5-0.4,1.4-1.2,1.6-2.4c0.1-0.6,0.1-1.3-0.2-1.9
									c-0.3-0.7-0.9-1.2-1.6-1.6c-1.5-0.7-3.3-1.1-5.2-1.5c-1.9-0.4-3.8-0.7-5.4-1.3c-1.6-0.6-3-1.4-3.9-2.3
									c-0.9-0.9-1.5-1.9-1.7-2.5c-0.1-0.3-0.2-0.6-0.2-0.8C561.9,72.2,561.8,72.1,561.9,72.1z"/>
							</g>
						</g>
					</g>
				</g>
			</g>
			<g>
				<g>
					<g>
						<g>
							<g>
								<g>
									<g>
										<g>
											<g>
												<g>
													<g>
														<g>
															<g>
																<g>
																	<g>
																		<g>
																			<g>
																				<g>
																					<g>
																						<g>
																							<g>
																								<g>
																									<path class="st10" d="M578.8,99.1c-0.2,0.6-0.9,1-1.5,0.8c-0.7-0.2-1-0.8-0.8-1.5c0.2-0.6,0.9-1,1.5-0.8
																										C578.6,97.8,579,98.5,578.8,99.1z"/>
																								</g>
																							</g>
																						</g>
																					</g>
																				</g>
																			</g>
																		</g>
																	</g>
																</g>
															</g>
														</g>
														<g>
															<g>
																<g>
																	<g>
																		<g>
																			<g>
																				<g>
																					<g>
																						<g>
																							<g>
																								<g>
																									<g>
																										<path class="st10" d="M581,98.4c-0.2,0.1-0.9-0.9-2.1-1.3c-1.2-0.4-2.4-0.1-2.5-0.3
																											c0-0.1,0.2-0.3,0.7-0.5c0.5-0.2,1.3-0.2,2,0.1c0.8,0.3,1.3,0.8,1.6,1.2C581.1,98.1,581.1,98.4,581,98.4z"
																											/>
																									</g>
																								</g>
																							</g>
																						</g>
																					</g>
																				</g>
																			</g>
																		</g>
																	</g>
																</g>
															</g>
														</g>
													</g>
													<g>
														<g>
															<g>
																<g>
																	<g>
																		<g>
																			<g>
																				<g>
																					<g>
																						<g>
																							<g>
																								<g>
																									<path class="st10" d="M566.4,95.5c-0.2,0.6-0.9,1-1.5,0.8c-0.7-0.2-1-0.8-0.8-1.5c0.2-0.6,0.9-1,1.5-0.8
																										C566.2,94.2,566.6,94.9,566.4,95.5z"/>
																								</g>
																							</g>
																						</g>
																					</g>
																				</g>
																			</g>
																		</g>
																	</g>
																</g>
															</g>
														</g>
														<g>
															<g>
																<g>
																	<g>
																		<g>
																			<g>
																				<g>
																					<g>
																						<g>
																							<g>
																								<g>
																									<g>
																										<path class="st10" d="M568.6,94.4c-0.2,0.1-0.9-0.9-2.1-1.3c-1.2-0.4-2.4-0.1-2.5-0.3
																											c0-0.1,0.2-0.3,0.7-0.5c0.5-0.2,1.3-0.2,2,0.1c0.8,0.3,1.3,0.8,1.6,1.2C568.7,94,568.7,94.3,568.6,94.4z"
																											/>
																									</g>
																								</g>
																							</g>
																						</g>
																					</g>
																				</g>
																			</g>
																		</g>
																	</g>
																</g>
															</g>
														</g>
													</g>
													<g>
														<g>
															<g>
																<g>
																	<g>
																		<g>
																			<g>
																				<g>
																					<g>
																						<g>
																							<g>
																								<g>
																									<path class="st10" d="M569.9,105.2c0-0.1,0.8,0.1,2.2,0.3c0.3,0.1,0.7,0.1,0.8-0.1c0.2-0.2,0.1-0.6,0.1-1
																										c0-0.9-0.1-1.8-0.1-2.8c-0.1-3.9-0.1-7.1,0.1-7.1c0.2,0,0.4,3.2,0.5,7.1c0,1,0,1.9,0.1,2.8
																										c0,0.4,0.1,0.9-0.3,1.3c-0.2,0.2-0.5,0.3-0.7,0.3c-0.2,0-0.4-0.1-0.6-0.1
																										C570.7,105.6,569.9,105.3,569.9,105.2z"/>
																								</g>
																							</g>
																						</g>
																					</g>
																				</g>
																			</g>
																		</g>
																	</g>
																</g>
															</g>
														</g>
													</g>
													<g>
														<g>
															<g>
																<g>
																	<g>
																		<g>
																			<g>
																				<g>
																					<g>
																						<g>
																							<g>
																								<g>
																									<path class="st10" d="M566,104.8c0.2,0.1-0.3,1.4,0.6,2.8c0.8,1.4,2.3,1.7,2.3,1.9c0,0.1-0.4,0.2-1,0
																										c-0.6-0.2-1.4-0.7-1.9-1.5c-0.5-0.8-0.5-1.7-0.4-2.3C565.6,105.1,565.9,104.8,566,104.8z"/>
																								</g>
																							</g>
																						</g>
																					</g>
																				</g>
																			</g>
																		</g>
																	</g>
																</g>
															</g>
														</g>
													</g>
												</g>
											</g>
										</g>
										<g>
											<g>
												<g>
													<g>
														<g>
															<g>
																<g>
																	<g>
																		<g>
																			<g>
																				<g>
																					<path class="st10" d="M570.7,89.6c-0.2,0.3-1.4-0.3-3-0.6c-1.5-0.4-2.9-0.3-2.9-0.7c0-0.2,0.3-0.4,0.9-0.6
																						c0.6-0.2,1.5-0.2,2.4,0c0.9,0.2,1.7,0.6,2.1,1C570.6,89.1,570.8,89.5,570.7,89.6z"/>
																				</g>
																			</g>
																		</g>
																	</g>
																</g>
															</g>
														</g>
													</g>
												</g>
											</g>
										</g>
										<g>
											<g>
												<g>
													<g>
														<g>
															<g>
																<g>
																	<g>
																		<g>
																			<g>
																				<g>
																					<path class="st10" d="M581.8,94.6c-0.3,0.2-1.1-0.4-2.1-0.8c-1-0.4-2-0.5-2.1-0.8c0-0.2,0.2-0.4,0.7-0.5
																						c0.5-0.1,1.2-0.1,1.9,0.1c0.7,0.3,1.2,0.7,1.5,1.2C581.9,94.2,582,94.5,581.8,94.6z"/>
																				</g>
																			</g>
																		</g>
																	</g>
																</g>
															</g>
														</g>
													</g>
												</g>
											</g>
										</g>
									</g>
								</g>
							</g>
						</g>
					</g>
				</g>
			</g>
		</g>
		<g>
			<g>
				<g>
					<path class="st11" d="M558.2,205.6c3,0.9,3.6,4.2,3.2,5.6l-6.8,2.7l-1.5-6.5L558.2,205.6z"/>
				</g>
			</g>
			<g>
				<g>
					<g>
						<path class="st11" d="M501.5,205.6c0,0,13.5-1.4,22,1.6c8.5,3,19.1,5.2,23.7,4.2c4.1-0.9,6.4-4,6.4-4s-13.5-1.6-19.8-3.7
							c-4.3-1.4-12.7-10.9-28.3-8.6L501.5,205.6z"/>
					</g>
				</g>
				<g>
					<g>
						<g>
							<path class="st11" d="M555.7,210.5c-0.4-1.3-1.3-2.3-2.2-3.3l0.1,0.2c-1.4,0.1-2.8,0.2-4.2,0.6c-1.4,0.4-2.7,1.1-3.6,2.2
								c-0.3,0.4-0.5,0.8-0.5,1.3c0,0.6,0.6,1.1,1.1,1.5c1.3,1,2.7,2.1,4.2,2.5c1.6,0.4,3.5,0.1,4.5-1.2
								C556.1,213.2,556.1,211.7,555.7,210.5z"/>
						</g>
					</g>
					<g>
						<g>
							<g>
								<path class="st10" d="M545.9,210c0,0,0.1-0.3,0.4-0.8c0.4-0.4,1.1-0.9,2-1.3c1-0.3,2.2-0.5,3.5-0.3c1.3,0.2,2.8,1,3.6,2.3
									c0.4,0.7,0.6,1.5,0.6,2.2c-0.1,0.7-0.3,1.4-0.7,2c-0.4,0.6-1,0.9-1.6,1.1c-0.6,0.2-1.2,0.2-1.7,0.2c-1-0.1-1.8-0.4-2.3-0.6
									c-0.3-0.1-0.5-0.2-0.6-0.3c-0.1-0.1-0.2-0.1-0.2-0.1c0,0,0.1,0,0.2,0.1c0.2,0.1,0.4,0.1,0.6,0.2c0.5,0.2,1.3,0.4,2.3,0.5
									c1,0.1,2.3-0.2,3-1.3c0.8-1,1-2.7,0.2-4c-0.8-1.3-2.2-2-3.5-2.3c-1.3-0.2-2.5,0-3.5,0.3c-1,0.3-1.6,0.8-2,1.2
									C546,209.7,545.9,210,545.9,210z"/>
							</g>
						</g>
					</g>
					<g>
						<g>
							<g>
								<path class="st9" d="M548.8,210.2c0,0-0.3-0.4-0.8-0.7c-0.5-0.3-1-0.5-0.9-0.5c0,0,0.5,0.1,1,0.4
									C548.5,209.8,548.8,210.2,548.8,210.2z"/>
							</g>
						</g>
					</g>
					<g>
						<g>
							<g>
								<path class="st9" d="M550.9,210.3c0,0-0.3-0.3-0.7-0.7c-0.4-0.3-0.8-0.6-0.8-0.6c0,0,0.4,0.2,0.8,0.5
									C550.7,209.9,551,210.3,550.9,210.3z"/>
							</g>
						</g>
					</g>
					<g>
						<g>
							<g>
								<path class="st9" d="M551.8,215c0,0-0.1-0.2-0.2-0.6c-0.1-0.4-0.3-0.8-0.6-1.3c-0.3-0.5-0.7-0.8-1-1.1
									c-0.3-0.2-0.5-0.4-0.5-0.4c0,0,0.2,0.1,0.5,0.3c0.3,0.2,0.7,0.6,1,1.1c0.3,0.5,0.5,1,0.6,1.3
									C551.8,214.7,551.8,215,551.8,215z"/>
							</g>
						</g>
					</g>
					<g>
						<g>
							<g>
								<path class="st9" d="M554,213.2c0,0,0-0.2,0-0.6c0-0.4,0-0.9-0.1-1.4c-0.1-0.5-0.3-1-0.4-1.3c-0.1-0.3-0.2-0.5-0.2-0.5
									c0,0,0,0,0.1,0.1c0.1,0.1,0.1,0.2,0.2,0.4c0.2,0.3,0.3,0.8,0.4,1.3c0.1,0.5,0.1,1,0.1,1.4c0,0.2,0,0.3-0.1,0.4
									C554.1,213.2,554.1,213.3,554,213.2z"/>
							</g>
						</g>
					</g>
					<g>
						<g>
							<g>
								<path class="st10" d="M554.1,209.1c0,0.1-1.5,0.5-3,1.6c-1.6,1.1-2.4,2.4-2.5,2.4c0,0,0.2-0.4,0.6-0.8
									c0.4-0.5,1-1.1,1.8-1.7c0.8-0.6,1.6-0.9,2.2-1.1C553.7,209.1,554.1,209.1,554.1,209.1z"/>
							</g>
						</g>
					</g>
					<g>
						<g>
							<g>
								<path class="st10" d="M550.7,208c0,0.1-1.1,0.7-1.9,2.1c-0.8,1.4-0.7,2.7-0.7,2.7c0,0-0.1-0.3,0-0.8c0-0.5,0.2-1.2,0.6-2
									c0.4-0.7,0.9-1.2,1.3-1.6C550.4,208.1,550.7,208,550.7,208z"/>
							</g>
						</g>
					</g>
					<g>
						<g>
							<g>
								<path class="st10" d="M554.4,215c0,0-0.1-0.3-0.3-0.8c-0.2-0.5-0.6-1.1-1.2-1.6c-1.2-1-2.5-1.5-2.4-1.6c0,0,0.3,0.1,0.8,0.3
									c0.5,0.2,1.1,0.6,1.7,1.1c0.6,0.5,1,1.2,1.2,1.7C554.5,214.7,554.4,215,554.4,215z"/>
							</g>
						</g>
					</g>
				</g>
				<g>
					<g>
						<g>
							<path class="st10" d="M526,207.8c0,0-0.5-0.1-1.3-0.2c-0.8-0.2-2.1-0.5-3.6-0.7c-3-0.6-7.3-1.2-12-1.4
								c-2.4-0.1-4.6,0-6.6,0.5c-2,0.5-3.6,1.4-4.8,2.4c-2.4,1.9-3.3,3.7-3.4,3.6c0,0,0.2-0.5,0.7-1.2c0.5-0.7,1.3-1.7,2.5-2.7
								c1.2-1,2.9-2,4.9-2.5c2-0.6,4.3-0.7,6.7-0.6c4.8,0.2,9,0.9,12.1,1.6c1.5,0.3,2.7,0.7,3.6,0.9
								C525.6,207.7,526,207.8,526,207.8z"/>
						</g>
					</g>
				</g>
				<g>
					<g>
						<g>
							<path class="st10" d="M426.6,194.3c0,0,0.2-0.2,0.7-0.5c0.5-0.3,1.2-0.8,2.2-1.2c2-0.8,5.2-1.6,9.1-0.7
								c1.9,0.5,3.9,1.4,5.6,2.9c1.8,1.5,3.3,3.4,4.7,5.5c1.5,2.1,3,4.3,4.8,6.4c1.8,2.1,3.8,4.2,6,6.1c4.4,3.8,9.2,7,14,8.5
								c2.4,0.8,4.8,1.2,7.1,1.2c2.2,0,4.3-0.5,6-1.5c1.6-1,2.8-2.3,3.7-3.5c0.9-1.2,1.7-2.3,2.3-3.2c0.6-0.9,1-1.6,1.4-2.1
								c0.3-0.5,0.5-0.7,0.5-0.7c0,0-0.1,0.3-0.4,0.8c-0.3,0.5-0.7,1.2-1.3,2.1c-0.6,0.9-1.3,2-2.2,3.3c-0.9,1.2-2.1,2.6-3.8,3.7
								c-1.7,1.1-3.9,1.6-6.1,1.6c-2.3,0-4.8-0.4-7.2-1.1c-4.9-1.6-9.8-4.7-14.2-8.6c-2.2-2-4.3-4-6.1-6.2c-1.8-2.1-3.3-4.4-4.8-6.5
								c-1.5-2.1-2.9-4-4.6-5.5c-1.7-1.5-3.6-2.4-5.5-2.9c-3.7-1-6.9-0.2-8.9,0.5C427.5,193.5,426.6,194.4,426.6,194.3z"/>
						</g>
					</g>
				</g>
				<g>
					<g>
						<g>
							<path class="st9" d="M451.5,185.4c0,0-0.3,0-0.7,0c-0.5,0-1.1,0.1-1.9,0.1c-1.6,0.2-3.8,0.6-6.1,1.5c-2.3,0.9-4.2,2.1-5.6,3
								c-0.7,0.5-1.2,0.9-1.5,1.2c-0.3,0.3-0.5,0.4-0.5,0.4s0.7-0.7,2-1.7c1.3-1,3.2-2.1,5.6-3c2.3-0.9,4.5-1.3,6.2-1.5
								C450.5,185.4,451.5,185.4,451.5,185.4z"/>
						</g>
					</g>
				</g>
				<g>
					<g>
						<g>
							<path class="st9" d="M467.5,195.1c0,0-0.3,0-0.7,0.1c-0.5,0.1-1.2,0.2-2,0.3c-1.7,0.3-3.9,1-6.3,2.1
								c-2.3,1.1-4.3,2.5-5.6,3.6c-0.7,0.5-1.2,1-1.5,1.3c-0.3,0.3-0.5,0.5-0.5,0.5s0.7-0.8,2-1.9c1.3-1.1,3.2-2.5,5.6-3.6
								c2.4-1.1,4.6-1.8,6.3-2.1C466.5,195.2,467.5,195.1,467.5,195.1z"/>
						</g>
					</g>
				</g>
				<g>
					<g>
						<g>
							<path class="st9" d="M467.1,217.9c0,0-0.1-0.3-0.1-0.8c-0.1-0.5-0.1-1.2-0.1-2.1c0.1-1.8,0.7-4.3,2.1-6.7
								c1.3-2.4,3-4.3,4.1-5.6c1.2-1.3,2-2.1,2-2.1s-0.2,0.2-0.5,0.6c-0.4,0.5-0.9,1-1.4,1.6c-1.2,1.4-2.8,3.3-4.1,5.6
								c-1.3,2.4-2,4.8-2.1,6.6c-0.1,0.9,0,1.6,0,2.1c0,0.2,0.1,0.4,0.1,0.6C467.1,217.8,467.1,217.9,467.1,217.9z"/>
						</g>
					</g>
				</g>
				<g>
					<g>
						<g>
							<path class="st9" d="M484.7,207.8c0,0-0.1-0.3-0.3-0.8c-0.1-0.5-0.3-1.2-0.3-1.9c0-0.8,0.1-1.5,0.2-2
								c0.1-0.5,0.2-0.8,0.2-0.8c0,0-0.1,0.3-0.2,0.8c-0.1,0.5-0.2,1.2-0.2,1.9c0,0.8,0.1,1.4,0.2,1.9
								C484.6,207.5,484.7,207.8,484.7,207.8z"/>
						</g>
					</g>
				</g>
				<g>
					<g>
						<g>
							<path class="st9" d="M487.7,220c0,0-0.7-0.4-1.6-1.2c-0.9-0.8-2.1-2.1-3.1-3.7c-1-1.6-1.6-3.2-1.9-4.4c-0.3-1.2-0.3-2-0.3-2
								s0,0.2,0.1,0.5c0.1,0.3,0.2,0.8,0.3,1.4c0.3,1.2,0.9,2.8,1.9,4.4c1,1.6,2.1,2.9,3.1,3.7c0.5,0.4,0.8,0.7,1.1,0.9
								C487.6,219.9,487.7,220,487.7,220z"/>
						</g>
					</g>
				</g>
				<g>
					<g>
						<g>
							<path class="st9" d="M501.2,206.2c0,0-0.5-0.2-1.3-0.7c-0.8-0.5-1.8-1.1-2.9-2c-1.1-0.9-2-1.7-2.6-2.4c-0.6-0.7-1-1.1-1-1.1
								s0.1,0.1,0.3,0.3c0.3,0.3,0.5,0.5,0.7,0.8c0.6,0.6,1.5,1.5,2.6,2.4c1.1,0.9,2.1,1.5,2.9,2c0.3,0.2,0.6,0.4,0.9,0.5
								C501.1,206.1,501.2,206.2,501.2,206.2z"/>
						</g>
					</g>
				</g>
				<g>
					<g>
						<g>
							<path class="st9" d="M510.8,204.9c0,0,0-0.1,0-0.4c0-0.4,0-0.7,0-1.1c0-0.9-0.1-2.2-0.3-3.5c-0.2-1.4-0.4-2.6-0.6-3.5
								c-0.1-0.3-0.2-0.7-0.2-1c-0.1-0.2-0.1-0.4-0.1-0.4s0,0.1,0.1,0.4c0.1,0.2,0.2,0.6,0.3,1c0.2,0.9,0.5,2.1,0.7,3.5
								c0.2,1.4,0.3,2.6,0.3,3.5c0,0.5,0,0.8,0,1.1C510.8,204.7,510.8,204.9,510.8,204.9z"/>
						</g>
					</g>
				</g>
				<g>
					<g>
						<g>
							<path class="st9" d="M523.3,198c0,0,0,0.1,0,0.3c0,0.3-0.1,0.6-0.1,0.9c-0.1,0.7-0.2,1.8-0.5,2.9c-0.2,1.1-0.5,2.1-0.7,2.8
								c-0.1,0.3-0.2,0.6-0.3,0.8c-0.1,0.2-0.1,0.3-0.1,0.3c0,0,0-0.1,0.1-0.3c0.1-0.3,0.2-0.6,0.2-0.9c0.2-0.7,0.5-1.7,0.7-2.8
								c0.2-1.1,0.4-2.1,0.5-2.9c0-0.3,0.1-0.6,0.1-0.9C523.2,198.2,523.3,198,523.3,198z"/>
						</g>
					</g>
				</g>
				<g>
					<g>
						<g>
							<path class="st9" d="M531.8,206.3c0,0,0.1-0.7,0.3-1.6c0.2-0.9,0.4-1.6,0.4-1.6c0,0-0.1,0.7-0.3,1.6
								C532,205.6,531.8,206.3,531.8,206.3z"/>
						</g>
					</g>
				</g>
				<g>
					<g>
						<g>
							<path class="st9" d="M545.8,210.9c0,0,0-0.3,0.1-0.7c0-0.4,0.1-1,0.1-1.6c0-0.4,0-0.9,0-1.6c0-0.1,0-0.3,0-0.5
								c0-0.1,0-0.2,0-0.2c0,0,0,0.3,0.1,0.7c0,0.4,0,1,0,1.6c0,0.6-0.1,1.2-0.1,1.6C545.9,210.7,545.8,210.9,545.8,210.9z"/>
						</g>
					</g>
				</g>
				<g>
					<g>
						<g>
							<g>
								<path class="st11" d="M548.5,214.2c-1.1-4.4-5.5-7.2-10-7.9c-4.4-0.7-8.9,0.2-13.4,0.8c-4.5,0.6-9.2,0.7-13.2-1.4
									c-1.3,2.3-1.9,5-1.9,7.6c0.8,0,1.6,0,2.3,0.1c0.5,3.4,3.6,6,6.9,6.7c3.3,0.7,5.5,0.8,8.7-0.6c3.3-1.4,7.5-3.6,10.7-4.7
									c3.2-1.1,6.8-1.7,10-0.6"/>
							</g>
						</g>
						<g>
							<g>
								<g>
									<path class="st10" d="M514.2,206.8c0,0-0.1,0.4-0.4,0.9c-0.2,0.6-0.6,1.4-0.8,2.3c-0.3,0.9-0.4,1.8-0.5,2.4
										c-0.1,0.6-0.1,1-0.1,1c0,0-0.1-0.4,0-1c0-0.6,0.2-1.5,0.4-2.4c0.3-0.9,0.6-1.7,0.9-2.3C514,207.1,514.2,206.8,514.2,206.8z
										"/>
								</g>
							</g>
						</g>
					</g>
					<g>
						<g>
							<g>
								<path class="st10" d="M512.6,211.5c0,0.1-0.6,0-1.2-0.1c-0.7-0.1-1.2-0.1-1.2-0.2c0-0.1,0.6-0.1,1.3,0
									C512,211.3,512.6,211.5,512.6,211.5z"/>
							</g>
						</g>
					</g>
					<g>
						<g>
							<g>
								<path class="st10" d="M513.1,208.8c0,0-0.5-0.3-1.1-0.5c-0.6-0.2-1.1-0.2-1.1-0.3c0-0.1,0.6-0.1,1.2,0.1
									C512.7,208.3,513.1,208.8,513.1,208.8z"/>
							</g>
						</g>
					</g>
					<g>
						<g>
							<g>
								<path class="st10" d="M517.7,207.4c0,0,0.2,0,0.7,0c0.5,0,1.1,0,2,0c1.7,0,4.2-0.1,7.3-0.7c3.1-0.6,6.8-1,11-0.3
									c2.1,0.4,4.2,1.1,6.1,2.4c1.8,1.3,3.4,3.3,4.2,5.7l0.1,0.2l-0.2-0.1c-0.9-0.4-1.9-0.7-3-0.8c-2.6-0.2-5.1,0.6-7.4,1.3
									c-2.3,0.8-4.5,1.7-6.6,2.7c-1,0.5-2,0.9-3,1.4c-1,0.4-2,0.8-2.9,1.1c-2,0.5-3.9,0.5-5.6,0.2c-1.7-0.3-3.2-0.9-4.3-1.6
									c-1.1-0.8-1.9-1.7-2.4-2.5c-0.5-0.8-0.8-1.5-0.9-2c-0.1-0.5-0.2-0.8-0.2-0.8c0.1,0,0.1,1.1,1.1,2.7c0.5,0.8,1.3,1.7,2.4,2.5
									c1.1,0.8,2.6,1.3,4.3,1.6c1.7,0.2,3.6,0.2,5.5-0.2c1-0.2,1.9-0.6,2.9-1.1c1-0.4,2-0.9,3-1.4c2-1,4.2-1.9,6.6-2.7
									c2.3-0.8,4.8-1.5,7.5-1.3c1.1,0.1,2.2,0.4,3.1,0.8l-0.1,0.1c-0.7-2.3-2.3-4.2-4.1-5.5c-1.8-1.3-3.9-2.1-6-2.4
									c-4.1-0.7-7.9-0.3-10.9,0.3c-3.1,0.6-5.6,0.7-7.3,0.7C518.7,207.4,517.7,207.4,517.7,207.4z"/>
							</g>
						</g>
					</g>
					<g>
						<g>
							<g>
								<path class="st9" d="M517.6,219.5c0,0-0.1-0.2-0.2-0.5c-0.1-0.3-0.2-0.7-0.3-1.3c-0.2-1.1-0.4-2.7-0.3-4.4
									c0.1-1.7,0.5-3.2,0.9-4.3c0.2-0.5,0.4-0.9,0.5-1.2c0.1-0.3,0.2-0.4,0.2-0.4c0,0-0.3,0.6-0.6,1.7c-0.3,1.1-0.7,2.6-0.8,4.2
									c-0.1,1.7,0,3.2,0.2,4.3C517.4,218.9,517.6,219.5,517.6,219.5z"/>
							</g>
						</g>
					</g>
					<g>
						<g>
							<g>
								<path class="st9" d="M526.2,213.7c0,0,0.1,0.3,0.2,0.8c0.1,0.5,0.2,1.2,0.4,2c0.4,1.6,0.8,2.8,0.8,2.8c0,0-0.2-0.3-0.3-0.8
									c-0.2-0.5-0.4-1.2-0.6-2c-0.2-0.8-0.3-1.5-0.4-2C526.2,214,526.2,213.7,526.2,213.7z"/>
							</g>
						</g>
					</g>
					<g>
						<g>
							<g>
								<path class="st9" d="M525,210.3c0.1,0,0,0.7,0.1,1.6c0.1,0.9,0.2,1.6,0.2,1.6c-0.1,0-0.3-0.7-0.4-1.6
									C524.8,211,524.9,210.3,525,210.3z"/>
							</g>
						</g>
					</g>
					<g>
						<g>
							<g>
								<path class="st9" d="M527.1,206.8c0.1,0-0.2,0.7-0.4,1.5c-0.2,0.8-0.1,1.5-0.2,1.5c-0.1,0-0.2-0.7,0-1.6
									C526.7,207.4,527.1,206.7,527.1,206.8z"/>
							</g>
						</g>
					</g>
					<g>
						<g>
							<g>
								<path class="st9" d="M534,208.7c0,0-0.4-0.4-0.6-1.2c-0.2-0.7,0-1.4,0-1.3c0.1,0,0,0.6,0.2,1.3
									C533.8,208.2,534.1,208.7,534,208.7z"/>
							</g>
						</g>
					</g>
					<g>
						<g>
							<g>
								<path class="st9" d="M539.4,214.3c0,0-0.3-0.3-0.6-0.8c-0.3-0.5-0.7-1.2-1.1-2.1c-0.4-0.8-0.6-1.6-0.8-2.2
									c-0.1-0.6-0.2-1-0.2-1c0,0,0.1,0.4,0.3,0.9c0.2,0.6,0.4,1.4,0.8,2.2c0.4,0.8,0.7,1.6,1,2.1
									C539.2,214,539.4,214.3,539.4,214.3z"/>
							</g>
						</g>
					</g>
					<g>
						<g>
							<g>
								<path class="st9" d="M540.9,207.1c0,0.1-0.1,0.2-0.3,0.4c-0.2,0.2-0.3,0.4-0.3,0.4c-0.1,0,0-0.3,0.2-0.6
									C540.6,207.1,540.9,207,540.9,207.1z"/>
							</g>
						</g>
					</g>
					<g>
						<g>
							<g>
								<path class="st9" d="M548.8,214.5c0,0-0.1-0.1-0.3-0.3c-0.2-0.2-0.5-0.4-0.9-0.7c-0.8-0.5-2.1-1.1-3.8-1.3
									c-1.7-0.2-3.8,0-5.9,0.6c-2.2,0.7-4.4,1.8-6.8,2.8c-2.4,1.1-4.8,1.9-7,2c-2.3,0.2-4.3-0.1-6-0.5c-1.7-0.4-2.9-1-3.8-1.5
									c-0.4-0.2-0.7-0.4-0.9-0.6c-0.2-0.1-0.3-0.2-0.3-0.2s0.1,0.1,0.3,0.2c0.2,0.1,0.5,0.3,1,0.5c0.8,0.4,2.1,1,3.8,1.5
									c1.6,0.4,3.7,0.7,5.9,0.5c2.3-0.2,4.6-1,7-2c2.4-1,4.6-2.1,6.8-2.8c2.2-0.7,4.2-0.9,5.9-0.6c1.7,0.2,3,0.8,3.8,1.4
									C548.5,214.1,548.8,214.5,548.8,214.5z"/>
							</g>
						</g>
					</g>
					<g>
						<g>
							<g>
								<path class="st9" d="M532.1,209.8c0,0-0.2,0.1-0.7,0.3c-0.5,0.2-1.1,0.5-2,0.7c-1.7,0.6-4.1,1.2-6.8,1.1
									c-2.7,0-5.1-0.7-6.8-1.1c-1.7-0.5-2.7-0.9-2.7-0.9s0.3,0.1,0.7,0.2c0.6,0.2,1.3,0.4,2,0.6c1.7,0.5,4.1,1.1,6.8,1.1
									c2.7,0,5.1-0.5,6.8-1.1c0.8-0.3,1.5-0.5,2-0.7C531.9,209.9,532.1,209.8,532.1,209.8z"/>
							</g>
						</g>
					</g>
					<g>
						<g>
							<g>
								<path class="st9" d="M542.3,208.7c0,0-0.1-0.1-0.2-0.2c-0.2-0.1-0.4-0.3-0.7-0.4c-0.6-0.3-1.6-0.8-2.9-1
									c-1.3-0.2-2.8-0.3-4.5-0.1c-1.7,0.2-3.5,0.5-5.5,0.9c-3.9,0.8-7.5,0.6-10,0.3c-2.6-0.4-4.1-0.7-4.1-0.7s0.4,0.1,1.1,0.2
									c0.7,0.1,1.7,0.3,3,0.5c2.5,0.3,6.1,0.5,10-0.3c1.9-0.4,3.8-0.7,5.5-0.9c1.7-0.2,3.2-0.1,4.5,0.2c1.3,0.2,2.2,0.7,2.9,1
									C542,208.5,542.3,208.7,542.3,208.7z"/>
							</g>
						</g>
					</g>
					<g>
						<g>
							<g>
								<path class="st10" d="M548.6,214c-0.1,0.1-0.8-1.4-2.7-3c-1-0.8-2.3-1.6-3.9-2.1c-1.6-0.5-3.4-0.7-5.3-0.3
									c-1.9,0.3-3.5,1.2-5,2c-1.4,0.8-2.7,1.7-3.9,2.2c-1.2,0.6-2.2,0.9-2.9,1c-0.4,0.1-0.6,0.1-0.8,0.1c-0.2,0-0.3,0-0.3,0
									c0-0.1,1.6-0.1,3.8-1.4c1.1-0.6,2.4-1.4,3.8-2.3c1.4-0.9,3.2-1.8,5.1-2.1c2-0.3,3.9-0.1,5.5,0.4c1.6,0.5,3,1.4,3.9,2.2
									c1,0.9,1.6,1.7,2,2.3C548.5,213.6,548.6,214,548.6,214z"/>
							</g>
						</g>
					</g>
					<g>
						<g>
							<g>
								<path class="st10" d="M534.7,208.9c0,0.1-2.6,1.1-6.1,1.4c-3.5,0.3-6.3-0.3-6.2-0.5c0-0.2,2.8,0.2,6.2,0
									C532,209.5,534.6,208.7,534.7,208.9z"/>
							</g>
						</g>
					</g>
				</g>
				<g>
					<g>
						<g>
							<path class="st9" d="M529.7,205.8c-0.2-0.1-0.5-0.2-1.1-0.5c-0.7-0.3-1.8-0.8-3.3-1.3c-2.9-1-7.1-2.4-12.6-2.6
								c-2.7-0.1-5.7,0.2-8.8,1.1c-3.1,0.9-6.2,2.6-8.7,5.1c-2.6,2.5-4.8,5.6-7.8,8.2c-1.5,1.3-3.3,2.3-5.3,2.8
								c-2,0.5-4.1,0.3-6.1-0.4c-2-0.6-3.8-1.7-5.4-3c-1.6-1.3-2.9-2.8-4.1-4.3c-2.4-3.1-4.3-6.4-6.5-9.3c-2.2-2.9-4.5-5.4-6.9-7.5
								c-2.4-2.1-5-3.7-7.5-4.7c-5.1-2.1-9.7-2-12.6-1.3c-1.5,0.3-2.6,0.8-3.3,1.1c-0.6,0.3-0.9,0.4-1.1,0.5
								c0.2-0.1,0.5-0.3,1.1-0.6c0.7-0.3,1.8-0.8,3.3-1.1c2.9-0.7,7.6-0.8,12.7,1.2c2.5,1,5.1,2.6,7.6,4.7c2.5,2.1,4.8,4.6,6.9,7.5
								c2.2,2.9,4.1,6.2,6.5,9.3c1.2,1.5,2.5,3,4.1,4.3c1.6,1.3,3.4,2.3,5.3,3c2,0.6,4.1,0.8,6,0.4c2-0.5,3.7-1.5,5.2-2.8
								c3-2.5,5.2-5.7,7.8-8.2c2.6-2.6,5.7-4.2,8.8-5.1c3.1-0.9,6.1-1.2,8.8-1.1c5.5,0.2,9.7,1.6,12.6,2.6
								C528.2,205.1,529.7,205.8,529.7,205.8z"/>
						</g>
					</g>
				</g>
				<g>
					<g>
						<g>
							<path class="st9" d="M480.7,208.7c0,0-0.6,0.1-1.6-0.1c-1-0.1-2.5-0.6-4-1.6c-1.5-1-3-2.6-4.4-4.6c-1.4-2-2.8-4.2-4.6-6.3
								c-3.6-4.2-7.9-7.1-11.1-8.8c-1.6-0.9-3-1.4-3.9-1.8c-1-0.4-1.5-0.6-1.5-0.6s0.5,0.2,1.5,0.5c0.9,0.4,2.3,0.9,3.9,1.8
								c3.2,1.7,7.5,4.6,11.1,8.8c1.8,2.1,3.2,4.4,4.6,6.3c1.4,2,2.9,3.6,4.4,4.6c1.5,1,2.9,1.5,3.9,1.7c0.5,0.1,0.9,0.1,1.2,0.1
								C480.5,208.7,480.7,208.7,480.7,208.7z"/>
						</g>
					</g>
				</g>
				<g>
					<g>
						<g>
							<path class="st9" d="M526.7,200.3c0,0-0.1-0.1-0.3-0.2c-0.2-0.1-0.5-0.3-0.9-0.5c-0.8-0.4-1.9-1-3.3-1.6
								c-2.9-1.2-7.1-2.3-11.8-2.1c-4.7,0.1-8.9,1.5-11.7,2.9c-1.4,0.7-2.5,1.3-3.2,1.8c-0.4,0.2-0.6,0.4-0.8,0.5
								c-0.2,0.1-0.3,0.2-0.3,0.2s0.4-0.3,1.1-0.8c0.7-0.5,1.8-1.1,3.2-1.8c2.8-1.4,6.9-2.7,11.7-2.9c4.8-0.1,9,1,11.9,2.2
								c1.4,0.6,2.6,1.2,3.3,1.6C526.3,200,526.7,200.3,526.7,200.3z"/>
						</g>
					</g>
				</g>
				<g>
					<g>
						<g>
							<path class="st9" d="M506.4,204.8c0,0-0.1-0.1-0.1-0.4c-0.1-0.3-0.2-0.6-0.3-1.1c-0.3-0.9-0.8-2.1-1.4-3.4
								c-0.6-1.3-1.3-2.4-1.9-3.2c-0.3-0.4-0.5-0.7-0.7-0.9c-0.2-0.2-0.2-0.3-0.2-0.3s0.4,0.4,1,1.2c0.6,0.8,1.3,1.9,1.9,3.2
								c0.6,1.3,1.1,2.5,1.4,3.4C506.3,204.2,506.4,204.8,506.4,204.8z"/>
						</g>
					</g>
				</g>
				<g>
					<g>
						<g>
							<path class="st9" d="M517,195.5c0,0,0.1,0.6,0.1,1.5c0,0.9,0,2.2-0.2,3.5c-0.2,1.4-0.5,2.6-0.8,3.4c-0.3,0.9-0.5,1.4-0.5,1.4
								s0-0.1,0.1-0.4c0.1-0.3,0.2-0.7,0.3-1c0.2-0.9,0.5-2.1,0.7-3.4c0.2-1.4,0.3-2.6,0.3-3.5c0-0.4,0-0.7,0-1.1
								C517,195.6,517,195.5,517,195.5z"/>
						</g>
					</g>
				</g>
				<g>
					<g>
						<g>
							<path class="st9" d="M494,212.4c0,0-0.5-0.2-1.2-0.7c-0.7-0.5-1.6-1.2-2.6-2.2c-0.9-0.9-1.7-1.9-2.1-2.6
								c-0.5-0.7-0.7-1.2-0.7-1.2s0.1,0.1,0.2,0.3c0.1,0.2,0.3,0.5,0.6,0.8c0.5,0.7,1.2,1.6,2.2,2.5c0.9,0.9,1.8,1.7,2.5,2.2
								c0.3,0.3,0.6,0.5,0.8,0.6C493.9,212.3,494,212.4,494,212.4z"/>
						</g>
					</g>
				</g>
				<g>
					<g>
						<g>
							<path class="st9" d="M478.5,209.3c0,0-0.1-0.4-0.2-1c-0.1-0.7-0.2-1.6-0.1-2.6c0.1-1,0.3-1.9,0.4-2.5c0.2-0.6,0.4-1,0.4-1
								c0,0,0,0.1-0.1,0.3c-0.1,0.2-0.1,0.4-0.2,0.7c-0.2,0.6-0.3,1.5-0.4,2.5c-0.1,1,0,1.9,0.1,2.6c0,0.3,0.1,0.6,0.1,0.8
								C478.5,209.2,478.5,209.3,478.5,209.3z"/>
						</g>
					</g>
				</g>
				<g>
					<g>
						<g>
							<path class="st9" d="M478.5,222.3c0,0-0.3-0.6-0.7-1.6c-0.4-1-0.9-2.5-1.2-4.1c-0.3-1.7-0.4-3.2-0.5-4.3
								c0-1.1,0.1-1.8,0.1-1.8s0,0.2,0,0.5c0,0.3,0,0.8,0,1.3c0,1.1,0.2,2.6,0.5,4.3c0.3,1.6,0.8,3.1,1.2,4.1
								c0.2,0.5,0.4,0.9,0.5,1.2C478.4,222.1,478.5,222.3,478.5,222.3z"/>
						</g>
					</g>
				</g>
				<g>
					<g>
						<g>
							<path class="st9" d="M490.2,201.4c0,0,0,0.4,0.2,0.8c0.2,0.4,0.4,0.7,0.4,0.7c0,0-0.3-0.2-0.5-0.7
								C490.2,201.8,490.2,201.4,490.2,201.4z"/>
						</g>
					</g>
				</g>
				<g>
					<g>
						<g>
							<path class="st9" d="M470.7,197.7c0,0-0.2,0.1-0.6,0.4c-0.4,0.2-1,0.6-1.8,1c-1.5,0.9-3.4,2.2-5.3,4
								c-1.9,1.7-3.5,3.5-4.5,4.9c-0.5,0.7-0.9,1.2-1.2,1.6c-0.3,0.4-0.4,0.6-0.4,0.6s0.5-0.9,1.5-2.3c1-1.4,2.6-3.2,4.5-4.9
								c1.9-1.7,3.9-3.1,5.4-4C469.7,198.1,470.7,197.7,470.7,197.7z"/>
						</g>
					</g>
				</g>
				<g>
					<g>
						<g>
							<path class="st9" d="M458.7,187.7c0,0-0.2,0.1-0.6,0.2c-0.4,0.1-1,0.2-1.7,0.4c-1.4,0.4-3.4,1-5.4,2c-2,0.9-3.8,2-5,2.8
								c-0.6,0.4-1.1,0.8-1.4,1c-0.3,0.2-0.5,0.4-0.5,0.4s0.7-0.6,1.9-1.4c1.2-0.8,3-1.9,5-2.9c2.1-0.9,4-1.6,5.4-2
								C457.8,187.8,458.7,187.7,458.7,187.7z"/>
						</g>
					</g>
				</g>
				<g>
					<g>
						<g>
							<path class="st9" d="M540.3,205.3c0,0,0,0.3-0.1,0.6c-0.1,0.3-0.2,0.6-0.2,0.6c0,0,0-0.3,0.1-0.6
								C540.2,205.6,540.3,205.3,540.3,205.3z"/>
						</g>
					</g>
				</g>
			</g>
		</g>
		<g>
			<g>
				<g>
					<path class="st14" d="M585.7,204.9c0,0,4.5,0.9,6.4,1.4c0.6,0.1,1.3,0,1.9,0.2c3.1,0.5,7.2,0.3,8.3-0.1c1.9-0.7,2,1.7-0.1,2.8
						c-2.1,1-3.3,1.2-3.3,1.2l5,4c0.3,0.2,0.4,0.5,0.5,0.8l1.3,8.8c0.1,0.7-0.3,1.5-1,1.7c-0.4,0.1-0.7,0.1-1-0.3l0.1,1.2
						c0.2,2-2.7,2.5-3.1,0.5c0,0,0,0,0-0.1l-1.7,1c0,0-1.2,1.2-2.4-0.5c-1-1.4-4.1-6.9-4.1-6.9s-13.2-5.6-13-7.8L585.7,204.9z"/>
				</g>
			</g>
			<g>
				<g>
					<g>
						<path class="st17" d="M600.9,226.9c-0.1,0-0.2-0.8-0.4-2.1c-0.2-1.3-0.6-3.1-0.8-5.1c-0.2-1-0.4-2-0.6-2.7
							c-0.1-0.4-0.4-0.6-0.7-0.8c-0.3-0.2-0.6-0.4-0.9-0.6c-1.1-0.7-1.8-1.2-1.8-1.3c0-0.1,0.8,0.3,1.9,0.9c0.3,0.2,0.6,0.3,1,0.5
							c0.4,0.2,0.7,0.5,0.9,1c0.3,0.9,0.5,1.8,0.7,2.8c0.3,2,0.6,3.8,0.7,5.2C601,226.1,600.9,226.9,600.9,226.9z"/>
					</g>
				</g>
			</g>
			<g>
				<g>
					<g>
						<path class="st17" d="M603.8,225.2c-0.2,0-0.5-3.2-1.3-7c-0.2-0.9-0.4-1.9-0.8-2.5c-0.6-0.6-1.1-1.1-1.6-1.5
							c-0.5-0.4-0.9-0.7-1.2-0.9c-0.3-0.2-0.5-0.2-0.5-0.3c0,0,0.2-0.1,0.6,0.1c0.4,0.1,0.8,0.4,1.4,0.8c0.5,0.4,1.1,0.9,1.8,1.5
							c0.6,0.8,0.8,1.7,1,2.7c0.4,1.9,0.6,3.7,0.8,5C603.8,224.4,603.8,225.2,603.8,225.2z"/>
					</g>
				</g>
			</g>
			<g>
				<g>
					<g>
						<path class="st17" d="M593,216.9c0-0.1,0.7,0.3,1.7,0.8c0.3,0.2,0.6,0.3,0.8,0.5c0.3,0.2,0.7,0.3,0.9,0.7
							c0.3,0.3,0.4,0.8,0.6,1.2c0.1,0.4,0.3,0.8,0.4,1.3c1.1,3.4,1.8,6.2,1.7,6.3c-0.1,0-1.1-2.7-2.1-6.1c-0.1-0.4-0.3-0.8-0.4-1.2
							c-0.1-0.4-0.2-0.8-0.4-1c-0.2-0.3-0.5-0.4-0.8-0.6c-0.3-0.2-0.5-0.3-0.8-0.5C593.6,217.3,593,216.9,593,216.9z"/>
					</g>
				</g>
			</g>
			<g>
				<g>
					<g>
						<path class="st17" d="M593.3,207.4c0.1-0.2,1.9,0.5,4,1.7c2.1,1.2,3.6,2.5,3.5,2.6c-0.1,0.1-1.7-1-3.8-2.1
							c-0.9-0.5-1.7-1-2.7-1.5C593.8,207.6,593.3,207.4,593.3,207.4z"/>
					</g>
				</g>
			</g>
		</g>
	</g>
</g>
</svg>
