<?xml version="1.0" encoding="utf-8"?>
<!-- Generator: Adobe Illustrator 24.1.1, SVG Export Plug-In . SVG Version: 6.00 Build 0)  -->
<svg version="1.1" id="Camada_1" xmlns="http://www.w3.org/2000/svg" xmlns:xlink="http://www.w3.org/1999/xlink" x="0px" y="0px"
	 viewBox="0 0 369.3 234.7" style="enable-background:new 0 0 369.3 234.7;" xml:space="preserve">
<style type="text/css">
	.st0{fill:#818384;}
</style>
<path class="st0" d="M236.9,15.5c3.7,0,12.1,4.5,19,4.5c7.8,0,12-5.7,14.4-17.1L259.8,0c-1.5,3.6-2.8,5.3-6,5.3
	c-3.8,0-12.1-4.5-19-4.5c-8,0-12,5.8-14.5,17.2l10.5,2.9C232.3,17.2,233.7,15.5,236.9,15.5z"/>
<path class="st0" d="M255.7,26.1h-21.5l-34.2,81h24l5.6-14h30.2l5.7,14h24.4L255.7,26.1z M235.7,76.1l9.1-23l9,23H235.7z"/>
<path class="st0" d="M325.9,25.1c-24.9,0-43.6,18.8-43.6,42v0.2c0,23.2,18.5,41.8,43.4,41.8s43.6-18.8,43.6-42v-0.2
	C369.3,43.7,350.8,25.1,325.9,25.1z M346.3,67.3c0,11.6-8.2,21.5-20.4,21.5s-20.6-10.1-20.6-21.7v-0.2c0-11.6,8.2-21.5,20.3-21.5
	s20.7,10.1,20.7,21.7V67.3z"/>
<path class="st0" d="M215.3,163.3v-45.2h-23V164c0.2,11.3-5.7,16.6-14.7,16.6s-14.9-5.5-15.3-17.2v-44.3h-22v44.8
	c-0.4,25.3,14,37,37,37S215.2,189.4,215.3,163.3z"/>
<polygon class="st0" points="220.3,118.1 220.3,200.1 282.3,200.1 282.3,180.1 242.3,180.1 242.3,118.1 "/>
<path class="st0" d="M325.9,116.9c-24.9,0-43.6,18.8-43.6,42v0.2c0,23.2,18.5,41.8,43.4,41.8s43.6-18.8,43.6-42v-0.2
	C369.3,135.5,350.8,116.9,325.9,116.9z M346.3,159.1c0,11.6-8.2,21.5-20.4,21.5s-20.6-10.1-20.6-21.7v-0.2
	c0-11.6,8.2-21.5,20.3-21.5s20.7,10.1,20.7,21.7V159.1z"/>
<path class="st0" d="M12.3,225.1h5v3.4c-1.4,1-3.1,1.5-4.9,1.4c-4.2,0-7.1-3.1-7.1-7.4v-0.3c-0.1-3.6,2.7-6.6,6.3-6.8
	c2.1,0,4.2,0.7,5.7,2.2l3-3.6c-2.3-2.1-5.4-3.2-8.6-3c-6.2-0.1-11.3,4.8-11.4,11c0,0.1,0,0.2,0,0.3v0.6c0,6.8,5,11.9,12.1,11.9
	c3.6,0,7.1-1.3,9.9-3.7v-9.9h-10V225.1z"/>
<path class="st0" d="M37.8,210.4c-6.7-0.2-12.3,5.1-12.5,11.8c0,0.1,0,0.2,0,0.4v0.1c0.3,6.9,6.1,12.3,13,12c6.5-0.3,11.7-5.5,12-12
	v-0.1c0.1-6.6-5.3-12-11.9-12.1C38.2,210.4,38,210.4,37.8,210.4z M44.3,222.6c0.1,3.9-2.9,7.1-6.8,7.2c-0.1,0-0.2,0-0.2,0
	c-3.9,0-7-3.2-7-7.1c0-0.1,0-0.1,0-0.2v-0.1c-0.1-3.9,2.9-7.1,6.8-7.2c0.1,0,0.2,0,0.2,0c3.9,0,7,3.2,7,7.1
	C44.3,222.5,44.3,222.5,44.3,222.6L44.3,222.6z"/>
<polygon class="st0" points="61.6,227.1 55.5,211.1 50,211.1 59.3,234.1 63.7,234.1 73,211.1 67.6,211.1 "/>
<path class="st0" d="M116.3,217.4v1.3c0.1-2-0.7-3.9-2.1-5.3c-1.6-1.5-3.9-2.3-7-2.3H96.3v23h6v-8h3.9l4.9,8h5.9l-5.6-8.9
	C114.3,224,116.3,221.4,116.3,217.4z M111.3,218.6c0,2-1.4,3.4-3.9,3.4h-5.1v-7h5C109.8,215.1,111.3,216.3,111.3,218.6L111.3,218.6z
	"/>
<polygon class="st0" points="135.3,225.2 124.5,211.1 119.3,211.1 119.3,234.1 124.3,234.1 124.3,219.4 135.5,234.1 140.3,234.1 
	140.3,211.1 135.3,211.1 "/>
<path class="st0" d="M155.8,210.4c-6.7-0.2-12.3,5.1-12.5,11.8c0,0.1,0,0.2,0,0.4v0.1c0.3,6.9,6.1,12.3,13,12
	c6.5-0.3,11.7-5.5,12-12v-0.1c0.1-6.6-5.3-12-11.9-12.1C156.2,210.4,156,210.4,155.8,210.4z M162.3,222.6c0.1,3.9-2.9,7.1-6.8,7.2
	c-0.1,0-0.2,0-0.2,0c-3.9,0-7-3.2-7-7.1c0-0.1,0-0.1,0-0.2v-0.1c-0.1-3.9,2.9-7.1,6.8-7.2c0.1,0,0.2,0,0.2,0c3.9,0,7,3.2,7,7.1
	C162.3,222.4,162.3,222.5,162.3,222.6L162.3,222.6z"/>
<polygon class="st0" points="241.3,225.1 252.3,225.1 252.3,220.1 241.3,220.1 241.3,216.1 254.3,216.1 254.3,211.1 236.3,211.1 
	236.3,234.1 254.3,234.1 254.3,230.1 241.3,230.1 "/>
<path class="st0" d="M266.6,220.2c-4.2-1.1-5.3-1.6-5.3-3.2v0.1c0-1.1,1-2,2.9-2c2.2,0.1,4.2,0.9,6,2.3l2.6-3.8
	c-2.4-1.9-5.4-3-8.5-2.9c-4.7,0-8,2.7-8,6.9v0c0,4.8,3.2,6.2,8.1,7.5c4.1,1,4.9,1.7,4.9,3.1v-0.1c0,1.3-1.2,2.2-3.3,2.2
	c-2.5-0.1-5-1.1-6.8-2.8l-3,3.6c2.7,2.4,6.1,3.7,9.7,3.7c4.9,0,8.4-2.5,8.4-7.1v0.1C274.3,223.3,271.5,221.5,266.6,220.2z"/>
<polygon class="st0" points="295.3,211.1 276.3,211.1 276.3,215.1 283.3,215.1 283.3,234.1 288.3,234.1 288.3,215.1 295.3,215.1 "/>
<path class="st0" d="M301.9,211.1l-9.8,23h5.4l2-5h9.4l2,5h5.5l-9.8-23H301.9z M301.2,224.1l3.1-7.6l3.1,7.6H301.2z"/>
<path class="st0" d="M329.6,211.1h-9.3v23h9.3c7.5,0,12.7-5,12.7-11.5v-0.1C342.3,216.1,337.1,211.1,329.6,211.1z M336.3,222.1
	c0.2,3.7-2.7,6.8-6.3,6.9c-0.2,0-0.4,0-0.7,0h-4v-14h4c3.7-0.2,6.8,2.7,7,6.3C336.3,221.6,336.3,221.8,336.3,222.1L336.3,222.1z"/>
<path class="st0" d="M356.8,210.4c-6.7-0.2-12.3,5.1-12.5,11.8c0,0.1,0,0.2,0,0.4v0.1c0.3,6.9,6.1,12.3,13,12
	c6.5-0.3,11.7-5.5,12-12v-0.1c0.1-6.6-5.3-12-11.9-12.1C357.2,210.4,357,210.4,356.8,210.4z M364.3,222.6c0.1,3.9-2.9,7.1-6.8,7.2
	c-0.1,0-0.2,0-0.2,0c-3.9,0-7-3.2-7-7.1c0-0.1,0-0.1,0-0.2v-0.1c-0.1-3.9,2.9-7.1,6.8-7.2c0.1,0,0.2,0,0.2,0c3.9,0,7,3.2,7,7.1
	C364.3,222.5,364.3,222.5,364.3,222.6L364.3,222.6z"/>
<polygon class="st0" points="81.3,225.1 92.3,225.1 92.3,220.1 81.3,220.1 81.3,216.1 94.3,216.1 94.3,211.1 76.3,211.1 76.3,234.1 
	94.3,234.1 94.3,230.1 81.3,230.1 "/>
<path class="st0" d="M186.6,211.1h-9.3v23h9.3c7.5,0,12.7-5,12.7-11.5v-0.1C199.3,216.1,194.1,211.1,186.6,211.1z M193.3,223.1
	c0.2,3.7-2.7,6.8-6.3,6.9c-0.2,0-0.4,0-0.7,0h-4v-14h4c3.7-0.2,6.8,2.7,7,6.3C193.3,222.6,193.3,222.8,193.3,223.1L193.3,223.1z"/>
<path class="st0" d="M214.8,210.4c-6.7-0.2-12.3,5.1-12.5,11.8c0,0.1,0,0.2,0,0.4v0.1c0.3,6.9,6.1,12.3,13,12
	c6.5-0.3,11.7-5.5,12-12v-0.1c0.1-6.6-5.3-12-11.9-12.1C215.2,210.4,215,210.4,214.8,210.4z M221.3,222.6c0.1,3.9-2.9,7.1-6.8,7.2
	c-0.1,0-0.2,0-0.2,0c-3.9,0-7-3.2-7-7.1c0-0.1,0-0.1,0-0.2v-0.1c-0.1-3.9,2.9-7.1,6.8-7.2c0.1,0,0.2,0,0.2,0c3.9,0,7,3.2,7,7.1
	C221.3,222.4,221.3,222.5,221.3,222.6L221.3,222.6z"/>
<path class="st0" d="M8.8,120.5c11.1-12.1,30-14.5,48.4-16c9.8-0.8,19.5-1,29.4-1.5c18.4-0.8,37.1-3,48.3-15.1
	c2.2-2.4,4.1-5.2,5.5-8.2v-6.9c-1.4,3-3.3,5.7-5.5,8.2C123.7,93.1,105,95.2,86.5,96.1c-9.8,0.5-19.5,0.7-29.4,1.5
	c-18.4,1.5-37.3,4-48.4,16c-2.4,2.6-4.4,5.6-5.8,8.8c-1.9,4.3-2.8,9-2.6,13.7v6.9c-0.1-4.7,0.8-9.4,2.6-13.7
	C4.4,126.1,6.4,123.1,8.8,120.5z"/>
<path class="st0" d="M8.7,134.7c11.1-12,29.8-14.4,48-15.9c9.8-0.8,19.4-1,29.1-1.5c18.3-0.8,36.9-3,47.9-15
	c0.8-0.9,1.6-1.9,2.3-2.9l0,0c0.5-0.6,0.9-1.3,1.3-2l0.4-0.7l0.5-0.7c0.3-0.6,0.7-1.2,1-1.9v7.2c9.2,5.1,19.6,7.8,30.1,7.7
	c19.8,0,32.9-9.9,32.9-26.5v-0.2c0-15.1-11.5-21.1-30.1-25.1c-11.2-2.6-13.9-4.2-13.9-7.9l0,0c0-3,2.7-5.4,8.3-5.4
	c7.4,0,15.7,2.9,23.3,8.2l11.5-16.3c-9.1-7.3-20.1-11.1-34.3-11.1c-13,0-22.7,4.7-27.9,12.3v7.1c-0.3,0.7-0.7,1.4-1.1,2
	c-0.1,0.3-0.3,0.5-0.5,0.8s-0.4,0.7-0.6,1s-0.5,0.7-0.7,1s-0.3,0.5-0.5,0.7s-0.4,0.5-0.5,0.7c-0.5,0.6-1,1.3-1.6,1.8
	c-11.1,12-29.8,13.7-48,14.5c-9.8,0.5-19.4,1.2-29.2,2c-4.5,0.4-8.9,0.8-13.3,1.4v-7.4c4.4-0.6,8.9-1,13.3-1.4
	c9.8-0.8,19.5-1.5,29.2-2c18.3-0.8,36.9-2.5,48-14.5c2.2-2.4,4.1-5.2,5.5-8.1v-6.9c-1.4,3-3.3,5.7-5.5,8.2c-11.1,12-29.6,14.1-48,15
	c-9.8,0.5-19.5,0.7-29.2,1.5c-4.5,0.4-8.9,0.8-13.3,1.4v-7.4c4.4-0.6,8.9-1,13.3-1.4c9.8-0.8,19.5-1,29.2-1.5
	c18.5-0.8,36.9-2.9,48-15c2.2-2.4,4.1-5.2,5.5-8.1v-6.9c-1.4,3-3.2,5.7-5.5,8.1c-11.1,12-29.7,14.8-48,15.6
	c-1.1,0.1-20.5,0.8-29.2,1.5c-4.5,0.4-9,0.8-13.4,1.4v0.2c-1,0.1-2,0.3-2.9,0.4l-1.6,0.3l-1.3,0.2c-0.5,0.1-1,0.2-1.5,0.3
	c-10.8,2.1-20.5,5.7-27.3,13.1c-2.4,2.6-4.3,5.5-5.8,8.7c-1.9,4.3-2.7,9-2.6,13.7v35.2c0-0.4,0-0.8,0-1.2c0-0.2,0-0.4,0-0.6
	s0-0.5,0-0.8s0-0.7,0.1-1.1l0,0c0.1-1.7,0.4-3.4,0.8-5c0.4-1.7,1-3.3,1.7-4.9c1.4-3.2,3.4-6.2,5.8-8.8c8.7-9.2,20.6-12.8,34.7-14.9
	c4.5-0.6,9.1-1.1,13.7-1.4c9.8-0.8,19.5-1,29.4-1.5c18.4-0.8,37.1-3,48.3-15.1c1.3-1.4,2.4-2.9,3.4-4.5l0.6-1
	c0.1-0.3,0.3-0.5,0.4-0.8c0.4-0.6,0.7-1.3,1-1.9v7.4c-0.3,0.6-0.6,1.2-1,1.8s-0.6,1-0.9,1.5c-1.1,1.7-2.3,3.4-3.7,4.9
	c-11.1,12.1-29.9,14.3-48.3,15.1c-9.4,0.5-18.8,0.7-28.2,1.4l-1.2,0.1c-18.4,1.5-37.3,3.9-48.4,16c-2.4,2.6-4.4,5.6-5.8,8.8
	c-1.9,4.4-2.7,9.1-2.5,13.8v6.9c-0.1-4.7,0.8-9.4,2.6-13.7c1.5-3.2,3.4-6.2,5.8-8.8c11.1-12.1,30-14.5,48.4-16
	c9.8-0.8,19.5-1,29.4-1.5c18.5-0.8,37.1-3,48.3-15.1c2.2-2.4,4.1-5.2,5.5-8.2v-0.5c5.1,6.4,14.5,9.3,25.7,11.9
	c10.7,2.5,13.3,4.3,13.3,7.6v0.5c0,3.4-3.2,5.4-9,5.4c-9.1,0-17.8-3.3-25.6-9.5l-4.4,5.2v1.1c-1.4,3-3.3,5.7-5.5,8.2
	c-0.4,0.4-0.8,0.9-1.3,1.3l0,0c-11.3,11-29.3,13-47,13.8c-9.8,0.5-19.5,0.7-29.4,1.5c-18.4,1.5-37.2,3.9-48.4,16
	c-2.4,2.6-4.4,5.6-5.8,8.8c-1.9,4.3-2.8,9-2.7,13.8v6.6c-0.1-4.7,0.8-9.3,2.6-13.6C4.4,140.2,6.3,137.3,8.7,134.7z M35.4,49.2l1-3.4
	l1,3.1l3.3-0.6L38,50.7l1,3.1l-2.7-1.5l-2.7,2.5l1-3.4L32,49.8L35.4,49.2z M1.5,72.7l0.8-1.5c0.2-1.3,0.5-2.7,0.5-2.7S2.9,69.2,3,70
	l1.3-2l-1,3.8c0,0.1,0,0.1,0,0.1C3.4,72.7,4.1,75,4.1,75l-1.5-1.3l-1.3,4.9c0,0,0.4-3.9,0.6-5.5L1.5,72.7z M5,91.1
	c0,0-0.6-0.2-1.3-0.5l-1.4,5.4c0,0,0.3-4.3,0.4-5.7c0,0,0,0,0-0.1l-0.9-0.4c0,0,0.7-1.6,1.2-2.5c0.2-1.9,0.5-4,0.5-4
	s0.2,1.1,0.5,2.5c0.8-1.1,1.7-2.5,1.7-2.5l-1.2,4.7C4.7,89.7,5.1,91.1,5,91.1z M18.5,80.3c-7,4.3-13,0.9-13.3-6.6
	c-0.4-7.4,5-15.8,12-20s13-0.9,13.3,6.6C30.9,67.7,25.5,76.1,18.5,80.3L18.5,80.3z M39.1,73.2l-2.9-1.7l-2.9,2.8l1.1-3.8l-2.9-1.7
	l3.6-0.7l1.1-3.8l1.1,3.3l3.6-0.7L38,69.9L39.1,73.2z"/>
<path class="st0" d="M68.3,146.6v2.1c0.1-4.9-1.1-9.7-3.5-14c6-0.3,12.1-0.5,18.1-0.8l-28,66.2h22.9l5.6-14h30.2l5.7,14h25.5
	l-30.5-72.6c7.8-2.4,14.8-6,20-11.7c2.2-2.5,4.2-5.3,6-8.2v-6.2c-1.8,2.9-3.8,5.6-6,8.2c-5.9,6.4-13.8,10-22.7,12.1
	c-0.9,0.2-1.7,0.4-2.6,0.6l-0.5,0.1c-0.9,0.2-1.8,0.3-2.6,0.5l-0.5,0.1c-0.9,0.1-1.8,0.3-2.7,0.4l-0.5,0.1c-0.9,0.1-1.9,0.2-2.8,0.3
	h-0.4l-2.9,0.3h-0.3c-1,0.1-2,0.2-3.1,0.2h-0.1c-2.2,0.1-4.3,0.3-6.5,0.4h-0.2c-9.8,0.5-19.5,0.7-29.3,1.5
	c-18.4,1.5-37.2,3.9-48.3,16c-2.4,2.6-4.4,5.6-5.8,8.8c-0.5,1.1-1,2.3-1.3,3.5c-0.1,0.3-0.2,0.7-0.3,1s-0.1,0.5-0.2,0.7
	s-0.1,0.7-0.2,1.1s-0.1,0.4-0.1,0.6c-0.1,0.4-0.1,0.8-0.2,1.2c0,0.2-0.1,0.4-0.1,0.5c-0.1,1.1-0.2,2.1-0.3,3.2c0,0.1,0,0.1,0,0.2
	c-0.1,0.6,0,1.2,0.3,1.7l0,0v6.9l0,0v28.5h22v-24h11.1C53.6,176.1,68.3,165.9,68.3,146.6z M90.4,168.1l9.1-23l9,23H90.4z
	 M22.3,158.1v-18.7c2.1-0.9,4.3-1.7,6.5-2.3h3.8c7.9,0,12.7,3.6,12.7,10.4v0.2c0,6.2-4.8,10.3-12.6,10.3H22.3z"/>
<path class="st0" d="M26.7,58c-0.2,0.1-0.4,0.1-0.6,0.3c0,0-0.1,0-0.1,0l-0.1,0.1c0-0.1-0.2,0-0.3-0.1c-0.2,0-0.3-0.1-0.4-0.2
	s-0.2,0-0.3,0c-0.3,0-0.4-0.1-0.8,0.1s-0.5,0.4-0.6,0.3s-0.2,0.1-0.3,0.2s-0.4,0-0.5,0.1c0,0,0-0.1,0,0s-0.1,0.2-0.2,0.2
	c0-0.1-0.1,0.1-0.2,0.1s0-0.1,0-0.1s-0.1-0.1-0.1-0.2c-0.1,0,0-0.1-0.1,0s0-0.1,0-0.1s-0.1,0.2-0.2,0.3s0-0.1,0-0.1s-0.1,0-0.1,0
	s0,0-0.1-0.1s-0.1,0-0.1,0.1s0-0.1,0,0s0,0,0,0.1s-0.1,0-0.1,0s0-0.1,0-0.1s0,0.1-0.1,0.1s0,0,0-0.1s-0.1,0.1-0.1,0.1
	c0,0,0-0.1,0-0.1v0.1v0.1c0,0,0,0,0,0.1s0-0.1,0-0.1s-0.3,0.1-0.5,0.3c0,0-0.1,0-0.2,0s0-0.1,0-0.1c-0.3,0.2-0.5,0.2-0.6,0
	c0,0-0.1,0.1-0.1,0.1c0,0,0-0.1,0-0.2c0.1-0.2,0.1-0.3,0.1-0.5c0,0-0.1,0-0.2,0c0-0.1,0-0.1-0.1-0.1c0,0-0.1,0.1-0.1,0.1
	c-0.1-0.2-0.2-0.5-0.2-0.7l0,0c0,0-0.1-0.1-0.2-0.1c-0.1,0.3-0.2,0.5-0.3,0.8c0,0.2-0.1,0.4-0.2,0.6c-0.1,0-0.2,0.1-0.4,0.1
	s-0.1,0.1-0.2,0.2s-0.2,0.1-0.2,0s0,0-0.1,0s0-0.1,0-0.1s0,0.1-0.1,0.1s0-0.1,0-0.1c-0.1,0.1-0.2,0.2-0.3,0.3c0,0-0.1,0-0.1,0
	s-0.1,0.1-0.1,0.2s0.1,0,0.1,0.1S17.1,60.1,17,60c-0.1,0.1-0.2,0.2-0.2,0.3c-0.1,0-0.1,0.1-0.2,0.1s0,0.1,0,0.1c0,0-0.1,0-0.1,0
	c0,0,0,0.1-0.1,0.1s0,0,0,0.1c-0.1,0-0.1,0.1-0.1,0.1c0,0-0.1,0,0,0c-0.2,0.1-0.3,0-0.4,0c0-0.1,0-0.1,0-0.2c-0.2,0,0-0.4-0.1-0.6
	c0.1-0.1,0.1-0.2,0.1-0.3c0,0,0-0.1-0.1-0.1s0,0,0-0.1s-0.1,0-0.2,0c0-0.1,0.1-0.2,0-0.3c0,0-0.1,0-0.1,0l0,0
	c-0.1,0.1-0.1,0.1-0.2,0.2s0.1,0.2-0.1,0.3s0,0.1,0,0.1s-0.1,0-0.1,0.1S15,60,15,60.1s-0.1,0.1-0.1,0.1l-0.2,0.1
	c-0.1,0-0.1,0.1-0.2,0.2s0,0.1,0,0.1s0,0.1-0.1,0.1s-0.1,0-0.1-0.1l-0.1,0.1c0,0,0.1,0,0,0s-0.1,0-0.1,0s-0.2,0.2-0.2,0.1
	c-0.1,0-0.2,0.1-0.2,0.1c0,0-0.1-0.1-0.1,0c0,0.2,0.2,0.1,0.3,0.2c-0.1,0.2,0,0.2,0.1,0.3s0,0.1,0,0.1c0.1,0,0.2-0.1,0.3-0.1
	c0,0,0,0.1,0,0.1l-0.3,0.3c0,0.1,0,0.1,0,0.1c0,0-0.1,0.1-0.1,0.1c-0.1,0-0.1,0.2-0.2,0.2v0.1c-0.3,0-0.6,0.1-0.8,0.2c0,0,0,0-0.1,0
	c0,0,0,0.1,0,0.1c-0.1,0-0.1,0.2-0.2,0.2s0-0.1,0-0.1s0,0,0,0c-0.1,0-0.2,0.3-0.4,0.3s-0.2-0.1-0.3-0.1c0,0-0.1,0.1-0.1,0.1
	c0-0.2,0-0.4-0.1-0.3s0-0.1,0-0.1c-0.1,0.1-0.2,0.2-0.3,0.4c0,0-0.1-0.1-0.1,0c0,0,0,0.1,0,0.1c-0.2,0.2-0.6,0.3-0.8,0.4
	c0,0.1,0,0.2,0,0.4c0.1-0.1,0.2-0.1,0.3-0.1c0.1,0,0,0.1,0.1,0.1s-0.1,0-0.1,0c-0.1,0.1-0.2,0.2-0.3,0.3c0,0.1,0,0.2,0,0.4
	c0.1,0.1,0.2,0.1,0.2,0.1c0,0,0,0.1,0,0.1c0.1,0.1,0.1,0.2,0.1,0.3c0,0.5-0.1,1-0.2,1.5h0.1v-0.2c-0.1,0-0.1,0.1-0.1,0.1s0,0,0,0
	s-0.1,0.2-0.3,0.3S10.1,67,10,67s-0.2,0.3-0.3,0.3s-0.2,0.2-0.3,0.3c0,0.3-0.2,0.5-0.1,0.8C9.2,68.6,9,68.9,9.1,69L9,69.1
	c0,0,0,0.1,0,0.1c0.1,0,0.1,0,0.2,0.1c0,0,0,0,0,0.1s0.1,0.2,0.2,0.2s0.2,0.1,0.2,0.2S9.5,69.9,9.5,70c0.1-0.1,0.3-0.1,0.4-0.2
	c0,0.1,0.1,0.1,0.1,0.2l0.5-0.2c0.1-0.1,0.2-0.3,0.3-0.4c0,0.1,0,0.1,0,0.1s-0.1,0,0,0.1v0.6c0,0,0-0.1,0.1-0.1s0,0,0.1,0
	c0.2-0.2,0.5-0.3,0.8-0.4c0,0,0,0.1,0,0.1c0.2-0.1,0.3-0.3,0.4-0.5c0.1,0,0.1,0,0.1,0c0-0.1,0.1-0.3,0.3-0.4
	c0.1-0.1,0.2-0.3,0.3-0.4c0.2-0.1,0.3-0.2,0.5-0.3c0,0,0-0.1,0.1-0.1c0.1,0.1-0.1,0.5,0.1,0.6c-0.1,0.2,0,0.3,0.1,0.4c0,0,0,0,0.1,0
	s0,0.1,0,0.1s0.1,0,0.1,0s0.1,0,0.1,0s0,0,0,0.1s0.2,0,0.4-0.2s0.2,0.1,0.3-0.1c0.1,0.1,0.3,0.1,0.5,0c0,0.1,0.1,0,0.2,0.1
	s0.3-0.2,0.4-0.2s0.2,0.1,0.3,0c0,0.1,0,0.3,0.1,0.4c0,0.1,0,0.1,0,0.2l-0.1,0.1c0,0.1,0.1,0.1,0.2,0.1c0,0.1,0,0.2,0,0.4l0.9-0.5
	c0,0.1,0,0.1,0,0.1c-0.1,0.1-0.1,0.2,0,0.3c0.1,0.1,0.1,0.1,0.2,0.1c0,0,0,0,0.1-0.1s0.1,0.2,0.2,0.3c-0.1,0.1-0.1,0.3-0.1,0.5
	c-0.1,0.2-0.1,0.4-0.2,0.5c0,0,0.1,0,0.1,0S17,71.4,17,71.5s0,0.1,0.1,0c0,0.2,0.2,0.1,0.1,0.4c0.1,0-0.1,0.2,0,0.2
	c0,0.1,0,0.1,0,0.2c0.2-0.1,0.6-0.1,0.8-0.5c0,0.2,0.4-0.2,0.4,0h0.1c0,0,0,0.1,0,0.2s0.1,0.3,0.1,0.4c0.2,0,0.4-0.5,0.6-0.3
	S19,72.7,19,72.9s-0.1,0.2,0,0.3s0,0,0.1,0s0-0.1,0.1-0.1c0.2-0.2,0.2,0.1,0.3,0.2c0,0.1,0,0.2,0,0.4c0,0.2-0.2,0.3-0.3,0.4
	s-0.2,0.2-0.3,0.2c0,0,0,0.1-0.1,0.1c-0.2,0.2-0.2,0.3-0.4,0.5c0,0,0,0,0,0.1c-0.2,0.2-0.2,0.5-0.4,0.7c-0.1,0.2-0.2,0.4-0.3,0.6
	c0,0.1-0.1,0.2-0.1,0.3s0,0,0,0c0.1,0,0.1-0.1,0.2-0.1c0,0,0-0.1,0.1-0.1c0.2-0.1,0.4,0.1,0.5,0.1c0,0,0,0.1,0,0.1s0.2-0.1,0.2-0.2
	c0.1,0.1,0.3,0.1,0.5,0c0,0,0,0,0,0.1c0.1,0,0.4-0.1,0.4,0.1c0.1,0,0.1,0,0.2,0c0,0,0,0-0.1,0.1s0.1,0,0,0c-0.1,0.1-0.2,0.2-0.2,0.4
	c0.2-0.1,0,0.3,0.2,0.1c0.1-0.1,0.2-0.3,0.3-0.4c0.1-0.2,0.1-0.4,0.2-0.6c0,0,0-0.1,0.1-0.1c0.2-0.3,0.4-0.6,0.6-0.9
	c0.1-0.1,0.2-0.4,0.2-0.5s0-0.2,0.1-0.3c0.2-0.4,0.4-0.8,0.7-1.2c0-0.2,0.2-0.5,0.1-0.7c0,0,0,0.1,0,0.1s0-0.1,0-0.2s-0.1,0-0.1,0
	s0-0.1,0-0.2s-0.1,0-0.1,0s0.1-0.2,0.1-0.3s-0.1,0-0.1,0c0-0.1,0.1-0.2,0.1-0.3c0-0.1,0-0.1,0-0.1c0.2-0.1,0.1-0.4,0.4-0.5
	c0-0.1,0.2-0.2,0.2-0.4s0.1-0.2,0.2-0.3s0,0,0.1,0s0.1-0.1,0.1-0.2s0.3-0.1,0.4-0.1s0-0.1,0-0.1s-0.1,0.1-0.1,0
	c0.1-0.1,0.2-0.2,0.2-0.3c0.1,0,0.2,0,0.2-0.2s-0.1-0.1-0.1,0l0,0c0,0-0.4-0.1-0.4-0.1s0,0.1,0,0.1l0.1-0.1c0-0.1,0,0,0-0.1
	s0-0.1,0.1-0.1s0,0.1,0,0.1c0.3-0.2,0.6-0.4,1-0.6c0,0,0-0.1,0-0.2c0.1-0.2,0.3-0.4,0.5-0.5c0-0.1,0-0.2,0-0.3
	c0.1-0.1,0.1-0.3,0.1-0.4h0c0.2-0.3,0.1-0.6,0.4-0.8s-0.1-0.7,0.2-1c0.1,0,0.1-0.1,0.1-0.2c0-0.3,0-0.7,0.1-1
	c-0.2-0.3-0.4-0.6-0.5-0.9l0,0c0-0.1,0.1-0.2,0.2-0.3c0,0,0,0,0.1,0c0.5-0.5,0.4-1.3,0.9-1.8c0,0,0.1-0.1,0-0.1
	c0.1-0.1,0.2-0.3,0.2-0.4c0.3-0.5,0.5-1.1,0.4-1.6C26.9,58.5,26.9,58.1,26.7,58z"/>
</svg>
