<?xml version="1.0" encoding="utf-8"?>
<!-- Generator: Adobe Illustrator 24.1.1, SVG Export Plug-In . SVG Version: 6.00 Build 0)  -->
<svg version="1.1" id="Camada_1" xmlns="http://www.w3.org/2000/svg" xmlns:xlink="http://www.w3.org/1999/xlink" x="0px" y="0px"
	 viewBox="0 0 1000 447.5" style="enable-background:new 0 0 1000 447.5;" xml:space="preserve">
<style type="text/css">
	.st0{fill:#818384;}
</style>
<polygon class="st0" points="53,173 53,295 0,295 0,0 192,0 192,47 53,47 53,126 180,126 180,173 "/>
<path class="st0" d="M999,218.6c0,52.4-36.2,79.8-90.7,79.8c-54.1,0-90.3-29.8-90.3-81.8v-52c0-52,36.2-82.2,90.3-82.2
	c54.5,0,90.7,27.8,90.7,80.2v3.4h-46.5c0-29.9-16.3-42.2-44.2-42.2c-27.4,0-43.3,14.3-43.3,44.6v43.8c0,30.3,15.9,44.6,43.3,44.6
	c27.8,0,44.2-11.9,44.2-41.8H999V218.6z"/>
<path class="st0" d="M352,295v-24.3l-21.2,11.9c-19.5,10.3-34.5,15.1-55.2,15.1c-37.3,0-62.3-24.2-62.3-59.5
	c0-43.7,34.1-63.9,77.4-64.2H353v-12c0.1-27-15.4-40.1-42.8-40.1c-28.6,0-45.3,36.1-45.3,36.1H218v-2.8c0-47.3,37.4-73.8,91.8-73.8
	c57.2,0,90.2,28.5,90.2,78.6v135H352z M353,208h-55.5c-29,0-35.7,13.5-35.7,27.4c0,14.7,9.1,23.4,25,23.4c13.1,0,24.2-4,36.1-10.3
	l30.1-16.3V208z"/>
<path class="st0" d="M538.3,295c-48.7,0-80.3-24.4-80.3-72.4V127h-32V86h32V29h50v57h58v40h-58v93.9c0,24.7,11.1,33.1,34.5,33.1H567
	v42H538.3z"/>
<path class="st0" d="M776,229c0,42.5-36.5,69.5-91.6,69.5c-54,0-92.4-29.4-92.4-80.6v-49.5c0-52.9,38.6-86,92.7-86
	c54.5,0,92.3,31.5,92.3,86.8V206H638v10.3c0,29.7,19.8,42.8,47.2,42.8c27,0,45.3-9.5,45.3-32.1H776V229z M732,168.5
	c0-29.8-17.5-46.1-46.6-46.1c-29.5,0-47.4,16.3-47.4,46.5v5.1h94V168.5z"/>
<polygon class="st0" points="356,424 356,352 332,352 332,339 397,339 397,352 372,352 372,424 "/>
<path class="st0" d="M435,425v-7.5l-5.6,3.5c-5.7,3-10,4.4-16,4.4c-10.8,0-18.1-7-18.1-17.3c0-12.7,9.9-18.6,22.5-18.1H436v-4.1
	c-0.1-7.8-4.6-11.6-12.5-11.6c-8.3,0-13.1,10.7-13.1,10.7H397v-0.8c0-13.7,10.9-21.5,26.7-21.5c16.7,0,26.3,8.3,26.3,22.8V425H435z
	 M436,399h-16.1c-8.4,0-10.4,3.9-10.4,8c0,4.3,2.7,6.8,7.3,6.8c3.7-0.1,7.3-1.1,10.5-3l8.8-4.8V399z"/>
<path class="st0" d="M503,446v-28.2l-6.8,3.7c-4.1,2.3-8.8,3.5-13.5,3.5c-12.4,0-20.7-8.3-20.7-20.5v-20.2
	c0-12.3,8.4-21.1,20.9-21.1c4.6,0,9.2,1.3,13.2,3.6l6.9,3.8V364h14v82H503z M504,383.2l-9.8-5.5c-2.6-1.5-5.6-2.3-8.6-2.3
	c-5.8,0-9.6,4-9.6,10v17.4c0,6,3.8,10,9.6,10c3,0,6-0.9,8.6-2.5l9.8-5.3V383.2z"/>
<path class="st0" d="M570,425v-8.2l-6.4,3.8c-4,2.6-8.7,3.9-13.5,3.9c-11.8,0-19.1-8-19.1-19.7V363h14v40.8c0.4,5.3,3.5,8.9,8.4,8.9
	c3,0,5.4-1.2,8-2.7l8.6-5.2V364h14v61H570z"/>
<path class="st0" d="M636,425v-7.5l-5.4,3.5c-5.7,3-10,4.4-16,4.4c-10.8,0-18.1-7-18.1-17.3c0-12.7,9.9-18.6,22.5-18.1H637v-4.1
	c0-7.8-4.5-11.6-12.4-11.6c-8.3,0-13.1,10.7-13.1,10.7H598v-0.8c0-13.7,10.8-21.5,26.7-21.5c16.7,0,26.3,8.3,26.3,22.8V425H636z
	 M637,399h-16.1c-8.4,0-10.4,3.9-10.4,8c0,4.3,2.7,6.8,7.3,6.8c3.7-0.1,7.3-1.1,10.5-3l8.8-4.8V399z"/>
<path class="st0" d="M665,424.9V364h13v8.6l2.6-2.8c4.4-4.5,8.9-6.8,14.8-6.8h3.6v15h-2.7c-5.2,0-8.7,1-12.6,4.2l-4.7,4V425
	L665,424.9z"/>
<path class="st0" d="M724,347.4c0,4.3-3.3,6.6-8,6.6s-8-2.3-8-6.6v-2.5c0-4.4,3.5-6.7,8-6.7s8,2.3,8,6.7V347.4z M709,364h14v61h-14
	V364z"/>
<path class="st0" d="M765.5,424c-14.3,0-23.5-6.9-23.5-20.7V376h-9v-12h9v-16h14v16h17v11h-17v27.4c0,7.2,3.3,9.6,10.1,9.6h7.9v12
	H765.5z"/>
<path class="st0" d="M800,347.4c0,4.3-3.4,6.6-8,6.6s-8-2.3-8-6.6v-2.5c0-4.4,3.5-6.7,8-6.7s8,2.3,8,6.7V347.4z M785,364h14v61h-14
	V364z"/>
<path class="st0" d="M853,425v-39.9c0-4.6-2.5-9-8.1-9c-3.1,0-5.4,1.2-8,2.7L828,384v41h-14v-61h14v7.2l6.4-3.9
	c4-2.6,8.7-3.9,13.5-3.9c11.8,0,19.1,8,19.1,19.8V425H853z"/>
<path class="st0" d="M893,402c-2.8,0.5-4.2,1.8-4.2,4.5c0,2.4,3.9,4.5,3.9,4.5H916c14,0,21.7,5.5,21.7,16.9
	c0,12.8-11.3,19.7-27.7,19.7c-18.6,0-26.9-8.5-26.9-23.3v-6.2c-3.8-1.7-6-5.2-6-10.9c0-6.6,3.4-10.6,8.1-11.9c0,0-4.4-3.5-4.4-11.6
	c0-13,9-19.7,22.2-19.7h35v11h-8.7c0,0,3,2.4,3,8.3c0,11.7-8.5,18.7-22,18.7H893z M908.8,392c7.4,0,11.6-2.8,11.6-9.1
	c0-6-3.8-8.9-10.5-8.9h-5.4c-6.6,0-10.7,2.1-10.7,9.2c0,6.2,3.8,8.8,10.5,8.8L908.8,392z M896,421v2.5c0,8.3,3.5,12.9,14.4,12.9
	c9.7,0,14.8-2.7,14.8-8.6c0-5.2-4-6.8-10.4-6.8H896z"/>
<path class="st0" d="M985,425v-7.5l-5.4,3.5c-5.7,3-10,4.4-16,4.4c-10.8,0-18.1-7-18.1-17.3c0-12.7,9.9-18.6,22.5-18.1H986v-4.1
	c0-7.8-4.5-11.6-12.4-11.6c-8.3,0-13.2,10.7-13.2,10.7H947v-0.8c0-13.7,10.8-21.5,26.7-21.5c16.7,0,26.3,8.3,26.3,22.8V425H985z
	 M986,399h-16.1c-8.4,0-10.4,3.9-10.4,8c0,4.3,2.7,6.8,7.3,6.8c3.7-0.1,7.3-1.1,10.5-3l8.8-4.8V399z"/>
</svg>
