<?xml version="1.0" encoding="utf-8"?>
<!-- Generator: Adobe Illustrator 24.0.0, SVG Export Plug-In . SVG Version: 6.00 Build 0)  -->
<svg version="1.1" id="Layer_1" xmlns="http://www.w3.org/2000/svg" xmlns:xlink="http://www.w3.org/1999/xlink" x="0px" y="0px"
	 viewBox="0 0 590.2 226.8" style="enable-background:new 0 0 590.2 226.8;" xml:space="preserve">
<style type="text/css">
	.st0{fill:#FFFFFF;}
</style>
<g>
	<path class="st0" d="M514,30.9c-2.8,2.1-5.1,3.8-6.9,5.1c-1.9,1.3-3.5,2.4-4.9,3.3c-1.4,0.9-2.7,1.8-4,2.8c-2,1.6-5.5,1.2-10.6-1.2
		c-4.2-2-3.2-5.3,3-9.9c-0.2,0.1,0,0,0.5-0.5l0.5-0.3c1.1-0.6,2.2-1.4,3.4-2.2l0.8-0.9l0.1-0.1c3.1-2,7.4-4.8,12.9-8.4
		s10-6.4,13.7-8.4s7.6-3.9,11.9-5.5c4.3-1.6,9-3.1,14.2-4.6c1.6,1.3,3,2.4,4.1,3.5c2.9,3.7,1.7,6.7-3.6,8.8
		c-0.8,0.3-1.8,0.7-3.2,1.2c-1.2,0.4-2.7,0.9-4.4,1.7c-1.7,0.8-3.6,1.7-5.7,2.7c0,2.5,0.1,6.7,0.1,12.7s-0.1,13-0.4,21
		c-0.3,8-0.8,16.7-1.4,26.1c-0.6,9.4-1.6,18.6-2.8,27.8s-2.8,17.8-4.8,26.1c-2,8.2-4.3,15.3-7,21.2c-3.7,2.5-7.1,4.4-10.3,5.5
		c-3.2,1.2-6.1,1.8-8.9,1.9c-2.7,0.1-5.3-0.2-7.7-1c-2.4-0.8-4.5-1.9-6.4-3.4c-0.6-0.4-1-0.8-1.2-1.1c-0.2-0.4-0.6-0.7-1.1-1
		c-2.5-2.6-4.7-5.3-6.5-8.2s-3.2-5.9-4.4-9c-1.2-3.4-2.2-6.8-2.9-10.2c-0.7-3.4-1.2-6.6-1.5-9.5c-0.3-3-0.5-5.6-0.5-7.9s0-4,0-5.2
		c0.1-4.4,0.5-8.8,1-13.2c0.5-4.4,1.2-9.2,2.2-14.2c1.5-1.4,3-2.6,4.5-3.5c1.3-0.8,2.8-1.4,4.4-1.9c1.6-0.4,3-0.3,4,0.5
		s0.7,3.2-0.9,7.3v0.6c-0.3,1.3-0.7,4.1-1.2,8.6c-0.6,4.4-0.9,9.8-1.1,16.2l-0.1,0.4c0,1.9,0,5.2,0.2,10c0.2,4.7,0.9,9.9,2,15.4
		c0.2,0.6,0.4,1.2,0.5,1.8s0.3,1.1,0.5,1.8c0.9,2.7,1.9,5.4,3,8s2.5,4.8,4.1,6.6c1.6,1.9,3.4,3.2,5.5,4.1c2.1,0.9,4.6,1,7.4,0.3
		c0.9-0.3,2.3-0.8,4.1-1.6c0.1-0.1,0.2-0.3,0.3-0.7c0.2-0.4,0.3-0.8,0.4-1.2s0.3-1.1,0.6-1.9c0-0.4,0.5-2.2,1.4-5.3s1.9-7.4,3-12.8
		c1.1-5.4,2.3-11.8,3.7-19.2c1.3-7.4,2.5-15.5,3.4-24.4c0.9-8.8,1.5-18.3,1.7-28.4s0-20.6-0.6-31.5c-2.3,1.6-4.9,3.2-7.7,5.1
		L514,30.9z"/>
	<path class="st0" d="M541.4,70.9c0.1-3.3,0.3-6.2,0.7-8.7c-0.1-0.3-0.1-0.7-0.2-1l0.2-0.3c0.1-2.5,0.3-4.9,0.6-7.1
		c0.2-1.2,0.3-2.4,0.3-3.4c0.3-2.7,2.4-2.6,6.4,0.4c3.9,3,6.2,5.2,6.7,6.6c0,0.5-0.1,1.1-0.4,1.9c0,0.5,0,1.2-0.2,2.1
		c-0.2,0.9-0.3,1.9-0.3,2.9l-0.6,3.8c0,1-0.1,2.2-0.3,3.4c-0.3,2.2-0.5,4.6-0.8,7.4c1.5-5.9,3.2-11.4,4.9-16.4c1.8-5,3.4-9.4,5-13.2
		c1.7-4.2,3.5-8.2,5.2-12c0.5,0,1.1-0.2,2.1-0.4c0.9-0.2,2-0.3,3.2-0.3c1.2,0.1,2.6,0.4,4,0.8c1.5,0.5,3,1.3,4.4,2.6
		c1,2.8,1.6,5.6,1.9,8.5c0.2,2.9,0.3,5.5,0.1,8c-0.1,2.5-0.4,4.7-0.8,6.6c-0.4,1.9-0.8,3.3-1.1,4.2c-2,0.9-3.9,1.6-5.9,2.1
		c-1.7,0.4-3.5,0.6-5.6,0.7s-3.9-0.4-5.6-1.4l0.5-2h0.9c1.4-0.1,2.4-1,3-2.7c0.7-1.7,1.1-3.6,1.2-5.7c0.2-2.5,0.2-5.3,0-8.3
		c0-0.6,0-1.2-0.1-1.6c-0.1-0.4-0.2-1-0.2-1.7c-1,2.6-2.5,6.4-4.3,11.3s-3.6,10.6-5.3,17.2s-3.2,13.9-4.5,21.9s-2,16.5-2,25.4
		c-0.1,1.1-0.8,1.8-2,2.2l-0.1,0.1c-1.4,0.2-2.4,0.4-3.1,0.4c-2.1-0.1-3.6-0.6-4.8-1.4c-1.1-0.8-1.9-1.5-2.3-2
		c-0.4-4.3-0.7-8.6-0.9-13s-0.4-8.5-0.4-12.4c0-4.5,0.1-8.5,0.3-11.7c0.1-3.3,0.2-5.3,0.3-6.1c0-1.5,0.1-3.1,0.2-4.6
		C541.4,73,541.4,72,541.4,70.9z"/>
	<path class="st0" d="M588,104.2c-1.4,3.3-2.7,5.4-3.8,6.3s-2.1,1.4-2.9,1.4c-1,0-1.7-0.6-2.3-1.8c-0.6-1.1-1-2.5-1.2-4.2
		s-0.1-3.3,0.1-4.9c0.2-1.7,0.7-3.2,1.3-4.7s1.4-2.6,2.4-3.4c0.8-0.9,1.7-1.5,2.6-1.8c0.9-0.3,1.8-0.5,2.6-0.7
		c0.3-0.2,0.9-0.2,1.8,0c1,0.2,1.5,1,1.6,2.6c0.2,1.3,0,2.9-0.5,4.9C589,100,588.5,102.1,588,104.2z"/>
	<g>
		<polygon class="st0" points="23.9,103.9 23.9,158.8 0,158.8 0,26.3 86,26.3 86,47.3 23.9,47.3 23.9,82.9 80.7,82.9 80.7,103.9 		
			"/>
		<path class="st0" d="M448.3,124.6c0,23.5-16.2,35.8-40.6,35.8c-24.2,0-40.4-13.4-40.4-36.7v-23.3c0-23.3,16.2-36.9,40.4-36.9
			c24.4,0,40.6,12.5,40.6,36v1.6h-20.8c0-13.4-7.3-18.9-19.8-18.9c-12.3,0-19.4,6.4-19.4,19.9v19.6c0,13.5,7.1,19.9,19.4,19.9
			c12.5,0,19.8-5.3,19.8-18.7h20.8V124.6z"/>
		<path class="st0" d="M158.4,158.8v-10.9l-9.8,5.3c-8.7,4.6-15.5,6.8-24.8,6.8c-16.7,0-28-10.9-28-26.7c0-19.6,15.3-28.7,34.7-28.7
			h28v-5.5c0-12.1-7-18-19.2-18c-12.8,0-20.3,5.3-20.3,16.4H98v-1.2c0-21.2,16.7-33.1,41.1-33.1c25.6,0,40.4,12.8,40.4,35.2v60.4
			L158.4,158.8L158.4,158.8z M158.4,119.9h-24.9c-13,0-16,6.1-16,12.3c0,6.6,4.1,10.5,11.2,10.5c5.9,0,10.9-1.8,16.2-4.6l13.5-7.3
			V119.9z"/>
		<path class="st0" d="M241.6,158.8c-21.7,0-35.8-10.9-35.8-32.2V83.3h-14.3V64.9h14.3V39.5h22.1V65h26v18.3h-26v42
			c0,11,5,14.8,15.5,14.8h11.1v18.7H241.6z"/>
		<path class="st0" d="M348.5,129.2c0,19.1-16.4,31.2-41.1,31.2c-24.2,0-41.5-13.2-41.5-36.1V102c0-23.7,17.3-38.5,41.5-38.5
			c24.4,0,41.3,14.1,41.3,38.8v16.6h-62.3v4.6c0,13.4,8.9,19.2,21.2,19.2c12.1,0,20.3-4.3,20.3-14.4h20.7v0.9H348.5z M328.3,102
			c0-13.4-7.8-20.7-20.8-20.7c-13.2,0-21.2,7.3-21.2,20.8v2.3h42V102z"/>
	</g>
	<g>
		<polygon class="st0" points="160,216.9 160,184.5 149.1,184.5 149.1,178.4 178,178.4 178,184.5 167.2,184.5 167.2,216.9 		"/>
		<path class="st0" d="M195.7,216.9v-3.2l-2.8,1.6c-2.5,1.3-4.5,2-7.2,2c-4.9,0-8.1-3.2-8.1-7.8c0-5.7,4.4-8.3,10.1-8.3h8.1v-1.6
			c0-3.5-2-5.2-5.6-5.2c-3.7,0-5.9,1.6-5.9,4.8h-6.1v-0.4c0-6.2,4.9-9.6,11.9-9.6c7.4,0,11.7,3.7,11.7,10.2v17.5H195.7z
			 M195.7,205.6h-7.2c-3.8,0-4.7,1.8-4.7,3.6c0,1.9,1.2,3,3.3,3c1.7,0,3.2-0.5,4.7-1.3l3.9-2.1V205.6z"/>
		<path class="st0" d="M226,226.4v-12.5l-3.1,1.7c-2.1,1.1-4.1,1.6-6.1,1.6c-5.6,0-9.4-3.8-9.4-9.3v-9.2c0-5.5,3.8-9.5,9.5-9.5
			c1.9,0,3.9,0.5,6,1.6l3.2,1.7v-2.9h6.1v36.8L226,226.4L226,226.4z M226,198.4l-4.3-2.4c-1.1-0.6-2.4-1-3.8-1
			c-2.6,0-4.3,1.8-4.3,4.4v7.8c0,2.7,1.7,4.4,4.3,4.4c1.5,0,2.7-0.4,3.8-1.1l4.3-2.4V198.4z"/>
		<path class="st0" d="M256,216.9v-3.2l-2.9,1.7c-1.9,1.2-3.9,1.8-6.1,1.8c-5.3,0-8.6-3.6-8.6-8.8v-18.7h6.3v17.9c0,2.4,1.4,4,3.6,4
			c1.3,0,2.4-0.5,3.6-1.2l4-2.3v-18.4h6.3V217H256V216.9z"/>
		<path class="st0" d="M285.9,216.9v-3.2l-2.8,1.6c-2.5,1.3-4.5,2-7.2,2c-4.9,0-8.1-3.2-8.1-7.8c0-5.7,4.4-8.3,10.1-8.3h8.1v-1.6
			c0-3.5-2-5.2-5.6-5.2c-3.7,0-5.9,1.6-5.9,4.8h-6.1v-0.4c0-6.2,4.9-9.6,11.9-9.6c7.4,0,11.7,3.7,11.7,10.2v17.5H285.9z
			 M285.9,205.6h-7.2c-3.8,0-4.7,1.8-4.7,3.6c0,1.9,1.2,3,3.3,3c1.7,0,3.2-0.5,4.7-1.3l3.9-2.1L285.9,205.6L285.9,205.6z"/>
		<path class="st0" d="M298.2,216.9v-27.3h6.3v3.9l1.2-1.2c2-1.9,4-2.9,6.7-2.9h1.6v6.4h-1.6c-2.4,0-3.9,0.5-5.7,1.9l-2.1,1.8V217
			L298.2,216.9L298.2,216.9z"/>
		<path class="st0" d="M324.9,182.3c0,1.9-1.5,2.9-3.6,2.9c-2,0-3.6-1-3.6-2.9v-1.1c0-2,1.6-3,3.6-3c2.1,0,3.6,1,3.6,3V182.3z
			 M318.1,189.6h6.4v27.3h-6.4V189.6z"/>
		<path class="st0" d="M343.5,216.9c-6.3,0-10.4-3.2-10.4-9.4V195H329v-5.3h4.1v-7.4h6.4v7.4h7.5v5.3h-7.5v12.2
			c0,3.2,1.4,4.3,4.5,4.3h3.2v5.4H343.5z"/>
		<path class="st0" d="M359,182.3c0,1.9-1.5,2.9-3.6,2.9c-2,0-3.6-1-3.6-2.9v-1.1c0-2,1.6-3,3.6-3c2.1,0,3.6,1,3.6,3V182.3z
			 M352.2,189.6h6.4v27.3h-6.4V189.6z"/>
		<path class="st0" d="M382.7,216.9V199c0-2.1-1.1-4-3.6-4c-1.4,0-2.4,0.5-3.6,1.2l-4,2.4V217h-6.3v-27.3h6.2v3.2l2.9-1.8
			c2.1-1.3,4-1.7,6-1.8c5.3,0,8.6,3.6,8.6,8.8v18.7h-6.2V216.9z"/>
		<path class="st0" d="M400.8,207c-1.2,0-1.9,0.6-1.9,1.8c0,1.1,0.7,1.7,1.8,1.7h10.6c6.3,0,9.8,2.4,9.8,7.5c0,5.7-5.1,8.7-12.5,8.7
			c-8.4,0-12.2-3.8-12.2-10.3v-2.7c-1.7-0.8-2.7-2.3-2.7-4.9c0-2.9,1.6-4.7,3.7-5.3c0,0-2-1.6-2-5.2c0-5.8,4-8.7,10-8.7h15.8v5.3
			h-3.9c0,0,1.3,1.1,1.3,3.7c0,5.2-3.8,8.4-9.9,8.4H400.8z M407.9,202.5c3.3,0,5.2-1.2,5.2-4c0-2.7-1.7-4-4.7-4H406
			c-2.9,0-4.8,0.9-4.8,4.1c0,2.7,1.7,3.9,4.7,3.9H407.9z M401.9,215.1v1.1c0,3.7,1.6,5.8,6.5,5.8c4.3,0,6.6-1.2,6.6-3.9
			c0-2.3-1.8-3.1-4.7-3.1L401.9,215.1L401.9,215.1z"/>
		<path class="st0" d="M442.4,216.9v-3.2l-2.8,1.6c-2.5,1.3-4.5,2-7.2,2c-4.9,0-8.1-3.2-8.1-7.8c0-5.7,4.4-8.3,10.1-8.3h8.1v-1.6
			c0-3.5-2-5.2-5.6-5.2c-3.7,0-5.9,1.6-5.9,4.8h-6.1v-0.4c0-6.2,4.9-9.6,11.9-9.6c7.4,0,11.7,3.7,11.7,10.2v17.5H442.4z
			 M442.4,205.6h-7.2c-3.8,0-4.7,1.8-4.7,3.6c0,1.9,1.2,3,3.3,3c1.7,0,3.2-0.5,4.7-1.3l3.9-2.1L442.4,205.6L442.4,205.6z"/>
	</g>
</g>
</svg>
