<svg xmlns="http://www.w3.org/2000/svg" xmlns:xlink="http://www.w3.org/1999/xlink" viewBox="0 0 428.46 396.02"><defs><style>.cls-1,.cls-20,.cls-30,.cls-31,.cls-40,.cls-41,.cls-9{fill:none;}.cls-2{isolation:isolate;}.cls-3{clip-path:url(#clip-path);}.cls-4{fill:#e7e6eb;}.cls-5{fill:#ada8b3;}.cls-12,.cls-35,.cls-6{fill:#fff;}.cls-12,.cls-30,.cls-38,.cls-7{opacity:0.25;}.cls-12,.cls-25,.cls-26,.cls-29,.cls-30,.cls-35,.cls-38,.cls-7{mix-blend-mode:overlay;}.cls-8{fill:#e0e0e0;}.cls-9{stroke:#ada8b3;stroke-miterlimit:10;}.cls-20,.cls-30,.cls-31,.cls-40,.cls-41,.cls-9{stroke-width:1.05px;}.cls-10{fill:url(#linear-gradient);}.cls-11{fill:#1c1d2f;}.cls-13{fill:url(#linear-gradient-2);}.cls-14{fill:#0c0c0c;}.cls-15{fill:url(#linear-gradient-3);}.cls-16{fill:#ff5e5a;}.cls-17{fill:#ea2d2d;}.cls-18{fill:#121321;}.cls-19{fill:url(#linear-gradient-4);}.cls-20{stroke:#fff;}.cls-20,.cls-30,.cls-31,.cls-40,.cls-41{stroke-linecap:round;stroke-linejoin:round;}.cls-21{fill:#c8c4d2;}.cls-22{fill:#f2f2f3;}.cls-23{opacity:0.05;}.cls-24{fill:#f1bda7;}.cls-25,.cls-26{opacity:0.1;}.cls-27{fill:#181926;}.cls-28{fill:#272940;}.cls-29{opacity:0.45;}.cls-30,.cls-31{stroke:#000;}.cls-31,.cls-32{opacity:0.07;}.cls-33{fill:#343551;}.cls-34{fill:#151623;}.cls-35{opacity:0.68;}.cls-36{fill:#606060;}.cls-37{fill:#33374e;}.cls-39{fill:#202133;}.cls-40{stroke:#ff5e5a;}.cls-41{stroke:#00b1ff;}.cls-42{fill:#161728;}</style><clipPath id="clip-path" transform="translate(-83.82 -42.74)"><path class="cls-1" d="M506.77,257.46a23.33,23.33,0,0,1-1.57,1.73l-9.37,9.36a15.52,15.52,0,0,0,0,21.95l8.55,8.54a20.65,20.65,0,0,1,.5,28.69h0a20.66,20.66,0,0,1-28.63,1.53c-7-6.05-8.5-10.25-15.77-11.87-3.32-.74-6.79,1.29-9.38,3.87l-.85.87a8,8,0,0,0,0,11.29L470.81,354a19.6,19.6,0,1,1-27.73,27.72L415.38,354a15.18,15.18,0,0,0-21.48,0l-.16.15a15,15,0,0,0,0,21.16h0a20,20,0,0,1,0,28.31h0a20,20,0,0,1-28.32,0l-49.2-49.19a15.91,15.91,0,0,0-22.28-.22h0a15.91,15.91,0,0,0-.23,22.72l.5.5a12.82,12.82,0,0,1-.06,18.17h0a12.81,12.81,0,0,1-18.06-.06L160.62,280.08,94.7,214.16a37.16,37.16,0,0,1,52.55-52.55l15.09,15.09a8,8,0,0,0,11.29,0l6.28-6.28a8,8,0,0,0,0-11.28l-26.61-26.6a13.16,13.16,0,0,1,18.61-18.62l24.55,24.55a8,8,0,0,0,11.29,0l2.42-2.41a8,8,0,0,0,0-11.29L179.39,94a23.18,23.18,0,1,1,32.78-32.79l55.26,55.25a8,8,0,0,0,11.28,0l.94-.94a8,8,0,0,0,0-11.28l-9.08-9.09a13.89,13.89,0,1,1,19.65-19.64l59.34,59.33a8,8,0,0,0,11.29-11.29l-15.62-15.62a15.15,15.15,0,0,1,21.43-21.43L505.2,225A24.17,24.17,0,0,1,506.77,257.46Z"/></clipPath><linearGradient id="linear-gradient" x1="331.17" y1="302.19" x2="372.82" y2="295.92" gradientUnits="userSpaceOnUse"><stop offset="0" stop-color="#ffc5c1"/><stop offset="1" stop-color="#e27491"/></linearGradient><linearGradient id="linear-gradient-2" x1="429.64" y1="269.61" x2="441.39" y2="235.35" xlink:href="#linear-gradient"/><linearGradient id="linear-gradient-3" x1="422.11" y1="243.1" x2="438.24" y2="218.74" xlink:href="#linear-gradient"/><linearGradient id="linear-gradient-4" x1="403.48" y1="302.82" x2="445.13" y2="288.72" xlink:href="#linear-gradient"/></defs><g class="cls-2"><g id="Camada_1" data-name="Camada 1"><g class="cls-3"><path class="cls-4" d="M506.77,257.46a23.33,23.33,0,0,1-1.57,1.73l-9.37,9.36a15.52,15.52,0,0,0,0,21.95l8.55,8.54a20.65,20.65,0,0,1,.5,28.69h0a20.66,20.66,0,0,1-28.63,1.53c-7-6.05-8.5-10.25-15.77-11.87-3.32-.74-6.79,1.29-9.38,3.87l-.85.87a8,8,0,0,0,0,11.29L470.81,354a19.6,19.6,0,1,1-27.73,27.72L415.38,354a15.18,15.18,0,0,0-21.48,0l-.16.15a15,15,0,0,0,0,21.16h0a20,20,0,0,1,0,28.31h0a20,20,0,0,1-28.32,0l-49.2-49.19a15.91,15.91,0,0,0-22.28-.22h0a15.91,15.91,0,0,0-.23,22.72l.5.5a12.82,12.82,0,0,1-.06,18.17h0a12.81,12.81,0,0,1-18.06-.06L160.62,280.08,94.7,214.16a37.16,37.16,0,0,1,52.55-52.55l15.09,15.09a8,8,0,0,0,11.29,0l6.28-6.28a8,8,0,0,0,0-11.28l-26.61-26.6a13.16,13.16,0,0,1,18.61-18.62l24.55,24.55a8,8,0,0,0,11.29,0l2.42-2.41a8,8,0,0,0,0-11.29L179.39,94a23.18,23.18,0,1,1,32.78-32.79l55.26,55.25a8,8,0,0,0,11.28,0l.94-.94a8,8,0,0,0,0-11.28l-9.08-9.09a13.89,13.89,0,1,1,19.65-19.64l59.34,59.33a8,8,0,0,0,11.29-11.29l-15.62-15.62a15.15,15.15,0,0,1,21.43-21.43L505.2,225A24.17,24.17,0,0,1,506.77,257.46Z" transform="translate(-83.82 -42.74)"/><rect class="cls-5" x="284.44" y="125.04" width="50.47" height="70.48" rx="3.05"/><rect class="cls-6" x="281.11" y="125.04" width="50.47" height="70.48" rx="3.05"/><rect class="cls-5" x="363.29" y="186.15" width="53.75" height="33.74" transform="translate(509.36 -229.88) rotate(90)"/><polygon class="cls-7" points="323.22 133.4 323.22 135.47 291.53 135.47 291.53 187.15 289.47 187.15 289.47 133.4 323.22 133.4"/><ellipse class="cls-8" cx="305.41" cy="160.28" rx="7.36" ry="11.76"/><rect class="cls-6" x="90.63" y="137.02" width="108.87" height="139.24"/><path class="cls-8" d="M283.31,188.7V319H188.39a7.5,7.5,0,0,1,0-.82V198.45a9.75,9.75,0,0,1,9.75-9.75Z" transform="translate(-83.82 -42.74)"/><path class="cls-7" d="M168.21,202.48V319H116.35a6.72,6.72,0,0,1-6.72-6.72V195.77h51.86A6.71,6.71,0,0,1,168.21,202.48Z" transform="translate(-83.82 -42.74)"/><rect class="cls-5" x="25.82" y="137.02" width="74.58" height="139.24" rx="6.72"/><path class="cls-9" d="M306,154.07l11.74-11.74a3.07,3.07,0,0,1,4.34,0l12.36,12.36" transform="translate(-83.82 -42.74)"/><path class="cls-10" d="M359.23,297.53a17.4,17.4,0,0,0-9.63-1.76c-5.6.56-10.08,5.16-10.19,5.61s21.5,0,21.5,0l-.59-3Z" transform="translate(-83.82 -42.74)"/><path class="cls-11" d="M467.2,290.06a167.09,167.09,0,0,1-1.44,18.16s-13.65,1.3-24.88,1.26c-.33,0-.67,0-1,0-7.35-.08-13.41-.79-13.49-2.91-.19-5.4-3.18-22.83-3.18-22.83h0c-.61.53-19.89,17.15-25.35,18.68-2.21.62-7.85.58-13.86.3h-.08c-9.09-.4-19-1.33-19-1.33l-1.33-3.7c31.9-3.36,48-23.52,54.08-33.59a43.27,43.27,0,0,1,5.91-7.65,47,47,0,0,1,9.72-7.82,54,54,0,0,1,8.36,0h.08c.91.08,1.77.19,2.57.31h.06a23.9,23.9,0,0,1,8.28,2.65,8.75,8.75,0,0,1,2.31,1.73l5,7.22s.08.19.24.53a101.52,101.52,0,0,1,6.34,19.13A51,51,0,0,1,467.2,290.06Z" transform="translate(-83.82 -42.74)"/><path class="cls-7" d="M467.2,290.06a167.09,167.09,0,0,1-1.44,18.16s-13.65,1.3-24.88,1.26c-.33,0-.67,0-1,0,7.16-3.82,15.95-13.55,15.08-24.33a104,104,0,0,1,0-19.71Z" transform="translate(-83.82 -42.74)"/><path class="cls-11" d="M475.9,312.23c-4.47,1.34-29.5-2.63-39.74-11.12l-1.68-1.67-3.27-9.08,3,.62.57.11h0c7.38,1.51,24.07,5,30.94,7.08,0,0-9-17.3-10.31-27.89-.12-1-.22-1.88-.3-2.77-.17-1.71-.44-3.38-.76-5a62.87,62.87,0,0,0-3.72-11.91h.08a28,28,0,0,1,5.21,2.78,43.28,43.28,0,0,1,7.92,6.7,51.66,51.66,0,0,1,10.21,16.49,84.89,84.89,0,0,1,5,17.81C480.71,304.85,478.93,311.33,475.9,312.23Z" transform="translate(-83.82 -42.74)"/><path class="cls-7" d="M475.9,312.23c-4.47,1.34-29.5-2.63-39.74-11.12l-1.68-1.67-3.27-9.08,3,.62a24.91,24.91,0,0,0,19.3,13.42c14.34,2,23.17-.47,25.56-10C480.71,304.85,478.93,311.33,475.9,312.23Z" transform="translate(-83.82 -42.74)"/><path class="cls-12" d="M467.21,299.91c-3.66-.45-26.58-6.49-29.71-7.53a11.4,11.4,0,0,1-2.68-1.28c7.38,1.51,24.07,5,30.94,7.08,0,0-9-17.3-10.31-27.89-.12-1-.22-1.88-.3-2.77C459.36,277.67,470.3,300.29,467.21,299.91Z" transform="translate(-83.82 -42.74)"/><path class="cls-7" d="M463.88,260.14c-2.77.61-6.08,1.49-9.49,2.41-8.53,2.29-17.78,4.85-21.26,4.34-5-.75-8.84-7.21-9.54-10.45a47,47,0,0,1,9.72-7.82,54,54,0,0,1,8.36,0h.08l2.57.31h.06a26.79,26.79,0,0,1,6.27,1.68.06.06,0,0,1,.05,0h.05a17.06,17.06,0,0,1,1.91.94,8.75,8.75,0,0,1,2.31,1.73l1,.11A43.28,43.28,0,0,1,463.88,260.14Z" transform="translate(-83.82 -42.74)"/><path class="cls-11" d="M427.88,246.61s-3.25,11.26,2.09,18,25.68-10,27.86-9.86l4.26,3.59s1.78-24.3-24.76-18.42Z" transform="translate(-83.82 -42.74)"/><path class="cls-7" d="M429.61,247s1.09,12.51,3.86,14.28,21.74-12.07,24.69-11.49-3.8-12.69-20.32-8.62Z" transform="translate(-83.82 -42.74)"/><path class="cls-13" d="M442.7,253c-.67,3.19-8.21,7.07-8.56,4.53a22.73,22.73,0,0,0-1.42-5.29,25.23,25.23,0,0,0-1.87-3.72c-.3-.5-.6-1-.88-1.36a14.74,14.74,0,0,0,9.69-6c0,.2.12.4.17.6.18.62.36,1.21.55,1.78C441.73,247.63,443.19,250.65,442.7,253Z" transform="translate(-83.82 -42.74)"/><path class="cls-14" d="M420.24,238.44a2.39,2.39,0,0,0,1.51.57h-3c-2,0-3.57-2.65-3.57-5.91s1.59-5.91,3.57-5.91h3a2.43,2.43,0,0,0-1.51.56,4.81,4.81,0,0,0-1.51,2.19,9.2,9.2,0,0,0,0,6.32A4.77,4.77,0,0,0,420.24,238.44Z" transform="translate(-83.82 -42.74)"/><path class="cls-11" d="M440.35,241.07a.73.73,0,0,1-.09-.13c-.82-1.58-.69-11.45-1.5-11.12s-.58,5.2-4,2.77-2.44-7.23-3.79-6c-3.95,3.7-9.4,3.94-9.74,2.85s4.29-3,3.62-3.35-3.45,1.59-8.49,1.59a5.64,5.64,0,0,1-.82-.05c-4.78-.36-9.55-3.81-9-5.33s3.53.17,4.2-1.18c.28-.56-.88-2.23-2.19-4-1.8-2.47-3.89-5.2-3-5.78,1.27-.86,3.05,1.08,4,1.17a.43.43,0,0,0,.39-.16c.67-.84-2.1-6,0-7.39.75-.47,1.45-.2,2.24.4,1.44,1.12,3.2,3.39,6.07,4.47,3.31,1.25,10.8,1.33,14.46,1.29H433l1.72,0c1.73-1.58,9-3.16,11.85,5.22a17.53,17.53,0,0,1,.49,1.75C449.42,228.4,441.28,242.08,440.35,241.07Z" transform="translate(-83.82 -42.74)"/><path class="cls-7" d="M440.35,241.07a.73.73,0,0,1-.09-.13c-.82-1.58-.69-11.45-1.5-11.12s-.58,5.2-4,2.77-2.44-7.23-3.79-6c-3.95,3.7-9.4,3.94-9.74,2.85s4.29-3,3.62-3.35-3.45,1.59-8.49,1.59a5.64,5.64,0,0,1-.82-.05c-4.78-.36-9.55-3.81-9-5.33s3.53.17,4.2-1.18c.28-.56-.88-2.23-2.19-4A19.63,19.63,0,0,0,416,220c9.19,1.57,15.94-3.69,19.62-2.68,2.59.71,8.86,2.31,11-1a17.53,17.53,0,0,1,.49,1.75C449.42,228.4,441.28,242.08,440.35,241.07Z" transform="translate(-83.82 -42.74)"/><path class="cls-15" d="M440.26,240.94a9.84,9.84,0,0,1-.6,1.05,14.89,14.89,0,0,1-9.29,6.6,3.69,3.69,0,0,1-1.85-.29,18.62,18.62,0,0,1-5.09-3.32c-2.86-2.55-5.23-8.2-6.78-13.25-.45-1.43-.84-2.8-1.14-4.06a5.64,5.64,0,0,0,.82.05c5,0,7.82-1.94,8.49-1.59s-3.95,2.27-3.62,3.35,5.79.85,9.74-2.85c1-.93.71,1.39,1.85,3.65a6.15,6.15,0,0,0,1.94,2.31c3.45,2.43,3.18-2.44,4-2.77.48-.2.64,3.32.85,6.48A17.92,17.92,0,0,0,440.26,240.94Z" transform="translate(-83.82 -42.74)"/><path class="cls-16" d="M438,223.73s.53-11.71-10.5-12.66c6.33-.51,12.38-1.48,14.45,11.85Z" transform="translate(-83.82 -42.74)"/><path class="cls-16" d="M448.33,229.9c0,4-2,7.24-4.37,7.24a2.93,2.93,0,0,1-1.85-.69,5.7,5.7,0,0,1-1.85-2.67,11.25,11.25,0,0,1,0-7.76,5.7,5.7,0,0,1,1.85-2.67,2.93,2.93,0,0,1,1.85-.69C446.37,222.66,448.33,225.9,448.33,229.9Z" transform="translate(-83.82 -42.74)"/><path class="cls-17" d="M447.2,229.9c0,2-1,3.64-2.2,3.64a1.48,1.48,0,0,1-.93-.35,3,3,0,0,1-.92-1.34,5.61,5.61,0,0,1,0-3.9,3,3,0,0,1,.92-1.34,1.54,1.54,0,0,1,.93-.35C446.22,226.26,447.2,227.89,447.2,229.9Z" transform="translate(-83.82 -42.74)"/><path class="cls-14" d="M442.11,236.45a2.93,2.93,0,0,0,1.85.69h-3.7c-2.43,0-4.38-3.24-4.38-7.24s1.95-7.24,4.38-7.24H444a2.93,2.93,0,0,0-1.85.69,5.7,5.7,0,0,0-1.85,2.67,11.25,11.25,0,0,0,0,7.76A5.7,5.7,0,0,0,442.11,236.45Z" transform="translate(-83.82 -42.74)"/><path class="cls-18" d="M434.48,299.44c-.29,1.82-3.64,1.65-4.42,1a3.63,3.63,0,0,1-.63-1.33c-.9-2.66-2.09-8.3-1.56-9,.67-.85,3.75,0,3.75,0S434.76,297.62,434.48,299.44Z" transform="translate(-83.82 -42.74)"/><path class="cls-19" d="M429.43,299.08a60.13,60.13,0,0,1-6.73,3.64l-1.66.78-12.88-3.59s4.15-6,8.4-8.06a21.12,21.12,0,0,1,7-1.59,39.39,39.39,0,0,1,4.34-.14C427.34,290.78,428.53,296.42,429.43,299.08Z" transform="translate(-83.82 -42.74)"/><path class="cls-7" d="M422.7,302.72c2.37-5,1.42-10.26.83-12.46a39.39,39.39,0,0,1,4.34-.14c-.53.66.66,6.3,1.56,9A60.13,60.13,0,0,1,422.7,302.72Z" transform="translate(-83.82 -42.74)"/><path class="cls-7" d="M423.22,283.72h0c-.61.53-19.89,17.15-25.35,18.68-2.21.62-7.85.58-13.86.3l1.93,0c22.68-.19,33.14-30.05,36.2-31.55C421.33,275.67,423.22,283.72,423.22,283.72Z" transform="translate(-83.82 -42.74)"/><path class="cls-20" d="M438.28,263s-1,13.69,1.29,22.17" transform="translate(-83.82 -42.74)"/><path class="cls-20" d="M431.12,263s-2.34,15.59.09,24.06" transform="translate(-83.82 -42.74)"/><path class="cls-7" d="M432.79,230.28c-7.67,3.85-12.9,3.07-16.14,1.45-.45-1.43-.84-2.8-1.14-4.06a5.64,5.64,0,0,0,.82.05c5,0,7.82-1.94,8.49-1.59s-3.95,2.27-3.62,3.35,5.79.85,9.74-2.85C431.93,225.7,431.65,228,432.79,230.28Z" transform="translate(-83.82 -42.74)"/><path class="cls-7" d="M440.38,243.5c-1.29,4.47-5.21,7.32-7.66,8.71a25.23,25.23,0,0,0-1.87-3.72,15.1,15.1,0,0,0,8.81-6.5,2.46,2.46,0,0,0,.17-.27C440,242.34,440.19,242.93,440.38,243.5Z" transform="translate(-83.82 -42.74)"/><path class="cls-16" d="M427,246.3a.52.52,0,0,1-.06-1c9.34-1,12.94-9.51,13-9.59a.52.52,0,1,1,1,.39c0,.1-3.88,9.15-13.82,10.24Z" transform="translate(-83.82 -42.74)"/><path class="cls-9" d="M376.86,169.6l11.74-11.74a3.07,3.07,0,0,1,4.34,0l12.36,12.36" transform="translate(-83.82 -42.74)"/><rect class="cls-5" x="213.49" y="110.52" width="50.47" height="70.48" rx="3.05"/><rect class="cls-21" x="210.17" y="110.52" width="50.47" height="70.48" rx="3.05"/><rect class="cls-22" x="292.34" y="171.62" width="53.75" height="33.74" transform="translate(423.89 -173.46) rotate(90)"/><ellipse class="cls-8" cx="234.46" cy="145.75" rx="7.36" ry="11.76"/><polygon class="cls-23" points="252.27 118.88 252.27 120.95 220.58 120.95 220.58 172.63 218.53 172.63 218.53 118.88 252.27 118.88"/><path class="cls-24" d="M490.58,310.59v16.84a4.85,4.85,0,0,1-4.85,4.85H198.47a4.84,4.84,0,0,1-4.85-4.85V310.59a4.83,4.83,0,0,1,4.19-4.8h0a3.67,3.67,0,0,1,.66,0H485.73A4.86,4.86,0,0,1,490.58,310.59Z" transform="translate(-83.82 -42.74)"/><path class="cls-7" d="M490.58,323.87v3.56a4.85,4.85,0,0,1-4.85,4.85H198.47a4.84,4.84,0,0,1-4.85-4.85v-3.56a4.83,4.83,0,0,1,4.19-4.81h0a4.87,4.87,0,0,1,.66,0H485.73A4.86,4.86,0,0,1,490.58,323.87Z" transform="translate(-83.82 -42.74)"/><g class="cls-25"><path d="M221,332.28h-2.27A19.32,19.32,0,0,1,209.62,320a24.11,24.11,0,0,1-.08-11.33,25.23,25.23,0,0,1,.87-3h1a22.82,22.82,0,0,0-1.46,7.38,22.12,22.12,0,0,0,2.49,11.46A17.32,17.32,0,0,0,221,332.28Z" transform="translate(-83.82 -42.74)"/><path d="M248.53,328.34a13.24,13.24,0,0,1-2.36,3.94h-1.54a10.29,10.29,0,0,0,2.65-3.62,18.8,18.8,0,0,0,1.32-8.6c-.11-2.82.17-7-2.88-8.15-3.75-1.43-9.63-2.16-13.2-.05-3.89,2.3-4.54,7.69-1.89,11.17.4.53-.5,1.06-.9.52a8.85,8.85,0,0,1-.34-10.13c2.46-3.71,7.14-4.15,11.18-3.63,2.9.38,7.48.65,8.41,4A25.08,25.08,0,0,1,248.53,328.34Z" transform="translate(-83.82 -42.74)"/><path d="M304.43,311a14.76,14.76,0,0,1,1.92-5.25h1.2c-3.24,5.2-3.35,13,2.79,16.09,2.82,1.41,6.54,1.54,9-.6,2.68-2.3,3-6.14,3-9.42,0-.67,1-.67,1,0,.15,6.26-2.7,13-10,12C307,323,303.46,317.07,304.43,311Z" transform="translate(-83.82 -42.74)"/><path d="M299.34,332.28h-3.61a29,29,0,0,1-6.78-3.43c-6.81-4.74-12.24-11.13-19.26-15.69-7.77-5-16.91-8.22-26.26-6.93a.58.58,0,0,1-.65-.5H255c9.77,2.16,18.51,8.28,26,15,5.49,5,10.57,9.55,17.92,11.43Z" transform="translate(-83.82 -42.74)"/><path d="M342.76,313.52c-.78,6.68-2.81,13.63-8.46,17.78-.48.35-1,.68-1.47,1h-2.28a17.38,17.38,0,0,0,7.82-7.11,30.43,30.43,0,0,0,3.21-19.25.77.77,0,0,0-.05-.19h1A25.15,25.15,0,0,1,342.76,313.52Z" transform="translate(-83.82 -42.74)"/><path d="M294.71,317.76c-4.28.21-7.88-1.93-11-4.63a85.23,85.23,0,0,1-7.57-7.4h1.48c1.61,1.7,3.27,3.36,5,5,3.37,3.21,7.25,6.26,12.16,6C295.38,316.69,295.38,317.73,294.71,317.76Z" transform="translate(-83.82 -42.74)"/><path d="M447.9,321.34c-4,6.44-13.11,7.29-19.93,7.86a109.32,109.32,0,0,1-14.7.21c-2.53-.14-5.07-.33-7.58-.67a8.4,8.4,0,0,1-3.72-1.12c-6.35-4.52,5.49-10.16,8.56-11.3a40.05,40.05,0,0,1,12.29-2.47c2.26-.09,6.22-.52,7.9,1.5,4.25,5.09-10.9,9.3-13.56,9.74-.66.1-.94-.9-.28-1a26.93,26.93,0,0,0,11.23-4.38,8.9,8.9,0,0,0,1.36-1.09q.76-3.21-1.42-3.51a10.06,10.06,0,0,0-2.46-.21,38.17,38.17,0,0,0-6.75.38,38.93,38.93,0,0,0-11.3,3.45,15,15,0,0,0-4.84,3.21c-1.64,1.87-1.7,4.28,1,5.34a12.79,12.79,0,0,0,3,.55,107.11,107.11,0,0,0,21.26.33c6.52-.53,16-1.36,19.42-8,3.92-7.73-6.61-10.61-12-11.53a89.38,89.38,0,0,0-21.37-.69,119.47,119.47,0,0,0-63.89,24.36h-1.68a120.5,120.5,0,0,1,43.72-21.77,118.25,118.25,0,0,1,23.58-3.75c8.4-.48,17.69-.53,25.76,2.22C446.9,310.81,451.49,315.61,447.9,321.34Z" transform="translate(-83.82 -42.74)"/><path d="M394.73,316.86a15.24,15.24,0,0,0-8.55,9.31,13,13,0,0,0-.61,6.11h-1c-1.1-6.76,3.59-13.72,9.67-16.33C394.81,315.69,395.35,316.6,394.73,316.86Z" transform="translate(-83.82 -42.74)"/><path d="M471,305.73a50.42,50.42,0,0,1-7.7,18.76c-2.72,3.89-6.53,6.2-10.74,7.79H449a28.71,28.71,0,0,0,8.43-3.38c3.63-2.37,5.95-6,7.83-9.87a58.6,58.6,0,0,0,4.62-13.3Z" transform="translate(-83.82 -42.74)"/><path d="M482.42,305.73c-.84,8.25-6.54,16.06-11.5,22.23-1.19,1.49-2.44,2.93-3.73,4.32h-1.43c1-1,1.9-2,2.81-3.11,5.34-6.25,11.91-14.73,12.82-23.44Z" transform="translate(-83.82 -42.74)"/><path d="M378.7,305.73q-4.23,2.11-8.37,4.45-7,3.94-13.72,8.4c-3.68,2.45-7.26,5.45-11.88,5.66a.54.54,0,0,1-.52-.52c-.65-6.69,5.36-11.92,6.79-18h1c-.87,3.61-3.27,6.93-4.93,10.26a17.58,17.58,0,0,0-1.72,4.72c-.06.37-.43,2.12-.15,2.37.61.53,2.82-.52,3.42-.77,3.81-1.61,7.17-4.47,10.64-6.7,5.55-3.56,11.28-6.86,17.14-9.88Z" transform="translate(-83.82 -42.74)"/><path d="M277.3,332.28h-1.5c-2.05-2.11-4.14-4.19-6.32-6.18s-5-4.17-8.08-4.9a6.66,6.66,0,0,0-2.58-.24,1.65,1.65,0,0,0-1.67,1.24,1.86,1.86,0,0,0-1.06,2.8c.15,1.21.32,2.43.4,3.66a16.61,16.61,0,0,1-.14,3.62h-1.06a24.73,24.73,0,0,0-.09-6.07c-.23-1.81-1.06-4.32.76-5.59,3.94-2.76,10,1.18,13,3.63A101.88,101.88,0,0,1,277.3,332.28Z" transform="translate(-83.82 -42.74)"/><path d="M208.09,332.28H207c-1.79-4.16-5.15-7.67-7.18-11.73a23.23,23.23,0,0,1-2-14.76h0a3.67,3.67,0,0,1,.66,0h.43a23.26,23.26,0,0,0,3.78,17.61C204.61,326.27,206.8,329.09,208.09,332.28Z" transform="translate(-83.82 -42.74)"/></g><path class="cls-26" d="M350.51,310.67H200.26a2.45,2.45,0,0,1-2.45-2.45h0a2.45,2.45,0,0,1,2.45-2.44H350.51a2.45,2.45,0,0,1,2.45,2.44h0A2.45,2.45,0,0,1,350.51,310.67Z" transform="translate(-83.82 -42.74)"/><path class="cls-18" d="M363.6,297.68s-3.14-.34-3.81,0,1.12,3.69,1.12,3.69h4Z" transform="translate(-83.82 -42.74)"/><path class="cls-27" d="M490.58,342v87.06a9.72,9.72,0,0,1-9.72,9.72H203.33a9.72,9.72,0,0,1-9.71-9.72V342a9.71,9.71,0,0,1,9.71-9.71H480.86A9.72,9.72,0,0,1,490.58,342Z" transform="translate(-83.82 -42.74)"/><polygon class="cls-12" points="194.49 396.02 170.17 396.02 133.41 289.54 157.72 289.54 194.49 396.02"/><polygon class="cls-7" points="246.07 396.02 221.75 396.02 184.99 289.54 209.3 289.54 246.07 396.02"/><polygon class="cls-7" points="297.65 396.02 273.33 396.02 236.57 289.54 260.88 289.54 297.65 396.02"/><polygon class="cls-12" points="330.72 396.02 306.4 396.02 269.64 289.54 293.96 289.54 330.72 396.02"/><polygon class="cls-12" points="390.02 396.02 340.86 396.02 304.1 289.54 353.26 289.54 390.02 396.02"/><path class="cls-7" d="M490.58,342v2.42a9.71,9.71,0,0,1-9.72,9.72H203.33a9.71,9.71,0,0,1-9.71-9.72V342a9.71,9.71,0,0,1,9.71-9.71H480.86A9.72,9.72,0,0,1,490.58,342Z" transform="translate(-83.82 -42.74)"/><polygon class="cls-6" points="233.7 262.82 150.89 262.82 150.06 245.43 149.35 230.69 148.72 217.38 145.75 155.05 212.49 155.05 223.1 161.62 233.56 168.07 233.56 169.95 233.58 184.26 233.7 262.82"/><polygon class="cls-28" points="156.12 257.6 156.12 160.28 211 160.28 228.33 171 228.46 257.6 156.12 257.6"/><polygon class="cls-12" points="195.18 155.05 149.35 230.69 148.72 217.38 186.48 155.05 195.18 155.05"/><polygon class="cls-12" points="233.58 184.26 185.98 262.82 177.29 262.82 233.56 169.95 233.58 184.26"/><polygon class="cls-12" points="223.1 161.62 161.79 262.82 150.89 262.82 150.06 245.43 204.83 155.05 212.49 155.05 223.1 161.62"/><rect class="cls-5" x="114.17" y="155.05" width="37.62" height="107.77" rx="4.03"/><path class="cls-29" d="M213.91,213.19c0,5-2.48,9.07-5.54,9.07s-5.55-4.06-5.55-9.07,2.49-9.07,5.55-9.07S213.91,208.18,213.91,213.19Z" transform="translate(-83.82 -42.74)"/><rect class="cls-29" x="134.15" y="164.99" width="8.4" height="4.54"/><rect class="cls-29" x="134.15" y="171.37" width="8.4" height="4.53"/><path class="cls-29" d="M226.37,285.5h-3.86a2.27,2.27,0,0,1-2.27-2.27h0a2.27,2.27,0,0,1,2.27-2.27h3.86a2.27,2.27,0,0,1,2.27,2.27h0A2.27,2.27,0,0,1,226.37,285.5Z" transform="translate(-83.82 -42.74)"/><path class="cls-29" d="M211.18,285.5h-3.87a2.27,2.27,0,0,1-2.27-2.27h0a2.27,2.27,0,0,1,2.27-2.27h3.87a2.27,2.27,0,0,1,2.26,2.27h0A2.27,2.27,0,0,1,211.18,285.5Z" transform="translate(-83.82 -42.74)"/><path class="cls-7" d="M228,233.63H205.6a1.57,1.57,0,0,1-1.57-1.57h0a1.57,1.57,0,0,1,1.57-1.57H228a1.57,1.57,0,0,1,1.57,1.57h0A1.57,1.57,0,0,1,228,233.63Z" transform="translate(-83.82 -42.74)"/><path class="cls-7" d="M228,245H205.6a1.57,1.57,0,0,1-1.57-1.57h0a1.56,1.56,0,0,1,1.57-1.56H228a1.56,1.56,0,0,1,1.57,1.56h0A1.57,1.57,0,0,1,228,245Z" transform="translate(-83.82 -42.74)"/><path class="cls-7" d="M228,256.36H205.6a1.57,1.57,0,0,1-1.57-1.57h0a1.57,1.57,0,0,1,1.57-1.57H228a1.57,1.57,0,0,1,1.57,1.57h0A1.57,1.57,0,0,1,228,256.36Z" transform="translate(-83.82 -42.74)"/><path class="cls-7" d="M228,267.72H205.6a1.57,1.57,0,0,1-1.57-1.57h0a1.56,1.56,0,0,1,1.57-1.56H228a1.56,1.56,0,0,1,1.57,1.56h0A1.57,1.57,0,0,1,228,267.72Z" transform="translate(-83.82 -42.74)"/><circle class="cls-29" cx="129.84" cy="248.66" r="1.93"/><circle class="cls-29" cx="137.16" cy="248.66" r="1.93"/><path class="cls-29" d="M230.23,291.41a1.93,1.93,0,1,1-1.93-1.94A1.93,1.93,0,0,1,230.23,291.41Z" transform="translate(-83.82 -42.74)"/><circle class="cls-29" cx="122.33" cy="248.66" r="1.93"/><path class="cls-21" d="M250.2,160.64a.79.79,0,0,1-.57,1l-10.2,2.52a.79.79,0,0,1-1-.57l-3.79-15.33a.53.53,0,0,1,.18-.56l1.41-1.21a.56.56,0,0,0-.29-1l-1.67-.22a.56.56,0,0,1-.47-.42l-4.35-17.52c-.59-2.37,2.29-12.16,3.15-12.37.42-.09,7.88,6.62,8.57,9.46l2.44,9.83a.8.8,0,0,1-.2.74l-1.79,1.82a.79.79,0,0,0,.45,1.33l2.06.28a.8.8,0,0,1,.66.59Z" transform="translate(-83.82 -42.74)"/><line class="cls-30" x1="148.82" y1="72.18" x2="160.51" y2="118.05"/><path class="cls-6" d="M238.75,172.19a.8.8,0,0,1-1.08.24l-8.84-5.69a.78.78,0,0,1-.24-1.08l8.54-13.29a.54.54,0,0,1,.53-.25l1.85.2a.57.57,0,0,0,.52-.89l-1-1.37a.54.54,0,0,1,0-.63l9.75-15.19c1.32-2.06,10.42-6.68,11.16-6.2.35.25.59,10.28-1,12.73l-5.48,8.52a.77.77,0,0,1-.67.36l-2.56-.05a.79.79,0,0,0-.65,1.24l1.21,1.7a.8.8,0,0,1,0,.88Z" transform="translate(-83.82 -42.74)"/><line class="cls-31" x1="176.12" y1="85.3" x2="150.79" y2="125.28"/><path class="cls-6" d="M256.13,159l-2,14-.62,4.4a2.56,2.56,0,0,1-2.27,2.38h-17a2.56,2.56,0,0,1-2.28-2.38L229.34,159c-.29-1.85.81-3.59,2.28-3.59h22.23C255.32,155.4,256.43,157.14,256.13,159Z" transform="translate(-83.82 -42.74)"/><path class="cls-32" d="M254.14,173l-.62,4.4a2.56,2.56,0,0,1-2.27,2.38H236.63l-.45-3.2c-.31-1.85.8-3.58,2.28-3.58Z" transform="translate(-83.82 -42.74)"/><rect class="cls-21" x="141.74" y="110.52" width="34.37" height="9.01" rx="3.98"/><path class="cls-33" d="M386.85,208.62v74.3a3.66,3.66,0,0,1-2,3.28,3.62,3.62,0,0,1-1.65.39H263.59a3.67,3.67,0,0,1-3.67-3.67v-74.3a3.69,3.69,0,0,1,3.67-3.66H383.18A3.66,3.66,0,0,1,386.85,208.62Z" transform="translate(-83.82 -42.74)"/><path class="cls-34" d="M381.74,208.62v74.3a3.67,3.67,0,0,1-3.67,3.67H258.48a3.67,3.67,0,0,1-3.67-3.67v-74.3a3.66,3.66,0,0,1,3.67-3.66H378.07A3.67,3.67,0,0,1,381.74,208.62Z" transform="translate(-83.82 -42.74)"/><path class="cls-7" d="M372.55,220.27v66.32H258.48a3.67,3.67,0,0,1-3.67-3.67V216.61H368.89A3.66,3.66,0,0,1,372.55,220.27Z" transform="translate(-83.82 -42.74)"/><rect class="cls-7" x="221.89" y="208.24" width="9.03" height="35.61"/><path class="cls-35" d="M324.68,238.33H295.76a3.14,3.14,0,0,1-3.14-3.14h0a3.13,3.13,0,0,1,3.14-3.13h28.92a3.13,3.13,0,0,1,3.14,3.13h0A3.14,3.14,0,0,1,324.68,238.33Z" transform="translate(-83.82 -42.74)"/><path class="cls-36" d="M277,277.78h-5.53a1.37,1.37,0,0,1-1.37-1.38h0a1.37,1.37,0,0,1,1.37-1.38H277a1.38,1.38,0,0,1,1.38,1.38h0A1.38,1.38,0,0,1,277,277.78Z" transform="translate(-83.82 -42.74)"/><path class="cls-36" d="M287.87,277.78h-5.54A1.37,1.37,0,0,1,281,276.4h0a1.37,1.37,0,0,1,1.37-1.38h5.54a1.37,1.37,0,0,1,1.37,1.38h0A1.37,1.37,0,0,1,287.87,277.78Z" transform="translate(-83.82 -42.74)"/><path class="cls-36" d="M330.3,277.78h-5.54a1.37,1.37,0,0,1-1.37-1.38h0a1.37,1.37,0,0,1,1.37-1.38h5.54a1.37,1.37,0,0,1,1.37,1.38h0A1.37,1.37,0,0,1,330.3,277.78Z" transform="translate(-83.82 -42.74)"/><path class="cls-36" d="M341.16,277.78h-5.54a1.37,1.37,0,0,1-1.37-1.38h0a1.37,1.37,0,0,1,1.37-1.38h5.54a1.37,1.37,0,0,1,1.37,1.38h0A1.37,1.37,0,0,1,341.16,277.78Z" transform="translate(-83.82 -42.74)"/><path class="cls-37" d="M314.74,251a5.17,5.17,0,0,1-.47,2.16,5.24,5.24,0,0,1-4.76,3.07H297.94v41.13a5.23,5.23,0,1,1-10.45,0V251a5.23,5.23,0,0,1,5.23-5.23h16.79A5.23,5.23,0,0,1,314.74,251Z" transform="translate(-83.82 -42.74)"/><g class="cls-38"><path class="cls-6" d="M307.13,245.75a5.21,5.21,0,0,1-4.75,3.07h-6.51a5,5,0,0,0-5.05,5.06V290a5.21,5.21,0,0,1-3.33,4.86V251a5.23,5.23,0,0,1,5.23-5.23Z" transform="translate(-83.82 -42.74)"/></g><g class="cls-38"><path d="M314.27,253.14a5.24,5.24,0,0,1-4.76,3.07H297.94v41.13a5.21,5.21,0,0,1-4,5.07v-44a5.23,5.23,0,0,1,5.23-5.23Z" transform="translate(-83.82 -42.74)"/></g><path class="cls-39" d="M327.82,298.51v5.72a1.34,1.34,0,0,1-1.35,1.34H278.94a1.35,1.35,0,0,1-1.35-1.34v-5.72a1.35,1.35,0,0,1,1.35-1.34h47.53A1.34,1.34,0,0,1,327.82,298.51Z" transform="translate(-83.82 -42.74)"/><path class="cls-7" d="M327.82,301.17v3.06a1.34,1.34,0,0,1-1.35,1.34H278.94a1.35,1.35,0,0,1-1.35-1.34v-3.06a1.35,1.35,0,0,1,1.35-1.35h47.53A1.34,1.34,0,0,1,327.82,301.17Z" transform="translate(-83.82 -42.74)"/><rect class="cls-33" x="252.94" y="257.17" width="71.41" height="5.82"/><path class="cls-40" d="M392.82,302.57s-10.08-4.45-16.12,8.1,7.61,30.16-8.07,37.84-37.84-5.46-42.1-33.69-3.83-38.42,1-38.42" transform="translate(-83.82 -42.74)"/><path class="cls-40" d="M285.1,276.4s-6.41-3.25-7.8,5.66,3.66,40.27-17.38,46.75c-25.61,7.88-33.22-17.63-37.75-29s-1.68-16.42,2.52-16.59" transform="translate(-83.82 -42.74)"/><path class="cls-41" d="M274.24,276.4s-14.11-6.34-19.43,14-8.9,52.78-28.39,49.42-27.32-49.27-12.76-48.37" transform="translate(-83.82 -42.74)"/><path class="cls-7" d="M261.58,205v11.65h-6.77v-8a3.66,3.66,0,0,1,3.67-3.66Z" transform="translate(-83.82 -42.74)"/><polygon class="cls-42" points="351.8 259.67 324.21 257.17 324.21 262.99 351.8 262.99 351.8 259.67"/></g><path class="cls-27" d="M193.31,358.53h0a15.43,15.43,0,0,1-21.84,0l-42.65-42.65a15.44,15.44,0,0,1,0-21.84h0a15.44,15.44,0,0,1,21.84,0l42.65,42.65A15.43,15.43,0,0,1,193.31,358.53Z" transform="translate(-83.82 -42.74)"/><path class="cls-5" d="M237.4,402.62h0a15.44,15.44,0,0,1-21.84,0l-8.73-8.73a15.44,15.44,0,0,1,0-21.85h0a15.44,15.44,0,0,1,21.84,0l8.73,8.74A15.44,15.44,0,0,1,237.4,402.62Z" transform="translate(-83.82 -42.74)"/><path class="cls-4" d="M333.15,77.84h0a15.46,15.46,0,0,1-21.85,0l-8.73-8.73a15.44,15.44,0,0,1,0-21.84h0a15.43,15.43,0,0,1,21.84,0L333.15,56A15.44,15.44,0,0,1,333.15,77.84Z" transform="translate(-83.82 -42.74)"/><path class="cls-27" d="M498.46,178.87h0a15.46,15.46,0,0,1-21.85,0l-8.73-8.74a15.44,15.44,0,0,1,0-21.84h0a15.46,15.46,0,0,1,21.85,0l8.73,8.73A15.46,15.46,0,0,1,498.46,178.87Z" transform="translate(-83.82 -42.74)"/></g></g></svg>