<svg id="_x33_0" enable-background="new 0 0 64 64" height="512" viewBox="0 0 64 64" width="512" xmlns="http://www.w3.org/2000/svg"><g><g><g><path d="m32.23 3.54c.47-.94 1.44-1.54 2.49-1.54.81 0 1.58.36 2.11.97l.13.15-4.9 9.8-1.61-.48c-.21-.06-.41-.16-1.22-1.01-.15-.29-.23-.61-.23-.95 0-.32.07-.63.22-.91z" fill="#aab2bd"/></g><g><path d="m36.96 3.12 4.47 5.21c0 .01-.01.01-.01.02l-2.8 6.54-6.56-1.97z" fill="#ccd1d9"/></g><g><path d="m49.379 44.429h4.243v14.142h-4.243z" fill="#b27946" transform="matrix(.707 -.707 .707 .707 -21.332 51.5)"/></g><g><path d="m49 44-5 5-11.75-11.75c.77-1 1.49-2.04 2.16-3.11l1.82-2.91z" fill="#cf9e76"/></g><g><path d="m62 19.3c0 2.17-.36 4.31-1.05 6.34s-1.71 3.95-3.04 5.67c-1.86 2.43-4.23 4.35-6.91 5.66-2.19 1.08-4.59 1.76-7.07 1.96-.54.05-1.08.07-1.63.07h-2.3l1.09-2.91 1.91-5.09 2.3-.74c2.25-.72 3.88-2.68 4.17-5.02l.01-.11c.32-2.52-.91-4.97-3.11-6.21-1.39-.79-2.75-1.57-3.21-1.83l2.66-6.65c.06-.15.11-.3.14-.46l2.21 1.47c.54.36 1.18.55 1.82.55 1.2 0 2.27-.77 2.65-1.91.09-.28.14-.57.14-.86 0-.44-.1-.87-.3-1.26l-.48-.97 2-3 .56.42c4.68 3.51 7.44 9.03 7.44 14.88z" fill="#e6e9ed"/></g><g><path d="m24 19 8.76 8.76c-.83 1.4-1.75 2.73-2.77 4l-1.43 1.8-9.56-9.56z" fill="#cf9e76"/></g><g><path d="m44.64 7.32c.83.42 1.36 1.27 1.36 2.2 0 .16-.01.31-.04.46-.03.16-.08.31-.14.46l-2.66 6.65-1.12 2.8-.04-.02-4.68-1.87-.03-.01 1.33-3.1 2.8-6.54c0-.01.01-.01.01-.02.35-.81 1.16-1.33 2.04-1.33.35 0 .69.08 1 .24z" fill="#cf9e76"/></g><g><path d="m42.04 19.89-1.81 4.54c-.15.38-.38.72-.67 1.01-1.02 1.02-1.8 2.28-2.26 3.66l-.19.56c-.07.23-.17.44-.3.64l-.58.93-1.82 2.91c-.67 1.07-1.39 2.11-2.16 3.11-1.06 1.4-2.22 2.72-3.47 3.97l-2.98 2.98c-1.86 1.86-3.9 3.54-6.1 5-1.83 1.22-3.39 2.77-4.61 4.55s-2.1 3.79-2.58 5.94l-.2.93c-.18.81-.9 1.38-1.72 1.38-.38 0-.75-.12-1.06-.35l-6.49-4.87c-.65-.49-1.04-1.26-1.04-2.09 0-.45.12-.9.34-1.29l2.67-4.67c.64-1.11 1.67-1.94 2.9-2.3l3.01-.91c3.37-1.01 6.57-2.51 9.49-4.46 3.04-2.03 5.75-4.51 8.03-7.36l.12-.14 1.43-1.8c1.02-1.27 1.94-2.6 2.77-4 .81-1.34 1.52-2.74 2.14-4.19l2.39-5.58.03.01 4.68 1.87z" fill="#b27946"/></g><g><path d="m22 16 2 3-5 5-3-2 2-2 2-2z" fill="#b27946"/></g><g><path d="m12 10-2 2-1 1-.34-.5c-1.08-1.63-1.66-3.54-1.66-5.5 1.96 0 3.87.58 5.5 1.66l.5.34z" fill="#b27946"/></g><g><path d="m24 14-2 2-2 2v-8z" fill="#e6e9ed"/></g><g><path d="m13 9 3-3 4 4h-8z" fill="#e6e9ed"/></g><g><path d="m10 12v8l-4-4 3-3z" fill="#e6e9ed"/></g><g><path d="m18 20-2 2-2 2-4-4z" fill="#e6e9ed"/></g><g><path d="m20 10v8l-2 2h-8v-8l2-2z" fill="#ffeaa7"/></g><g><path d="m14 24v1.17c0 .53-.21 1.04-.59 1.42l-1.41 1.41-10-10 1.41-1.41c.38-.38.89-.59 1.42-.59h1.17l4 4z" fill="#ccd1d9"/></g><g><path d="m28 12-1.41 1.41c-.38.38-.89.59-1.42.59h-1.17l-4-4-4-4v-1.17c0-.53.21-1.04.59-1.42l1.41-1.41z" fill="#ccd1d9"/></g><g><circle cx="15" cy="15" fill="#ff826e" r="2"/></g><g><path d="m58.5 55c1.93 0 3.5 1.57 3.5 3.5 0 .96-.39 1.84-1.03 2.47-.63.64-1.51 1.03-2.47 1.03s-1.84-.39-2.47-1.03c-.64-.63-1.03-1.51-1.03-2.47v-.5l3-3z" fill="#fcd770"/></g></g><g><path d="m50.49 33.872c1.926-1.083 3.67-2.601 5.047-4.39 2.233-2.904 3.463-6.52 3.463-10.182 0-2.584-.756-5.351-2.128-7.79l-1.743.98c1.206 2.146 1.871 4.564 1.871 6.81 0 3.224-1.083 6.407-3.048 8.964-1.213 1.576-2.749 2.913-4.442 3.864z"/><path d="m15 12c-1.654 0-3 1.346-3 3s1.346 3 3 3 3-1.346 3-3-1.346-3-3-3zm0 4c-.551 0-1-.448-1-1s.449-1 1-1 1 .448 1 1-.449 1-1 1z"/><path d="m58.5 54h-.086l-9-9 1-1-4.355-4.355c4.972-.931 9.531-3.671 12.648-7.724 2.769-3.6 4.293-8.082 4.293-12.621 0-6.137-2.931-11.998-7.84-15.681l-1.406-1.053-2.908 4.361.743 1.487c.213.427.248.911.097 1.363-.243.732-.924 1.223-1.694 1.223-.451 0-.887-.132-1.263-.383l-1.733-1.152c-.022-1.297-.748-2.459-1.909-3.039l-.17-.086c-.447-.223-.946-.34-1.444-.34-.777 0-1.505.281-2.075.76l-3.806-4.44c-.72-.839-1.767-1.32-2.872-1.32-1.442 0-2.739.801-3.384 2.091l-3.016 6.031c-.209.42-.32.89-.32 1.359 0 .039.008.076.009.114l-10.009-10.009-2.121 2.121c-.567.566-.879 1.32-.879 2.121v.758l-2.133 2.133c-1.757-1.122-3.779-1.719-5.867-1.719h-1v1c0 2.088.597 4.11 1.719 5.867l-2.133 2.133h-.757c-.801 0-1.555.313-2.122.879l-2.121 2.121 11.414 11.414 2.121-2.121c.567-.566.879-1.32.879-2.121v-.758l1.127-1.127 2.235 1.491 8.833 8.833c-2.122 2.544-4.578 4.776-7.338 6.615-2.845 1.897-5.949 3.357-9.226 4.341l-3.007.901c-1.481.445-2.719 1.429-3.485 2.771l-2.665 4.663c-.309.544-.474 1.163-.474 1.791 0 1.131.54 2.211 1.445 2.891l6.485 4.863c.475.357 1.064.553 1.657.553 1.304 0 2.413-.889 2.696-2.162l.207-.93c.903-4.063 3.307-7.57 6.77-9.879 2.239-1.493 4.341-3.217 6.249-5.123l2.978-2.978c1.006-1.006 1.954-2.072 2.851-3.178l11.662 11.664 1-1 9 9v.086c0 2.481 2.019 4.5 4.5 4.5s4.5-2.019 4.5-4.5-2.019-4.5-4.5-4.5zm-12.03-42.482 1.15.764c.705.47 1.525.718 2.372.718 1.632 0 3.076-1.04 3.592-2.59.319-.959.247-1.985-.206-2.89l-.225-.448 1.09-1.635c4.238 3.317 6.757 8.472 6.757 13.863 0 4.101-1.377 8.15-3.878 11.402-3.516 4.569-9.057 7.298-14.823 7.298h-.856l2.323-6.195 1.841-.59c2.61-.837 4.516-3.136 4.856-5.856l.013-.102c.367-2.933-1.051-5.764-3.613-7.212-.913-.517-1.807-1.025-2.447-1.39zm-2.805 7.012c.616.351 1.407.8 2.213 1.255 1.853 1.048 2.879 3.099 2.613 5.225l-.013.102c-.244 1.95-1.611 3.599-3.482 4.199l-2.762.885-1.534 4.09-3.199-3.2.159-.254c.168-.27.304-.558.402-.854l.188-.563c.409-1.228 1.108-2.358 2.022-3.271.385-.385.683-.837.886-1.344zm-.192-10.53c.19 0 .382.045.549.128l.167.085c.5.25.811.753.811 1.311 0 .188-.036.371-.105.546l-3.408 8.519-2.874-1.15 3.726-8.693c.195-.453.64-.746 1.134-.746zm-6.295-3.09 3.087 3.601-2.212 5.16-4.57-1.371zm-7.068 5.107 3.016-6.031c.303-.608.915-.986 1.594-.986.368 0 .719.118 1.015.324l-4.197 8.394-.797-.239c-.436-.131-.741-.541-.741-.998 0-.16.038-.321.11-.464zm-1.265 2.552c.357.377.805.67 1.322.825l7.093 2.127-3.28 7.654c-.431 1.006-.926 1.981-1.45 2.94l-7.752-7.752-1.491-2.236 1.127-1.127h.757c.801 0 1.555-.313 2.122-.879zm.363 18.57-.736.92-8.058-8.059 3.598-3.598 7.475 7.498c-.701 1.118-1.453 2.206-2.279 3.239zm-11.622-12.139h-6.586v-6.586l1.414-1.414h6.586v6.586zm-8.586-4.586v3.172l-1.586-1.586zm12-2 1.586 1.586-1.586 1.586zm-3.707-8.293.707-.707 8.586 8.586-.707.707c-.189.189-.441.293-.708.293h-.757l-7.414-7.414v-.758c0-.263.107-.52.293-.707zm-1.293 3.293 1.586 1.586h-3.172zm-7.937.649c1.178.141 2.307.528 3.341 1.118l-2.223 2.223c-.59-1.034-.977-2.163-1.118-3.341zm4.644 17.816-.707.707-8.586-8.586.707-.707c.189-.189.441-.293.708-.293h.757l7.414 7.414v.758c0 .263-.107.52-.293.707zm1.293-3.293-1.586-1.586h3.172zm7.845-5.016.869 1.303-3.851 3.851-1.297-.875zm6.227 22.945-2.978 2.978c-1.815 1.814-3.815 3.454-5.945 4.873-3.894 2.596-6.597 6.541-7.612 11.109l-.207.93c-.113.509-.781.76-1.2.443l-6.485-4.863c-.404-.304-.645-.787-.645-1.292 0-.28.073-.557.212-.8l2.665-4.663c.511-.895 1.336-1.55 2.324-1.847l3.007-.901c3.467-1.041 6.751-2.586 9.76-4.593 3.129-2.086 5.908-4.633 8.257-7.569l1.545-1.932c2.055-2.568 3.753-5.402 5.048-8.426l2.007-4.683 2.919 1.168-1.444 3.61c-.102.254-.25.479-.443.672-1.133 1.132-1.999 2.534-2.506 4.054l-.188.564c-.049.148-.117.292-.201.426l-2.396 3.834c-1.562 2.499-3.411 4.824-5.494 6.908zm5.492-3.365c.593-.81 1.167-1.633 1.699-2.483l1.15-1.84 3.516 3.516-1.372 3.657h3.742c.417 0 .832-.014 1.246-.04l4.04 4.04-3.585 3.586zm14.436 9.264 8.586 8.586-1.586 1.586-8.586-8.586zm10.5 14.586c-1.378 0-2.5-1.121-2.5-2.5v-.086l2.414-2.414h.086c1.378 0 2.5 1.121 2.5 2.5s-1.122 2.5-2.5 2.5z"/><circle cx="25" cy="25" r="1"/><circle cx="28" cy="28" r="1"/></g></g></svg>